<svg id="Layer_1" data-name="Layer 1" xmlns="http://www.w3.org/2000/svg" xmlns:xlink="http://www.w3.org/1999/xlink" viewBox="0 0 1920 1080"><defs><style>.cls-1{fill:url(#New_Gradient_Swatch_4);}.cls-2{fill:url(#linear-gradient);}.cls-3{fill:url(#New_Gradient_Swatch_3);}.cls-4{fill:url(#New_Gradient_Swatch_4-2);}.cls-5{fill:#e933f6;}.cls-6{fill:url(#New_Gradient_Swatch_3-2);}</style><linearGradient id="New_Gradient_Swatch_4" x1="1027.47" y1="555" x2="1845.82" y2="555" gradientUnits="userSpaceOnUse"><stop offset="0" stop-color="#999"/><stop offset="1" stop-color="#333"/></linearGradient><linearGradient id="linear-gradient" x1="982.17" y1="598.83" x2="982.17" y2="667.44" gradientUnits="userSpaceOnUse"><stop offset="0" stop-color="#b8b9bb"/><stop offset="0.42" stop-color="#adaeaf"/><stop offset="0.76" stop-color="#636465"/><stop offset="1" stop-color="#676869"/></linearGradient><linearGradient id="New_Gradient_Swatch_3" x1="-11709.56" y1="7877.19" x2="-11709.56" y2="7761.74" gradientTransform="translate(-10750.81 8434.12) rotate(180)" gradientUnits="userSpaceOnUse"><stop offset="0" stop-color="#c3a964"/><stop offset="1" stop-color="#50411a"/></linearGradient><linearGradient id="New_Gradient_Swatch_4-2" x1="-10372.93" y1="6428" x2="-9554.58" y2="6428" gradientTransform="translate(-9480.99 6982.75) rotate(180)" xlink:href="#New_Gradient_Swatch_4"/><linearGradient id="New_Gradient_Swatch_3-2" x1="960" y1="364.86" x2="960" y2="475.6" gradientTransform="matrix(1, 0, 0, 1, 0, 0)" xlink:href="#New_Gradient_Swatch_3"/></defs><path class="cls-1" d="M1843.19,556.1l-813.09,1.1a2.44,2.44,0,0,1-2.63-2.2h0a2.44,2.44,0,0,1,2.63-2.2l813.09,1.1c1.45,0,2.63-.12,2.63,1.1h0C1845.82,556.21,1844.64,556.1,1843.19,556.1Z"/><path class="cls-2" d="M492.26,664.66a20,20,0,0,0,5.56-1.09,6.12,6.12,0,0,0,3-2.49,10.26,10.26,0,0,0,1.29-4.42c.16-1.83.25-4.13.25-6.92V603.61a82.27,82.27,0,0,0-8.8.39,14.36,14.36,0,0,0-6.12,2,14.12,14.12,0,0,0-4.52,5,50.18,50.18,0,0,0-3.83,9.25l-1.29-.4,1.39-19.49q4.17.21,8.25.3t8.26.1H519.1q4,0,7.86-.1t7.85-.3l1.4,19.49-1.3.4a49.49,49.49,0,0,0-3.83-9.25,14.12,14.12,0,0,0-4.52-5,14.43,14.43,0,0,0-6.21-2,86.53,86.53,0,0,0-9-.39v46.13c0,2.79.08,5.09.25,6.92a10,10,0,0,0,1.29,4.42,6.05,6.05,0,0,0,3.13,2.49,21.73,21.73,0,0,0,5.77,1.09v1.19q-3.78-.2-7.56-.3t-7.56-.09q-3.68,0-7.25.09t-7.16.3Z"/><path class="cls-2" d="M667.36,665.46h-17.9a175.2,175.2,0,0,1-11.58-14.08,114,114,0,0,1-9.5-15.26,19.1,19.1,0,0,1-2.53-.2c-1-.13-2.09-.28-3.19-.44s-2.15-.37-3.18-.6-1.87-.45-2.53-.65v15.51c0,2.79.08,5.09.25,6.92a10,10,0,0,0,1.29,4.42,6.05,6.05,0,0,0,3.13,2.49,21.73,21.73,0,0,0,5.77,1.09v1.19q-3.78-.2-7.56-.3t-7.56-.09q-3.67,0-7.26.09c-2.38.07-4.77.17-7.15.3v-1.19a20,20,0,0,0,5.56-1.09,6.12,6.12,0,0,0,3-2.49,10.26,10.26,0,0,0,1.29-4.42c.16-1.83.25-4.13.25-6.92V616.53c0-2.78-.09-5.08-.25-6.91a10.26,10.26,0,0,0-1.29-4.42,6.12,6.12,0,0,0-3-2.49,20,20,0,0,0-5.56-1.09v-1.2q3.18.21,6.36.3t6.36.1q1.39,0,3.48-.15c1.4-.1,2.87-.21,4.43-.34s3.13-.25,4.72-.35,3-.15,4.28-.15a36.77,36.77,0,0,1,8.75,1.09,25.23,25.23,0,0,1,8,3.48,19.77,19.77,0,0,1,5.87,6.07,16.27,16.27,0,0,1,2.28,8.75,14.48,14.48,0,0,1-1.24,6.16,15.35,15.35,0,0,1-3.33,4.68,17.77,17.77,0,0,1-4.92,3.28,26.37,26.37,0,0,1-5.92,1.89q1.4,2.38,3.28,5.37c1.26,2,2.67,4,4.23,6.06s3.21,4.1,5,6.12a48.63,48.63,0,0,0,5.57,5.47,35.23,35.23,0,0,0,6,4.07,16.42,16.42,0,0,0,6.26,1.94ZM617,630.85a25.84,25.84,0,0,0,9.24,1.69q7.75,0,12-3.58t4.27-11.63a13.7,13.7,0,0,0-1.24-5.92,14.1,14.1,0,0,0-3.43-4.57,15.58,15.58,0,0,0-5-3,16.94,16.94,0,0,0-5.92-1.05c-1.66,0-3.28.07-4.87.2a22,22,0,0,0-4.68.9q-.2,4.77-.29,9.64t-.1,10.54Z"/><path class="cls-2" d="M721.35,664.66a20.12,20.12,0,0,0,5.57-1.09,6.1,6.1,0,0,0,3-2.49,10.13,10.13,0,0,0,1.3-4.42c.16-1.83.24-4.13.24-6.92V616.53q0-4.17-.24-6.91a10.13,10.13,0,0,0-1.3-4.42,6.05,6.05,0,0,0-3.13-2.49,21.46,21.46,0,0,0-5.67-1.09v-1.2q4.19.21,8.11.3c2.61.07,5.32.1,8.1.1q3.28,0,6.56-.1c2.19-.06,4.34-.16,6.47-.3v1.2a19.69,19.69,0,0,0-5.47,1.09,5.88,5.88,0,0,0-3,2.49,10.72,10.72,0,0,0-1.24,4.42c-.16,1.83-.25,4.13-.25,6.91v33.21c0,2.79.09,5.09.25,6.92a10.26,10.26,0,0,0,1.29,4.42,6.08,6.08,0,0,0,3.14,2.49,21.73,21.73,0,0,0,5.76,1.09v1.19q-3.78-.2-7.55-.3t-7.56-.09q-3.67,0-7.26.09c-2.39.07-4.77.17-7.16.3Z"/><path class="cls-2" d="M841.47,665.85q-3.78-.2-7.51-.3t-7.51-.09q-3.68,0-7.31.09t-7.5.3v-1.19a22.42,22.42,0,0,0,5.81-1.09,6,6,0,0,0,3.18-2.49,10.13,10.13,0,0,0,1.3-4.42c.16-1.83.25-4.13.25-6.92V616.53c0-2.78-.09-5.08-.25-6.91a10.13,10.13,0,0,0-1.3-4.42,6,6,0,0,0-3.13-2.49,21.46,21.46,0,0,0-5.66-1.09v-1.2q3.27.21,6.56.3c2.19.07,4.37.1,6.56.1a88.28,88.28,0,0,0,9.4-.49,85.53,85.53,0,0,1,9.39-.5,24.45,24.45,0,0,1,7.71,1.34,26.23,26.23,0,0,1,7.41,3.88,21,21,0,0,1,5.52,6.16,15.93,15.93,0,0,1,2.13,8.21,14.26,14.26,0,0,1-2.18,8.05,17.62,17.62,0,0,1-5.52,5.32,23.68,23.68,0,0,1-7.41,2.93,36.86,36.86,0,0,1-7.95.9,57.3,57.3,0,0,1-6.17-.35,25.81,25.81,0,0,1-6.16-1.44v14.91c0,2.79.08,5.09.25,6.92a10,10,0,0,0,1.29,4.42,6.05,6.05,0,0,0,3.13,2.49,21.46,21.46,0,0,0,5.67,1.09Zm-10.34-34.6a16.28,16.28,0,0,0,4.92,1.74,29.18,29.18,0,0,0,5.12.45,18.52,18.52,0,0,0,5.91-1,15,15,0,0,0,4.93-2.68,12.71,12.71,0,0,0,3.33-4.33,13.34,13.34,0,0,0,1.24-5.86,19.2,19.2,0,0,0-1.24-7.06,15.43,15.43,0,0,0-3.43-5.37,15,15,0,0,0-5.22-3.38,17.87,17.87,0,0,0-6.62-1.2c-1.19,0-2.6.09-4.22.25a15.91,15.91,0,0,0-4.72,1.24Z"/><path class="cls-2" d="M1045.8,600.42c2.79.14,5.5.24,8.16.3s5.37.1,8.15.1q3.89,0,7.81-.1t7.8-.3v1.2c-.79.13-1.67.33-2.63.59a12.34,12.34,0,0,0-2.69,1.1,6.2,6.2,0,0,0-2,1.79,4.43,4.43,0,0,0-.79,2.68,6.34,6.34,0,0,0,1,2.89q1,1.79,3,4.47l14.13,19.09,11.73-18.39a14.87,14.87,0,0,0,2.58-7.66,5.44,5.44,0,0,0-2.38-4.62,10,10,0,0,0-5.37-1.94v-1.2c2.32.14,4.65.24,7,.3s4.69.1,7,.1q3.18,0,6.31-.1c2.09-.06,4.19-.16,6.32-.3v1.2a17.52,17.52,0,0,0-6.37,2.53,29.48,29.48,0,0,0-5,4.18,37.44,37.44,0,0,0-4,4.92c-1.16,1.73-2.23,3.28-3.23,4.68l-13.62,19.88v14.62a23.69,23.69,0,0,0,.6,5.92,7.44,7.44,0,0,0,1.93,3.53,8,8,0,0,0,3.63,1.88,35.33,35.33,0,0,0,5.77.9v1.19q-4.47-.2-8.85-.3t-8.85-.09q-3.67,0-7.36.09t-7.35.3v-1.19a33.47,33.47,0,0,0,5.51-.9,8,8,0,0,0,3.59-1.88,7.14,7.14,0,0,0,1.88-3.53,25.57,25.57,0,0,0,.55-5.92V636.82l-18-23.07q-1.39-1.79-2.88-3.63a29.45,29.45,0,0,0-3.33-3.48,24.12,24.12,0,0,0-4.23-3,19.77,19.77,0,0,0-5.57-2Z"/><path class="cls-2" d="M1238,623.1a38.35,38.35,0,0,0-3.43-8.26,28.26,28.26,0,0,0-5.07-6.56,21.11,21.11,0,0,0-6.76-4.32,22.85,22.85,0,0,0-8.61-1.55,21.11,21.11,0,0,0-10.43,2.39,20.11,20.11,0,0,0-7,6.46,27.93,27.93,0,0,0-4,9.45,50.05,50.05,0,0,0-1.25,11.33,40.24,40.24,0,0,0,1.59,11.39,28.7,28.7,0,0,0,4.73,9.5,23,23,0,0,0,7.85,6.51,23.49,23.49,0,0,0,10.89,2.44,27.18,27.18,0,0,0,16-4.68,44.39,44.39,0,0,0,11.88-12.73l2.49,2a86.9,86.9,0,0,1-6.76,8.95,38,38,0,0,1-7.36,6.56,31.48,31.48,0,0,1-8.65,4.08,36.86,36.86,0,0,1-10.54,1.39,32.32,32.32,0,0,1-23.07-9.59,33.63,33.63,0,0,1-7.11-10.84,37.76,37.76,0,0,1,0-27.74,33.63,33.63,0,0,1,7.11-10.84,32.38,32.38,0,0,1,23.07-9.6,49.09,49.09,0,0,1,6.86.45q3.18.45,6.12,1t5.66,1a39.07,39.07,0,0,0,5.42.6c0,1.39.05,3,.15,4.87s.25,3.76.45,5.72.4,3.88.59,5.76.4,3.53.6,4.93Z"/><path class="cls-2" d="M1356.73,616.53q0-4.17-.24-6.91a10.13,10.13,0,0,0-1.3-4.42,6.05,6.05,0,0,0-3.13-2.49,21.46,21.46,0,0,0-5.67-1.09v-1.2q4.18.21,8.11.3t8.1.1q3.29,0,6.56-.1c2.19-.06,4.34-.16,6.47-.3v1.2a19.69,19.69,0,0,0-5.47,1.09,5.88,5.88,0,0,0-3,2.49,10.72,10.72,0,0,0-1.24,4.42c-.16,1.83-.25,4.13-.25,6.91v33.21c0,2.79.09,5.09.25,6.92a10.26,10.26,0,0,0,1.29,4.42,6.08,6.08,0,0,0,3.14,2.49,21.73,21.73,0,0,0,5.76,1.09v1.19c-2.52-.13-5-.23-7.55-.3s-5-.09-7.56-.09-4.87,0-7.26.09-4.77.17-7.16.3v-1.19a20.12,20.12,0,0,0,5.57-1.09,6.05,6.05,0,0,0,3-2.49,10.13,10.13,0,0,0,1.3-4.42c.16-1.83.24-4.13.24-6.92V631.85h-36.89v17.89c0,2.79.09,5.09.25,6.92a10.26,10.26,0,0,0,1.29,4.42,6.08,6.08,0,0,0,3.14,2.49,21.73,21.73,0,0,0,5.77,1.09v1.19c-2.53-.13-5-.23-7.56-.3s-5-.09-7.56-.09-4.87,0-7.26.09-4.77.17-7.16.3v-1.19a20.12,20.12,0,0,0,5.57-1.09,6.05,6.05,0,0,0,3-2.49,10.13,10.13,0,0,0,1.3-4.42c.16-1.83.24-4.13.24-6.92V616.53q0-4.17-.24-6.91a10.13,10.13,0,0,0-1.3-4.42,6.05,6.05,0,0,0-3.13-2.49,21.46,21.46,0,0,0-5.67-1.09v-1.2q4.18.21,8.11.3t8.1.1q3.29,0,6.56-.1c2.19-.06,4.34-.16,6.47-.3v1.2a19.77,19.77,0,0,0-5.47,1.09,5.81,5.81,0,0,0-3,2.49,10.56,10.56,0,0,0-1.25,4.42c-.16,1.83-.25,4.13-.25,6.91v12.13h36.89Z"/><path class="cls-2" d="M1481.92,619.32a37.34,37.34,0,0,0-3.33-6.32,28.82,28.82,0,0,0-4.72-5.57,22.93,22.93,0,0,0-6-3.92,17,17,0,0,0-7.16-1.49,18.44,18.44,0,0,0-9.29,2.08c-2.43,1.4-3.63,3.88-3.63,7.46a9.33,9.33,0,0,0,1.64,5.52,15.92,15.92,0,0,0,4.37,4.13,41,41,0,0,0,6.21,3.28l7.12,3q3.61,1.54,7.11,3.33a28.63,28.63,0,0,1,6.21,4.28,19.82,19.82,0,0,1,4.38,5.76,17.47,17.47,0,0,1,1.64,7.86,18.39,18.39,0,0,1-1.79,8.4,16.55,16.55,0,0,1-4.83,5.82,20.38,20.38,0,0,1-7.06,3.38,32.63,32.63,0,0,1-8.6,1.09,30.25,30.25,0,0,1-5.17-.46q-2.68-.47-5.17-1l-4.52-1a16.09,16.09,0,0,0-3.24-.46,6.26,6.26,0,0,0-2.08.35l-2.09.74q-.9-5.64-2.09-11t-2.48-11l1.29-.7A72.35,72.35,0,0,0,1443,650a44.18,44.18,0,0,0,5.72,6.88,31.14,31.14,0,0,0,7,5.19,17.07,17.07,0,0,0,8.3,2.08,23.72,23.72,0,0,0,5.57-.64,14,14,0,0,0,4.72-2,10,10,0,0,0,3.24-3.62,11.66,11.66,0,0,0,1.19-5.51,11.09,11.09,0,0,0-2.88-7.8,28,28,0,0,0-7.16-5.46,85.47,85.47,0,0,0-9.3-4.32,69.08,69.08,0,0,1-9.3-4.46,27.63,27.63,0,0,1-7.16-5.86,12.7,12.7,0,0,1-2.88-8.54,16.28,16.28,0,0,1,5.52-12.46,17.71,17.71,0,0,1,5.87-3.42,20.76,20.76,0,0,1,7.1-1.2,40,40,0,0,1,6.62.5c1.95.33,3.86.7,5.71,1.09s3.82.79,5.67,1.15a31.38,31.38,0,0,0,6,.55q0,4.47.15,8.7c.1,2.81.31,5.65.64,8.5Z"/><path class="cls-3" d="M984.8,559A35.12,35.12,0,0,0,975,561a10.74,10.74,0,0,0-5.35,4.38,17.8,17.8,0,0,0-2.28,7.81q-.44,4.83-.44,12.19v81.41a142.25,142.25,0,0,0,15.53-.7,25,25,0,0,0,10.78-3.6,24.67,24.67,0,0,0,8-8.86,87.4,87.4,0,0,0,6.75-16.31l2.28.7-2.45,34.39q-7.37-.36-14.57-.53t-14.56-.17H937.43q-7,0-13.86.17t-13.86.53L907.25,638l2.29-.7a87.4,87.4,0,0,0,6.75,16.31,24.74,24.74,0,0,0,8,8.86,25.42,25.42,0,0,0,11,3.6,149.17,149.17,0,0,0,15.88.7V585.35q0-7.36-.44-12.19a17.94,17.94,0,0,0-2.28-7.81,10.69,10.69,0,0,0-5.53-4.38A38.14,38.14,0,0,0,932.69,559v-2.11q6.67.36,13.34.53t13.33.17q6.5,0,12.81-.17t12.63-.53Z"/><path class="cls-4" d="M76.22,553.65l813.09-1.1a2.45,2.45,0,0,1,2.64,2.2h0a2.45,2.45,0,0,1-2.64,2.2l-813.09-1.1c-1.45,0-2.63.12-2.63-1.1h0C73.59,553.54,74.77,553.65,76.22,553.65Z"/><path class="cls-5" d="M878.12,472.6a27.48,27.48,0,0,0,8.4-1.83,9.53,9.53,0,0,0,4.58-4.17,18.37,18.37,0,0,0,1.95-7.42q.38-4.59.38-11.6v-55.7q0-7-.38-11.59a18.47,18.47,0,0,0-1.95-7.43,9.47,9.47,0,0,0-4.73-4.16,29.31,29.31,0,0,0-8.55-1.84v-2q6.3.33,12.23.5t12.23.17q5,0,9.91-.17c3.3-.11,6.56-.28,9.76-.5v2a27.06,27.06,0,0,0-8.26,1.84,9.17,9.17,0,0,0-4.5,4.16,19.38,19.38,0,0,0-1.88,7.43q-.37,4.59-.37,11.59v55.7q0,7,.37,11.6a18.37,18.37,0,0,0,2,7.42,9.49,9.49,0,0,0,4.73,4.17,29.83,29.83,0,0,0,8.71,1.83v2q-5.72-.33-11.41-.5c-3.8-.11-7.61-.16-11.41-.16s-7.35.05-11,.16-7.2.28-10.8.5Z"/><path class="cls-5" d="M931.85,364.86q5.26.33,10.36.5t10.36.17q6.3,0,12.31-.17t12-.5v2c-1.41.22-2.91.5-4.51.83a18,18,0,0,0-4.5,1.59,9.79,9.79,0,0,0-3.45,2.92,8.26,8.26,0,0,0-1.35,5q0,3,4.35,15L991,455.59l19.51-51.2q7.5-20.17,7.51-27.52a9,9,0,0,0-1.06-4.51,8,8,0,0,0-2.85-2.91,15.21,15.21,0,0,0-4-1.67,38.5,38.5,0,0,0-4.42-.92v-2c3.4.22,6.77.39,10.13.5s6.68.17,10,.17c2.8,0,5.56-.06,8.26-.17s5.4-.28,8.1-.5v2a16.18,16.18,0,0,0-8.85,3.84,29.24,29.24,0,0,0-6.16,7.67,63.76,63.76,0,0,0-4.43,9.67q-1.87,5.18-3.67,9.68L987.84,475.6h-3.3l-35-91.39a40.94,40.94,0,0,0-6.68-11.93,15.68,15.68,0,0,0-11-5.42Z"/><path class="cls-6" d="M878.12,472.6a27.48,27.48,0,0,0,8.4-1.83,9.53,9.53,0,0,0,4.58-4.17,18.37,18.37,0,0,0,1.95-7.42q.38-4.59.38-11.6v-55.7q0-7-.38-11.59a18.47,18.47,0,0,0-1.95-7.43,9.47,9.47,0,0,0-4.73-4.16,29.31,29.31,0,0,0-8.55-1.84v-2q6.3.33,12.23.5t12.23.17q5,0,9.91-.17c3.3-.11,6.56-.28,9.76-.5v2a27.06,27.06,0,0,0-8.26,1.84,9.17,9.17,0,0,0-4.5,4.16,19.38,19.38,0,0,0-1.88,7.43q-.37,4.59-.37,11.59v55.7q0,7,.37,11.6a18.37,18.37,0,0,0,2,7.42,9.49,9.49,0,0,0,4.73,4.17,29.83,29.83,0,0,0,8.71,1.83v2q-5.72-.33-11.41-.5c-3.8-.11-7.61-.16-11.41-.16s-7.35.05-11,.16-7.2.28-10.8.5Z"/><path class="cls-6" d="M931.85,364.86q5.26.33,10.36.5t10.36.17q6.3,0,12.31-.17t12-.5v2c-1.41.22-2.91.5-4.51.83a18,18,0,0,0-4.5,1.59,9.79,9.79,0,0,0-3.45,2.92,8.26,8.26,0,0,0-1.35,5q0,3,4.35,15L991,455.59l19.51-51.2q7.5-20.17,7.51-27.52a9,9,0,0,0-1.06-4.51,8,8,0,0,0-2.85-2.91,15.21,15.21,0,0,0-4-1.67,38.5,38.5,0,0,0-4.42-.92v-2c3.4.22,6.77.39,10.13.5s6.68.17,10,.17c2.8,0,5.56-.06,8.26-.17s5.4-.28,8.1-.5v2a16.18,16.18,0,0,0-8.85,3.84,29.24,29.24,0,0,0-6.16,7.67,63.76,63.76,0,0,0-4.43,9.67q-1.87,5.18-3.67,9.68L987.84,475.6h-3.3l-35-91.39a40.94,40.94,0,0,0-6.68-11.93,15.68,15.68,0,0,0-11-5.42Z"/></svg>