<svg xmlns="http://www.w3.org/2000/svg" xmlns:xlink="http://www.w3.org/1999/xlink" viewBox="74.3690185546875 361.7999572753906 1772.191162109375 308.2000427246094"><defs><style>.cls-1{fill:url(#New_Gradient_Swatch_4);}.cls-2{fill:url(#linear-gradient);}.cls-3{fill:url(#New_Gradient_Swatch_3);}.cls-4{fill:url(#New_Gradient_Swatch_4-2);}.cls-5{fill:#e933f6;}.cls-6{fill:url(#New_Gradient_Swatch_3-2);}</style><linearGradient id="New_Gradient_Swatch_4" x1="1027.63" y1="551.28" x2="1845.98" y2="551.28" gradientUnits="userSpaceOnUse"><stop offset="0" stop-color="#999"/><stop offset="1" stop-color="#333"/></linearGradient><linearGradient id="linear-gradient" x1="982.33" y1="595.12" x2="982.33" y2="663.73" gradientUnits="userSpaceOnUse"><stop offset="0" stop-color="#b8b9bb"/><stop offset="0.42" stop-color="#adaeaf"/><stop offset="0.76" stop-color="#636465"/><stop offset="1" stop-color="#676869"/></linearGradient><linearGradient id="New_Gradient_Swatch_3" x1="958.91" y1="553.22" x2="958.91" y2="668.67" gradientUnits="userSpaceOnUse"><stop offset="0" stop-color="#c3a964"/><stop offset="1" stop-color="#50411a"/></linearGradient><linearGradient id="New_Gradient_Swatch_4-2" x1="-6473.09" y1="1987.71" x2="-5654.74" y2="1987.71" gradientTransform="translate(-5580.99 2538.75) rotate(180)" xlink:href="#New_Gradient_Swatch_4"/><linearGradient id="New_Gradient_Swatch_3-2" x1="960" y1="359.19" x2="960" y2="468.94" xlink:href="#New_Gradient_Swatch_3"/></defs><g id="Layer_3" data-name="Layer 3"><path class="cls-1" d="M1843.35,552.38l-813.09,1.1a2.44,2.44,0,0,1-2.63-2.2h0a2.44,2.44,0,0,1,2.63-2.2l813.09,1.1c1.45,0,2.63-.11,2.63,1.1h0C1846,552.5,1844.8,552.38,1843.35,552.38Z"/><path class="cls-2" d="M492.42,661a20,20,0,0,0,5.56-1.1,6.1,6.1,0,0,0,3-2.48,10.27,10.27,0,0,0,1.29-4.43c.16-1.82.25-4.12.25-6.91V599.89a81.94,81.94,0,0,0-8.8.4,14.36,14.36,0,0,0-6.12,2,14,14,0,0,0-4.52,5,50.18,50.18,0,0,0-3.83,9.25l-1.29-.4,1.39-19.49c2.78.14,5.53.23,8.25.3s5.47.1,8.25.1h23.37q4,0,7.86-.1c2.58-.07,5.2-.16,7.85-.3l1.4,19.49-1.3.4a49.49,49.49,0,0,0-3.83-9.25,14,14,0,0,0-4.52-5,14.48,14.48,0,0,0-6.21-2,86.32,86.32,0,0,0-9-.4V646q0,4.19.24,6.91a10.13,10.13,0,0,0,1.3,4.43,6,6,0,0,0,3.13,2.48A21.68,21.68,0,0,0,522,661v1.19q-3.78-.2-7.56-.3t-7.56-.1q-3.68,0-7.26.1c-2.38.07-4.77.17-7.15.3Z"/><path class="cls-2" d="M667.52,661.74h-17.9A171.27,171.27,0,0,1,638,647.67a113,113,0,0,1-9.5-15.26,21.27,21.27,0,0,1-2.54-.2q-1.53-.19-3.18-.45c-1.09-.16-2.15-.36-3.18-.59s-1.87-.45-2.53-.65V646q0,4.19.24,6.91a10.13,10.13,0,0,0,1.3,4.43,6,6,0,0,0,3.13,2.48,21.68,21.68,0,0,0,5.77,1.1v1.19q-3.78-.2-7.56-.3t-7.56-.1q-3.67,0-7.26.1t-7.16.3V661a20,20,0,0,0,5.57-1.1,6.1,6.1,0,0,0,3-2.48,10.27,10.27,0,0,0,1.29-4.43c.16-1.82.25-4.12.25-6.91V612.82c0-2.78-.09-5.09-.25-6.91a10.31,10.31,0,0,0-1.29-4.43,6.16,6.16,0,0,0-3-2.48,19.68,19.68,0,0,0-5.57-1.09v-1.2c2.12.14,4.25.23,6.37.3s4.24.1,6.36.1q1.39,0,3.48-.15c1.39-.1,2.87-.21,4.43-.35s3.13-.25,4.72-.35,3-.14,4.28-.14a36.77,36.77,0,0,1,8.75,1.09,25.23,25.23,0,0,1,8.05,3.48,19.74,19.74,0,0,1,5.87,6.06,16.3,16.3,0,0,1,2.28,8.75,14.49,14.49,0,0,1-1.24,6.17,15.18,15.18,0,0,1-3.33,4.67,17.56,17.56,0,0,1-4.92,3.28,25.39,25.39,0,0,1-5.92,1.89c.93,1.6,2,3.38,3.28,5.37s2.67,4,4.23,6.07,3.21,4.09,5,6.11a47,47,0,0,0,5.57,5.47,35,35,0,0,0,6,4.08,16.7,16.7,0,0,0,6.27,1.94Zm-50.41-34.6a25.84,25.84,0,0,0,9.24,1.69q7.75,0,12-3.58t4.28-11.63a13.7,13.7,0,0,0-1.24-5.92,14.13,14.13,0,0,0-3.43-4.57,15.66,15.66,0,0,0-5-3,17.06,17.06,0,0,0-5.91-1c-1.66,0-3.28.07-4.87.2a22.62,22.62,0,0,0-4.68.89q-.19,4.77-.29,9.65t-.1,10.54Z"/><path class="cls-2" d="M721.51,661a20.07,20.07,0,0,0,5.57-1.1,6.08,6.08,0,0,0,3-2.48,10,10,0,0,0,1.29-4.43q.26-2.73.25-6.91V612.82c0-2.78-.08-5.09-.25-6.91a10,10,0,0,0-1.29-4.43A6.09,6.09,0,0,0,727,599a21.06,21.06,0,0,0-5.67-1.09v-1.2c2.79.14,5.49.23,8.11.3s5.32.1,8.1.1c2.19,0,4.37,0,6.56-.1s4.34-.16,6.46-.3v1.2a19.33,19.33,0,0,0-5.46,1.09,5.91,5.91,0,0,0-3,2.48,10.77,10.77,0,0,0-1.24,4.43c-.17,1.82-.25,4.13-.25,6.91V646q0,4.19.25,6.91a10.27,10.27,0,0,0,1.29,4.43,6.06,6.06,0,0,0,3.14,2.48A21.68,21.68,0,0,0,751,661v1.19q-3.78-.2-7.55-.3c-2.53-.07-5-.1-7.56-.1s-4.87,0-7.26.1-4.77.17-7.16.3Z"/><path class="cls-2" d="M841.63,662.14c-2.52-.13-5-.23-7.51-.3s-5-.1-7.51-.1-4.89,0-7.31.1-4.92.17-7.5.3V661a22.37,22.37,0,0,0,5.81-1.1,6,6,0,0,0,3.18-2.48,10.13,10.13,0,0,0,1.3-4.43c.16-1.82.25-4.12.25-6.91V612.82c0-2.78-.09-5.09-.25-6.91a10.17,10.17,0,0,0-1.3-4.43,6.09,6.09,0,0,0-3.13-2.48,21.06,21.06,0,0,0-5.67-1.09v-1.2c2.19.14,4.38.23,6.57.3s4.37.1,6.56.1a88.41,88.41,0,0,0,9.4-.5,88.09,88.09,0,0,1,9.39-.49,24.22,24.22,0,0,1,7.71,1.34,26,26,0,0,1,7.41,3.88,21,21,0,0,1,5.52,6.16,15.91,15.91,0,0,1,2.13,8.2,14.27,14.27,0,0,1-2.18,8.06,17.62,17.62,0,0,1-5.52,5.32,23.68,23.68,0,0,1-7.41,2.93,36.86,36.86,0,0,1-8,.9,57.3,57.3,0,0,1-6.17-.35,25.81,25.81,0,0,1-6.16-1.44V646q0,4.19.24,6.91a10.13,10.13,0,0,0,1.3,4.43,6,6,0,0,0,3.13,2.48,21.41,21.41,0,0,0,5.67,1.1Zm-10.34-34.6a16.28,16.28,0,0,0,4.92,1.74,29.17,29.17,0,0,0,5.12.44,18.52,18.52,0,0,0,5.91-.94,15,15,0,0,0,4.93-2.69,12.67,12.67,0,0,0,3.33-4.32,13.35,13.35,0,0,0,1.24-5.87,19.24,19.24,0,0,0-1.24-7.06,15.57,15.57,0,0,0-3.43-5.37,15.32,15.32,0,0,0-5.22-3.38,18.07,18.07,0,0,0-6.62-1.19,41.07,41.07,0,0,0-4.22.25,15.61,15.61,0,0,0-4.72,1.24Z"/><path class="cls-2" d="M1046,596.71c2.79.14,5.5.23,8.16.3s5.37.1,8.15.1q3.88,0,7.81-.1c2.61-.07,5.22-.16,7.8-.3v1.2c-.79.13-1.67.33-2.63.59a12.06,12.06,0,0,0-2.69,1.1,6.2,6.2,0,0,0-2,1.79,4.43,4.43,0,0,0-.79,2.68,6.27,6.27,0,0,0,1,2.88,52.59,52.59,0,0,0,3,4.48l14.12,19.09,11.74-18.4a14.81,14.81,0,0,0,2.58-7.65,5.46,5.46,0,0,0-2.38-4.63,10.12,10.12,0,0,0-5.37-1.93v-1.2c2.32.14,4.65.23,7,.3s4.69.1,7,.1q3.18,0,6.31-.1c2.09-.07,4.19-.16,6.31-.3v1.2a17.37,17.37,0,0,0-6.36,2.53,29.1,29.1,0,0,0-5,4.18,37.44,37.44,0,0,0-4,4.92c-1.16,1.72-2.23,3.28-3.23,4.67l-13.62,19.89v14.62a23.55,23.55,0,0,0,.6,5.91,7.33,7.33,0,0,0,1.94,3.53,8,8,0,0,0,3.62,1.89,35.33,35.33,0,0,0,5.77.9v1.19q-4.47-.2-8.85-.3t-8.85-.1c-2.45,0-4.91,0-7.36.1s-4.9.17-7.35.3V661a33.47,33.47,0,0,0,5.51-.9,8,8,0,0,0,3.58-1.89,7,7,0,0,0,1.89-3.53,25.42,25.42,0,0,0,.55-5.91V633.11L1062,610q-1.4-1.8-2.88-3.63a30.28,30.28,0,0,0-3.33-3.48,24.15,24.15,0,0,0-4.23-3,20.08,20.08,0,0,0-5.57-2Z"/><path class="cls-2" d="M1238.17,619.38a38.48,38.48,0,0,0-3.43-8.25,28,28,0,0,0-5.07-6.56,21.31,21.31,0,0,0-6.76-4.33,22.85,22.85,0,0,0-8.61-1.54,21.15,21.15,0,0,0-10.44,2.39,20.18,20.18,0,0,0-7,6.46,28.32,28.32,0,0,0-4,9.45,50,50,0,0,0-1.25,11.33,40.24,40.24,0,0,0,1.59,11.39,28.55,28.55,0,0,0,4.73,9.49,23.18,23.18,0,0,0,7.85,6.52,23.48,23.48,0,0,0,10.89,2.43,27.17,27.17,0,0,0,16-4.67,44.66,44.66,0,0,0,11.88-12.73l2.49,2a89.5,89.5,0,0,1-6.76,9,38.3,38.3,0,0,1-7.36,6.56,31.48,31.48,0,0,1-8.65,4.08,36.86,36.86,0,0,1-10.54,1.39,32,32,0,0,1-12.63-2.53,32.49,32.49,0,0,1-10.44-7.06,33.79,33.79,0,0,1-7.11-10.84,37.78,37.78,0,0,1,0-27.75,33.74,33.74,0,0,1,7.11-10.83,32.38,32.38,0,0,1,23.07-9.6,49.09,49.09,0,0,1,6.86.45q3.18.45,6.11.94l5.67,1a37.41,37.41,0,0,0,5.42.59c0,1.4,0,3,.15,4.88s.25,3.76.45,5.71.4,3.88.59,5.77.4,3.53.6,4.92Z"/><path class="cls-2" d="M1356.89,612.82c0-2.78-.08-5.09-.25-6.91a10,10,0,0,0-1.29-4.43,6.09,6.09,0,0,0-3.13-2.48,21.06,21.06,0,0,0-5.67-1.09v-1.2c2.79.14,5.49.23,8.11.3s5.32.1,8.1.1c2.19,0,4.37,0,6.56-.1s4.34-.16,6.47-.3v1.2a19.34,19.34,0,0,0-5.47,1.09,5.91,5.91,0,0,0-3,2.48,10.77,10.77,0,0,0-1.24,4.43c-.17,1.82-.25,4.13-.25,6.91V646q0,4.19.25,6.91a10.27,10.27,0,0,0,1.29,4.43,6.06,6.06,0,0,0,3.14,2.48,21.68,21.68,0,0,0,5.76,1.1v1.19q-3.78-.2-7.55-.3t-7.56-.1c-2.46,0-4.87,0-7.26.1s-4.77.17-7.16.3V661a20.07,20.07,0,0,0,5.57-1.1,6.08,6.08,0,0,0,3-2.48,10,10,0,0,0,1.29-4.43q.25-2.73.25-6.91v-17.9H1320V646c0,2.79.09,5.09.25,6.91a10.27,10.27,0,0,0,1.29,4.43,6.1,6.1,0,0,0,3.14,2.48,21.68,21.68,0,0,0,5.76,1.1v1.19q-3.78-.2-7.55-.3t-7.56-.1q-3.67,0-7.26.1c-2.39.07-4.77.17-7.16.3V661a20.07,20.07,0,0,0,5.57-1.1,6.08,6.08,0,0,0,3-2.48,10,10,0,0,0,1.29-4.43q.26-2.73.25-6.91V612.82c0-2.78-.08-5.09-.25-6.91a10,10,0,0,0-1.29-4.43,6.09,6.09,0,0,0-3.13-2.48,21.06,21.06,0,0,0-5.67-1.09v-1.2c2.79.14,5.49.23,8.11.3s5.32.1,8.1.1c2.19,0,4.37,0,6.56-.1s4.34-.16,6.47-.3v1.2a19.34,19.34,0,0,0-5.47,1.09,5.91,5.91,0,0,0-3,2.48,10.77,10.77,0,0,0-1.24,4.43c-.16,1.82-.25,4.13-.25,6.91V625h36.89Z"/><path class="cls-2" d="M1482.08,615.6a37.26,37.26,0,0,0-3.33-6.31,28.52,28.52,0,0,0-4.72-5.57,23.22,23.22,0,0,0-6-3.93,17.16,17.16,0,0,0-7.16-1.49,18.5,18.5,0,0,0-9.3,2.09q-3.63,2.08-3.63,7.46a9.33,9.33,0,0,0,1.65,5.52,15.74,15.74,0,0,0,4.37,4.12,39.77,39.77,0,0,0,6.22,3.29l7.1,3q3.63,1.55,7.11,3.33a28.7,28.7,0,0,1,6.22,4.28,19.36,19.36,0,0,1,4.37,5.76,17.34,17.34,0,0,1,1.64,7.86,18.39,18.39,0,0,1-1.78,8.4,16.73,16.73,0,0,1-4.83,5.82,20.56,20.56,0,0,1-7.06,3.38,32.63,32.63,0,0,1-8.6,1.09,30.25,30.25,0,0,1-5.17-.46q-2.68-.46-5.17-1l-4.52-1a15.4,15.4,0,0,0-3.23-.46,6,6,0,0,0-2.09.35l-2.09.74q-.9-5.64-2.09-11c-.8-3.6-1.63-7.27-2.49-11l1.3-.69a72.35,72.35,0,0,0,4.32,7.23,44.1,44.1,0,0,0,5.72,6.87,31.18,31.18,0,0,0,7,5.2,17.07,17.07,0,0,0,8.3,2.08,23.27,23.27,0,0,0,5.57-.65,14,14,0,0,0,4.72-2,10.13,10.13,0,0,0,3.24-3.63,11.59,11.59,0,0,0,1.19-5.5,11.09,11.09,0,0,0-2.88-7.8,28,28,0,0,0-7.16-5.46,85.47,85.47,0,0,0-9.3-4.32,67.92,67.92,0,0,1-9.3-4.47,27.24,27.24,0,0,1-7.16-5.85,12.7,12.7,0,0,1-2.88-8.54,16.28,16.28,0,0,1,5.52-12.46,18,18,0,0,1,5.86-3.43,21.05,21.05,0,0,1,7.11-1.19,40,40,0,0,1,6.62.5c2,.33,3.86.69,5.71,1.09s3.82.78,5.67,1.15a31.33,31.33,0,0,0,6,.54q0,4.49.15,8.7t.64,8.5Z"/><path class="cls-3" d="M985,555.32a35.12,35.12,0,0,0-9.82,1.93,10.77,10.77,0,0,0-5.35,4.39,17.8,17.8,0,0,0-2.28,7.81q-.45,4.81-.44,12.19v81.41a144.48,144.48,0,0,0,15.52-.7,25.08,25.08,0,0,0,10.79-3.6,24.67,24.67,0,0,0,8-8.86,87.83,87.83,0,0,0,6.75-16.32l2.28.71L1008,668.67q-7.38-.36-14.57-.53T978.82,668H937.59q-7,0-13.86.18t-13.86.53l-2.46-34.39,2.28-.71a88.45,88.45,0,0,0,6.76,16.32,24.74,24.74,0,0,0,8,8.86,25.37,25.37,0,0,0,11,3.6,151.88,151.88,0,0,0,15.88.7V581.64q0-7.36-.44-12.19a17.8,17.8,0,0,0-2.28-7.81,10.76,10.76,0,0,0-5.53-4.39,38.14,38.14,0,0,0-10.18-1.93v-2.1q6.67.35,13.34.52t13.33.18q6.5,0,12.81-.18t12.63-.52Z"/><path class="cls-4" d="M76.38,549.94l813.09-1.1a2.45,2.45,0,0,1,2.64,2.2h0a2.45,2.45,0,0,1-2.64,2.2l-813.09-1.1c-1.45,0-2.63.12-2.63-1.1h0C73.75,549.83,74.93,549.94,76.38,549.94Z"/></g><g id="Layer_4" data-name="Layer 4"><path class="cls-5" d="M876.54,466.93a24.38,24.38,0,0,0,7.43-1.66,21.53,21.53,0,0,0,5.78-3.51,35.19,35.19,0,0,0,4.8-5q2.26-2.83,4.66-6.17l26.72-36.69-22.37-33.69q-5.7-9-11.41-13.35a30.1,30.1,0,0,0-13.06-5.67v-2c3.61.23,7.23.39,10.89.5s7.28.17,10.88.17q5.7,0,11.48-.17c3.85-.11,7.68-.27,11.49-.5v2a15.32,15.32,0,0,0-6.54,2.34,6.74,6.74,0,0,0-3.22,6.17,10.49,10.49,0,0,0,1.42,4.58q1.43,2.76,4.28,7.09l15,22.85,13.81-20.85a62.37,62.37,0,0,0,4.58-8.08A17.37,17.37,0,0,0,954.9,368a5,5,0,0,0-1-3.17,9,9,0,0,0-2.48-2.17,10.05,10.05,0,0,0-3.08-1.16,14.17,14.17,0,0,0-2.85-.34v-2c2.8.23,5.58.39,8.33.5s5.53.17,8.33.17q4.8,0,9.68-.17c3.25-.11,6.48-.27,9.69-.5v2a29.58,29.58,0,0,0-9.61,3.34,33.39,33.39,0,0,0-7.36,5.75,60.81,60.81,0,0,0-6.15,7.51l-6,8.59-15.16,21.35,24.62,36.69q2,3,4.73,6.75a61.39,61.39,0,0,0,6.23,7.17,38,38,0,0,0,7.58,5.84,20,20,0,0,0,8.78,2.75v2q-6.75-.35-13.28-.5c-4.36-.12-8.78-.17-13.29-.17q-6,0-11.86.17t-11.85.5v-2l4.8-1a18.2,18.2,0,0,0,4.43-1.5,8.36,8.36,0,0,0,3.3-2.92,9.71,9.71,0,0,0,1.28-5.42q0-1.33-2.18-5.25T945,441.92l-16.51-24.69-15.91,23.69a73.8,73.8,0,0,0-5.63,9.42q-2.18,4.43-2.18,6.42a8,8,0,0,0,1.58,5.25,10.09,10.09,0,0,0,3.9,2.92,18.47,18.47,0,0,0,5,1.34c1.75.22,3.38.44,4.88.66v2q-6.75-.35-13.51-.5t-13.51-.17c-2.8,0-5.55.05-8.25.17s-5.46.27-8.26.5Z"/><path class="cls-5" d="M998.88,466.93a27.48,27.48,0,0,0,8.4-1.83,9.53,9.53,0,0,0,4.58-4.17,18.37,18.37,0,0,0,1.95-7.42q.38-4.59.38-11.59V386.21q0-7-.38-11.59a18.37,18.37,0,0,0-1.95-7.42,9.44,9.44,0,0,0-4.73-4.17,29.64,29.64,0,0,0-8.55-1.84v-2q6.3.35,12.23.5t12.23.17q5,0,9.91-.17c3.3-.11,6.55-.27,9.76-.5v2a27.36,27.36,0,0,0-8.26,1.84,9.14,9.14,0,0,0-4.5,4.17,19.28,19.28,0,0,0-1.88,7.42q-.37,4.59-.37,11.59v55.71q0,7,.37,11.59a18.37,18.37,0,0,0,2,7.42,9.49,9.49,0,0,0,4.73,4.17,29.83,29.83,0,0,0,8.71,1.83v2q-5.71-.35-11.41-.5c-3.8-.12-7.61-.17-11.41-.17s-7.35.05-11,.17-7.2.27-10.8.5Z"/><path class="cls-6" d="M876.54,466.93a24.38,24.38,0,0,0,7.43-1.66,21.53,21.53,0,0,0,5.78-3.51,35.19,35.19,0,0,0,4.8-5q2.26-2.83,4.66-6.17l26.72-36.69-22.37-33.69q-5.7-9-11.41-13.35a30.1,30.1,0,0,0-13.06-5.67v-2c3.61.23,7.23.39,10.89.5s7.28.17,10.88.17q5.7,0,11.48-.17c3.85-.11,7.68-.27,11.49-.5v2a15.32,15.32,0,0,0-6.54,2.34,6.74,6.74,0,0,0-3.22,6.17,10.49,10.49,0,0,0,1.42,4.58q1.43,2.76,4.28,7.09l15,22.85,13.81-20.85a62.37,62.37,0,0,0,4.58-8.08A17.37,17.37,0,0,0,954.9,368a5,5,0,0,0-1-3.17,9,9,0,0,0-2.48-2.17,10.05,10.05,0,0,0-3.08-1.16,14.17,14.17,0,0,0-2.85-.34v-2c2.8.23,5.58.39,8.33.5s5.53.17,8.33.17q4.8,0,9.68-.17c3.25-.11,6.48-.27,9.69-.5v2a29.58,29.58,0,0,0-9.61,3.34,33.39,33.39,0,0,0-7.36,5.75,60.81,60.81,0,0,0-6.15,7.51l-6,8.59-15.16,21.35,24.62,36.69q2,3,4.73,6.75a61.39,61.39,0,0,0,6.23,7.17,38,38,0,0,0,7.58,5.84,20,20,0,0,0,8.78,2.75v2q-6.75-.35-13.28-.5c-4.36-.12-8.78-.17-13.29-.17q-6,0-11.86.17t-11.85.5v-2l4.8-1a18.2,18.2,0,0,0,4.43-1.5,8.36,8.36,0,0,0,3.3-2.92,9.71,9.71,0,0,0,1.28-5.42q0-1.33-2.18-5.25T945,441.92l-16.51-24.69-15.91,23.69a73.8,73.8,0,0,0-5.63,9.42q-2.18,4.43-2.18,6.42a8,8,0,0,0,1.58,5.25,10.09,10.09,0,0,0,3.9,2.92,18.47,18.47,0,0,0,5,1.34c1.75.22,3.38.44,4.88.66v2q-6.75-.35-13.51-.5t-13.51-.17c-2.8,0-5.55.05-8.25.17s-5.46.27-8.26.5Z"/><path class="cls-6" d="M998.88,466.93a27.48,27.48,0,0,0,8.4-1.83,9.53,9.53,0,0,0,4.58-4.17,18.37,18.37,0,0,0,1.95-7.42q.38-4.59.38-11.59V386.21q0-7-.38-11.59a18.37,18.37,0,0,0-1.95-7.42,9.44,9.44,0,0,0-4.73-4.17,29.64,29.64,0,0,0-8.55-1.84v-2q6.3.35,12.23.5t12.23.17q5,0,9.91-.17c3.3-.11,6.55-.27,9.76-.5v2a27.36,27.36,0,0,0-8.26,1.84,9.14,9.14,0,0,0-4.5,4.17,19.28,19.28,0,0,0-1.88,7.42q-.37,4.59-.37,11.59v55.71q0,7,.37,11.59a18.37,18.37,0,0,0,2,7.42,9.49,9.49,0,0,0,4.73,4.17,29.83,29.83,0,0,0,8.71,1.83v2q-5.71-.35-11.41-.5c-3.8-.12-7.61-.17-11.41-.17s-7.35.05-11,.17-7.2.27-10.8.5Z"/></g></svg>