<svg id="Layer_1" data-name="Layer 1" xmlns="http://www.w3.org/2000/svg" xmlns:xlink="http://www.w3.org/1999/xlink" viewBox="74.3690185546875 361.7999572753906 1772.191162109375 308.2000427246094"><defs><style>.cls-1{fill:url(#New_Gradient_Swatch_4);}.cls-2{fill:url(#linear-gradient);}.cls-3{fill:url(#New_Gradient_Swatch_3);}.cls-4{fill:url(#New_Gradient_Swatch_4-2);}.cls-5{fill:#e933f6;}.cls-6{fill:url(#New_Gradient_Swatch_3-2);}</style><linearGradient id="New_Gradient_Swatch_4" x1="1030.83" y1="558.33" x2="1849.18" y2="558.33" gradientUnits="userSpaceOnUse"><stop offset="0" stop-color="#999"/><stop offset="1" stop-color="#333"/></linearGradient><linearGradient id="linear-gradient" x1="985.53" y1="602.17" x2="985.53" y2="670.78" gradientUnits="userSpaceOnUse"><stop offset="0" stop-color="#b8b9bb"/><stop offset="0.42" stop-color="#adaeaf"/><stop offset="0.76" stop-color="#636465"/><stop offset="1" stop-color="#676869"/></linearGradient><linearGradient id="New_Gradient_Swatch_3" x1="-7800.93" y1="5623.86" x2="-7800.93" y2="5508.41" gradientTransform="translate(-6838.81 6184.12) rotate(180)" gradientUnits="userSpaceOnUse"><stop offset="0" stop-color="#c3a964"/><stop offset="1" stop-color="#50411a"/></linearGradient><linearGradient id="New_Gradient_Swatch_4-2" x1="-6464.29" y1="4174.66" x2="-5645.94" y2="4174.66" gradientTransform="translate(-5568.99 4732.75) rotate(180)" xlink:href="#New_Gradient_Swatch_4"/><linearGradient id="New_Gradient_Swatch_3-2" x1="960" y1="366.74" x2="960" y2="477.49" gradientTransform="matrix(1, 0, 0, 1, 0, 0)" xlink:href="#New_Gradient_Swatch_3"/></defs><path class="cls-1" d="M1846.55,559.43l-813.09,1.1a2.45,2.45,0,0,1-2.63-2.2h0a2.44,2.44,0,0,1,2.63-2.2l813.09,1.1c1.46,0,2.63-.12,2.63,1.1h0C1849.18,559.54,1848,559.43,1846.55,559.43Z"/><path class="cls-2" d="M495.62,668a20.2,20.2,0,0,0,5.57-1.09,6.14,6.14,0,0,0,3-2.49,10,10,0,0,0,1.29-4.42c.17-1.82.25-4.13.25-6.91V606.94a79.53,79.53,0,0,0-8.8.4,14,14,0,0,0-6.11,2,13.88,13.88,0,0,0-4.53,5,49.75,49.75,0,0,0-3.83,9.24l-1.29-.39,1.39-19.49q4.19.19,8.26.3t8.25.09h23.36q4,0,7.86-.09c2.59-.07,5.2-.17,7.86-.3l1.39,19.49-1.29.39a49.75,49.75,0,0,0-3.83-9.24,14,14,0,0,0-4.53-5,14.17,14.17,0,0,0-6.21-2,83.51,83.51,0,0,0-9-.4v46.14c0,2.78.08,5.09.25,6.91a10,10,0,0,0,1.29,4.42,6.09,6.09,0,0,0,3.13,2.49,21.9,21.9,0,0,0,5.77,1.09v1.19q-3.78-.2-7.56-.29t-7.55-.1q-3.69,0-7.26.1t-7.16.29Z"/><path class="cls-2" d="M670.72,668.79h-17.9a179.06,179.06,0,0,1-11.58-14.07,114.73,114.73,0,0,1-9.5-15.27,19.1,19.1,0,0,1-2.53-.2c-1-.13-2.09-.28-3.18-.44s-2.16-.37-3.19-.6-1.87-.45-2.53-.65v15.52c0,2.78.08,5.09.25,6.91a10,10,0,0,0,1.29,4.42A6.09,6.09,0,0,0,625,666.9a21.81,21.81,0,0,0,5.77,1.09v1.19q-3.78-.2-7.56-.29t-7.56-.1q-3.68,0-7.25.1t-7.16.29V668a20.2,20.2,0,0,0,5.57-1.09,6.14,6.14,0,0,0,3-2.49,10.09,10.09,0,0,0,1.29-4.42c.17-1.82.25-4.13.25-6.91V619.87q0-4.18-.25-6.91a10.13,10.13,0,0,0-1.29-4.43,6.19,6.19,0,0,0-3-2.49,20.2,20.2,0,0,0-5.57-1.09v-1.19q3.18.19,6.36.3t6.37.09c.92,0,2.08,0,3.48-.14s2.86-.22,4.42-.35,3.13-.25,4.72-.35,3-.15,4.28-.15a37.23,37.23,0,0,1,8.75,1.09,25.14,25.14,0,0,1,8,3.48,19.88,19.88,0,0,1,5.87,6.07,16.28,16.28,0,0,1,2.29,8.75,14.48,14.48,0,0,1-1.25,6.16,15.35,15.35,0,0,1-3.33,4.68,17.77,17.77,0,0,1-4.92,3.28,26.37,26.37,0,0,1-5.92,1.89q1.4,2.38,3.29,5.37T647.9,650q2.34,3.09,5,6.12a49.45,49.45,0,0,0,5.57,5.47,36.31,36.31,0,0,0,6,4.08,16.4,16.4,0,0,0,6.26,1.93Zm-50.41-34.61a25.86,25.86,0,0,0,9.25,1.69q7.76,0,12-3.58t4.27-11.63a13.7,13.7,0,0,0-1.24-5.92,14.1,14.1,0,0,0-3.43-4.57,15.58,15.58,0,0,0-5-3,16.89,16.89,0,0,0-5.92-1.05c-1.66,0-3.28.07-4.87.2a22.42,22.42,0,0,0-4.67.9q-.21,4.77-.3,9.64t-.1,10.54Z"/><path class="cls-2" d="M724.71,668a20,20,0,0,0,5.57-1.09,6.05,6.05,0,0,0,3-2.49,10.08,10.08,0,0,0,1.3-4.42c.16-1.82.25-4.13.25-6.91V619.87c0-2.79-.09-5.09-.25-6.91a10.13,10.13,0,0,0-1.3-4.43,6.1,6.1,0,0,0-3.13-2.49,21.46,21.46,0,0,0-5.67-1.09v-1.19q4.18.19,8.11.3t8.1.09q3.28,0,6.57-.09c2.18-.07,4.34-.17,6.46-.3V605a19.77,19.77,0,0,0-5.47,1.09,5.86,5.86,0,0,0-3,2.49,10.57,10.57,0,0,0-1.25,4.43c-.16,1.82-.25,4.12-.25,6.91v33.21c0,2.78.09,5.09.25,6.91a10.08,10.08,0,0,0,1.3,4.42,6.05,6.05,0,0,0,3.13,2.49,21.73,21.73,0,0,0,5.77,1.09v1.19q-3.78-.2-7.56-.29t-7.56-.1q-3.68,0-7.26.1t-7.16.29Z"/><path class="cls-2" d="M844.83,669.18q-3.78-.2-7.51-.29c-2.48-.07-5-.1-7.51-.1s-4.88,0-7.3.1-4.93.16-7.51.29V668a22.59,22.59,0,0,0,5.82-1.09,6.1,6.1,0,0,0,3.18-2.49,10.22,10.22,0,0,0,1.29-4.42c.17-1.82.25-4.13.25-6.91V619.87q0-4.18-.25-6.91a10.27,10.27,0,0,0-1.29-4.43,6.14,6.14,0,0,0-3.13-2.49A21.63,21.63,0,0,0,815.2,605v-1.19q3.27.19,6.56.3t6.56.09a88.28,88.28,0,0,0,9.4-.49,88.13,88.13,0,0,1,9.4-.5,24.44,24.44,0,0,1,7.7,1.34,26,26,0,0,1,7.41,3.88,21,21,0,0,1,5.52,6.17,15.9,15.9,0,0,1,2.14,8.2,14.16,14.16,0,0,1-2.19,8,17.62,17.62,0,0,1-5.52,5.32,23.94,23.94,0,0,1-7.41,2.94,37.47,37.47,0,0,1-7.95.89,54.84,54.84,0,0,1-6.17-.35,25.93,25.93,0,0,1-6.16-1.44v14.92c0,2.78.08,5.09.25,6.91a10,10,0,0,0,1.29,4.42,6.09,6.09,0,0,0,3.13,2.49,21.46,21.46,0,0,0,5.67,1.09Zm-10.34-34.6a16.28,16.28,0,0,0,4.92,1.74,29.27,29.27,0,0,0,5.12.45,18.35,18.35,0,0,0,5.92-.95,14.79,14.79,0,0,0,4.92-2.68,12.71,12.71,0,0,0,3.33-4.33,13.31,13.31,0,0,0,1.24-5.86,19.2,19.2,0,0,0-1.24-7.06,15.43,15.43,0,0,0-3.43-5.37,15,15,0,0,0-5.22-3.38,17.82,17.82,0,0,0-6.61-1.2c-1.2,0-2.61.09-4.23.25a15.71,15.71,0,0,0-4.72,1.25Z"/><path class="cls-2" d="M1049.17,603.76q4.17.19,8.15.3t8.15.09q3.88,0,7.81-.09t7.8-.3V605a24.53,24.53,0,0,0-2.63.6,11.77,11.77,0,0,0-2.68,1.09,6.32,6.32,0,0,0-2,1.79,4.47,4.47,0,0,0-.8,2.69,6.27,6.27,0,0,0,1,2.88,52.37,52.37,0,0,0,3,4.47l14.12,19.09,11.73-18.39a14.89,14.89,0,0,0,2.59-7.66,5.45,5.45,0,0,0-2.39-4.62,10,10,0,0,0-5.37-1.94v-1.19q3.48.19,7,.3t7,.09q3.18,0,6.32-.09c2.08-.07,4.19-.17,6.31-.3V605a17.36,17.36,0,0,0-6.37,2.54,29.82,29.82,0,0,0-5,4.17,36.56,36.56,0,0,0-4,4.92c-1.17,1.73-2.24,3.29-3.24,4.68l-13.62,19.88v14.62a23.63,23.63,0,0,0,.6,5.92,7.41,7.41,0,0,0,1.94,3.53,8,8,0,0,0,3.63,1.89,36.24,36.24,0,0,0,5.76.89v1.19q-4.47-.2-8.84-.29t-8.85-.1q-3.69,0-7.36.1t-7.36.29V668a34.64,34.64,0,0,0,5.52-.89,8.11,8.11,0,0,0,3.58-1.89,7.1,7.1,0,0,0,1.88-3.53,25.51,25.51,0,0,0,.55-5.92V640.15l-18-23.07q-1.4-1.79-2.89-3.63A30.21,30.21,0,0,0,1059,610a23.75,23.75,0,0,0-4.23-3,19.7,19.7,0,0,0-5.56-2Z"/><path class="cls-2" d="M1241.37,626.43a38.27,38.27,0,0,0-3.43-8.26,28.2,28.2,0,0,0-5.07-6.56,21.46,21.46,0,0,0-6.76-4.32,22.8,22.8,0,0,0-8.6-1.54,21.15,21.15,0,0,0-10.44,2.38,20.13,20.13,0,0,0-7,6.47,28,28,0,0,0-4,9.44,50.08,50.08,0,0,0-1.24,11.34,40.22,40.22,0,0,0,1.59,11.38,28.59,28.59,0,0,0,4.72,9.5,22.88,22.88,0,0,0,18.74,9,27.18,27.18,0,0,0,16-4.68,44.38,44.38,0,0,0,11.89-12.72l2.48,2a85.83,85.83,0,0,1-6.76,9,37.74,37.74,0,0,1-7.36,6.57,31,31,0,0,1-8.65,4.07,36.85,36.85,0,0,1-10.54,1.4,32.38,32.38,0,0,1-23.07-9.6,33.68,33.68,0,0,1-7.11-10.84,37.89,37.89,0,0,1,0-27.74,33.79,33.79,0,0,1,7.11-10.84,32.33,32.33,0,0,1,10.44-7.06,32,32,0,0,1,12.63-2.53,49.15,49.15,0,0,1,6.86.44q3.18.45,6.12.95t5.66,1a39.07,39.07,0,0,0,5.42.6c0,1.39,0,3,.15,4.87s.25,3.76.45,5.72.4,3.88.6,5.77.39,3.53.59,4.92Z"/><path class="cls-2" d="M1360.1,619.87c0-2.79-.09-5.09-.25-6.91a10.13,10.13,0,0,0-1.3-4.43,6.1,6.1,0,0,0-3.13-2.49,21.46,21.46,0,0,0-5.66-1.09v-1.19q4.17.19,8.1.3t8.1.09q3.29,0,6.57-.09c2.18-.07,4.34-.17,6.46-.3V605a19.86,19.86,0,0,0-5.47,1.09,5.86,5.86,0,0,0-3,2.49,10.57,10.57,0,0,0-1.25,4.43c-.16,1.82-.25,4.12-.25,6.91v33.21c0,2.78.09,5.09.25,6.91a10.08,10.08,0,0,0,1.3,4.42,6.05,6.05,0,0,0,3.13,2.49,21.73,21.73,0,0,0,5.77,1.09v1.19q-3.78-.2-7.56-.29t-7.56-.1q-3.67,0-7.26.1t-7.16.29V668a20,20,0,0,0,5.57-1.09,6.05,6.05,0,0,0,3-2.49,10.08,10.08,0,0,0,1.3-4.42c.16-1.82.25-4.13.25-6.91v-17.9h-36.89v17.9c0,2.78.08,5.09.25,6.91a10,10,0,0,0,1.29,4.42,6.05,6.05,0,0,0,3.13,2.49,21.73,21.73,0,0,0,5.77,1.09v1.19q-3.78-.2-7.56-.29t-7.56-.1q-3.67,0-7.26.1c-2.38.06-4.77.16-7.15.29V668a20,20,0,0,0,5.56-1.09,6.12,6.12,0,0,0,3-2.49A10.22,10.22,0,0,0,1314,660c.16-1.82.25-4.13.25-6.91V619.87c0-2.79-.09-5.09-.25-6.91a10.27,10.27,0,0,0-1.29-4.43,6.13,6.13,0,0,0-3.14-2.49,21.46,21.46,0,0,0-5.66-1.09v-1.19q4.17.19,8.1.3t8.1.09q3.29,0,6.57-.09c2.18-.07,4.34-.17,6.46-.3V605a19.86,19.86,0,0,0-5.47,1.09,5.86,5.86,0,0,0-3,2.49,10.57,10.57,0,0,0-1.24,4.43q-.26,2.73-.25,6.91V632h36.89Z"/><path class="cls-2" d="M1485.28,622.65a37.34,37.34,0,0,0-3.33-6.32,28.46,28.46,0,0,0-4.72-5.56,22.71,22.71,0,0,0-6-3.93,17,17,0,0,0-7.16-1.49,18.38,18.38,0,0,0-9.29,2.09q-3.63,2.09-3.63,7.45a9.28,9.28,0,0,0,1.64,5.52,15.77,15.77,0,0,0,4.37,4.13,40.67,40.67,0,0,0,6.22,3.28c2.32,1,4.69,2,7.11,3s4.79,2.14,7.11,3.33a28.74,28.74,0,0,1,6.21,4.28,19.74,19.74,0,0,1,4.38,5.77,17.4,17.4,0,0,1,1.64,7.85,18.39,18.39,0,0,1-1.79,8.4,16.42,16.42,0,0,1-4.82,5.82,20.55,20.55,0,0,1-7.06,3.38,32.75,32.75,0,0,1-8.61,1.1,30.38,30.38,0,0,1-5.17-.47q-2.69-.46-5.17-1l-4.52-1a15.54,15.54,0,0,0-3.23-.47,6.32,6.32,0,0,0-2.09.35l-2.09.75q-.9-5.65-2.09-11t-2.48-11l1.29-.69a70.59,70.59,0,0,0,4.33,7.22,43.57,43.57,0,0,0,5.71,6.88,31.49,31.49,0,0,0,7,5.2,17.17,17.17,0,0,0,8.3,2.07,23.72,23.72,0,0,0,5.57-.64,14.16,14.16,0,0,0,4.73-2,10,10,0,0,0,3.23-3.62,11.51,11.51,0,0,0,1.19-5.51,11.05,11.05,0,0,0-2.88-7.79,27.53,27.53,0,0,0-7.16-5.46,81.86,81.86,0,0,0-9.3-4.32,70.33,70.33,0,0,1-9.3-4.47,27.43,27.43,0,0,1-7.16-5.86,12.68,12.68,0,0,1-2.88-8.54,16.28,16.28,0,0,1,5.52-12.46,17.81,17.81,0,0,1,5.87-3.42,20.81,20.81,0,0,1,7.11-1.19,40,40,0,0,1,6.61.49c2,.34,3.86.7,5.72,1.1s3.81.78,5.66,1.14a30.59,30.59,0,0,0,6,.55q0,4.47.15,8.7c.1,2.82.31,5.65.65,8.5Z"/><path class="cls-3" d="M988.17,562.37a35.21,35.21,0,0,0-9.83,1.93,10.74,10.74,0,0,0-5.35,4.38,17.8,17.8,0,0,0-2.28,7.81q-.44,4.83-.44,12.2v81.4a142.12,142.12,0,0,0,15.53-.7,25.12,25.12,0,0,0,10.79-3.59,24.82,24.82,0,0,0,8-8.86,87.76,87.76,0,0,0,6.76-16.32l2.28.7-2.46,34.39q-7.36-.36-14.56-.53T982,675H940.79c-4.67,0-9.3.06-13.86.17s-9.18.29-13.86.53l-2.45-34.39,2.28-.7a87.83,87.83,0,0,0,6.75,16.32,24.82,24.82,0,0,0,8,8.86,25.41,25.41,0,0,0,11,3.59,149.17,149.17,0,0,0,15.88.7v-81.4q0-7.38-.44-12.2a17.8,17.8,0,0,0-2.28-7.81,10.69,10.69,0,0,0-5.53-4.38,38.05,38.05,0,0,0-10.17-1.93v-2.11q6.66.36,13.33.53t13.33.17q6.49,0,12.81-.17t12.64-.53Z"/><path class="cls-4" d="M79.58,557l813.1-1.1a2.44,2.44,0,0,1,2.63,2.2h0a2.45,2.45,0,0,1-2.63,2.2l-813.1-1.1c-1.45,0-2.63.11-2.63-1.1h0C77,556.87,78.13,557,79.58,557Z"/><path class="cls-5" d="M846.82,366.74c3.5.23,6.95.39,10.36.5s6.85.17,10.36.17q6.3,0,12.3-.17t12-.5v2c-1.4.23-2.9.5-4.5.84a17.54,17.54,0,0,0-4.5,1.58,9.84,9.84,0,0,0-3.46,2.92,8.26,8.26,0,0,0-1.35,5q0,3,4.36,15L906,457.47l19.52-51.2q7.5-20.17,7.5-27.52a8.92,8.92,0,0,0-1.05-4.5,7.91,7.91,0,0,0-2.85-2.92,15.55,15.55,0,0,0-4-1.67,40.93,40.93,0,0,0-4.43-.92v-2c3.4.23,6.78.39,10.14.5s6.67.17,10,.17q4.2,0,8.25-.17c2.7-.11,5.41-.27,8.11-.5v2a16.21,16.21,0,0,0-8.86,3.84,29.41,29.41,0,0,0-6.15,7.67,63.76,63.76,0,0,0-4.43,9.67q-1.87,5.18-3.68,9.68l-31.22,77.89h-3.3l-35-91.4a40.94,40.94,0,0,0-6.68-11.93,15.66,15.66,0,0,0-11-5.42Z"/><path class="cls-5" d="M965.85,474.48a27.49,27.49,0,0,0,8.41-1.83,9.53,9.53,0,0,0,4.58-4.17,18.37,18.37,0,0,0,1.95-7.42q.38-4.59.38-11.59V393.76q0-7-.38-11.59a18.37,18.37,0,0,0-1.95-7.42,9.44,9.44,0,0,0-4.73-4.17,29.64,29.64,0,0,0-8.56-1.84v-2c4.21.23,8.28.39,12.24.5s8,.17,12.23.17c3.3,0,6.61-.06,9.91-.17s6.55-.27,9.76-.5v2a27.36,27.36,0,0,0-8.26,1.84,9.14,9.14,0,0,0-4.5,4.17,19.28,19.28,0,0,0-1.88,7.42q-.37,4.59-.38,11.59v55.71q0,7,.38,11.59a18.37,18.37,0,0,0,2,7.42,9.44,9.44,0,0,0,4.73,4.17,29.75,29.75,0,0,0,8.71,1.83v2q-5.72-.35-11.41-.5c-3.81-.12-7.61-.17-11.41-.17s-7.36.05-11,.17-7.2.27-10.81.5Z"/><path class="cls-5" d="M1028.6,474.48a27.48,27.48,0,0,0,8.4-1.83,9.53,9.53,0,0,0,4.58-4.17,18.37,18.37,0,0,0,2-7.42q.38-4.59.38-11.59V393.76q0-7-.38-11.59a18.37,18.37,0,0,0-2-7.42,9.44,9.44,0,0,0-4.73-4.17,29.64,29.64,0,0,0-8.55-1.84v-2q6.3.35,12.23.5t12.23.17q5,0,9.91-.17c3.3-.11,6.56-.27,9.76-.5v2a27.36,27.36,0,0,0-8.26,1.84,9.14,9.14,0,0,0-4.5,4.17,19.28,19.28,0,0,0-1.88,7.42q-.37,4.59-.37,11.59v55.71q0,7,.37,11.59a18.37,18.37,0,0,0,2,7.42,9.49,9.49,0,0,0,4.73,4.17,29.83,29.83,0,0,0,8.71,1.83v2q-5.72-.35-11.41-.5c-3.8-.12-7.61-.17-11.41-.17s-7.35.05-11,.17-7.2.27-10.8.5Z"/><path class="cls-6" d="M846.82,366.74c3.5.23,6.95.39,10.36.5s6.85.17,10.36.17q6.3,0,12.3-.17t12-.5v2c-1.4.23-2.9.5-4.5.84a17.54,17.54,0,0,0-4.5,1.58,9.84,9.84,0,0,0-3.46,2.92,8.26,8.26,0,0,0-1.35,5q0,3,4.36,15L906,457.47l19.52-51.2q7.5-20.17,7.5-27.52a8.92,8.92,0,0,0-1.05-4.5,7.91,7.91,0,0,0-2.85-2.92,15.55,15.55,0,0,0-4-1.67,40.93,40.93,0,0,0-4.43-.92v-2c3.4.23,6.78.39,10.14.5s6.67.17,10,.17q4.2,0,8.25-.17c2.7-.11,5.41-.27,8.11-.5v2a16.21,16.21,0,0,0-8.86,3.84,29.41,29.41,0,0,0-6.15,7.67,63.76,63.76,0,0,0-4.43,9.67q-1.87,5.18-3.68,9.68l-31.22,77.89h-3.3l-35-91.4a40.94,40.94,0,0,0-6.68-11.93,15.66,15.66,0,0,0-11-5.42Z"/><path class="cls-6" d="M965.85,474.48a27.49,27.49,0,0,0,8.41-1.83,9.53,9.53,0,0,0,4.58-4.17,18.37,18.37,0,0,0,1.95-7.42q.38-4.59.38-11.59V393.76q0-7-.38-11.59a18.37,18.37,0,0,0-1.95-7.42,9.44,9.44,0,0,0-4.73-4.17,29.64,29.64,0,0,0-8.56-1.84v-2c4.21.23,8.28.39,12.24.5s8,.17,12.23.17c3.3,0,6.61-.06,9.91-.17s6.55-.27,9.76-.5v2a27.36,27.36,0,0,0-8.26,1.84,9.14,9.14,0,0,0-4.5,4.17,19.28,19.28,0,0,0-1.88,7.42q-.37,4.59-.38,11.59v55.71q0,7,.38,11.59a18.37,18.37,0,0,0,2,7.42,9.44,9.44,0,0,0,4.73,4.17,29.75,29.75,0,0,0,8.71,1.83v2q-5.72-.35-11.41-.5c-3.81-.12-7.61-.17-11.41-.17s-7.36.05-11,.17-7.2.27-10.81.5Z"/><path class="cls-6" d="M1028.6,474.48a27.48,27.48,0,0,0,8.4-1.83,9.53,9.53,0,0,0,4.58-4.17,18.37,18.37,0,0,0,2-7.42q.38-4.59.38-11.59V393.76q0-7-.38-11.59a18.37,18.37,0,0,0-2-7.42,9.44,9.44,0,0,0-4.73-4.17,29.64,29.64,0,0,0-8.55-1.84v-2q6.3.35,12.23.5t12.23.17q5,0,9.91-.17c3.3-.11,6.56-.27,9.76-.5v2a27.36,27.36,0,0,0-8.26,1.84,9.14,9.14,0,0,0-4.5,4.17,19.28,19.28,0,0,0-1.88,7.42q-.37,4.59-.37,11.59v55.71q0,7,.37,11.59a18.37,18.37,0,0,0,2,7.42,9.49,9.49,0,0,0,4.73,4.17,29.83,29.83,0,0,0,8.71,1.83v2q-5.72-.35-11.41-.5c-3.8-.12-7.61-.17-11.41-.17s-7.35.05-11,.17-7.2.27-10.8.5Z"/></svg>