<svg xmlns="http://www.w3.org/2000/svg" xmlns:xlink="http://www.w3.org/1999/xlink" viewBox="244.5 414.2200012207031 1431 303.4200134277344">
  <defs></defs>
  <defs>
    <linearGradient id="FINAL" x1="960" x2="960" y1="519" y2="452.64" gradientUnits="userSpaceOnUse">
      <stop offset="0" stop-color="#999"></stop>
      <stop offset="1" stop-color="#333"></stop>
    </linearGradient>
    <linearGradient id="New_Gradient_Swatch_6" x1="953.85" x2="953.85" y1="414.22" y2="518.54" gradientUnits="userSpaceOnUse">
      <stop offset="0" stop-color="#c7a758"></stop>
      <stop offset="1" stop-color="#534011"></stop>
    </linearGradient>
    <linearGradient id="New_Gradient_Swatch_6-2" x1="953.73" x2="953.73" y1="614.17" y2="717.63" xlink:href="#New_Gradient_Swatch_6"></linearGradient>
    <linearGradient id="New_Gradient_Swatch_5" x1="1012.5" x2="1675.5" y1="565.65" y2="565.65" xlink:href="#FINAL"></linearGradient>
    <linearGradient id="linear-gradient" x1="244.5" x2="889.5" y1="566.16" y2="566.16" gradientUnits="userSpaceOnUse">
      <stop offset="0" stop-color="#333"></stop>
      <stop offset="1" stop-color="#999"></stop>
    </linearGradient>
    <style>
      .cls-1{fill:url(#FINAL)}.cls-3{fill:url(#New_Gradient_Swatch_6-2)}
    </style>
  </defs>
  <g id="Layer_2" data-name="Layer 2">
    <path d="M365.78 485.82a32.94 32.94 0 012.84-13.94 31.39 31.39 0 017.65-10.44 33.24 33.24 0 0111.3-6.54 43.26 43.26 0 0127.6 0 33.33 33.33 0 0111.3 6.54 31.53 31.53 0 017.65 10.44 35.77 35.77 0 010 27.89 31.39 31.39 0 01-7.65 10.43 33 33 0 01-11.3 6.54 43.26 43.26 0 01-27.6 0 32.91 32.91 0 01-11.3-6.54 31.25 31.25 0 01-7.65-10.43 33 33 0 01-2.84-13.95zm10.2 0a36.37 36.37 0 001.73 11.26 29.36 29.36 0 005 9.47 24.72 24.72 0 008 6.54 24.48 24.48 0 0021.35 0 24.75 24.75 0 008-6.54 29.56 29.56 0 005-9.47 37.48 37.48 0 000-22.51 29.45 29.45 0 00-5-9.47 24.63 24.63 0 00-8-6.54 24.48 24.48 0 00-21.35 0 24.59 24.59 0 00-8 6.54 29.26 29.26 0 00-5 9.47 36.35 36.35 0 00-1.71 11.25zM497.25 469.76q0-4-.24-6.68a9.71 9.71 0 00-1.25-4.28 6 6 0 00-2.93-2.41 19.44 19.44 0 00-5.39-1.05v-1.16q3 .19 5.87.29c1.92.07 3.88.1 5.87.1a76.16 76.16 0 007.69-.39c2.57-.25 5.32-.38 8.27-.38a45.31 45.31 0 018.51.86 27.89 27.89 0 018.23 2.94 18.86 18.86 0 016.25 5.53 14.42 14.42 0 012.5 8.65 12.46 12.46 0 01-2.74 7.84 14.19 14.19 0 01-6.78 4.86v.19a21.83 21.83 0 0110.34 6.49q3.69 4.38 3.7 11.59a13.19 13.19 0 01-1.92 7.36 14.53 14.53 0 01-5.1 4.71 22.78 22.78 0 01-7.21 2.5 47.22 47.22 0 01-8.28.72q-6.63 0-13-.48t-13-.48c-1.47 0-3 0-4.47.1s-3 .16-4.47.29v-1.16a18.84 18.84 0 005.29-1.06 5.63 5.63 0 002.88-2.4 10.29 10.29 0 001.2-4.28q.24-2.64.24-6.68zm8.66 12.12a18.39 18.39 0 005.29 1.83 31.11 31.11 0 005.48.48 15.41 15.41 0 0010.24-3.42q4.1-3.4 4.09-9.85a12.66 12.66 0 00-1.34-5.87 14.75 14.75 0 00-3.56-4.47 16 16 0 00-5.15-2.89 18.73 18.73 0 00-6.11-1c-1.53 0-3 .07-4.52.2a17.52 17.52 0 00-4.42 1zm0 30a3.29 3.29 0 001.78 1.34 19.53 19.53 0 003.27 1 35.23 35.23 0 004 .68 35.92 35.92 0 004 .24q7.78 0 12.17-4.09t4.37-11.88a12.72 12.72 0 00-2.59-7.74 25.11 25.11 0 00-6-5.82c-1.54.26-3.08.5-4.61.72a31.88 31.88 0 01-4.72.34 51.9 51.9 0 01-6-.34 23.71 23.71 0 01-5.77-1.39zM641.61 472.46a35.24 35.24 0 00-3.22-6.11 27.34 27.34 0 00-4.57-5.39 22.37 22.37 0 00-5.77-3.8 16.52 16.52 0 00-6.92-1.44 17.85 17.85 0 00-9 2q-3.51 2-3.51 7.21a9 9 0 001.59 5.34 15.31 15.31 0 004.23 4 39.42 39.42 0 006 3.18l6.87 2.93c2.34 1 4.63 2.07 6.88 3.22a28.09 28.09 0 016 4.14 18.91 18.91 0 014.23 5.58 16.74 16.74 0 011.59 7.59 17.8 17.8 0 01-1.73 8.13 16 16 0 01-4.67 5.63 20 20 0 01-6.83 3.27 31.82 31.82 0 01-8.32 1 30.3 30.3 0 01-5-.44q-2.6-.45-5-1l-4.37-1a15 15 0 00-3.13-.45 5.91 5.91 0 00-2 .34l-2 .72q-.87-5.46-2-10.68t-2.4-10.68l1.25-.67a69.15 69.15 0 004.18 7 42.82 42.82 0 005.53 6.65 30 30 0 006.78 5 16.58 16.58 0 008 2 23.32 23.32 0 005.39-.62 14 14 0 004.57-2 9.79 9.79 0 003.12-3.51 11.17 11.17 0 001.16-5.33 10.72 10.72 0 00-2.79-7.54 27 27 0 00-6.93-5.28 81.54 81.54 0 00-9-4.17 66.29 66.29 0 01-9-4.32 26.4 26.4 0 01-6.93-5.67 12.27 12.27 0 01-2.79-8.26 15.81 15.81 0 015.34-12.05 17.45 17.45 0 015.67-3.31 20.24 20.24 0 016.88-1.16 38.63 38.63 0 016.4.48q2.83.5 5.53 1.06c1.86.39 3.68.76 5.48 1.11a30.1 30.1 0 005.77.53c0 2.88 0 5.69.14 8.41s.31 5.47.63 8.23zM717 513.33c.58.13 1.28.26 2.12.38l2.69.39c1 .13 2 .24 3 .34s2 .14 2.89.14a50.53 50.53 0 0010.34-1 29.6 29.6 0 008.36-3.08 34 34 0 007.17-5.38 67.63 67.63 0 006.83-7.89l1.06.86-8.76 19.34c-1.09-.13-2.21-.23-3.36-.29s-2.28-.1-3.37-.1H709.8c-1.86 0-3.72 0-5.58.1s-3.72.16-5.58.29v-1.16a19 19 0 005.39-1.06 5.7 5.7 0 002.89-2.4 10.44 10.44 0 001.2-4.28q.24-2.64.24-6.68v-32.09q0-4-.24-6.68a10.44 10.44 0 00-1.2-4.28 5.73 5.73 0 00-3-2.41 20.68 20.68 0 00-5.48-1.05v-1.16l6.2.19q2.94.11 6.06.15t6.64.05h7.94q6.72 0 13.46-.1t13.66-.29c-.07.71-.12 1.41-.15 2.12s0 1.38 0 2v3.84c0 1.42.07 2.84.2 4.28s.25 3 .38 4.77l-1.25.38a23.81 23.81 0 00-3.32-7.55 15.88 15.88 0 00-4.81-4.57 17.43 17.43 0 00-6-2.21 40.28 40.28 0 00-6.92-.58q-6.74 0-13.47.58v24c1.28 0 2.52 0 3.71-.09s2.42-.1 3.7-.1q6.63 0 10.53-2.64t4.76-9.67h1.16c0 2.31 0 4.62-.1 6.93s-.1 4.58-.1 6.82 0 4.62.1 6.93.1 4.61.1 6.92h-1.16a28.6 28.6 0 00-2.12-6.58 10.17 10.17 0 00-3.12-3.9 11.11 11.11 0 00-4.67-1.83 39.68 39.68 0 00-6.63-.48H717zM875.32 517.08H858a168 168 0 01-11.21-13.61 110.41 110.41 0 01-9.18-14.76 19.55 19.55 0 01-2.46-.19c-1-.13-2-.28-3.07-.44s-2.09-.35-3.08-.57-1.81-.44-2.45-.63v15q0 4 .24 6.68a9.84 9.84 0 001.25 4.28 5.84 5.84 0 003 2.4 20.51 20.51 0 005.58 1.06v1.16q-3.66-.19-7.31-.29t-7.31-.1q-3.57 0-7 .1t-6.93.29v-1.16a19.1 19.1 0 005.39-1.06 5.88 5.88 0 002.93-2.4 9.84 9.84 0 001.25-4.28q.24-2.64.24-6.68v-32.12q0-4-.24-6.68a9.84 9.84 0 00-1.25-4.28 6 6 0 00-2.93-2.41 19.52 19.52 0 00-5.39-1.05v-1.16q3.07.19 6.16.29t6.15.1c.9 0 2-.05 3.37-.15s2.77-.2 4.28-.33 3-.24 4.57-.34 2.91-.14 4.13-.14a35.75 35.75 0 018.46 1.05A24.29 24.29 0 01853 458a19.06 19.06 0 015.68 5.87 15.73 15.73 0 012.21 8.46 14.06 14.06 0 01-1.2 6 14.78 14.78 0 01-3.22 4.52 17.31 17.31 0 01-4.76 3.18 25.33 25.33 0 01-5.73 1.82q1.35 2.31 3.18 5.2c1.22 1.92 2.58 3.88 4.09 5.86s3.1 4 4.8 5.92a46.28 46.28 0 005.39 5.29 34.49 34.49 0 005.82 3.94 16.14 16.14 0 006.06 1.88zm-48.76-33.47a25.06 25.06 0 008.94 1.64q7.5 0 11.64-3.47t4.13-11.25a13.28 13.28 0 00-1.2-5.72 13.58 13.58 0 00-3.32-4.42 15.14 15.14 0 00-4.85-2.89 16.54 16.54 0 00-5.73-1 56 56 0 00-4.71.19 21.75 21.75 0 00-4.52.87c-.13 3.08-.22 6.19-.29 9.33s-.09 6.54-.09 10.19zM1052.86 489.29l-6.35 17.4c-.19.52-.37 1-.53 1.35a3.24 3.24 0 00-.24 1.25 4.61 4.61 0 001 3 8.31 8.31 0 002.45 2.07 15 15 0 003 1.3 22.87 22.87 0 002.6.67v1.16c-1.92-.13-3.85-.23-5.77-.29s-3.88-.1-5.87-.1-3.8 0-5.62.1-3.77.16-5.82.29v-1.16a13.76 13.76 0 005-2.07 13.56 13.56 0 003.32-3.31 25.06 25.06 0 002.36-4.24c.67-1.53 1.33-3.14 2-4.8l16.55-40.91.52-1.25a2.8 2.8 0 00.25-1.06 5 5 0 00-.34-1.44 8.93 8.93 0 00-.82-1.73 22 22 0 004.33-1.25c1.22-.51 2.56-1.06 4-1.64l20 55a14.27 14.27 0 003.75 5.91 12.77 12.77 0 007.12 2.74v1.16c-2.57-.13-5.08-.23-7.55-.29s-5-.1-7.74-.1h-7.92c-1.02 0-2 .08-2.94.14l-3 .2v-1.16a17.47 17.47 0 006.78-2.07 4.78 4.78 0 002.74-4.28 3.84 3.84 0 00-.33-1.53 11.35 11.35 0 01-.53-1.45l-6.26-17.61zm10.38-27.29l-9.42 24.43h18.08zM1159.61 516.31a19.1 19.1 0 005.39-1.06 5.88 5.88 0 002.93-2.4 9.84 9.84 0 001.25-4.28q.24-2.64.24-6.68v-44.63a80 80 0 00-8.51.38 13.71 13.71 0 00-5.91 2 13.46 13.46 0 00-4.38 4.85 47.73 47.73 0 00-3.7 8.95l-1.25-.39 1.34-18.85q4 .19 8 .29c2.62.07 5.29.1 8 .1h22.6c2.56 0 5.1 0 7.6-.1s5-.16 7.59-.29l1.35 18.85-1.25.39a48.42 48.42 0 00-3.7-8.95 13.46 13.46 0 00-4.38-4.85 13.92 13.92 0 00-6-2 83.93 83.93 0 00-8.7-.38v44.63q0 4 .24 6.68a9.71 9.71 0 001.25 4.28 5.84 5.84 0 003 2.4 20.51 20.51 0 005.58 1.06v1.16q-3.66-.19-7.31-.29t-7.31-.1q-3.57 0-7 .1t-6.93.29zM1253.57 485.82a32.94 32.94 0 012.84-13.94 31.39 31.39 0 017.65-10.44 33.24 33.24 0 0111.3-6.54 43.26 43.26 0 0127.6 0 33.33 33.33 0 0111.3 6.54 31.53 31.53 0 017.65 10.44 35.77 35.77 0 010 27.89 31.39 31.39 0 01-7.65 10.43 33 33 0 01-11.3 6.54 43.26 43.26 0 01-27.6 0 32.91 32.91 0 01-11.3-6.54 31.25 31.25 0 01-7.65-10.43 33 33 0 01-2.84-13.95zm10.2 0a36.67 36.67 0 001.73 11.26 29.36 29.36 0 005 9.47 24.72 24.72 0 008 6.54 24.48 24.48 0 0021.35 0 24.75 24.75 0 008-6.54 29.56 29.56 0 005-9.47 37.48 37.48 0 000-22.51 29.45 29.45 0 00-5-9.47 24.63 24.63 0 00-8-6.54 24.48 24.48 0 00-21.35 0 24.59 24.59 0 00-8 6.54 29.26 29.26 0 00-5 9.47 36.65 36.65 0 00-1.73 11.25zM1440.35 517.08H1423a170 170 0 01-11.2-13.61 111.5 111.5 0 01-9.19-14.76 19.55 19.55 0 01-2.45-.19c-1-.13-2-.28-3.07-.44s-2.09-.35-3.08-.57-1.82-.44-2.46-.63v15q0 4 .25 6.68a9.58 9.58 0 001.25 4.28 5.85 5.85 0 003 2.4 20.68 20.68 0 005.58 1.06v1.16q-3.65-.19-7.31-.29t-7.31-.1q-3.55 0-7 .1t-6.92.29v-1.16a19 19 0 005.38-1.06 5.9 5.9 0 002.94-2.4 9.84 9.84 0 001.25-4.28q.24-2.64.24-6.68v-32.12q0-4-.24-6.68a9.84 9.84 0 00-1.25-4.28 6 6 0 00-2.94-2.41 19.35 19.35 0 00-5.38-1.05v-1.16q3.08.19 6.15.29t6.16.1c.9 0 2-.05 3.37-.15s2.77-.2 4.28-.33 3-.24 4.56-.34 2.92-.14 4.14-.14a35.75 35.75 0 018.46 1.05A24.38 24.38 0 011418 458a19.06 19.06 0 015.68 5.87 15.73 15.73 0 012.21 8.46 14.06 14.06 0 01-1.2 6 14.78 14.78 0 01-3.22 4.52 17.21 17.21 0 01-4.77 3.18 25.09 25.09 0 01-5.72 1.82q1.35 2.31 3.18 5.2c1.21 1.92 2.58 3.88 4.08 5.86s3.11 4 4.81 5.92a46.28 46.28 0 005.39 5.29 34.49 34.49 0 005.82 3.94 16 16 0 006.06 1.88zm-48.77-33.47a25.15 25.15 0 009 1.64q7.5 0 11.64-3.47t4.13-11.25a13.28 13.28 0 00-1.2-5.72 13.58 13.58 0 00-3.32-4.42 15.08 15.08 0 00-4.86-2.89 16.44 16.44 0 00-5.72-1 56 56 0 00-4.71.19 21.63 21.63 0 00-4.52.87q-.2 4.62-.29 9.33c-.06 3.14-.1 6.54-.1 10.19zM1481.51 454.18q4 .19 7.88.29t7.89.1q3.75 0 7.55-.1t7.55-.29v1.16q-1.16.2-2.55.57a11.64 11.64 0 00-2.59 1.06 6.15 6.15 0 00-2 1.73 4.33 4.33 0 00-.77 2.6 6.08 6.08 0 001 2.79 52 52 0 002.94 4.33l13.65 18.46 11.35-17.79a14.3 14.3 0 002.5-7.41 5.26 5.26 0 00-2.31-4.47 9.71 9.71 0 00-5.19-1.87v-1.16q3.38.19 6.78.29t6.78.1q3.07 0 6.11-.1c2-.06 4.05-.16 6.11-.29v1.16a16.88 16.88 0 00-6.16 2.45 28.35 28.35 0 00-4.85 4 35 35 0 00-3.85 4.76c-1.12 1.67-2.17 3.17-3.13 4.52l-13.17 19.23v14.14a23.19 23.19 0 00.57 5.72 7.17 7.17 0 001.88 3.42 7.81 7.81 0 003.51 1.83 34.38 34.38 0 005.58.86v1.16q-4.33-.19-8.56-.29t-8.56-.1q-3.57 0-7.12.1t-7.12.29v-1.16a32.77 32.77 0 005.34-.86 7.83 7.83 0 003.46-1.83 6.8 6.8 0 001.83-3.42 25.07 25.07 0 00.53-5.72v-15.1L1497 467.07c-.9-1.15-1.82-2.32-2.79-3.51a28.32 28.32 0 00-3.22-3.37 23.42 23.42 0 00-4.09-2.88 19.16 19.16 0 00-5.38-2z" class="cls-1"></path>
    <path fill="url(#New_Gradient_Swatch_6)" d="M1011.59 518.54q-5.51-.31-10.84-.47c-3.56-.1-7.18-.16-10.84-.16q-6.6 0-12.89.16t-12.57.47v-1.88c1.47-.21 3-.47 4.72-.79a19.77 19.77 0 004.71-1.49 10 10 0 003.61-2.75 7.18 7.18 0 001.42-4.71q0-2.84-4.56-14.14l-24.66-59.71-20.43 48.24q-7.86 19-7.85 25.92a7.75 7.75 0 001.09 4.24 8 8 0 003 2.75 17.07 17.07 0 004.16 1.57 44.66 44.66 0 004.64.87v1.88q-5.34-.31-10.61-.47c-3.5-.1-7-.16-10.44-.16-2.94 0-5.82.06-8.65.16s-5.65.26-8.48.47v-1.88a17.85 17.85 0 009.27-3.62 28.64 28.64 0 006.44-7.22 57.38 57.38 0 004.64-9.12q2-4.86 3.84-9.11L953 414.22h3.46l36.61 86.1a37.63 37.63 0 007 11.23q4.17 4.48 11.55 5.11z"></path>
    <path d="M869.85 715.74a31.47 31.47 0 008.8-1.73 9.63 9.63 0 004.8-3.93 16 16 0 002-7q.39-4.33.39-10.93v-52.51q0-6.6-.39-10.93a16 16 0 00-2-7 9.6 9.6 0 00-5-3.94 34.52 34.52 0 00-9-1.73v-1.88q6.6.32 12.82.47t12.81.16q5.19 0 10.38-.16c3.46-.1 6.86-.26 10.22-.47v1.88a31.78 31.78 0 00-8.65 1.73 9.24 9.24 0 00-4.72 3.94 16.83 16.83 0 00-2 7Q900 633 900 639.64v52.52q0 6.6.39 10.93a16 16 0 002 7 9.57 9.57 0 005 3.93 34.07 34.07 0 009.12 1.73v1.89q-6-.32-11.95-.47t-12-.16q-5.82 0-11.48.16t-11.32.47zM930.54 715.74a31.39 31.39 0 008.8-1.73 9.63 9.63 0 004.8-3.93 16 16 0 002-7c.26-2.89.4-6.53.4-10.93v-52.51c0-4.4-.14-8-.4-10.93a16 16 0 00-2-7 9.6 9.6 0 00-4.95-3.94 34.52 34.52 0 00-9-1.73v-1.88q6.62.32 12.82.47t12.81.16q5.19 0 10.38-.16c3.46-.1 6.86-.26 10.22-.47v1.88a31.78 31.78 0 00-8.65 1.73 9.22 9.22 0 00-4.71 3.94 16.68 16.68 0 00-2 7q-.39 4.34-.39 10.93v52.52q0 6.6.39 10.93a16 16 0 002 7 9.61 9.61 0 005 3.93 34.07 34.07 0 009.12 1.73v1.89q-6-.32-12-.47t-11.84-.17q-5.82 0-11.48.16c-3.77.1-7.55.26-11.32.47zM991.23 715.74A31.39 31.39 0 001000 714a9.63 9.63 0 004.8-3.93 16 16 0 002-7c.26-2.89.4-6.53.4-10.93v-52.5c0-4.4-.14-8-.4-10.93a16 16 0 00-2-7 9.6 9.6 0 00-5-3.94 34.43 34.43 0 00-9-1.73v-1.88q6.62.32 12.82.47t12.81.16q5.19 0 10.38-.16t10.22-.47v1.88a31.78 31.78 0 00-8.65 1.73 9.22 9.22 0 00-4.71 3.94 16.68 16.68 0 00-2 7q-.39 4.34-.39 10.93v52.52q0 6.6.39 10.93a15.82 15.82 0 002.05 7 9.58 9.58 0 004.95 3.93 34.07 34.07 0 009.12 1.73v1.89q-6-.32-12-.47t-12-.16q-5.82 0-11.48.16c-3.77.1-7.55.26-11.32.47z" class="cls-3"></path>
    <path fill="url(#New_Gradient_Swatch_5)" d="M1673.37 566.67l-658.74 1a2.09 2.09 0 01-2.13-2.05 2.09 2.09 0 012.13-2.06l658.74 1c1.18 0 2.13-.11 2.13 1 0 1.22-.95 1.11-2.13 1.11z"></path>
    <path fill="url(#linear-gradient)" d="M246.57 565.11l640.86-1.06a2.1 2.1 0 012.07 2.11 2.09 2.09 0 01-2.07 2.1l-640.86-1c-1.14 0-2.07.11-2.07-1.05 0-1.21.93-1.1 2.07-1.1z"></path>
  </g>
</svg>