<svg id="Layer_1" data-name="Layer 1" xmlns="http://www.w3.org/2000/svg" xmlns:xlink="http://www.w3.org/1999/xlink" viewBox="0 0 1920 1080"><defs><style>.cls-1{fill:url(#New_Gradient_Swatch_4);}.cls-2{fill:url(#linear-gradient);}.cls-3{fill:url(#New_Gradient_Swatch_3);}.cls-4{fill:url(#New_Gradient_Swatch_3-2);}.cls-5{fill:url(#New_Gradient_Swatch_4-2);}.cls-6{font-size:166.78px;fill:#e933f6;font-family:Cochin;letter-spacing:0.03em;}.cls-7{fill:url(#New_Gradient_Swatch_3-3);}</style><linearGradient id="New_Gradient_Swatch_4" x1="1030.51" y1="551" x2="1848.87" y2="551" gradientUnits="userSpaceOnUse"><stop offset="0" stop-color="#999"/><stop offset="1" stop-color="#333"/></linearGradient><linearGradient id="linear-gradient" x1="985.21" y1="594.83" x2="985.21" y2="663.44" gradientUnits="userSpaceOnUse"><stop offset="0" stop-color="#b8b9bb"/><stop offset="0.42" stop-color="#adaeaf"/><stop offset="0.76" stop-color="#636465"/><stop offset="1" stop-color="#676869"/></linearGradient><linearGradient id="New_Gradient_Swatch_3" x1="-7804.61" y1="7851.19" x2="-7804.61" y2="7735.74" gradientTransform="translate(-6842.81 8404.12) rotate(180)" gradientUnits="userSpaceOnUse"><stop offset="0" stop-color="#c3a964"/><stop offset="1" stop-color="#50411a"/></linearGradient><linearGradient id="New_Gradient_Swatch_3-2" x1="794.31" y1="3576.17" x2="794.31" y2="3686.32" gradientTransform="translate(167 -3216)" xlink:href="#New_Gradient_Swatch_3"/><linearGradient id="New_Gradient_Swatch_4-2" x1="-6467.98" y1="6402" x2="-5649.62" y2="6402" gradientTransform="translate(-5572.99 6952.75) rotate(180)" xlink:href="#New_Gradient_Swatch_4"/><linearGradient id="New_Gradient_Swatch_3-3" x1="961.64" y1="360.19" x2="961.64" y2="469.93" gradientTransform="matrix(1, 0, 0, 1, 0, 0)" xlink:href="#New_Gradient_Swatch_3"/></defs><path class="cls-1" d="M1846.24,552.1l-813.09,1.1a2.45,2.45,0,0,1-2.64-2.2h0a2.45,2.45,0,0,1,2.64-2.2l813.09,1.1c1.45,0,2.63-.12,2.63,1.1h0C1848.87,552.21,1847.69,552.1,1846.24,552.1Z"/><path class="cls-2" d="M495.3,660.66a20.12,20.12,0,0,0,5.57-1.09,6.05,6.05,0,0,0,3-2.49,10.13,10.13,0,0,0,1.3-4.42c.16-1.83.25-4.13.25-6.92V599.61a82.27,82.27,0,0,0-8.8.39,14.31,14.31,0,0,0-6.12,2,14.12,14.12,0,0,0-4.52,5,49.49,49.49,0,0,0-3.83,9.25l-1.29-.4,1.39-19.49q4.17.21,8.25.3t8.25.1h23.37q4,0,7.86-.1t7.85-.3l1.39,19.49-1.29.4a49.49,49.49,0,0,0-3.83-9.25,14.12,14.12,0,0,0-4.52-5,14.52,14.52,0,0,0-6.22-2,86.53,86.53,0,0,0-9-.39v46.13c0,2.79.09,5.09.25,6.92a10.13,10.13,0,0,0,1.3,4.42,6.05,6.05,0,0,0,3.13,2.49,21.73,21.73,0,0,0,5.77,1.09v1.19q-3.78-.2-7.56-.3t-7.56-.09q-3.68,0-7.26.09t-7.16.3Z"/><path class="cls-2" d="M670.41,661.46h-17.9a173.09,173.09,0,0,1-11.58-14.08,113,113,0,0,1-9.5-15.26,19.35,19.35,0,0,1-2.54-.2c-1-.13-2.08-.28-3.18-.44s-2.15-.37-3.18-.6-1.87-.45-2.54-.65v15.51c0,2.79.09,5.09.25,6.92a10.13,10.13,0,0,0,1.3,4.42,6.05,6.05,0,0,0,3.13,2.49,21.73,21.73,0,0,0,5.77,1.09v1.19q-3.78-.2-7.56-.3t-7.56-.09q-3.68,0-7.26.09t-7.16.3v-1.19a20.12,20.12,0,0,0,5.57-1.09,6.05,6.05,0,0,0,3-2.49,10.13,10.13,0,0,0,1.3-4.42c.16-1.83.24-4.13.24-6.92V612.53q0-4.17-.24-6.91a10.13,10.13,0,0,0-1.3-4.42,6.05,6.05,0,0,0-3-2.49,20.12,20.12,0,0,0-5.57-1.09v-1.2q3.18.21,6.37.3t6.36.1q1.39,0,3.48-.15c1.39-.1,2.87-.21,4.43-.34s3.13-.25,4.72-.35,3-.15,4.27-.15a36.85,36.85,0,0,1,8.76,1.09,25.23,25.23,0,0,1,8.05,3.48,19.89,19.89,0,0,1,5.87,6.07,16.27,16.27,0,0,1,2.28,8.75,14.48,14.48,0,0,1-1.24,6.16,15.35,15.35,0,0,1-3.33,4.68,17.77,17.77,0,0,1-4.92,3.28,26.53,26.53,0,0,1-5.92,1.89q1.39,2.38,3.28,5.37c1.26,2,2.67,4,4.23,6.06s3.21,4.1,5,6.12a47.83,47.83,0,0,0,5.57,5.47,35.56,35.56,0,0,0,6,4.07,16.52,16.52,0,0,0,6.27,1.94ZM620,626.85a25.94,25.94,0,0,0,9.25,1.69q7.75,0,12-3.58t4.28-11.63a13.84,13.84,0,0,0-1.24-5.92,14.24,14.24,0,0,0-3.43-4.57,15.63,15.63,0,0,0-5-3,16.88,16.88,0,0,0-5.91-1.05c-1.66,0-3.28.07-4.87.2a21.88,21.88,0,0,0-4.68.9q-.2,4.77-.3,9.64c-.06,3.25-.1,6.76-.1,10.54Z"/><path class="cls-2" d="M724.4,660.66a20.12,20.12,0,0,0,5.57-1.09,6.14,6.14,0,0,0,3-2.49,10,10,0,0,0,1.29-4.42c.17-1.83.25-4.13.25-6.92V612.53q0-4.17-.25-6.91A10,10,0,0,0,733,601.2a6.09,6.09,0,0,0-3.13-2.49,21.46,21.46,0,0,0-5.67-1.09v-1.2q4.17.21,8.1.3t8.11.1c2.19,0,4.37,0,6.56-.1s4.34-.16,6.46-.3v1.2a19.86,19.86,0,0,0-5.47,1.09,5.85,5.85,0,0,0-3,2.49,10.57,10.57,0,0,0-1.24,4.42q-.25,2.75-.25,6.91v33.21c0,2.79.08,5.09.25,6.92a10.13,10.13,0,0,0,1.29,4.42,6.09,6.09,0,0,0,3.13,2.49,21.9,21.9,0,0,0,5.77,1.09v1.19q-3.78-.2-7.56-.3c-2.52-.06-5-.09-7.55-.09s-4.87,0-7.26.09-4.77.17-7.16.3Z"/><path class="cls-2" d="M844.51,661.85q-3.78-.2-7.5-.3t-7.51-.09q-3.68,0-7.31.09t-7.51.3v-1.19a22.42,22.42,0,0,0,5.82-1.09,6,6,0,0,0,3.18-2.49,10.13,10.13,0,0,0,1.3-4.42c.16-1.83.24-4.13.24-6.92V612.53q0-4.17-.24-6.91a10.13,10.13,0,0,0-1.3-4.42,6.05,6.05,0,0,0-3.13-2.49,21.46,21.46,0,0,0-5.67-1.09v-1.2q3.29.21,6.57.3t6.56.1a88.42,88.42,0,0,0,9.4-.49,85.53,85.53,0,0,1,9.39-.5,24.55,24.55,0,0,1,7.71,1.34,26.23,26.23,0,0,1,7.41,3.88,20.81,20.81,0,0,1,5.51,6.16,15.84,15.84,0,0,1,2.14,8.21,14.18,14.18,0,0,1-2.19,8.05,17.49,17.49,0,0,1-5.51,5.32,23.78,23.78,0,0,1-7.41,2.93,36.88,36.88,0,0,1-8,.9,57.12,57.12,0,0,1-6.16-.35,26,26,0,0,1-6.17-1.44v14.91c0,2.79.09,5.09.25,6.92a10.26,10.26,0,0,0,1.29,4.42,6.12,6.12,0,0,0,3.14,2.49,21.46,21.46,0,0,0,5.66,1.09Zm-10.34-34.6A16.33,16.33,0,0,0,839.1,629a29.18,29.18,0,0,0,5.12.45,18.57,18.57,0,0,0,5.91-1,15,15,0,0,0,4.92-2.68,12.62,12.62,0,0,0,3.34-4.33,13.48,13.48,0,0,0,1.24-5.86,19.41,19.41,0,0,0-1.24-7.06,15.57,15.57,0,0,0-3.43-5.37,15,15,0,0,0-5.22-3.38,17.87,17.87,0,0,0-6.62-1.2c-1.19,0-2.6.09-4.22.25a16.05,16.05,0,0,0-4.73,1.24Z"/><path class="cls-2" d="M1048.85,596.42c2.79.14,5.5.24,8.16.3s5.37.1,8.15.1c2.58,0,5.19,0,7.8-.1s5.23-.16,7.81-.3v1.2c-.8.13-1.67.33-2.64.59a12.47,12.47,0,0,0-2.68,1.1,6.2,6.2,0,0,0-2,1.79,4.43,4.43,0,0,0-.79,2.68,6.22,6.22,0,0,0,1,2.89q1,1.79,3,4.47l14.12,19.09,11.74-18.39a14.87,14.87,0,0,0,2.58-7.66,5.44,5.44,0,0,0-2.38-4.62,10.07,10.07,0,0,0-5.37-1.94v-1.2c2.32.14,4.65.24,7,.3s4.68.1,7,.1q3.18,0,6.31-.1t6.31-.3v1.2a17.54,17.54,0,0,0-6.36,2.53,29.1,29.1,0,0,0-5,4.18,37.44,37.44,0,0,0-4,4.92c-1.16,1.73-2.24,3.28-3.23,4.68l-13.62,19.88v14.62a24.24,24.24,0,0,0,.59,5.92,7.54,7.54,0,0,0,1.94,3.53,8,8,0,0,0,3.63,1.88,35.33,35.33,0,0,0,5.77.9v1.19q-4.47-.2-8.85-.3t-8.85-.09c-2.45,0-4.91,0-7.36.09s-4.9.17-7.36.3v-1.19a33.43,33.43,0,0,0,5.52-.9,8,8,0,0,0,3.58-1.88,7.08,7.08,0,0,0,1.89-3.53,25.57,25.57,0,0,0,.55-5.92V632.82l-18-23.07q-1.39-1.79-2.88-3.63a30.28,30.28,0,0,0-3.33-3.48,24.12,24.12,0,0,0-4.23-3,19.77,19.77,0,0,0-5.57-2Z"/><path class="cls-2" d="M1241.06,619.1a38.35,38.35,0,0,0-3.43-8.26,28.26,28.26,0,0,0-5.07-6.56,21,21,0,0,0-6.77-4.32,22.76,22.76,0,0,0-8.6-1.55,21.15,21.15,0,0,0-10.44,2.39,20.19,20.19,0,0,0-7,6.46,28.12,28.12,0,0,0-4,9.45,50.05,50.05,0,0,0-1.25,11.33,40.24,40.24,0,0,0,1.59,11.39,28.7,28.7,0,0,0,4.73,9.5,23,23,0,0,0,7.85,6.51,23.49,23.49,0,0,0,10.89,2.44,27.22,27.22,0,0,0,16-4.68,44.53,44.53,0,0,0,11.88-12.73l2.49,2a88.36,88.36,0,0,1-6.76,8.95,38,38,0,0,1-7.36,6.56,31.62,31.62,0,0,1-8.65,4.08,36.86,36.86,0,0,1-10.54,1.39,32.32,32.32,0,0,1-23.07-9.59,33.46,33.46,0,0,1-7.11-10.84,37.76,37.76,0,0,1,0-27.74,33.46,33.46,0,0,1,7.11-10.84,32.38,32.38,0,0,1,23.07-9.6,49.09,49.09,0,0,1,6.86.45q3.18.45,6.11,1t5.67,1a38.9,38.9,0,0,0,5.42.6c0,1.39,0,3,.15,4.87s.25,3.76.45,5.72.39,3.88.59,5.76.4,3.53.6,4.93Z"/><path class="cls-2" d="M1359.78,612.53q0-4.17-.25-6.91a10,10,0,0,0-1.29-4.42,6.09,6.09,0,0,0-3.13-2.49,21.46,21.46,0,0,0-5.67-1.09v-1.2c2.78.14,5.49.24,8.1.3s5.33.1,8.11.1c2.19,0,4.37,0,6.56-.1s4.34-.16,6.46-.3v1.2a19.69,19.69,0,0,0-5.46,1.09,5.84,5.84,0,0,0-3,2.49,10.57,10.57,0,0,0-1.24,4.42q-.26,2.75-.25,6.91v33.21c0,2.79.08,5.09.25,6.92a10.13,10.13,0,0,0,1.29,4.42,6.09,6.09,0,0,0,3.13,2.49,21.9,21.9,0,0,0,5.77,1.09v1.19q-3.78-.2-7.55-.3c-2.53-.06-5-.09-7.56-.09s-4.87,0-7.26.09-4.77.17-7.16.3v-1.19a20.12,20.12,0,0,0,5.57-1.09,6.14,6.14,0,0,0,3-2.49,10,10,0,0,0,1.29-4.42c.17-1.83.25-4.13.25-6.92V627.85h-36.89v17.89c0,2.79.08,5.09.25,6.92a10.13,10.13,0,0,0,1.29,4.42,6.09,6.09,0,0,0,3.13,2.49,21.9,21.9,0,0,0,5.77,1.09v1.19q-3.78-.2-7.55-.3t-7.56-.09q-3.67,0-7.26.09c-2.39.07-4.77.17-7.16.3v-1.19a20.12,20.12,0,0,0,5.57-1.09,6.1,6.1,0,0,0,3-2.49,10,10,0,0,0,1.29-4.42c.17-1.83.25-4.13.25-6.92V612.53q0-4.17-.25-6.91a10,10,0,0,0-1.29-4.42,6.05,6.05,0,0,0-3.13-2.49,21.46,21.46,0,0,0-5.67-1.09v-1.2c2.78.14,5.49.24,8.11.3s5.32.1,8.1.1c2.19,0,4.37,0,6.56-.1s4.34-.16,6.47-.3v1.2a19.69,19.69,0,0,0-5.47,1.09,5.84,5.84,0,0,0-3,2.49,10.57,10.57,0,0,0-1.24,4.42q-.26,2.75-.25,6.91v12.13h36.89Z"/><path class="cls-2" d="M1485,615.32a37.34,37.34,0,0,0-3.33-6.32,28.82,28.82,0,0,0-4.72-5.57,23.09,23.09,0,0,0-6-3.92,17,17,0,0,0-7.16-1.49,18.5,18.5,0,0,0-9.3,2.08c-2.42,1.4-3.63,3.88-3.63,7.46a9.4,9.4,0,0,0,1.64,5.52,16,16,0,0,0,4.38,4.13,41,41,0,0,0,6.21,3.28l7.11,3q3.63,1.54,7.11,3.33a28.7,28.7,0,0,1,6.22,4.28,19.62,19.62,0,0,1,4.37,5.76,17.34,17.34,0,0,1,1.64,7.86,18.27,18.27,0,0,1-1.79,8.4,16.42,16.42,0,0,1-4.82,5.82,20.38,20.38,0,0,1-7.06,3.38,32.63,32.63,0,0,1-8.6,1.09,30.25,30.25,0,0,1-5.17-.46q-2.68-.47-5.17-1l-4.53-1a16,16,0,0,0-3.23-.46,6.37,6.37,0,0,0-2.09.35l-2.08.74q-.9-5.64-2.09-11t-2.49-11l1.29-.7A74.49,74.49,0,0,0,1446,646a44.18,44.18,0,0,0,5.72,6.88,30.91,30.91,0,0,0,7,5.19,17.07,17.07,0,0,0,8.3,2.08,23.78,23.78,0,0,0,5.57-.64,14.11,14.11,0,0,0,4.72-2,9.9,9.9,0,0,0,3.23-3.62,11.54,11.54,0,0,0,1.2-5.51,11.06,11.06,0,0,0-2.89-7.8,27.8,27.8,0,0,0-7.16-5.46,86.18,86.18,0,0,0-9.29-4.32,69.08,69.08,0,0,1-9.3-4.46,27.47,27.47,0,0,1-7.16-5.86,12.7,12.7,0,0,1-2.88-8.54,16.28,16.28,0,0,1,5.52-12.46,17.76,17.76,0,0,1,5.86-3.42,20.81,20.81,0,0,1,7.11-1.2,39.89,39.89,0,0,1,6.61.5c2,.33,3.87.7,5.72,1.09s3.81.79,5.67,1.15a31.31,31.31,0,0,0,6,.55q0,4.47.14,8.7c.1,2.81.32,5.65.65,8.5Z"/><path class="cls-3" d="M987.85,555A35.12,35.12,0,0,0,978,557a10.77,10.77,0,0,0-5.36,4.38,18.07,18.07,0,0,0-2.28,7.81Q970,574,970,581.35v81.41a141.92,141.92,0,0,0,15.52-.7,25.08,25.08,0,0,0,10.79-3.6,24.76,24.76,0,0,0,8-8.86,87.4,87.4,0,0,0,6.75-16.31l2.28.7-2.45,34.39q-7.38-.36-14.57-.53t-14.56-.17H940.48q-7,0-13.86.17t-13.86.53L910.3,634l2.28-.7a88,88,0,0,0,6.76,16.31,24.74,24.74,0,0,0,8,8.86,25.37,25.37,0,0,0,11,3.6,149.1,149.1,0,0,0,15.87.7V581.35q0-7.36-.43-12.19a17.94,17.94,0,0,0-2.28-7.81,10.69,10.69,0,0,0-5.53-4.38A38.14,38.14,0,0,0,935.74,555v-2.11q6.68.36,13.34.53t13.33.17q6.5,0,12.81-.17t12.63-.53Z"/><path class="cls-4" d="M939.09,468.31a27.67,27.67,0,0,0,8.43-1.84,9.57,9.57,0,0,0,4.6-4.19,18.43,18.43,0,0,0,2-7.45q.38-4.59.37-11.63V387.29q0-7-.37-11.64a18.52,18.52,0,0,0-2-7.45,9.51,9.51,0,0,0-4.75-4.18,29.51,29.51,0,0,0-8.59-1.85v-2q6.33.33,12.28.5t12.28.17c3.32,0,6.63-.06,9.95-.17s6.57-.28,9.79-.5v2a27.25,27.25,0,0,0-8.29,1.85,9.21,9.21,0,0,0-4.52,4.18,19.44,19.44,0,0,0-1.88,7.45q-.37,4.61-.38,11.64V443.2q0,7,.38,11.63a18.27,18.27,0,0,0,2,7.45,9.46,9.46,0,0,0,4.74,4.19,30,30,0,0,0,8.74,1.84v2c-3.81-.23-7.63-.39-11.45-.5s-7.63-.17-11.45-.17-7.38.05-11,.17-7.23.27-10.84.5Z"/><path class="cls-5" d="M79.27,549.65l813.09-1.1a2.44,2.44,0,0,1,2.63,2.2h0a2.44,2.44,0,0,1-2.63,2.2l-813.09-1.1c-1.45,0-2.63.12-2.63-1.1h0C76.64,549.54,77.82,549.65,79.27,549.65Z"/><text class="cls-6" transform="translate(869.7 469.26) scale(0.9 1)">III</text><path class="cls-7" d="M876.75,467.93a27.16,27.16,0,0,0,8.41-1.84,9.44,9.44,0,0,0,4.58-4.17,18.32,18.32,0,0,0,2-7.42c.25-3.05.38-6.92.38-11.59v-55.7q0-7-.38-11.6a18.42,18.42,0,0,0-2-7.42A9.44,9.44,0,0,0,885,364a29.35,29.35,0,0,0-8.56-1.83v-2c4.21.22,8.28.39,12.24.5s8,.16,12.23.16c3.3,0,6.61-.05,9.91-.16s6.55-.28,9.75-.5v2a27.09,27.09,0,0,0-8.25,1.83,9.14,9.14,0,0,0-4.5,4.17,19.33,19.33,0,0,0-1.88,7.42q-.37,4.59-.38,11.6v55.7c0,4.67.13,8.54.38,11.59a18.32,18.32,0,0,0,1.95,7.42,9.35,9.35,0,0,0,4.73,4.17,29.39,29.39,0,0,0,8.71,1.84v2q-5.72-.33-11.41-.5t-11.41-.17c-3.7,0-7.36.06-11,.17s-7.2.28-10.81.5Z"/><path class="cls-7" d="M939.5,467.93a27.15,27.15,0,0,0,8.4-1.84,9.44,9.44,0,0,0,4.58-4.17,18.32,18.32,0,0,0,1.95-7.42c.25-3.05.38-6.92.38-11.59v-55.7q0-7-.38-11.6a18.42,18.42,0,0,0-1.95-7.42,9.44,9.44,0,0,0-4.73-4.17,29.35,29.35,0,0,0-8.55-1.83v-2q6.3.33,12.23.5t12.23.16q5,0,9.91-.16t9.76-.5v2a27.09,27.09,0,0,0-8.26,1.83,9.14,9.14,0,0,0-4.5,4.17,19.33,19.33,0,0,0-1.88,7.42q-.37,4.59-.37,11.6v55.7c0,4.67.12,8.54.37,11.59a18.32,18.32,0,0,0,1.95,7.42,9.39,9.39,0,0,0,4.73,4.17,29.46,29.46,0,0,0,8.71,1.84v2q-5.72-.33-11.41-.5c-3.8-.11-7.61-.17-11.41-.17s-7.35.06-11,.17-7.2.28-10.8.5Z"/><path class="cls-7" d="M1002.24,467.93a27.3,27.3,0,0,0,8.41-1.84,9.41,9.41,0,0,0,4.57-4.17,18.32,18.32,0,0,0,2-7.42c.24-3.05.37-6.92.37-11.59v-55.7c0-4.67-.13-8.54-.37-11.6a18.41,18.41,0,0,0-2-7.42,9.42,9.42,0,0,0-4.72-4.17,29.5,29.5,0,0,0-8.56-1.83v-2q6.3.33,12.23.5t12.24.16q5,0,9.9-.16t9.76-.5v2a27.09,27.09,0,0,0-8.25,1.83,9.12,9.12,0,0,0-4.51,4.17,19.16,19.16,0,0,0-1.87,7.42q-.37,4.59-.38,11.6v55.7c0,4.67.13,8.54.38,11.59a18.17,18.17,0,0,0,2,7.42,9.31,9.31,0,0,0,4.73,4.17,29.39,29.39,0,0,0,8.7,1.84v2q-5.7-.33-11.41-.5t-11.4-.17q-5.57,0-11,.17c-3.6.11-7.21.28-10.81.5Z"/></svg>