<svg xmlns="http://www.w3.org/2000/svg" xmlns:xlink="http://www.w3.org/1999/xlink" viewBox="74.3690185546875 361.7999572753906 1772.191162109375 308.2000427246094"><defs><style>.cls-1{fill:url(#New_Gradient_Swatch_4);}.cls-2{fill:url(#linear-gradient);}.cls-3{fill:url(#New_Gradient_Swatch_3);}.cls-4{fill:url(#New_Gradient_Swatch_4-2);}.cls-5{fill:#e933f6;}.cls-6{fill:url(#New_Gradient_Swatch_3-2);}</style><linearGradient id="New_Gradient_Swatch_4" x1="1029.69" y1="550.08" x2="1848.04" y2="550.08" gradientUnits="userSpaceOnUse"><stop offset="0" stop-color="#999"/><stop offset="1" stop-color="#333"/></linearGradient><linearGradient id="linear-gradient" x1="984.39" y1="593.92" x2="984.39" y2="662.53" gradientUnits="userSpaceOnUse"><stop offset="0" stop-color="#b8b9bb"/><stop offset="0.42" stop-color="#adaeaf"/><stop offset="0.76" stop-color="#636465"/><stop offset="1" stop-color="#676869"/></linearGradient><linearGradient id="New_Gradient_Swatch_3" x1="-11707.78" y1="5662.11" x2="-11707.78" y2="5546.66" gradientTransform="translate(-10746.81 6214.12) rotate(180)" gradientUnits="userSpaceOnUse"><stop offset="0" stop-color="#c3a964"/><stop offset="1" stop-color="#50411a"/></linearGradient><linearGradient id="New_Gradient_Swatch_4-2" x1="-10371.15" y1="4212.91" x2="-9552.8" y2="4212.91" gradientTransform="translate(-9476.99 4762.75) rotate(180)" xlink:href="#New_Gradient_Swatch_4"/><linearGradient id="New_Gradient_Swatch_3-2" x1="960" y1="359.7" x2="960" y2="470.44" gradientTransform="matrix(1, 0, 0, 1, 0, 0)" xlink:href="#New_Gradient_Swatch_3"/></defs><g id="Layer_2" data-name="Layer 2"><path class="cls-1" d="M1845.41,551.18l-813.09,1.1a2.44,2.44,0,0,1-2.63-2.2h0a2.44,2.44,0,0,1,2.63-2.2l813.09,1.1c1.45,0,2.63-.12,2.63,1.1h0C1848,551.29,1846.86,551.18,1845.41,551.18Z"/><path class="cls-2" d="M494.48,659.74a20,20,0,0,0,5.56-1.09,6.12,6.12,0,0,0,3-2.49,10.22,10.22,0,0,0,1.29-4.42c.16-1.82.25-4.13.25-6.91V598.69a79.41,79.41,0,0,0-8.8.4,14.22,14.22,0,0,0-6.12,2,14.07,14.07,0,0,0-4.52,5,49.75,49.75,0,0,0-3.83,9.24l-1.29-.39,1.39-19.49q4.17.19,8.25.3c2.72.06,5.47.1,8.26.1h23.36c2.65,0,5.27,0,7.86-.1s5.2-.17,7.85-.3l1.4,19.49-1.3.39a49.07,49.07,0,0,0-3.83-9.24,14.07,14.07,0,0,0-4.52-5,14.34,14.34,0,0,0-6.21-2,83.64,83.64,0,0,0-9-.4v46.14c0,2.78.08,5.09.25,6.91a10,10,0,0,0,1.29,4.42,6.05,6.05,0,0,0,3.13,2.49,21.73,21.73,0,0,0,5.77,1.09v1.19q-3.78-.2-7.56-.29t-7.56-.1q-3.67,0-7.26.1c-2.38.06-4.77.16-7.15.29Z"/><path class="cls-2" d="M669.58,660.54h-17.9a174.7,174.7,0,0,1-11.58-14.07,113.7,113.7,0,0,1-9.5-15.27,19.1,19.1,0,0,1-2.53-.2c-1-.13-2.09-.28-3.19-.44s-2.15-.37-3.18-.6-1.87-.45-2.53-.65v15.52c0,2.78.08,5.09.24,6.91a10.08,10.08,0,0,0,1.3,4.42,6.05,6.05,0,0,0,3.13,2.49,21.73,21.73,0,0,0,5.77,1.09v1.19q-3.78-.2-7.56-.29t-7.56-.1q-3.68,0-7.26.1t-7.16.29v-1.19a20,20,0,0,0,5.57-1.09,6.12,6.12,0,0,0,3-2.49,10.22,10.22,0,0,0,1.29-4.42c.16-1.82.25-4.13.25-6.91V611.62c0-2.79-.09-5.09-.25-6.91a10.27,10.27,0,0,0-1.29-4.43,6.17,6.17,0,0,0-3-2.49,20,20,0,0,0-5.57-1.09v-1.19q3.2.19,6.37.3c2.12.06,4.24.1,6.36.1q1.4,0,3.48-.15l4.43-.35c1.55-.13,3.13-.25,4.72-.35s3-.15,4.28-.15a37.29,37.29,0,0,1,8.75,1.09,25.23,25.23,0,0,1,8,3.48,19.88,19.88,0,0,1,5.87,6.07,16.27,16.27,0,0,1,2.28,8.75,14.48,14.48,0,0,1-1.24,6.16,15.35,15.35,0,0,1-3.33,4.68,17.77,17.77,0,0,1-4.92,3.28,26.37,26.37,0,0,1-5.92,1.89q1.39,2.38,3.28,5.37t4.23,6.06c1.56,2.06,3.21,4.1,5,6.12a48.63,48.63,0,0,0,5.57,5.47,36.24,36.24,0,0,0,6,4.08,16.5,16.5,0,0,0,6.27,1.93Zm-50.41-34.61a25.84,25.84,0,0,0,9.24,1.69q7.76,0,12-3.58t4.27-11.63a13.7,13.7,0,0,0-1.24-5.92,14.24,14.24,0,0,0-3.43-4.57,15.58,15.58,0,0,0-5-3,16.94,16.94,0,0,0-5.92-1.05c-1.66,0-3.28.07-4.87.2a22.64,22.64,0,0,0-4.68.9q-.19,4.77-.29,9.64t-.1,10.54Z"/><path class="cls-2" d="M723.57,659.74a20.12,20.12,0,0,0,5.57-1.09,6.1,6.1,0,0,0,3-2.49,10,10,0,0,0,1.29-4.42c.17-1.82.25-4.13.25-6.91V611.62q0-4.18-.25-6.91a10,10,0,0,0-1.29-4.43,6.1,6.1,0,0,0-3.13-2.49,21.46,21.46,0,0,0-5.67-1.09v-1.19q4.18.19,8.11.3c2.61.06,5.32.1,8.1.1,2.19,0,4.38,0,6.56-.1s4.34-.17,6.47-.3v1.19a19.77,19.77,0,0,0-5.47,1.09,5.92,5.92,0,0,0-3,2.49,10.72,10.72,0,0,0-1.24,4.43q-.25,2.73-.25,6.91v33.21c0,2.78.08,5.09.25,6.91a10.22,10.22,0,0,0,1.29,4.42,6.08,6.08,0,0,0,3.14,2.49,21.73,21.73,0,0,0,5.76,1.09v1.19q-3.78-.2-7.55-.29t-7.56-.1q-3.68,0-7.26.1c-2.39.06-4.77.16-7.16.29Z"/><path class="cls-2" d="M843.69,660.93q-3.78-.2-7.51-.29t-7.51-.1q-3.67,0-7.31.1t-7.5.29v-1.19a22.42,22.42,0,0,0,5.81-1.09,6.08,6.08,0,0,0,3.19-2.49,10.22,10.22,0,0,0,1.29-4.42c.16-1.82.25-4.13.25-6.91V611.62c0-2.79-.09-5.09-.25-6.91a10.27,10.27,0,0,0-1.29-4.43,6.13,6.13,0,0,0-3.14-2.49,21.46,21.46,0,0,0-5.67-1.09v-1.19q3.29.19,6.57.3c2.19.06,4.37.1,6.56.1a88.41,88.41,0,0,0,9.4-.5,88.08,88.08,0,0,1,9.39-.5,24.45,24.45,0,0,1,7.71,1.34,26.1,26.1,0,0,1,7.41,3.88,21,21,0,0,1,5.52,6.17,15.89,15.89,0,0,1,2.13,8.2,14.23,14.23,0,0,1-2.18,8,17.62,17.62,0,0,1-5.52,5.32,23.94,23.94,0,0,1-7.41,2.94,37.47,37.47,0,0,1-8,.89,54.84,54.84,0,0,1-6.17-.35,25.81,25.81,0,0,1-6.16-1.44v14.92c0,2.78.08,5.09.24,6.91a10.08,10.08,0,0,0,1.3,4.42,6.05,6.05,0,0,0,3.13,2.49,21.46,21.46,0,0,0,5.67,1.09Zm-10.34-34.6a16.28,16.28,0,0,0,4.92,1.74,29.18,29.18,0,0,0,5.12.45,18.25,18.25,0,0,0,5.91-.95,14.94,14.94,0,0,0,4.93-2.68,12.71,12.71,0,0,0,3.33-4.33,13.31,13.31,0,0,0,1.24-5.86,19.2,19.2,0,0,0-1.24-7.06,15.57,15.57,0,0,0-3.43-5.37,15,15,0,0,0-5.22-3.38,17.87,17.87,0,0,0-6.62-1.2c-1.19,0-2.6.09-4.22.25a15.63,15.63,0,0,0-4.72,1.25Z"/><path class="cls-2" d="M1048,595.51q4.18.19,8.16.3c2.65.06,5.37.1,8.15.1,2.59,0,5.19,0,7.81-.1s5.22-.17,7.8-.3v1.19a24.53,24.53,0,0,0-2.63.6,12,12,0,0,0-2.69,1.09,6.32,6.32,0,0,0-2,1.79,4.46,4.46,0,0,0-.79,2.69,6.27,6.27,0,0,0,1,2.88,52.37,52.37,0,0,0,3,4.47L1090,629.31l11.74-18.39a14.87,14.87,0,0,0,2.58-7.66,5.44,5.44,0,0,0-2.38-4.62,10,10,0,0,0-5.37-1.94v-1.19c2.32.13,4.65.23,7,.3s4.69.1,7,.1c2.12,0,4.22,0,6.31-.1s4.19-.17,6.32-.3v1.19a17.53,17.53,0,0,0-6.37,2.54,29,29,0,0,0-5,4.17,37.44,37.44,0,0,0-4,4.92c-1.16,1.73-2.23,3.29-3.23,4.68L1091,632.89v14.62a23.63,23.63,0,0,0,.6,5.92,7.33,7.33,0,0,0,1.94,3.53,8,8,0,0,0,3.62,1.89,36.58,36.58,0,0,0,5.77.89v1.19q-4.47-.2-8.85-.29c-2.92-.07-5.86-.1-8.85-.1-2.45,0-4.91,0-7.36.1s-4.9.16-7.35.29v-1.19a34.68,34.68,0,0,0,5.51-.89,8,8,0,0,0,3.58-1.89,7,7,0,0,0,1.89-3.53,25.51,25.51,0,0,0,.55-5.92V631.9l-18-23.07q-1.4-1.79-2.88-3.63a32,32,0,0,0-3.33-3.48,24.12,24.12,0,0,0-4.23-3,20.08,20.08,0,0,0-5.57-2Z"/><path class="cls-2" d="M1240.23,618.18a38.78,38.78,0,0,0-3.43-8.26,28.47,28.47,0,0,0-5.07-6.56A21.46,21.46,0,0,0,1225,599a22.83,22.83,0,0,0-8.6-1.54,21.16,21.16,0,0,0-10.45,2.38,20.21,20.21,0,0,0-7,6.47,28.18,28.18,0,0,0-4,9.44,50.08,50.08,0,0,0-1.25,11.34,39.87,39.87,0,0,0,1.6,11.38A28.4,28.4,0,0,0,1200,648a23,23,0,0,0,7.85,6.51,23.36,23.36,0,0,0,10.89,2.44,27.18,27.18,0,0,0,16-4.68,44.35,44.35,0,0,0,11.88-12.72l2.49,2a87.25,87.25,0,0,1-6.76,9,38,38,0,0,1-7.36,6.57,31.17,31.17,0,0,1-8.65,4.07,36.85,36.85,0,0,1-10.54,1.4,32.38,32.38,0,0,1-23.07-9.6,33.68,33.68,0,0,1-7.11-10.84,37.89,37.89,0,0,1,0-27.74,33.79,33.79,0,0,1,7.11-10.84,32.33,32.33,0,0,1,10.44-7.06,32,32,0,0,1,12.63-2.53,50.72,50.72,0,0,1,6.86.44q3.18.45,6.11.95t5.67,1a38.9,38.9,0,0,0,5.42.6c0,1.39.05,3,.15,4.87s.25,3.76.45,5.72.4,3.88.6,5.77.39,3.53.59,4.92Z"/><path class="cls-2" d="M1359,611.62q0-4.18-.24-6.91a10.13,10.13,0,0,0-1.3-4.43,6.1,6.1,0,0,0-3.13-2.49,21.46,21.46,0,0,0-5.67-1.09v-1.19q4.19.19,8.11.3c2.61.06,5.32.1,8.1.1,2.19,0,4.38,0,6.56-.1s4.34-.17,6.47-.3v1.19a19.77,19.77,0,0,0-5.47,1.09,5.92,5.92,0,0,0-3,2.49,10.72,10.72,0,0,0-1.24,4.43q-.26,2.73-.25,6.91v33.21c0,2.78.08,5.09.25,6.91a10.22,10.22,0,0,0,1.29,4.42,6.08,6.08,0,0,0,3.14,2.49,21.73,21.73,0,0,0,5.76,1.09v1.19q-3.78-.2-7.55-.29t-7.56-.1q-3.68,0-7.26.1c-2.39.06-4.77.16-7.16.29v-1.19a20.12,20.12,0,0,0,5.57-1.09,6.05,6.05,0,0,0,3-2.49,10.08,10.08,0,0,0,1.3-4.42c.16-1.82.24-4.13.24-6.91v-17.9h-36.89v17.9c0,2.78.09,5.09.25,6.91a10.08,10.08,0,0,0,1.3,4.42,6.05,6.05,0,0,0,3.13,2.49,21.73,21.73,0,0,0,5.76,1.09v1.19q-3.78-.2-7.55-.29t-7.56-.1q-3.67,0-7.26.1c-2.39.06-4.77.16-7.16.29v-1.19a20.12,20.12,0,0,0,5.57-1.09,6.05,6.05,0,0,0,3-2.49,10.08,10.08,0,0,0,1.3-4.42c.16-1.82.25-4.13.25-6.91V611.62c0-2.79-.09-5.09-.25-6.91a10.13,10.13,0,0,0-1.3-4.43,6.1,6.1,0,0,0-3.13-2.49,21.46,21.46,0,0,0-5.67-1.09v-1.19q4.18.19,8.11.3c2.62.06,5.32.1,8.1.1,2.19,0,4.38,0,6.56-.1s4.34-.17,6.47-.3v1.19a19.77,19.77,0,0,0-5.47,1.09,5.92,5.92,0,0,0-3,2.49,10.72,10.72,0,0,0-1.24,4.43c-.16,1.82-.25,4.12-.25,6.91v12.13H1359Z"/><path class="cls-2" d="M1484.14,614.4a37.34,37.34,0,0,0-3.33-6.32,28.46,28.46,0,0,0-4.72-5.56,22.71,22.71,0,0,0-6-3.93,17,17,0,0,0-7.16-1.49,18.4,18.4,0,0,0-9.3,2.09c-2.42,1.39-3.62,3.87-3.62,7.45a9.28,9.28,0,0,0,1.64,5.52,15.77,15.77,0,0,0,4.37,4.13,40.21,40.21,0,0,0,6.22,3.28c2.32,1,4.69,2,7.11,3s4.78,2.14,7.1,3.33a28.81,28.81,0,0,1,6.22,4.28,19.53,19.53,0,0,1,4.37,5.77,17.26,17.26,0,0,1,1.64,7.85,18.39,18.39,0,0,1-1.78,8.4,16.55,16.55,0,0,1-4.83,5.82,20.38,20.38,0,0,1-7.06,3.38,32.62,32.62,0,0,1-8.6,1.1,30.29,30.29,0,0,1-5.17-.47q-2.68-.46-5.17-1l-4.52-1a15.54,15.54,0,0,0-3.23-.47,6.32,6.32,0,0,0-2.09.35c-.67.23-1.36.48-2.09.75q-.9-5.65-2.09-11t-2.49-11l1.3-.69a72.26,72.26,0,0,0,4.32,7.22,44.18,44.18,0,0,0,5.72,6.88,31.49,31.49,0,0,0,7,5.2,17.17,17.17,0,0,0,8.3,2.07,23.78,23.78,0,0,0,5.57-.64,14.16,14.16,0,0,0,4.73-2,10.08,10.08,0,0,0,3.23-3.62,11.63,11.63,0,0,0,1.19-5.51,11.05,11.05,0,0,0-2.88-7.79,27.53,27.53,0,0,0-7.16-5.46,81.86,81.86,0,0,0-9.3-4.32,70.33,70.33,0,0,1-9.3-4.47,27.27,27.27,0,0,1-7.16-5.86,12.68,12.68,0,0,1-2.88-8.54,16.28,16.28,0,0,1,5.52-12.46,17.76,17.76,0,0,1,5.86-3.42,20.81,20.81,0,0,1,7.11-1.19,40.08,40.08,0,0,1,6.62.49c1.95.34,3.86.7,5.71,1.1s3.82.78,5.67,1.14a30.59,30.59,0,0,0,6,.55q0,4.47.15,8.7t.64,8.5Z"/><path class="cls-3" d="M987,554.12a35.12,35.12,0,0,0-9.82,1.93,10.7,10.7,0,0,0-5.35,4.38,17.8,17.8,0,0,0-2.28,7.81q-.44,4.83-.44,12.2v81.4a141.92,141.92,0,0,0,15.52-.7,25.17,25.17,0,0,0,10.8-3.59,24.82,24.82,0,0,0,8-8.86,87.83,87.83,0,0,0,6.75-16.32l2.28.7L1010,667.46q-7.38-.36-14.56-.53t-14.57-.17H939.65q-7,0-13.86.17t-13.86.53l-2.46-34.39,2.28-.7a88.45,88.45,0,0,0,6.76,16.32,24.82,24.82,0,0,0,8,8.86,25.41,25.41,0,0,0,11,3.59,149.17,149.17,0,0,0,15.88.7v-81.4q0-7.38-.44-12.2a17.8,17.8,0,0,0-2.28-7.81,10.69,10.69,0,0,0-5.53-4.38,38.14,38.14,0,0,0-10.18-1.93V552q6.68.36,13.34.53t13.33.17q6.49,0,12.81-.17T987,552Z"/><path class="cls-4" d="M78.44,548.74l813.09-1.1a2.45,2.45,0,0,1,2.64,2.2h0a2.45,2.45,0,0,1-2.64,2.2l-813.09-1.1c-1.45,0-2.63.11-2.63-1.1h0C75.81,548.62,77,548.74,78.44,548.74Z"/><path class="cls-5" d="M815.45,359.7q5.25.33,10.36.5t10.35.16q6.32,0,12.31-.16t12-.5v2c-1.4.22-2.9.5-4.5.83a17.43,17.43,0,0,0-4.5,1.59A9.64,9.64,0,0,0,848,367a8.26,8.26,0,0,0-1.35,5q0,3,4.35,15l23.57,63.38,19.51-51.21q7.51-20.18,7.51-27.51a9,9,0,0,0-1.05-4.51,8.06,8.06,0,0,0-2.85-2.92,15.54,15.54,0,0,0-4-1.66,38.67,38.67,0,0,0-4.43-.92v-2q5.1.33,10.13.5c3.36.11,6.68.16,10,.16q4.2,0,8.25-.16c2.7-.11,5.41-.28,8.11-.5v2a16.1,16.1,0,0,0-8.86,3.83,29.46,29.46,0,0,0-6.15,7.68,62.37,62.37,0,0,0-4.43,9.67q-1.87,5.17-3.68,9.67l-31.22,77.89h-3.3l-35-91.4a40.88,40.88,0,0,0-6.68-11.92,15.62,15.62,0,0,0-11-5.42Z"/><path class="cls-5" d="M934.48,467.44a27.16,27.16,0,0,0,8.41-1.84,9.44,9.44,0,0,0,4.58-4.17,18.32,18.32,0,0,0,1.95-7.42c.25-3.05.37-6.92.37-11.59V386.71q0-7-.37-11.59a18.42,18.42,0,0,0-1.95-7.42,9.44,9.44,0,0,0-4.73-4.17,29.43,29.43,0,0,0-8.56-1.83v-2c4.21.22,8.28.39,12.24.5s8,.16,12.23.16c3.3,0,6.61-.05,9.91-.16s6.55-.28,9.75-.5v2a27.09,27.09,0,0,0-8.25,1.83,9.12,9.12,0,0,0-4.51,4.17,19.34,19.34,0,0,0-1.87,7.42q-.37,4.59-.38,11.59v55.71c0,4.67.13,8.54.38,11.59a18.32,18.32,0,0,0,2,7.42,9.35,9.35,0,0,0,4.73,4.17,29.39,29.39,0,0,0,8.7,1.84v2q-5.7-.33-11.4-.5t-11.41-.17q-5.57,0-11,.17t-10.81.5Z"/><path class="cls-5" d="M997.23,467.44a27.15,27.15,0,0,0,8.4-1.84,9.44,9.44,0,0,0,4.58-4.17,18.32,18.32,0,0,0,1.95-7.42c.25-3.05.38-6.92.38-11.59V386.71q0-7-.38-11.59a18.42,18.42,0,0,0-1.95-7.42,9.44,9.44,0,0,0-4.73-4.17,29.35,29.35,0,0,0-8.55-1.83v-2q6.3.33,12.23.5t12.23.16c3.3,0,6.61-.05,9.91-.16s6.55-.28,9.76-.5v2a27.09,27.09,0,0,0-8.26,1.83,9.14,9.14,0,0,0-4.5,4.17,19.33,19.33,0,0,0-1.88,7.42q-.37,4.59-.37,11.59v55.71c0,4.67.12,8.54.37,11.59a18.32,18.32,0,0,0,1.95,7.42,9.35,9.35,0,0,0,4.73,4.17,29.39,29.39,0,0,0,8.71,1.84v2q-5.71-.33-11.41-.5c-3.8-.11-7.61-.17-11.41-.17s-7.35.06-11,.17-7.2.28-10.8.5Z"/><path class="cls-5" d="M1060,467.44a27.15,27.15,0,0,0,8.4-1.84,9.39,9.39,0,0,0,4.58-4.17,18.32,18.32,0,0,0,2-7.42c.25-3.05.38-6.92.38-11.59V386.71q0-7-.38-11.59a18.42,18.42,0,0,0-2-7.42,9.4,9.4,0,0,0-4.73-4.17,29.35,29.35,0,0,0-8.55-1.83v-2q6.3.33,12.23.5t12.24.16q5,0,9.9-.16t9.76-.5v2a27.17,27.17,0,0,0-8.26,1.83,9.14,9.14,0,0,0-4.5,4.17,19.16,19.16,0,0,0-1.87,7.42c-.26,3.06-.38,6.92-.38,11.59v55.71c0,4.67.12,8.54.38,11.59a18.17,18.17,0,0,0,1.95,7.42,9.31,9.31,0,0,0,4.73,4.17,29.39,29.39,0,0,0,8.7,1.84v2c-3.8-.22-7.61-.39-11.41-.5s-7.6-.17-11.41-.17-7.35.06-11,.17-7.21.28-10.81.5Z"/><path class="cls-6" d="M815.45,359.7q5.25.33,10.36.5t10.35.16q6.32,0,12.31-.16t12-.5v2c-1.4.22-2.9.5-4.5.83a17.43,17.43,0,0,0-4.5,1.59A9.64,9.64,0,0,0,848,367a8.26,8.26,0,0,0-1.35,5q0,3,4.35,15l23.57,63.38,19.51-51.21q7.51-20.18,7.51-27.51a9,9,0,0,0-1.05-4.51,8.06,8.06,0,0,0-2.85-2.92,15.54,15.54,0,0,0-4-1.66,38.67,38.67,0,0,0-4.43-.92v-2q5.1.33,10.13.5c3.36.11,6.68.16,10,.16q4.2,0,8.25-.16c2.7-.11,5.41-.28,8.11-.5v2a16.1,16.1,0,0,0-8.86,3.83,29.46,29.46,0,0,0-6.15,7.68,62.37,62.37,0,0,0-4.43,9.67q-1.87,5.17-3.68,9.67l-31.22,77.89h-3.3l-35-91.4a40.88,40.88,0,0,0-6.68-11.92,15.62,15.62,0,0,0-11-5.42Z"/><path class="cls-6" d="M934.48,467.44a27.16,27.16,0,0,0,8.41-1.84,9.44,9.44,0,0,0,4.58-4.17,18.32,18.32,0,0,0,1.95-7.42c.25-3.05.37-6.92.37-11.59V386.71q0-7-.37-11.59a18.42,18.42,0,0,0-1.95-7.42,9.44,9.44,0,0,0-4.73-4.17,29.43,29.43,0,0,0-8.56-1.83v-2c4.21.22,8.28.39,12.24.5s8,.16,12.23.16c3.3,0,6.61-.05,9.91-.16s6.55-.28,9.75-.5v2a27.09,27.09,0,0,0-8.25,1.83,9.12,9.12,0,0,0-4.51,4.17,19.34,19.34,0,0,0-1.87,7.42q-.37,4.59-.38,11.59v55.71c0,4.67.13,8.54.38,11.59a18.32,18.32,0,0,0,2,7.42,9.35,9.35,0,0,0,4.73,4.17,29.39,29.39,0,0,0,8.7,1.84v2q-5.7-.33-11.4-.5t-11.41-.17q-5.57,0-11,.17t-10.81.5Z"/><path class="cls-6" d="M997.23,467.44a27.15,27.15,0,0,0,8.4-1.84,9.44,9.44,0,0,0,4.58-4.17,18.32,18.32,0,0,0,1.95-7.42c.25-3.05.38-6.92.38-11.59V386.71q0-7-.38-11.59a18.42,18.42,0,0,0-1.95-7.42,9.44,9.44,0,0,0-4.73-4.17,29.35,29.35,0,0,0-8.55-1.83v-2q6.3.33,12.23.5t12.23.16c3.3,0,6.61-.05,9.91-.16s6.55-.28,9.76-.5v2a27.09,27.09,0,0,0-8.26,1.83,9.14,9.14,0,0,0-4.5,4.17,19.33,19.33,0,0,0-1.88,7.42q-.37,4.59-.37,11.59v55.71c0,4.67.12,8.54.37,11.59a18.32,18.32,0,0,0,1.95,7.42,9.35,9.35,0,0,0,4.73,4.17,29.39,29.39,0,0,0,8.71,1.84v2q-5.71-.33-11.41-.5c-3.8-.11-7.61-.17-11.41-.17s-7.35.06-11,.17-7.2.28-10.8.5Z"/><path class="cls-6" d="M1060,467.44a27.15,27.15,0,0,0,8.4-1.84,9.39,9.39,0,0,0,4.58-4.17,18.32,18.32,0,0,0,2-7.42c.25-3.05.38-6.92.38-11.59V386.71q0-7-.38-11.59a18.42,18.42,0,0,0-2-7.42,9.4,9.4,0,0,0-4.73-4.17,29.35,29.35,0,0,0-8.55-1.83v-2q6.3.33,12.23.5t12.24.16q5,0,9.9-.16t9.76-.5v2a27.17,27.17,0,0,0-8.26,1.83,9.14,9.14,0,0,0-4.5,4.17,19.16,19.16,0,0,0-1.87,7.42c-.26,3.06-.38,6.92-.38,11.59v55.71c0,4.67.12,8.54.38,11.59a18.17,18.17,0,0,0,1.95,7.42,9.31,9.31,0,0,0,4.73,4.17,29.39,29.39,0,0,0,8.7,1.84v2c-3.8-.22-7.61-.39-11.41-.5s-7.6-.17-11.41-.17-7.35.06-11,.17-7.21.28-10.81.5Z"/></g></svg>