<svg xmlns="http://www.w3.org/2000/svg" xmlns:xlink="http://www.w3.org/1999/xlink" viewBox="0 0 1579.73 117"><defs><style>.cls-1{fill:url(#linear-gradient);}.cls-2{fill:url(#linear-gradient-14);}</style><linearGradient id="linear-gradient" x1="1194.54" y1="-75.3" x2="379.35" y2="739.89" gradientTransform="translate(0 -274)" gradientUnits="userSpaceOnUse"><stop offset="0" stop-color="#50411a"/><stop offset="0.39" stop-color="#c3a964"/><stop offset="0.68" stop-color="#7a6a34"/><stop offset="1" stop-color="#50411a"/></linearGradient><linearGradient id="linear-gradient-14" x1="467.7" y1="100.52" x2="419.18" y2="16.49" gradientUnits="userSpaceOnUse"><stop offset="0" stop-color="#c3a964"/><stop offset="0.69" stop-color="#7a6a34"/></linearGradient></defs><g id="Layer_2" data-name="Layer 2"><g id="Layer_2-2" data-name="Layer 2"><path class="cls-1" d="M66.35,80.26a17,17,0,0,1-.83,2.44,2,2,0,0,1-.78.88l-4.87,2.77-1.51,1a3.21,3.21,0,0,1-2,.63,3,3,0,0,0-.34-.07,1.72,1.72,0,0,0-.34,0l-3.6-1.22a5.58,5.58,0,0,0-1.71-.29H50l-2.29.2-4.38-.69h-3.9l-1.8-.09L36.54,85a4.3,4.3,0,0,1-1.81.73,6,6,0,0,1-1.21-.3,3.22,3.22,0,0,1-1.66.59L27.52,86H25.87A3.12,3.12,0,0,0,24.16,85a.92.92,0,0,0-.39.09l.2.93-2.29.19a6.23,6.23,0,0,0-1.61-.92c-.23,0-.54.37-.93,1.12a53.65,53.65,0,0,0-10.47.88,15,15,0,0,1-2.87.34,3.42,3.42,0,0,1-2-.64,9.8,9.8,0,0,1-1.9.3A2.94,2.94,0,0,1,0,86.55l.73-.3L1.41,85,2.09,84l2-1.61a9,9,0,0,0,2.19-2.78l1.12-.29a5.56,5.56,0,0,1,.88-2.44l2.39-3.46a18.88,18.88,0,0,1,2.09-2.72,3.67,3.67,0,0,1,1.81-.78L14.18,69l1.21-2.19,1.08-1.71a8.12,8.12,0,0,1,.92-1.22l.68.2.68-1.17-.58-.44a6,6,0,0,1,1.32-1.85,33.72,33.72,0,0,0,3.84-5.5l1,.39,1.51-1.61-.64-2.29,2.39-3.56.63-.34.39.1.59-1.56-.59-.54,1-1.16,4.82-7.41.68-.58.3-1.32.82-.68,2-3.07.78-.83-.19-1L40,27.8H38.14L33.61,28l-1.9-.19-1.07.48-5.21-.48-2.29.39-5.26-.3-1.41.2-.88-1.61L12.86,27l.34.83-9.6.58a1.49,1.49,0,0,1-1.21.78c-.78,0-1.17-.42-1.17-1.27a1.62,1.62,0,0,1,.68-1.41l2.48-2L6.77,22.2l2,.77a7.5,7.5,0,0,1,2.53-.77h.39l6.29.92,6.77.39.92.39,2.19-.68,2.2.39q.68,1.17,1.17,1.17a3.51,3.51,0,0,1,.63-.2q.24-1.17,1.17-1.17h.19l4,.3,5.11-.39a10.49,10.49,0,0,1,3.46.68,8.22,8.22,0,0,1,3-.78,3.45,3.45,0,0,1,2.1,1l-2.54,4.19-.48.2-.69-.39-.78.58a1.65,1.65,0,0,0-.73-.29.79.79,0,0,0-.48.29,5.28,5.28,0,0,0,.14,1.39,3.28,3.28,0,0,0,.73,1.1l-.78.92a12.45,12.45,0,0,1-1.8,2.17,2.58,2.58,0,0,1-1.61.41l-.29.3H40.53l-.19,1.12c.71.26,1.07.61,1.07,1.07v.29L39.7,39.88l-1.07,1.75L37,43.24l-.19,1.61-1.61,1.8L32.44,51l-1.21.49-.3,3.22a27.81,27.81,0,0,0-4.19,5.89,3,3,0,0,0-.87-.1,2.17,2.17,0,0,0-1.22.59l.19.58c0,.23-.22.6-.68,1.12a3.57,3.57,0,0,0-2.19.69,6.5,6.5,0,0,0,.2,1.21l.68,1.17a.44.44,0,0,1,.09.29c0,.43-.92,2-2.77,4.83l-.59.87H17.05a1.1,1.1,0,0,1-.88.88V74c.88.39,1.32.89,1.32,1.51,0,.42-.7,1.51-2.1,3.26L14.57,80a8.17,8.17,0,0,0,2,1.12,7.91,7.91,0,0,0,2.44.29H20l3.36-.09h2.34a18.47,18.47,0,0,1,3.24.19,9.62,9.62,0,0,1,2.51,1.07l2-1.17,3.51.1,5.4-.1,1,.1.39,1,1-.2,1.36-.88,3,.49,7.8-.1,1.26.3.83-.78a3.9,3.9,0,0,0,1.66.48,6.56,6.56,0,0,0,3.12-1.6l.78-.59A3.16,3.16,0,0,1,66.35,80.26Z"/><path class="cls-1" d="M202.06,80.94l-.63,2.1-1.07-.1a1,1,0,0,0-.83.29l-1,2.1-1.32.92-.39.49-1.8-.19-2.09,1h-.1l-2.39-.73-.29-.1-5.51.2-1.55-.2-.54-.78c-2,.39-3.1.59-3.36.59l-1.8-.1-1.22.19-.39-1h-.59l-.48.1-1.71.87-9.6.1-1.41.68a5.19,5.19,0,0,0-2.48-1.07l-.49.1-2.48.68-2.83-.58-8.57.29a23.27,23.27,0,0,1-3.66-1.17l.49-1.12,1.17-2.78.19-2.63.54-2.38V73.1l.29-1.41L144,60.39l.19-2.88-.09-1.07-.3-1.12,2-.1a8.37,8.37,0,0,0-.93-1.65,7.69,7.69,0,0,0-1.36-1.22l-.24-.83.24-3.6-.44-6.19.44-2.39.2-1-1-.29-.39-1-.19-3.16-.59-1-.09-.48.09-1.22.39-.59,2.68.69-.78-.69c-.48-.35-.73-.68-.73-1a3.2,3.2,0,0,1,.2-.83l-.78-.29-1,.29a25.34,25.34,0,0,0-.31-3.16c-.12-.52-.32-.83-.61-.93l-1.9-.78.49-1a4.47,4.47,0,0,1,1.6-.88l.93-.29a9.55,9.55,0,0,1,3.65-1.12h.1s.08,0,.15.1l7.16,1.21,3.31.3,1.85.58a8.86,8.86,0,0,1,2.44-.68.55.55,0,0,1,.39.1l7.35.77,6.48-.38,2.53.73,1.46-.35v-.58a23.6,23.6,0,0,0,4.92-.88,11.89,11.89,0,0,1,2.59-.82l1,.19a3.82,3.82,0,0,1-.61,1.58,4.67,4.67,0,0,1-1.58,1.05,2.85,2.85,0,0,1-.34,1.22,4.83,4.83,0,0,1-1.41,1,10.57,10.57,0,0,1-4.19,1.17h-.54l-2.58-.19-2.19.29-4.49-.49-1-.09a4.9,4.9,0,0,0-2.68-.88c-.68.78-2,1.17-3.8,1.17l-1.46-.1-.24-.88-1,.3-1.41.58L150.87,26l-1.08,1.6.39.39v.39l.2,2.58-.39,3.8.19,1.42.1,1.07,1,.29,6.67.63a4.06,4.06,0,0,1,2,1l1.51-.29a6.65,6.65,0,0,1,2-.49h.1l5.21.29,3.07.1h2.78a6.4,6.4,0,0,0,1.49-.15,5.53,5.53,0,0,0,1.34-.53l3.7.68.87-.2,2.1-.48,3.8-.1,4-.54a4.16,4.16,0,0,1,1.37.73l1-.63a3,3,0,0,1,1.8-.78l1.08.1,1.12-.1v1.51l-1.32.88-3,2.58a1.67,1.67,0,0,1-1,.44h-.2l-3.26-.44-4.19.15L183,41.34l-8.19.54-1.51-.15c-.35-.65-.76-1-1.21-1a1.49,1.49,0,0,0-.59.09l-2.19.88L163,41.05l-3.12,1.12-2.19-.63-1.8,1.12-5.36-.39-.39.68.19,2.58-.83,2.63.44.78.68.88-.68,2.09a9.57,9.57,0,0,1,.88,2l-.2,1.61L151,60v.1a4,4,0,0,1-1.07,2,4.73,4.73,0,0,1,1.27,2.63,1.52,1.52,0,0,1-.2.68l-1.31,2.78,1.41,2.49.59,9.3,1.51.29,6.57,2.29,2.19-.29a5.13,5.13,0,0,1,2.2.78c.65-.58,1.12-.88,1.41-.88h.19l4.49.88,2.72-.29,2.39.48,5.8-.38,1.65.29,2.83.09,1,.35-.29-.73,1.12-.2,4.58-.1,1-.39,5.7-1,1.12-.27a7.68,7.68,0,0,1,1.07-.22A5.52,5.52,0,0,1,202.06,80.94Z"/><path class="cls-1" d="M341.24,84.74l-1.07.73-1.22.88-1.8.49-3.46,1.22a12,12,0,0,1-3.12.39h-1.7A11.86,11.86,0,0,0,327,86l-2.49-1.51-1.16-1-.64-.73c-.84-1-1.26-1.58-1.26-1.61L321,78.36l-1.85-.68-1.61-2.39-1.9-.73L314.5,73l-.78-.24L313,72l-1.61-1.31-.93-1.08-1.36-.78-1.71-2-1-1a3.22,3.22,0,0,0,.25-1.08c0-.74-.28-1.18-.83-1.31l-2.39-.49-.68-.83L299.93,60l-1.36-2.1L296.86,57l-1.41-1.32-1.27-.49-3.11-2.38-1-.3-.34,1.27L289.26,55l-.09,2.29a1.13,1.13,0,0,1,.68,1,1.73,1.73,0,0,1-.1.73l-.39,1.17L289.17,63l-.2,2.19.2,1.36-.39,1.22.68,1.22-.1,1-.29,2.59.1,1.6,1,7.9v.29a2,2,0,0,1-.63,1.51l-1,.87-.83.73H286.1a2.08,2.08,0,0,0-1.51.69L282,88.25a1.43,1.43,0,0,1-.93.2c-.65,0-1-.2-1-.59a16.7,16.7,0,0,1,1.17-2.92,5,5,0,0,0,.53-2.48l.1-3.32.58-1.65-.29-3.61.49-.88.78.1a.93.93,0,0,0,.87-.41,3.4,3.4,0,0,0,.25-1.59l-.68-.63a2.34,2.34,0,0,1-1.12-1.9l.29-1.9-.49-.58-.1-1.61.1-2.19.39-3.75-.39-4.73.29-2.29-.58-1.26c.1-.46.7-.87,1.8-1.22V47.23a1.81,1.81,0,0,0-1.31-.87l-.1-2.19-.2-3.8.3-1.9a9.41,9.41,0,0,1-.86-2,10.22,10.22,0,0,1-.22-2.39V31.89l-.34-.29.34-3.61a4.93,4.93,0,0,0-.92-2.77l-1.9-1.12.19-1.32,1-.29.68-.29A18.69,18.69,0,0,1,287,20.78l3.51-.19,1.51-.2c.65.62,1.14.93,1.46.93h.1l4.92-.93,1.07.64a.65.65,0,0,1,.22,0l.17.07,1.22-.09,3.41.09h6.87l5.16.88,3.32.2,2.67,1.41,3,.88a4.15,4.15,0,0,1,2.51,1.87A6.26,6.26,0,0,1,329,29.7a12.88,12.88,0,0,1-.88,4.19l-1.71-.29a2.07,2.07,0,0,0,.88,1.65l-.49,1.12-1.07,1.07-.63.83a3.2,3.2,0,0,1-1.56.2,1.18,1.18,0,0,0-.19.68l.39.83-.64.78-1.07.58-2.19,2.53-1.61.59-1.61,1.07-1,.1a3,3,0,0,1-1.41,1.8l-1.17.49-1.51.53h-1.22l-2.39.78-.68.1h-.39l-1.41,1.12a1.51,1.51,0,0,0-.78-.29,1.14,1.14,0,0,0-.64.19.92.92,0,0,0-.09.39c0,.29.24.65.73,1.07l-.34.83c-.65.55-1,1-1,1.27a4.58,4.58,0,0,0,.2.53h1a2.31,2.31,0,0,1,1.46-.73l1,1.12-.48.39c.1,1,.42,1.51,1,1.51l1-.09,1,1.26L312.31,61l1.9,1.71,2.09,2.48L316,66.48l2.09,1.12a4.47,4.47,0,0,0,.61,1.14c.15.15.64.53,1.49,1.15l2.19,2.38L323.9,74l.78.88v.63a2.44,2.44,0,0,0,.49,1.56l2,.63.93.68,1.7,1.61,5,3.07,1,1a.72.72,0,0,1,.26,0,.33.33,0,0,1,.13.07l3.07-.49h.09A3.46,3.46,0,0,1,341.24,84.74ZM319.71,31.4a3.48,3.48,0,0,0-1.22-3l-1.56-1.22-1.7-1.26-1.61-.1L311.33,25l-.49-.09H310l-.59-1.37-1.31-.19-.69,1.17-6.86-.59-.64.49-.78-.1-6.77.78h-1l-.78.93a1.42,1.42,0,0,0-1.41.8,9.27,9.27,0,0,0-.39,3.38l.09,3.17.1,2.1v1.31c-.94.75-1.41,1.38-1.41,1.9,0,.78.6,1.32,1.8,1.61l.39,1.07L289.56,43v1.41l-.39,2.29c.09.78.79,1.45,2.09,2l-.1.39,4.39-.1.63.58.88-.19,1.61-.2,3.16-1.21,1.12.43,1.07-.53,4.39-1.56L310,45.14l3.31-1.41,2.39-3.95,2.68-2.92.19-1.61.93-2.48Z"/><path class="cls-1" d="M437.46,83.43a2.1,2.1,0,0,0-.24-.41.86.86,0,0,0-.13-.14l-.18-.11-.41-.11-.15,0h-.12l-4.18-1.8L427,79l-1.51-1.56-2.78-.54-3.6-3-2.58-1.41-2-1.9h-.39l-.39-.78a3.12,3.12,0,0,1,.58-1.12l-1.8-2.19a4,4,0,0,0-.56,0l-.41.07a1.64,1.64,0,0,1-1.15-.41,1.16,1.16,0,0,1-.46-.85c0-.46.39-.93,1.17-1.42l-1.56-2.58.1-1.21-.73-5,.09-3.41c0-.72-.6-1.45-1.8-2.2l.15-.48a4,4,0,0,0,.95-.61,2.67,2.67,0,0,0,.51-1.1l2,.29.29-1,.63-.68.59-2.54.48-1,1-.19.48-.93a14.5,14.5,0,0,1,3.61-4.77l.78-.59L423,31.79l1.32-.53A5.83,5.83,0,0,0,426.69,29l1.26-.2,5.41-3,1.22-.39h.15l.33-.05.22-.11a2.38,2.38,0,0,0,.3-.18l.15-.1h0l.22-.19.09-.11.07-.07.05-.08.07-.11a2,2,0,0,0,.1-.21s0,0,0,0a.88.88,0,0,0,.05-.15.83.83,0,0,0,0-.15v-.17l0-.11,0-.07s0,0-.05-.05l-.06-.06-.25-.15h0l-.05,0a3.16,3.16,0,0,0-.59-.14,5.13,5.13,0,0,0-1,0,4.33,4.33,0,0,0-.92.25,1,1,0,0,1-.62,0l-5.1,2-.88.2-1.31,1.56-.78-.3a16.06,16.06,0,0,0-3.51,2l-3.07,2.1-1.31,1.6-1.51.69a3.7,3.7,0,0,0-1.47,1.6L413,36l-.68,2.1a1.06,1.06,0,0,1-1,.58,3.93,3.93,0,0,1-.68-.19l-2.48,2.77v.64a7.2,7.2,0,0,0-3.22,3.75l-.29,1.12L402.23,53l-.29,2.68-.39,1.22-.29,4.19L402,65.4l.19,1,1,2.92v1.07l.48.54.59,1.07.58.2v.39c2.4.39,3.61,1.08,3.61,2.09a4,4,0,0,1-.39,1.41l1.31,1.51a3.77,3.77,0,0,1,2.29.59L414,80.56l2.19.82,1.71,1.37,6.19,1.41,2,.58,1.37.2,1.6-.2,1.12.93,2.88-.1.28.08a1.3,1.3,0,0,1,.52,0c.74.14,1.47.31,2.2.46l.81.14.3-.08.07,0v-.27c0-.28.07-.56.1-.83.06-.54.09-1.07.1-1.61a.84.84,0,0,1-.11-.21Z"/><path class="cls-1" d="M485.53,54.2l-.48-3.65-.2-1.12-.83-.1v-.49l.73-.39c.13-.71.2-1.12.2-1.22l-.83-2.29-.19-1.07-3-3a1.14,1.14,0,0,1-.09-.48,3.07,3.07,0,0,1,.78-1.71l-.3-1.31-1.16-1.47-.25-1.12-1.75-1.6-.83-1.08a2.59,2.59,0,0,0-2.1-1,2.71,2.71,0,0,0-1.36.44,4.27,4.27,0,0,1-.92-1.05,3.62,3.62,0,0,1-.2-1.48,1.85,1.85,0,0,0-1.7-1.08l-.2.39c-.71-.42-1.07-.74-1.07-1a1.08,1.08,0,0,1,.39-.73l.19-.1V26l-1.12-.69-.58-.53-6-2.19-1.77-1a11.45,11.45,0,0,0-4.4-.17h0l-.21,0c-.94.2-1.89.37-2.85.49l-.16.23c-.1.16-.19.31-.28.48s-.07.14-.11.22l0,0,0,0a7.34,7.34,0,0,0-.28,1,.64.64,0,0,1,0,.09v0l2.76.38,4.29,2.38a3.45,3.45,0,0,0,2.09.54h1l.58,1.07.93.29,2,1.61,2,1.31,2.19,2.59.88,1.07.63.1.39,1.51,2.39,3.7.29,2.68c1.85.29,2.78,1.17,2.78,2.63,0,.68-.49,1.33-1.46,2l.1,1.51-.2,4.67v.1a6.26,6.26,0,0,0,1,2.73l-.48,3-.68.49-.25,1.41L475,63.7l-.19,4-.29.88.29.54-.59,1.26h-.63l-.78,1.42-2,3.5-4.87,4.19L465.46,81c-.09.33-.65.64-1.65.93l-.73-.59h0a5.61,5.61,0,0,1-1.32.9,9.93,9.93,0,0,1-2.94,1.08l-.29.2A9.64,9.64,0,0,1,455,85a6.77,6.77,0,0,0-3.07.83,2.05,2.05,0,0,0,.16,1,1.22,1.22,0,0,0,.52.51l.82,0h.2a35.65,35.65,0,0,0,4.58-.69l1-.19a26.29,26.29,0,0,0,5.94-2.24,73.32,73.32,0,0,0,7.46-4.14,14.44,14.44,0,0,0,5-4.68,3.15,3.15,0,0,1-.77-1.41c0-.65.29-1,.87-1a1.85,1.85,0,0,1,1.12.69l.78-.83L480.66,71l.88-.83.1-.29-.78-.59.29-.29-.29-.34,1.07-.49A5.22,5.22,0,0,1,483.34,66a1.19,1.19,0,0,0,.2-.68,5.94,5.94,0,0,0-1-2.1.4.4,0,0,1-.1-.29,2.53,2.53,0,0,1,.25-1.12c.16-.32.34-.49.53-.49a1.78,1.78,0,0,1,.69.1l.73-1.31-.1-2.49.88-2.87A1.32,1.32,0,0,0,485.53,54.2Z"/><path class="cls-1" d="M646.41,48.26l-.48,2.09.19,2.39A4.16,4.16,0,0,1,645,55.52l-.78,1-2,.49a3.42,3.42,0,0,0-.59,1.41l.2.19h.48L642,58l1,.73-.49.68-.29,1.22-.78,1.27-1.12,1.61-3.8,2.38-1.9,3L633,70.08l-3.31,3.51A5.85,5.85,0,0,1,627.47,75l-3.61,1.22-.88.39A1.91,1.91,0,0,1,622.5,78l-1,.39-5.7,2.78-3.45,2.24A6.21,6.21,0,0,1,609,84.45a3.52,3.52,0,0,1-1.51-.48,20,20,0,0,1-3.75,1.5l-2.82.88-1.9.39L595,87l-1.07.2-2.58-1a8.63,8.63,0,0,1-3.7,1.17l-.3-.39a3.19,3.19,0,0,1-2.19-.78l-1.8-.19v1.17a6.88,6.88,0,0,1-3.41.92,9.16,9.16,0,0,1-2.29-.29A35.73,35.73,0,0,0,573,86.74c-.74,0-1.12-.13-1.12-.39v-.29l.73-.83,1.17-.29a14.14,14.14,0,0,1,2-.49l.39.1.83-.88c.58-.65.87-1.08.87-1.31V80.85l.59-2.1.1-1v-.59l.63-.43a2.55,2.55,0,0,1-.73-1.81l.24-2.87.1-1.32,1.07-1.07a2.77,2.77,0,0,1-.58-1.31l-.1-1.56-.63-1.22.14-2.78V59.41l.78-1.6a5.49,5.49,0,0,0,.2-1.08c0-.55-.38-1.08-1.12-1.6l-.1-1.9v-.88q0-.59,1-1.32l.1-2.68h-1.22l-.29-1,.19-2.58-.48-3.8.39-1.07-.69-1.41-.09-4.78-1.32-1.51L577.19,30l.1-.73L577,26.48l-.1-1.6a7,7,0,0,1-2-.59l-1.31-.49V22.39l1.7-.68h3.8l2.1-.93a6.79,6.79,0,0,1,2.58-.39L587,20.3l1.76.58,1.22-.39.87.54h1.61l1.9.09,1.8.2h.1l1.61-.29,3.26,1.07,3.9.1,1.31.58,5.46.63,3.31,1,3.9.68,2.68.93,1.12.39-.2,1,.59.58-.39.59.19.19-.29.39.29-.1,1.71-.58,1.36-.39,1.22.39,1.8.49,1.07.73.1,1.07.44.1,1.85-.1c.62,0,1.32.57,2.1,1.7h.73c.84,0,2.11.61,3.8,1.81a18.39,18.39,0,0,1,4.58,4.38l-.73.68.14.73.59,1,1,.68a6.53,6.53,0,0,1,.93,2.24c-.62.26-.93.59-.93,1a.57.57,0,0,0,.1.4l1.41,2.09A1.84,1.84,0,0,1,646.41,48.26Zm-8.86-1a2.7,2.7,0,0,1-1.17-.75,3.13,3.13,0,0,1-.34-1.34l-.39-.1v-.58a3.59,3.59,0,0,0-.59-1.51l-.92-1.51.1-.49-1-.88-2.38-1.8a3.72,3.72,0,0,1-.78-.63,12.77,12.77,0,0,1-.91-1q-.51-.66-1.14-1.44H627a8.52,8.52,0,0,1-2-.19l-4.68-2.49-2.09-.39-1.32-.58-1.12-.24-.19-1.08a13.34,13.34,0,0,0-1.56-.29,2.19,2.19,0,0,0-1.22.59,8.92,8.92,0,0,0-2.48-1l-1.44-.27a1.22,1.22,0,0,1-.63-.24,4.53,4.53,0,0,1-.56-.51l-.78-.78a4.36,4.36,0,0,1-2.1.58,3.08,3.08,0,0,1-2-.58l-1.17-.83-3-.48-7-.88-3.41.29-.68-.39-.49.39-.53,1-1.08-.48-.19,1.41a10,10,0,0,1-.54,3.17l.25,1a20,20,0,0,1,.68,2.68l-.1.88-.58-.39h-.34a6.45,6.45,0,0,0,.82,3.11v1.37l-.63-.1a1.41,1.41,0,0,1-.88.44h-.48l-.2,1,.68.88a4.57,4.57,0,0,1,1.37.71,1.32,1.32,0,0,1,.34,1c-.68.3-1,.64-1,1a.78.78,0,0,0,.09.48l1,2.39-.3,8.67.39,1.22-.48,2.49.39.39-.2,1.8.2,2.68a2.23,2.23,0,0,1-.34,1.41,7.7,7.7,0,0,1-1.56,1.12l.19,1.46,1.71,1v1.17l-.2,5.9c.07.29.17.73.32,1.31s.3,1.16.46,1.71a2.36,2.36,0,0,1,.29,1.07,3.2,3.2,0,0,1-.39,1h-.87c-.65,0-1.19.54-1.61,1.61a29.64,29.64,0,0,0,4.77.59l6.48-.1,2.29.19L604.62,82l1.12-.1,5.45-2.09,3.71-1.51,1.51-.59,1.07-.92,3.6-1.37,2.78-2.73,1.12-.48.58-.69.59-1.8,2-1.12,1.12-1.65,2.09-2.44.39-1.17a6,6,0,0,0,2-.19.74.74,0,0,0,.44-.73c0-.46-.42-.78-1.27-1a9.94,9.94,0,0,0,2.32-3.63,24.88,24.88,0,0,0,1.14-5.53A20.14,20.14,0,0,1,637.55,47.23Z"/><path class="cls-1" d="M738.33,22.39l-.2,1.51-.29,1.61-1,1.65.69,5.12a9.05,9.05,0,0,1-1.12,3.31v.88l.73.29-.1,1.51.19,4a5,5,0,0,1-.19,1.63,4,4,0,0,1-.93,1.24l.73,1.12-.09,1.46V49l-1,1.7.49,1.27a5,5,0,0,1,.44,1.41l-.24,2.68V59l-.69,2.29v.39a1.41,1.41,0,0,0,.78,1.22v1.8l.15,1.08.1,2.09v.78l-.93,2.73.93.48-.34.78.43,2.73L736.67,80l.29,1.9.1,1.27q-4.44,4-6.09,4l-.58-.1-.15.54-1.75.39-.83-1.22a6.25,6.25,0,0,0,.92-2.68V82.94l1.27-4.28V75.49L732,75.1l.1-.44a2.85,2.85,0,0,0-.49-1.27l-1.17.1-.24-.19-.29.29.19-1.61.1-2.19.34-3.61-.1-1.9.88-1.36a4.33,4.33,0,0,1-1.05-1.29,6.25,6.25,0,0,1,.56-4.41l-.73-.78V55l.1-4.68a1.42,1.42,0,0,0-.1-.63l-.19-1-.1-1a1.8,1.8,0,0,0,.63-1.36l-.92-1,.39-.78L729.56,41l.58-1.8V39a2.52,2.52,0,0,0-1-1.7l-.1-1L728.78,32l.29-1.81-.68-1,.1-1.56V24.78A1.62,1.62,0,0,1,730,23.9l2.53-.19c.39-.07.91-.7,1.56-1.9l1.7-.49,1.61-.63a3.26,3.26,0,0,0,.68.19A6.7,6.7,0,0,1,738.33,22.39Z"/><path class="cls-1" d="M869.35,63.51a10,10,0,0,1-.49,2.77l-2-.1-.68.3.19,1.31a1.91,1.91,0,0,1,1.07,1.8,5.61,5.61,0,0,1-.38,2.59l-2.59,3.41-.87,1.46-1.9,2-1.9,1.8-1,.53-7.64,5-3.8,1.22a5.86,5.86,0,0,1-2.1.58,4.34,4.34,0,0,1-1-.29,6.65,6.65,0,0,1-3.27.78l-2.29-.1h-4.43l-1.56-.39-5.79-.38L823.65,86l-1.36.29.58.49-1.41-.19-1.36-.2-3.8-2.77-2.59-.35L811,81.58q-1.71-1.22-1.71-1.71a5.34,5.34,0,0,1,.78-2.41,13.14,13.14,0,0,1,1.85-2.6A4.94,4.94,0,0,1,815,73l.73,3.66a4.34,4.34,0,0,1,1.32.83,3.51,3.51,0,0,1,.53,1.36l1.12-.19,1,.63.82,1.17,3.27.92,3.31,1.47,6.67,1.41a8.24,8.24,0,0,0,2,1.07c.46,0,.73-.32.83-1l.68-.09,6.09.39,1.9-1,1.07.39,1.81-.39,2.09-.73a5,5,0,0,0,2.49-1.56l1.41-1.9,1.7-1.8a9.48,9.48,0,0,0,.78-2.29c1.27,0,1.9-.4,1.9-1.22l-.19-1-.1-1.22.78-.88,1.51-4.53H861l-.2-2.87-1-2.68-.39-1.12L858,59.8l-3.6-2.19L850,55.91l-1-1.08L847.62,54l-1,.53-.3.49-6.67-.29-1.51-1.81L837,54.44l-1.12-.24-2.78-.58a42.28,42.28,0,0,1-4.26-1,8.74,8.74,0,0,1-2.51-1.2l.1-1.07-1.71-.73a7.88,7.88,0,0,1-.82.2,10.85,10.85,0,0,1-2.27-2.07,12.8,12.8,0,0,1-1.19-3l.39-.1-1-1.12L819.66,42l-.2-1.6v-.49l.64-2,.58-1.12.58-1.51,1.61-1.17A3.27,3.27,0,0,0,824,31.26l.88-.69,5.31-4,2.29-1.36,3.75-1.9,5.21-1.71,1.22-.39,1.27-.19,3-.34,1.46-.59,4.92.59,2.19-.1,1.36.53,2.44.59c1.66.42,2.48,1,2.48,1.61a2.33,2.33,0,0,1-.09.68c-.65.23-1,.36-1,.39l-1.26,1.12a13,13,0,0,1-3.9,1.56l-1-.59-2.58-1.9-1.42-.19-4-.78-2.29.1-2.68.09-4.77,2.49L833.35,28l-2.29,1.81-1.12,1.26-2.1,3.7-1.9,1.32-.39,1.17,1.32.73a2.83,2.83,0,0,0-.2,1.07,4.68,4.68,0,0,0,.49,1.61l-1.9,1,.49,1.12,1,.39,1.8.29,1.9,1.61,4,1.81,1.07,1,3.41-.29,3,.29.19.63,1.22-.19,1.71-.2a1.76,1.76,0,0,1,.68.1l2.58.58,1.32.3c.22,1.52.65,2.29,1.26,2.29l.17-.08.17,0,2.2-1.41L856,50l1.9-.1a4.5,4.5,0,0,1,3,1.22l2.48,2.19h.13l.38,0a4.13,4.13,0,0,0,.52-.07h.09c.46,0,1.59,1.13,3.41,3.41l.78,1,.2,1.32Z"/><path class="cls-1" d="M1017.43,23.32l-.87.68-1.22,2.09-3.9,1.51-1.8,1.17a2.53,2.53,0,0,1-1.17.29h-.1l-2.82-.48-6.58-.2-4.58-.49-4.38.3-1.71-.3-.68.1-.53,2.29.24,1.22.1,1.56v.44l-.54,2.29.1,1.75-.2,1.51.3,1.12a2.9,2.9,0,0,0-1.49.39,2.27,2.27,0,0,0-.37,1.41c1.08.17,1.66.46,1.76.88l-.2,3.51v2.29c0,1-.63,2-1.9,3.16a7.87,7.87,0,0,0,.44.71,1.16,1.16,0,0,0,.61.41,3.62,3.62,0,0,0,.85.2l.3.58a2.38,2.38,0,0,0-.86.78,3.73,3.73,0,0,0-.31,1.32l1.17,1.31v4.49a2.2,2.2,0,0,1-.69,1.51l.49,1.16-.19,1.32.39,1.8-.2,1.41L987,70l.1,2q-1.86.78-1.86,2.19c0,.78.59,1.48,1.76,2.1l.73,8.18L987,85l-.88.43-2.58,2.2-.93.1h-.68l-.58.68a1.88,1.88,0,0,0-.93-.39l-.58.19-.59-1.31a2,2,0,0,0,.12-.47,1.41,1.41,0,0,1,.08-.31l.39-2.19-.39-2.59.39-3.8.29-5.6.49-4.19V66.67l.92-1.17L980.31,61l.49-3.12-.29-4.09-.2-2.78-.09-.09a13.78,13.78,0,0,1,.92-3.41l-.34-1.07a12.55,12.55,0,0,1-1.07-3.71v-.09l.1-1.42-.59-2.48.1-1.41-.63-3.56-.2-1.22,1.51-3c.68-.39,1-.76,1-1.12a2.73,2.73,0,0,0-.09-.78l-2.73-.54h-.88l-1-.09-2.19-.88-4.39.39-6.67-.68-7.21.39-1.17-.2a3.23,3.23,0,0,1-2.19,1.42h-.29l-1.42-.2-1.41-.24a5,5,0,0,1,.37-2.07,4.32,4.32,0,0,1,1.14-1.29l3.61-2.83a10.58,10.58,0,0,1,4.23-.68h1.32c.39.94.93,1.41,1.61,1.41A3.8,3.8,0,0,0,964,20.49l2.19.2,4.29,1.41,3.6-.2,2.83.69,5.65.29,2.38,1.31,1.12.1.1-.39,1.22.1c2,.16,3.32.29,3.82.39a3.31,3.31,0,0,1,1.54.83l1.7.39.88-.64,1.61-.09L999,24l3.61.1,2.38-.49a8.7,8.7,0,0,0,2.49.49,20.18,20.18,0,0,0,9.11-2.2l.58.3Z"/><path class="cls-1" d="M1161.64,83.87a1.51,1.51,0,0,1-.2.58l-1.9,1.61-2,2.87h-1.6l-1,.2-.1-.88-.58-1.22.1-1-.1-.93a6.53,6.53,0,0,1-.83-2.38h-.78l-.39-1.07-1.7-3.32-.3-1.7-2.48-4.29a4.43,4.43,0,0,1-.44-2c0-.13.06-.24.08-.34a4.17,4.17,0,0,0,0-.44,3.21,3.21,0,0,1-1.36-1.21,15.57,15.57,0,0,1-2.1-4.78l-1.7-.78c-.3,1.46-.87,2.2-1.71,2.2h-.19l-5.07-.93-1.8.1-1.32-.2-7,.93-4.1-.2-2.19.59-1.7-.59-1.32-.34a4.05,4.05,0,0,1-1.07,1.07,2.21,2.21,0,0,1-1.12.25h-.29l-4.29-.3-1.61.4-2.09.09c-.72.17-1.51,1.27-2.39,3.31l-.88,1.9-.53.2a33.54,33.54,0,0,1-3.66,7.06l-.09,1-.73,1.07-2.68,6c-.2.58-.93,1-2.2,1.32l.1.77a9.64,9.64,0,0,1-1.61.1,5.33,5.33,0,0,1-3-1.07l1.9-3.31,1.37-1.71,1.12-1.8.68-1.07.68-.93v-.39c1.33-.19,2-.79,2-1.8V75.39l1.51-1.8,2.09-4.58,1.22-1.7,1.37-3,1.6-3.06,1.9-3.22,2-1.9a.66.66,0,0,0,.19-.49,1.33,1.33,0,0,0-.48-.87,9.78,9.78,0,0,0,1.26-1.05,4.48,4.48,0,0,0,.74-1.15l-.59-.92.59-1,.77-2.29a6.76,6.76,0,0,1,1.22-1.21l-.1-.49,2.2-5.6,1.7-4.58a11.07,11.07,0,0,1,2.19-3.12l-.39-1.07.3-1.32a8.46,8.46,0,0,1,.56-1.94,1.54,1.54,0,0,1,.92-.78,10,10,0,0,1,1.68-.44l.3-.73-.49-1.46a3.2,3.2,0,0,1-.2-.83,1,1,0,0,1,.59-1l3.31-2.19.68-1.51a3.79,3.79,0,0,1,2.73-1.41l.58,2h.59l-.2.53.69,1.46,1.41,1.81,1.8,3.31,1,2.68,1.21,2.19-1.21.39a1.18,1.18,0,0,0,.43.92c1.17.69,1.76,1.32,1.76,1.9l-.1.88L1136,38l1.32,2.19.68,1.17.1.39-.39.93.19,1,.68.93,1.42,1.16,1.7,3.41.88,1.51v1.17c1.26,1.11,1.9,1.95,1.9,2.54a4.57,4.57,0,0,1-.2.68l1,1,2.19,3.71c.19.29.35.54.46.75s.31.55.59,1,.46.81.56,1a9.73,9.73,0,0,1,1,1.66,6.82,6.82,0,0,1,.17,1.36c1.13.56,1.7,1.19,1.7,1.9,0,.07-.05.13-.14.2l-.2,2.09a2.62,2.62,0,0,1,.2.68l2,1,.64.87.29.93c.13.49.66,1,1.61,1.46v1.12l1.65,1.71,1.61,2.68.83,1a6.21,6.21,0,0,1,.92,1.56A3.69,3.69,0,0,1,1161.64,83.87Zm-20-25-.43-.39.19-.34-.19-.49h-1c-.39-.45-.7-1.69-.93-3.7l-.09-1-1.85-.48L1135,47.82h-.68l-3-5.85.39-1.12-.29-1.21-2.29-1.17-3.5-7a9.44,9.44,0,0,0-2.29-2.24l-.59.44-.63,2-.39.1a13.73,13.73,0,0,1-.88,2.54,7.67,7.67,0,0,1-1.22,1.36,3.82,3.82,0,0,0-1.41,2.29l-.19,1.17-2.2,4.82c-.22.59-.44,1.09-.63,1.51s-.32.7-.39.83a4.22,4.22,0,0,1-.34.54,3,3,0,0,1-.54.58l-.39,1a4,4,0,0,1-.63,1.2,2,2,0,0,1-1.07.26l-.1,1.12a10.18,10.18,0,0,1-.8,3.66,6.06,6.06,0,0,1-2.07,2.14l.87,1.37a1.29,1.29,0,0,0-.87.34,2.18,2.18,0,0,0-.49,1l-.34,1.22.83.1,1.6.48,1.27-.19,1.12.39.2-.39.87-.1,6.29.39,4-.29,1.61.68a1.86,1.86,0,0,1,.51-.41,4.92,4.92,0,0,1,1.05-.15c.58-.05,1.49-.15,2.73-.32l1.31-.19-.19.49.39.19c.29,0,.65-.26,1.07-.78l1.31-.1,3.9-.36a14.65,14.65,0,0,0,1.61-.2,4,4,0,0,0,.9-.39A8.43,8.43,0,0,0,1141.61,58.83Z"/><path class="cls-1" d="M1289.54,41.73a2.07,2.07,0,0,1-1.07.93,7.34,7.34,0,0,1,.68,1.8l-.19,4,.19,3.17-.58,2.29.19,3.21-.29,4.49.29,2.58-.29,1.7.2,4.58-.1,1.32-.29-.49c-.56.42-.83.81-.83,1.17,0,.65.47,1.28,1.41,1.9a13.41,13.41,0,0,1,.39,2.68,9.18,9.18,0,0,1-.75,3.68,40.07,40.07,0,0,1-2.76,4.84l-.68,1.07-1.9,1.13-.39-1.13-2.29-3.5-2.92-3.66-2.19-3.8-.78-1,.19-1.07c0-.78-.57-1.61-1.7-2.49a22.39,22.39,0,0,1-2.68-2.43l-2.68-4.78-1.41-1.7-.88-2.48a3.07,3.07,0,0,0-3.12-2l-.58-1.17-2.83-4.63-.78-2.58-1.6-1.8-.3.39-.78-.49q-3.36-5.7-6.38-7.26a6.63,6.63,0,0,0,.39-1.8c0-.81-.31-1.22-.92-1.22l-1.08.39a2.11,2.11,0,0,0-1.31-.78l-1,.49,1.08,2.29-1.17.44.29.78-.39,2.09.19,4.19-.29,1.41-.83.39.1,1.17.83,2.83c.06.06.1.1.1.12V53a4.9,4.9,0,0,1-1.22,2.39l.39,2,.44,1.12V72.86l.58,4.19v.09a.7.7,0,0,1-.1.25l-.58,2.78.1.58c.58.32.87.7.87,1.12s-.79,1.79-2.38,4.09l-.59.88-1.12-.1c-.61.75-1.12,1.12-1.51,1.12h-.1l-1.07-.09L1238,88l.1-1.22a4.66,4.66,0,0,1,.44-1.8l1.07-1.36.83-1.22-1.12-1,.29-1.12.59-1.41a10.78,10.78,0,0,1-.49-1.66.77.77,0,0,0,.07-.17.43.43,0,0,0,0-.17l.73-2.58-.25-5.6a2.28,2.28,0,0,1,1.51-1v-.48l-1.07-1.32.2-1.07-.2-1L1241,61a.22.22,0,0,0,0-.1l-.07-.09-.64-2.1.35-2.82-.2-2c0-.65.46-1.28,1.36-1.9l-.09-1.17-.68-1.61a5,5,0,0,1,.29-1.41,2.05,2.05,0,0,1-.88-1.56,13.7,13.7,0,0,1,.59-3l-.49-.68-.1-1.41-.44-3.37a5.25,5.25,0,0,1,.44-1.41V35.25c0-2-.18-3.2-.54-3.65l-2.19-2.73.39-1.07,1.22-.73A11.18,11.18,0,0,0,1241,26a3.08,3.08,0,0,0,.77-1.27l.83-.49,2.29-2.68a.81.81,0,0,1,.59-.19,1.86,1.86,0,0,1,1.7,1.36l2.19,4.29.88,1.12.83,1.51-.29.29a24.05,24.05,0,0,1,3.07,4.39l2.48,4.19a7.36,7.36,0,0,1,.83,1.7,1.57,1.57,0,0,1-.44,1.07l2,1.12-.3.88.83,1,2,2.88,1.46,1.41.54,1.61,4.38,4.67-.92.49a2.4,2.4,0,0,0,.63,1.29,3.65,3.65,0,0,0,1.56.51l2.29,3.17-.68.1,1.31.92a7.39,7.39,0,0,1,1.75,1.56,4.38,4.38,0,0,1,.54,1.85l.68.68-.09.69a4.7,4.7,0,0,0,.68,2.29l1.12.73a13.29,13.29,0,0,1,2.19,1.07l2.09,3.21,1.08.69,1.41,1.21.49-1.12-.1-5.89,1-2.39a3,3,0,0,1-1-1.9,1.58,1.58,0,0,1,.1-.68l.63-2,.29-7,.78-1.51-.58-1.51.39-2.29v-.1c0-.42-.39-.8-1.17-1.12l-.25-12.67a1.12,1.12,0,0,0,.9-.36,2.93,2.93,0,0,0,.32-1.29l-1.51-1.12-.19-1.71a9.52,9.52,0,0,0-.61-2.82,1.53,1.53,0,0,0-1.49-.69,5.11,5.11,0,0,1-.19-1.16c0-1.21,1.39-2.16,4.19-2.88a6,6,0,0,1,1.19-1.41,12.52,12.52,0,0,1,2.22-1.12,3.54,3.54,0,0,1,.58,1.8l-.19,1.41.29,1.08-.1,1.89.1,4.1a6.76,6.76,0,0,1-.29,2.09l-.39,2v.1l.78,3.21-.2,2.39Z"/><path class="cls-1" d="M1438,79.14a2.8,2.8,0,0,1-.39,1.51l-.48.93-.68,2.19a1.71,1.71,0,0,1-1.32.68l-2.48.2-5.8,2-6.38.39-6.77,1.42a13.73,13.73,0,0,1-2.64.19,40.29,40.29,0,0,1-6.38-.39l-1.17-.19a2.2,2.2,0,0,0-2.29-2.1,3.23,3.23,0,0,0-2,1l.19.63-9.5-2.73-.29-.68-.58.19a6.1,6.1,0,0,1-2.93-1.5l-2.58-2-1.8-1.27-.78-1.12-4-3.7-.09-1.27c.65,0,1-.21,1-.63a.72.72,0,0,0-.49-.73,11.09,11.09,0,0,0-2-.44l-1.07-.2V70.28a3.92,3.92,0,0,1-1.39-.93,9.07,9.07,0,0,1-1-1.56l.39-.39-.39-.39h-.73L1368,58.44l.49-.34.1-.49-.69-2.87-.09-2.93a6.72,6.72,0,0,1,1-3.55,1,1,0,0,1,.24,0s0,0,0,.07c.39,0,.77-.4,1.12-1.21a5.92,5.92,0,0,1-.53-1.71,2.61,2.61,0,0,1,.44-1.36l3.16-6.53,1.81-1.17.77-1.7,1.12-.78,1-.93,2.34-.78,1.85-2.58a7.93,7.93,0,0,1,3.31-2.09l3.61-1.32,2.38-1.12,2-1.17,4.77-1.7a20.19,20.19,0,0,1,4-1.17h3.21l8.58-.93,2.87-.1,1.12.1,1.71.68,2.48-.09,2.1,1,1.17-.1a3,3,0,0,1,1.89.56,1.85,1.85,0,0,1,.74,1.54,2.26,2.26,0,0,1-1,1.8l-1.7,1-.68.68a1.94,1.94,0,0,1-.88.25,1.42,1.42,0,0,1-.63-.1l-3.9-1.8-1-.1a.26.26,0,0,0,.1-.19,1.85,1.85,0,0,0-.68-1.12L1417,24l-2.68.39-3.61-.68-4.28.29-2.39-.2h-.68a8.79,8.79,0,0,0-2.93.49l-3.16,1.32-1.51.09-2.2,1.17-1.8.64-3.36,1.9-1-.25L1386,30.28l.09,1.51a15.15,15.15,0,0,0-3.85,2.39l-4,4.29-.83.58.39.39-.39,1a8.79,8.79,0,0,1-.7,1.95,3.07,3.07,0,0,1-1.2.83l.73.73v1l-.63,1.91-.1,6.08-.29,1.17.49,1.22,1.21,2.39-.29.73-1,.19.44,1,2,2.29,1,2.82.68.88.29,1.07,2,3,.54,1,.87.82,1.42,2.29.87.59a7,7,0,0,1,1.12,1.41l1,.1a5.55,5.55,0,0,1,1.51,2l1,.29,3.8,1.7,1.51.39,1.42,1.32c.32.32,1.75.75,4.28,1.27l6.87,1.5a14.93,14.93,0,0,0,2.78.3h.83l3.8-.3,5.65.1,2.53-1.22,4.29-1,2.09-1.22,3.75-1.36,2.63-1.71h.39C1437.63,78,1438,78.36,1438,79.14Z"/><path class="cls-1" d="M1579.73,80.94l-.63,2.1-1.08-.1a1,1,0,0,0-.82.29l-1,2.1-1.31.92-.39.49-1.81-.19-2.09,1h-.1l-2.38-.73-.3-.1-5.5.2-1.56-.2-.54-.78c-2,.39-3.1.59-3.36.59l-1.8-.1-1.22.19-.39-1h-.58l-.49.1-1.7.87-9.6.1-1.41.68a5.21,5.21,0,0,0-2.49-1.07l-.49.1-2.48.68-2.83-.58-8.57.29a23.34,23.34,0,0,1-3.65-1.17l.48-1.12,1.17-2.78.2-2.63.53-2.38V73.1l.3-1.41-.2-11.3.2-2.88-.1-1.07-.29-1.12,2-.1a8,8,0,0,0-.92-1.65,7.84,7.84,0,0,0-1.37-1.22l-.24-.83.24-3.6-.43-6.19.43-2.39.2-1-1-.29-.39-1-.2-3.16-.58-1-.1-.48.1-1.22.39-.59,2.68.69-.78-.69c-.49-.35-.73-.68-.73-1a3.06,3.06,0,0,1,.19-.83l-.78-.29-1,.29a26.78,26.78,0,0,0-.32-3.16c-.11-.52-.32-.83-.61-.93l-1.9-.78.49-1a4.54,4.54,0,0,1,1.61-.88l.92-.29a9.53,9.53,0,0,1,3.66-1.12h.09s.08,0,.15.1l7.16,1.21,3.31.3,1.85.58a9,9,0,0,1,2.44-.68.54.54,0,0,1,.39.1l7.35.77,6.48-.38,2.54.73,1.46-.35v-.58a23.87,23.87,0,0,0,4.92-.88,12.06,12.06,0,0,1,2.58-.82l1,.19a4.12,4.12,0,0,1-.61,1.58,4.85,4.85,0,0,1-1.59,1.05,2.71,2.71,0,0,1-.34,1.22,4.68,4.68,0,0,1-1.41,1,10.57,10.57,0,0,1-4.19,1.17h-.54l-2.58-.19-2.19.29-4.48-.49-1-.09a4.87,4.87,0,0,0-2.67-.88c-.69.78-1.95,1.17-3.8,1.17l-1.46-.1-.25-.88-1,.3-1.42.58-6.67-.58-1.07,1.6.39.39v.39L1528,31l-.39,3.8.2,1.42.1,1.07,1,.29,6.67.63a4,4,0,0,1,2,1l1.51-.29a6.69,6.69,0,0,1,2-.49h.1l5.21.29,3.07.1h2.77a6.34,6.34,0,0,0,1.49-.15,5.38,5.38,0,0,0,1.34-.53l3.7.68.88-.2,2.09-.48,3.8-.1,4-.54a4.12,4.12,0,0,1,1.36.73l1-.63a3,3,0,0,1,1.8-.78l1.07.1,1.12-.1v1.51l-1.32.88-3,2.58a1.67,1.67,0,0,1-1,.44h-.2l-3.26-.44-4.19.15-2.29-.54-8.18.54-1.51-.15c-.36-.65-.77-1-1.22-1a1.4,1.4,0,0,0-.58.09l-2.2.88-6.38-.68-3.12,1.12-2.19-.63-1.8,1.12-5.36-.39-.39.68.2,2.58-.83,2.63.44.78.68.88-.68,2.09a9.39,9.39,0,0,1,.87,2l-.19,1.61.39,4.48v.1a4.13,4.13,0,0,1-1.07,2,4.77,4.77,0,0,1,1.26,2.63,1.5,1.5,0,0,1-.19.68l-1.32,2.78,1.42,2.49.58,9.3,1.51.29,6.58,2.29,2.19-.29a5.06,5.06,0,0,1,2.19.78c.65-.58,1.12-.88,1.41-.88h.2l4.48.88,2.73-.29,2.38.48,5.8-.38,1.66.29,2.82.09,1,.35-.29-.73,1.12-.2,4.58-.1,1-.39,5.7-1,1.12-.27a7.68,7.68,0,0,1,1.07-.22A5.56,5.56,0,0,1,1579.73,80.94Z"/><path class="cls-2" d="M447.16,103.11l.2-8-.46-4.74.36-1.35h0l-1-.85,1-4.74V82.1l-.1-3.65L447,76.59V73.45a2.9,2.9,0,0,1-.83-2.11v-.68l.73-4V61.59l.26-4.66a13.37,13.37,0,0,0-.47-2.45l-.52-2.21,1.09-3V47l.1-2.54-.77-1.95a8.09,8.09,0,0,0,1-2.16,13.64,13.64,0,0,0,.21-2.84l-.21-6.94a1.18,1.18,0,0,1-.27-.32,1,1,0,0,1-.12-.62.61.61,0,0,1,0-.13,1.13,1.13,0,0,1,.31-.76l.19-.18,0-.62-.77-.51V25.92a23.22,23.22,0,0,0,1.19-5.76l-.73-8.89,1-2.88.31-2.8.2-2.62A18.16,18.16,0,0,0,448.6.34c-.55-.23-.79-.34-.72-.34l-1.71,1.1L444.36,2q-1,3.14-1.65,3.3L440,5.59c-.66,0-1.18.51-1.55,1.53V12l-.11,2.71.73,1.78-.31,3.14.31,7.45.1,1.7a5.56,5.56,0,0,1,1,3v.34l-.62,3.13.42,6.27-.42,1.36,1,1.78a4.2,4.2,0,0,1-.68,2.37L440,48.8l.2,1.69a4.14,4.14,0,0,1,.11,1.11l-.11,8.13v2.46l.78,1.35a17,17,0,0,0-.59,7.67,7.76,7.76,0,0,0,1.11,2.24l-.93,2.38.1,3.3-.36,6.27-.11,3.81L440,92l.31-.51.26.34,1.24-.17a7.32,7.32,0,0,1,.52,2.2l-.11.76-2.33.68v5.51l-1.34,7.45v2a16,16,0,0,1-1,4.66l.88,2.12,1.86-.68.15-.93.62.17q1.77,0,6.47-7l-.1-2.2Z"/></g></g></svg>