<svg xmlns="http://www.w3.org/2000/svg" xmlns:xlink="http://www.w3.org/1999/xlink" viewBox="74.3690185546875 361.7999572753906 1772.191162109375 308.2000427246094"><defs><style>.cls-1{fill:url(#New_Gradient_Swatch_4);}.cls-2{fill:url(#linear-gradient);}.cls-3{fill:url(#New_Gradient_Swatch_3);}.cls-4{fill:url(#New_Gradient_Swatch_4-2);}.cls-5{fill:#e933f6;}.cls-6{fill:url(#New_Gradient_Swatch_3-2);}</style><linearGradient id="New_Gradient_Swatch_4" x1="1030.55" y1="554.38" x2="1848.91" y2="554.38" gradientUnits="userSpaceOnUse"><stop offset="0" stop-color="#999"/><stop offset="1" stop-color="#333"/></linearGradient><linearGradient id="linear-gradient" x1="985.25" y1="598.22" x2="985.25" y2="666.83" gradientUnits="userSpaceOnUse"><stop offset="0" stop-color="#b8b9bb"/><stop offset="0.42" stop-color="#adaeaf"/><stop offset="0.76" stop-color="#636465"/><stop offset="1" stop-color="#676869"/></linearGradient><linearGradient id="New_Gradient_Swatch_3" x1="-22.65" y1="5651.8" x2="-22.65" y2="5536.36" gradientTransform="translate(939.19 6208.12) rotate(180)" gradientUnits="userSpaceOnUse"><stop offset="0" stop-color="#c3a964"/><stop offset="1" stop-color="#50411a"/></linearGradient><linearGradient id="New_Gradient_Swatch_4-2" x1="1313.98" y1="4202.61" x2="2132.34" y2="4202.61" gradientTransform="translate(2209.01 4756.75) rotate(180)" xlink:href="#New_Gradient_Swatch_4"/><linearGradient id="New_Gradient_Swatch_3-2" x1="960" y1="362.59" x2="960" y2="473.33" gradientTransform="matrix(1, 0, 0, 1, 0, 0)" xlink:href="#New_Gradient_Swatch_3"/></defs><g id="Layer_1" data-name="Layer 1"><path class="cls-1" d="M1846.28,555.48l-813.1,1.1a2.44,2.44,0,0,1-2.63-2.2h0a2.45,2.45,0,0,1,2.63-2.2l813.1,1.1c1.45,0,2.63-.11,2.63,1.1h0C1848.91,555.6,1847.73,555.48,1846.28,555.48Z"/><path class="cls-2" d="M495.34,664.05a20.07,20.07,0,0,0,5.57-1.1,6.13,6.13,0,0,0,3-2.48,10,10,0,0,0,1.29-4.43q.25-2.73.25-6.91V603a82.07,82.07,0,0,0-8.8.4,14.31,14.31,0,0,0-6.11,2,14.05,14.05,0,0,0-4.53,5,50.18,50.18,0,0,0-3.83,9.25l-1.29-.4,1.39-19.49c2.79.14,5.54.23,8.26.3s5.47.1,8.25.1h23.37q4,0,7.85-.1c2.59-.07,5.21-.16,7.86-.3l1.39,19.49-1.29.4a50.18,50.18,0,0,0-3.83-9.25,14,14,0,0,0-4.53-5,14.43,14.43,0,0,0-6.21-2,86.19,86.19,0,0,0-9-.4v46.14q0,4.18.25,6.91a10.13,10.13,0,0,0,1.29,4.43A6.13,6.13,0,0,0,519.1,663a21.85,21.85,0,0,0,5.77,1.1v1.19q-3.78-.19-7.56-.3c-2.52-.07-5-.1-7.55-.1s-4.87,0-7.26.1-4.77.17-7.16.3Z"/><path class="cls-2" d="M670.44,664.84H652.55A173.48,173.48,0,0,1,641,650.77a112.91,112.91,0,0,1-9.49-15.26,21.12,21.12,0,0,1-2.54-.2q-1.54-.19-3.18-.45c-1.1-.16-2.16-.36-3.18-.59s-1.88-.45-2.54-.65v15.51q0,4.18.25,6.91a10.13,10.13,0,0,0,1.29,4.43A6.13,6.13,0,0,0,624.7,663a21.85,21.85,0,0,0,5.77,1.1v1.19q-3.78-.19-7.56-.3c-2.52-.07-5-.1-7.55-.1s-4.88,0-7.26.1-4.77.17-7.16.3v-1.19a20.07,20.07,0,0,0,5.57-1.1,6.17,6.17,0,0,0,3-2.48,10,10,0,0,0,1.29-4.43q.25-2.73.25-6.91V615.92c0-2.78-.08-5.09-.25-6.91a10,10,0,0,0-1.29-4.43,6.17,6.17,0,0,0-3-2.48,20.07,20.07,0,0,0-5.57-1.1v-1.19c2.12.14,4.24.23,6.36.3s4.24.1,6.37.1q1.38,0,3.48-.15c1.39-.1,2.86-.21,4.42-.35s3.13-.25,4.72-.35,3-.15,4.28-.15a36.73,36.73,0,0,1,8.75,1.1,25.29,25.29,0,0,1,8.06,3.48,19.71,19.71,0,0,1,5.86,6.06,16.21,16.21,0,0,1,2.29,8.75,14.65,14.65,0,0,1-1.24,6.17,15,15,0,0,1-3.34,4.67,17.56,17.56,0,0,1-4.92,3.28,25.46,25.46,0,0,1-5.91,1.89c.92,1.6,2,3.38,3.28,5.37s2.66,4,4.22,6.07,3.22,4.09,5,6.11a47,47,0,0,0,5.56,5.47,35.12,35.12,0,0,0,6,4.08,16.6,16.6,0,0,0,6.26,1.94ZM620,630.24a25.9,25.9,0,0,0,9.25,1.69q7.76,0,12-3.58t4.27-11.63a13.7,13.7,0,0,0-1.24-5.92,14,14,0,0,0-3.43-4.57,15.61,15.61,0,0,0-5-3,17.12,17.12,0,0,0-5.92-1c-1.65,0-3.28.06-4.87.2a22.4,22.4,0,0,0-4.67.89c-.14,3.18-.23,6.4-.3,9.65s-.1,6.76-.1,10.54Z"/><path class="cls-2" d="M724.44,664.05A20,20,0,0,0,730,663a6.16,6.16,0,0,0,3-2.48,10.27,10.27,0,0,0,1.29-4.43c.16-1.82.25-4.12.25-6.91V615.92c0-2.78-.09-5.09-.25-6.91a10.31,10.31,0,0,0-1.29-4.43,6.11,6.11,0,0,0-3.14-2.48,21.41,21.41,0,0,0-5.66-1.1v-1.19c2.78.14,5.48.23,8.1.3s5.32.1,8.1.1q3.28,0,6.57-.1c2.18-.07,4.34-.16,6.46-.3V601a19.81,19.81,0,0,0-5.47,1.1,5.84,5.84,0,0,0-3,2.48,10.47,10.47,0,0,0-1.24,4.43c-.17,1.82-.25,4.13-.25,6.91v33.21q0,4.18.25,6.91a10,10,0,0,0,1.29,4.43A6.09,6.09,0,0,0,748.2,663a21.68,21.68,0,0,0,5.77,1.1v1.19q-3.78-.19-7.56-.3t-7.56-.1q-3.68,0-7.26.1c-2.38.07-4.77.17-7.15.3Z"/><path class="cls-2" d="M844.55,665.24q-3.78-.19-7.51-.3c-2.48-.07-5-.1-7.5-.1s-4.89,0-7.31.1-4.92.17-7.51.3v-1.19a22.54,22.54,0,0,0,5.82-1.1,6.13,6.13,0,0,0,3.18-2.48A10,10,0,0,0,825,656q.25-2.73.25-6.91V615.92c0-2.78-.08-5.09-.25-6.91a10,10,0,0,0-1.29-4.43,6.13,6.13,0,0,0-3.13-2.48,21.41,21.41,0,0,0-5.67-1.1v-1.19c2.19.14,4.37.23,6.56.3s4.38.1,6.56.1a88.13,88.13,0,0,0,9.4-.5,88.27,88.27,0,0,1,9.4-.5,24.18,24.18,0,0,1,7.7,1.35,25.72,25.72,0,0,1,7.41,3.88,21,21,0,0,1,5.52,6.16,15.8,15.8,0,0,1,2.14,8.2,14.19,14.19,0,0,1-2.19,8.06,17.74,17.74,0,0,1-5.52,5.32,23.92,23.92,0,0,1-7.41,2.93,36.79,36.79,0,0,1-8,.9,57.44,57.44,0,0,1-6.17-.35,25.93,25.93,0,0,1-6.16-1.44v14.91q0,4.18.25,6.91a10.13,10.13,0,0,0,1.29,4.43,6.13,6.13,0,0,0,3.13,2.48,21.49,21.49,0,0,0,5.67,1.1Zm-10.34-34.6a16.28,16.28,0,0,0,4.92,1.74,30.25,30.25,0,0,0,5.12.44,18.58,18.58,0,0,0,5.92-.94,14.81,14.81,0,0,0,4.92-2.69,12.67,12.67,0,0,0,3.33-4.32,13.35,13.35,0,0,0,1.25-5.87,19.24,19.24,0,0,0-1.25-7.06,14.83,14.83,0,0,0-8.65-8.75,18,18,0,0,0-6.61-1.19,41.4,41.4,0,0,0-4.23.25,15.69,15.69,0,0,0-4.72,1.24Z"/><path class="cls-2" d="M1048.89,599.81c2.78.14,5.5.23,8.15.3s5.37.1,8.16.1q3.87,0,7.8-.1c2.62-.07,5.22-.16,7.81-.3V601q-1.2.21-2.64.6a12,12,0,0,0-2.68,1.1,6.2,6.2,0,0,0-2,1.79,4.41,4.41,0,0,0-.8,2.68,6.19,6.19,0,0,0,1,2.88,48.22,48.22,0,0,0,3,4.48l14.12,19.09,11.73-18.4a14.74,14.74,0,0,0,2.59-7.65,5.47,5.47,0,0,0-2.39-4.63,10.21,10.21,0,0,0-5.37-1.94v-1.19c2.32.14,4.66.23,7,.3s4.69.1,7,.1q3.18,0,6.32-.1c2.08-.07,4.19-.16,6.31-.3V601a17.41,17.41,0,0,0-6.36,2.54,29.1,29.1,0,0,0-5,4.18,36.64,36.64,0,0,0-4,4.92q-1.74,2.58-3.23,4.67l-13.63,19.89v14.62a23.55,23.55,0,0,0,.6,5.91,7.41,7.41,0,0,0,1.94,3.53,8,8,0,0,0,3.63,1.89,35.15,35.15,0,0,0,5.77.9v1.19q-4.48-.19-8.85-.3t-8.85-.1q-3.69,0-7.36.1c-2.45.07-4.91.17-7.36.3v-1.19a33.43,33.43,0,0,0,5.52-.9,8.11,8.11,0,0,0,3.58-1.89,7.19,7.19,0,0,0,1.89-3.53,26.06,26.06,0,0,0,.54-5.91V636.21l-18-23.07q-1.39-1.8-2.89-3.63a28.67,28.67,0,0,0-3.33-3.48,23.7,23.7,0,0,0-4.22-3,20.41,20.41,0,0,0-5.57-2Z"/><path class="cls-2" d="M1241.09,622.48a38,38,0,0,0-3.43-8.25,27.52,27.52,0,0,0-5.07-6.56,21.2,21.2,0,0,0-6.76-4.33,22.8,22.8,0,0,0-8.6-1.54,21.15,21.15,0,0,0-10.44,2.39,20.1,20.1,0,0,0-7,6.46,28.33,28.33,0,0,0-4,9.45,50,50,0,0,0-1.24,11.33,40.24,40.24,0,0,0,1.59,11.39,28.53,28.53,0,0,0,4.72,9.49,23.22,23.22,0,0,0,7.86,6.52,23.45,23.45,0,0,0,10.89,2.43,27.21,27.21,0,0,0,16-4.67,44.66,44.66,0,0,0,11.88-12.73l2.48,2a88,88,0,0,1-6.76,8.95,38,38,0,0,1-7.36,6.56,31.35,31.35,0,0,1-8.65,4.08,36.81,36.81,0,0,1-10.54,1.39,31.81,31.81,0,0,1-12.63-2.54,32.52,32.52,0,0,1-10.44-7,33.6,33.6,0,0,1-7.1-10.84,37.78,37.78,0,0,1,0-27.75,33.56,33.56,0,0,1,7.1-10.83,32.38,32.38,0,0,1,10.44-7.06,32,32,0,0,1,12.63-2.54,49.09,49.09,0,0,1,6.86.45c2.13.3,4.16.61,6.12.94l5.67,1a37.41,37.41,0,0,0,5.42.59c0,1.4,0,3,.15,4.88s.24,3.76.44,5.71.4,3.88.6,5.77.4,3.53.6,4.92Z"/><path class="cls-2" d="M1359.82,615.92c0-2.78-.09-5.09-.25-6.91a10.31,10.31,0,0,0-1.29-4.43,6.13,6.13,0,0,0-3.13-2.48,21.58,21.58,0,0,0-5.67-1.1v-1.19c2.78.14,5.48.23,8.1.3s5.32.1,8.11.1q3.27,0,6.56-.1c2.19-.07,4.34-.16,6.46-.3V601a19.81,19.81,0,0,0-5.47,1.1,5.88,5.88,0,0,0-3,2.48A10.62,10.62,0,0,0,1369,609c-.17,1.82-.25,4.13-.25,6.91v33.21q0,4.18.25,6.91a10,10,0,0,0,1.29,4.43,6.09,6.09,0,0,0,3.13,2.48,21.68,21.68,0,0,0,5.77,1.1v1.19q-3.78-.19-7.56-.3t-7.56-.1q-3.67,0-7.25.1t-7.16.3v-1.19a20,20,0,0,0,5.56-1.1,6.16,6.16,0,0,0,3-2.48,10.27,10.27,0,0,0,1.29-4.43c.16-1.82.25-4.12.25-6.91v-17.9h-36.89v17.9q0,4.18.25,6.91a10,10,0,0,0,1.29,4.43,6.13,6.13,0,0,0,3.13,2.48,21.76,21.76,0,0,0,5.77,1.1v1.19q-3.78-.19-7.56-.3t-7.56-.1q-3.68,0-7.25.1t-7.16.3v-1.19a20.15,20.15,0,0,0,5.57-1.1,6.17,6.17,0,0,0,3-2.48,10.27,10.27,0,0,0,1.29-4.43q.26-2.73.25-6.91V615.92c0-2.78-.08-5.09-.25-6.91a10.31,10.31,0,0,0-1.29-4.43,6.13,6.13,0,0,0-3.13-2.48,21.58,21.58,0,0,0-5.67-1.1v-1.19c2.78.14,5.48.23,8.1.3s5.32.1,8.11.1q3.27,0,6.56-.1c2.19-.07,4.34-.16,6.46-.3V601a19.81,19.81,0,0,0-5.47,1.1,5.88,5.88,0,0,0-3,2.48,10.62,10.62,0,0,0-1.24,4.43c-.17,1.82-.25,4.13-.25,6.91v12.13h36.89Z"/><path class="cls-2" d="M1485,618.7a38.07,38.07,0,0,0-3.34-6.31,28.18,28.18,0,0,0-4.72-5.57,23.34,23.34,0,0,0-6-3.93,17.19,17.19,0,0,0-7.16-1.49,18.5,18.5,0,0,0-9.3,2.09q-3.63,2.09-3.63,7.46a9.4,9.4,0,0,0,1.64,5.52,15.65,15.65,0,0,0,4.38,4.12,40.1,40.1,0,0,0,6.21,3.29l7.11,3c2.42,1,4.79,2.13,7.11,3.33a28.7,28.7,0,0,1,6.21,4.27,19.4,19.4,0,0,1,4.38,5.77,17.47,17.47,0,0,1,1.64,7.86,18.39,18.39,0,0,1-1.79,8.4,16.59,16.59,0,0,1-4.82,5.82,20.74,20.74,0,0,1-7.06,3.38,32.74,32.74,0,0,1-8.6,1.09,31.3,31.3,0,0,1-5.17-.46c-1.79-.31-3.52-.66-5.17-1l-4.53-1a15.4,15.4,0,0,0-3.23-.46,6.08,6.08,0,0,0-2.09.35l-2.09.74q-.88-5.64-2.08-11t-2.49-11l1.29-.69a74.49,74.49,0,0,0,4.33,7.23,44,44,0,0,0,5.71,6.87,31.72,31.72,0,0,0,7,5.2,17.11,17.11,0,0,0,8.31,2.08,23.79,23.79,0,0,0,5.57-.65,14.3,14.3,0,0,0,4.72-2,10.1,10.1,0,0,0,3.23-3.63,11.47,11.47,0,0,0,1.19-5.5,11.08,11.08,0,0,0-2.88-7.8,27.8,27.8,0,0,0-7.16-5.46,85.47,85.47,0,0,0-9.3-4.32,68.35,68.35,0,0,1-9.29-4.47,27.24,27.24,0,0,1-7.16-5.85,12.66,12.66,0,0,1-2.89-8.54,16.37,16.37,0,0,1,5.52-12.46,18,18,0,0,1,5.87-3.43,21.05,21.05,0,0,1,7.11-1.19,40,40,0,0,1,6.61.5c2,.33,3.86.69,5.72,1.09s3.81.78,5.67,1.15a31.22,31.22,0,0,0,6,.54q0,4.49.15,8.7t.65,8.5Z"/><path class="cls-3" d="M987.89,558.42a35.21,35.21,0,0,0-9.83,1.93,10.81,10.81,0,0,0-5.35,4.39,17.8,17.8,0,0,0-2.28,7.81q-.43,4.82-.44,12.19v81.41a144.69,144.69,0,0,0,15.53-.7,25.13,25.13,0,0,0,10.79-3.6,24.74,24.74,0,0,0,8-8.86,87.76,87.76,0,0,0,6.76-16.32l2.28.71-2.46,34.38q-7.36-.35-14.56-.52t-14.56-.18H940.52q-7,0-13.87.18t-13.86.52l-2.45-34.38,2.28-.71A87.83,87.83,0,0,0,919.37,653a24.76,24.76,0,0,0,8,8.86,25.33,25.33,0,0,0,11,3.6,151.88,151.88,0,0,0,15.88.7V584.74q0-7.37-.44-12.19a17.8,17.8,0,0,0-2.28-7.81,10.76,10.76,0,0,0-5.53-4.39,38,38,0,0,0-10.17-1.93v-2.1q6.66.34,13.33.52t13.34.18q6.49,0,12.8-.18t12.64-.52Z"/><path class="cls-4" d="M79.31,553l813.09-1.1a2.45,2.45,0,0,1,2.63,2.2h0a2.44,2.44,0,0,1-2.63,2.2l-813.09-1.1c-1.46,0-2.64.12-2.64-1.1h0C76.67,552.93,77.85,553,79.31,553Z"/></g><g id="Layer_3" data-name="Layer 3"><path class="cls-5" d="M904.84,362.59q5.25.33,10.35.5c3.4.11,6.86.16,10.36.16q6.3,0,12.31-.16t12-.5v2c-1.4.22-2.91.5-4.51.83a17.56,17.56,0,0,0-4.5,1.59,9.77,9.77,0,0,0-3.45,2.91,8.32,8.32,0,0,0-1.35,5q0,3,4.35,15L964,453.32l19.51-51.21q7.5-20.17,7.51-27.52a9.07,9.07,0,0,0-1-4.5,8.09,8.09,0,0,0-2.86-2.92,15.85,15.85,0,0,0-4-1.67,41.41,41.41,0,0,0-4.43-.91v-2q5.1.33,10.13.5t10,.16c2.8,0,5.56-.05,8.26-.16s5.4-.28,8.1-.5v2a16.1,16.1,0,0,0-8.85,3.83,29.49,29.49,0,0,0-6.16,7.68,64.29,64.29,0,0,0-4.43,9.67q-1.87,5.18-3.67,9.67l-31.22,77.89h-3.31l-35-91.4A40.88,40.88,0,0,0,915.87,370a15.62,15.62,0,0,0-11-5.42Z"/><path class="cls-6" d="M904.84,362.59q5.25.33,10.35.5c3.4.11,6.86.16,10.36.16q6.3,0,12.31-.16t12-.5v2c-1.4.22-2.91.5-4.51.83a17.56,17.56,0,0,0-4.5,1.59,9.77,9.77,0,0,0-3.45,2.91,8.32,8.32,0,0,0-1.35,5q0,3,4.35,15L964,453.32l19.51-51.21q7.5-20.17,7.51-27.52a9.07,9.07,0,0,0-1-4.5,8.09,8.09,0,0,0-2.86-2.92,15.85,15.85,0,0,0-4-1.67,41.41,41.41,0,0,0-4.43-.91v-2q5.1.33,10.13.5t10,.16c2.8,0,5.56-.05,8.26-.16s5.4-.28,8.1-.5v2a16.1,16.1,0,0,0-8.85,3.83,29.49,29.49,0,0,0-6.16,7.68,64.29,64.29,0,0,0-4.43,9.67q-1.87,5.18-3.67,9.67l-31.22,77.89h-3.31l-35-91.4A40.88,40.88,0,0,0,915.87,370a15.62,15.62,0,0,0-11-5.42Z"/></g></svg>