<svg xmlns="http://www.w3.org/2000/svg" xmlns:xlink="http://www.w3.org/1999/xlink" viewBox="244.5 414.5 1431 303.1600341796875">
  <defs/>
  <defs>
    <linearGradient id="FINAL" x1="960" x2="960" y1="519.07" y2="452.71" gradientUnits="userSpaceOnUse">
      <stop offset="0" stop-color="#999"/>
      <stop offset="1" stop-color="#333"/>
    </linearGradient>
    <linearGradient id="New_Gradient_Swatch_6" x1="953.11" x2="953.11" y1="414.29" y2="518.61" gradientUnits="userSpaceOnUse">
      <stop offset="0" stop-color="#c7a758"/>
      <stop offset="1" stop-color="#534011"/>
    </linearGradient>
    <linearGradient id="New_Gradient_Swatch_6-2" x1="953.11" x2="953.11" y1="613.94" y2="718.34" xlink:href="#New_Gradient_Swatch_6"/>
    <linearGradient id="New_Gradient_Swatch_5" x1="1012.5" x2="1675.5" y1="566.03" y2="566.03" xlink:href="#FINAL"/>
    <linearGradient id="linear-gradient" x1="244.5" x2="889.5" y1="566.55" y2="566.55" gradientUnits="userSpaceOnUse">
      <stop offset="0" stop-color="#333"/>
      <stop offset="1" stop-color="#999"/>
    </linearGradient>
    <style>
      .cls-1{fill:url(#FINAL)}
    </style>
  </defs>
  <g id="Layer_2" data-name="Layer 2">
    <path d="M365.78 485.89a33 33 0 012.84-13.95 31.25 31.25 0 017.65-10.43 33.24 33.24 0 0111.3-6.54 43.26 43.26 0 0127.6 0 33.33 33.33 0 0111.3 6.54 31.39 31.39 0 017.65 10.43 35.8 35.8 0 010 27.9 31.39 31.39 0 01-7.65 10.43 33.33 33.33 0 01-11.3 6.54 43.26 43.26 0 01-27.6 0 33.24 33.24 0 01-11.3-6.54 31.25 31.25 0 01-7.65-10.43 33 33 0 01-2.84-13.95zm10.2 0a36.65 36.65 0 001.73 11.25 29.41 29.41 0 005 9.48 24.85 24.85 0 008 6.54 24.48 24.48 0 0021.35 0 24.88 24.88 0 008-6.54 29.61 29.61 0 005-9.48 37.44 37.44 0 000-22.5 29.61 29.61 0 00-5-9.48 24.73 24.73 0 00-8-6.53 24.39 24.39 0 00-21.35 0 24.69 24.69 0 00-8 6.53 29.41 29.41 0 00-5 9.48 36.65 36.65 0 00-1.71 11.25zM497.25 469.83q0-4-.24-6.69a9.66 9.66 0 00-1.25-4.27 5.9 5.9 0 00-2.93-2.41 19.39 19.39 0 00-5.39-1.06v-1.15c2 .13 3.95.22 5.87.29s3.88.09 5.87.09a76.14 76.14 0 007.69-.38 82.26 82.26 0 018.27-.39 44.53 44.53 0 018.51.87 28.16 28.16 0 018.23 2.93 18.86 18.86 0 016.25 5.53 14.4 14.4 0 012.5 8.66 12.42 12.42 0 01-2.74 7.84 14.1 14.1 0 01-6.78 4.85v.2a21.83 21.83 0 0110.34 6.49q3.69 4.38 3.7 11.59a13.13 13.13 0 01-1.92 7.35 14.55 14.55 0 01-5.1 4.72 23 23 0 01-7.21 2.5 47.22 47.22 0 01-8.28.72q-6.63 0-13-.48t-13-.48q-2.22 0-4.47.09c-1.51.07-3 .16-4.47.29v-1.15a19.2 19.2 0 005.29-1.06 5.63 5.63 0 002.88-2.4 10.29 10.29 0 001.2-4.28q.24-2.65.24-6.69zm8.66 12.17a18.37 18.37 0 005.29 1.82 30.19 30.19 0 005.48.48 15.4 15.4 0 0010.24-3.41q4.1-3.4 4.09-9.86a12.61 12.61 0 00-1.34-5.86 14.67 14.67 0 00-3.56-4.48 15.81 15.81 0 00-5.15-2.88 18.73 18.73 0 00-6.11-1c-1.53 0-3 .06-4.52.19a18.43 18.43 0 00-4.42 1zm0 30a3.25 3.25 0 001.78 1.35 21.59 21.59 0 003.27 1 35.28 35.28 0 004 .67 35.92 35.92 0 004 .24q7.78 0 12.17-4.08t4.37-11.88a12.72 12.72 0 00-2.59-7.74 25.11 25.11 0 00-6-5.82c-1.54.26-3.08.5-4.61.72a33.3 33.3 0 01-4.72.34 54.26 54.26 0 01-6-.34 23.28 23.28 0 01-5.77-1.4zM641.61 472.52a35.86 35.86 0 00-3.22-6.1 27.34 27.34 0 00-4.57-5.39 22.11 22.11 0 00-5.77-3.8 16.52 16.52 0 00-6.92-1.44 17.81 17.81 0 00-9 2c-2.35 1.34-3.52 3.75-3.52 7.21a9.06 9.06 0 001.59 5.34 15.31 15.31 0 004.23 4 39.75 39.75 0 006 3.17l6.88 2.94q3.51 1.49 6.88 3.22a27.94 27.94 0 016 4.13 19.17 19.17 0 014.23 5.58A16.82 16.82 0 01646 501a17.86 17.86 0 01-1.73 8.13 16 16 0 01-4.67 5.62 19.59 19.59 0 01-6.83 3.27 31.4 31.4 0 01-8.32 1.06 29.29 29.29 0 01-5-.45c-1.73-.3-3.4-.63-5-1l-4.37-1a15.55 15.55 0 00-3.13-.44 6.16 6.16 0 00-2 .33l-2 .72q-.87-5.46-2-10.68t-2.4-10.67l1.25-.67a71.44 71.44 0 004.18 7 43.29 43.29 0 005.53 6.65 30.28 30.28 0 006.78 5 16.58 16.58 0 008 2 22.79 22.79 0 005.39-.63 13.59 13.59 0 004.57-2 9.67 9.67 0 003.12-3.5 11.2 11.2 0 001.16-5.33 10.7 10.7 0 00-2.79-7.54 26.53 26.53 0 00-6.93-5.28 81.55 81.55 0 00-9-4.18 66.29 66.29 0 01-9-4.32 26.57 26.57 0 01-6.93-5.66 12.27 12.27 0 01-2.79-8.26 15.81 15.81 0 015.34-12.05 17.42 17.42 0 015.68-3.32 20.14 20.14 0 016.87-1.15 38.63 38.63 0 016.4.48q2.83.48 5.53 1.06c1.86.38 3.68.75 5.48 1.1a29.32 29.32 0 005.77.53c0 2.89 0 5.69.14 8.42s.31 5.47.63 8.22zM717 513.4c.58.13 1.29.25 2.12.38l2.69.39c1 .12 2 .24 3 .33s2 .15 2.89.15a49.8 49.8 0 0010.34-1 29.76 29.76 0 008.37-3.07 34.3 34.3 0 007.16-5.39 68.31 68.31 0 006.83-7.88l1.06.86-8.76 19.33c-1.09-.13-2.21-.22-3.36-.29s-2.28-.09-3.37-.09H709.8q-2.79 0-5.58.09c-1.86.07-3.72.16-5.58.29v-1.15a19.39 19.39 0 005.39-1.06 5.7 5.7 0 002.89-2.4 10.29 10.29 0 001.2-4.28q.24-2.65.24-6.69v-32.09q0-4-.24-6.69a10.24 10.24 0 00-1.2-4.27 5.68 5.68 0 00-3-2.41 20.63 20.63 0 00-5.48-1.06v-1.15l6.2.19c2 .07 4 .11 6.06.15s4.3 0 6.64 0h7.93q6.74 0 13.47-.09t13.66-.29c-.07.71-.12 1.41-.15 2.11s0 1.38 0 2v3.85c0 1.41.07 2.84.2 4.28s.25 3 .38 4.76l-1.25.39a23.71 23.71 0 00-3.32-7.55 15.76 15.76 0 00-4.81-4.57 17.43 17.43 0 00-6-2.21 39.31 39.31 0 00-6.92-.58q-6.74 0-13.47.58v24c1.29 0 2.52 0 3.71-.1s2.42-.09 3.7-.09q6.63 0 10.53-2.65t4.76-9.66h1.15c0 2.31 0 4.61-.09 6.92s-.1 4.59-.1 6.83 0 4.62.1 6.92.09 4.62.09 6.93h-1.15a28.86 28.86 0 00-2.12-6.59 10.06 10.06 0 00-3.12-3.89 11.11 11.11 0 00-4.67-1.83 39.68 39.68 0 00-6.63-.48H717zM875.32 517.15H858a169.79 169.79 0 01-11.21-13.61 110.41 110.41 0 01-9.18-14.76 20 20 0 01-2.46-.2c-1-.12-2-.27-3.07-.43s-2.09-.35-3.08-.58-1.81-.43-2.45-.62v15q0 4 .24 6.69a9.71 9.71 0 001.25 4.28 5.84 5.84 0 003 2.4 20.91 20.91 0 005.58 1.06v1.15c-2.44-.13-4.88-.22-7.31-.29s-4.88-.09-7.31-.09-4.72 0-7 .09-4.62.16-6.93.29v-1.15a19.47 19.47 0 005.39-1.06 5.88 5.88 0 002.93-2.4 9.84 9.84 0 001.25-4.28q.24-2.65.24-6.69v-32.12q0-4-.24-6.69a9.8 9.8 0 00-1.25-4.27 5.9 5.9 0 00-2.93-2.41 19.47 19.47 0 00-5.39-1.06v-1.15c2 .13 4.1.22 6.16.29s4.1.09 6.15.09c.9 0 2 0 3.37-.14s2.77-.21 4.28-.34 3-.24 4.57-.33 2.91-.15 4.13-.15a35.26 35.26 0 018.46 1.06 24.29 24.29 0 017.81 3.37 19 19 0 015.68 5.86 15.79 15.79 0 012.21 8.47 14.06 14.06 0 01-1.2 6 14.78 14.78 0 01-3.22 4.52 17.28 17.28 0 01-4.76 3.17 24.86 24.86 0 01-5.73 1.83q1.35 2.31 3.18 5.19c1.22 1.93 2.58 3.88 4.09 5.87s3.1 4 4.8 5.91a46.28 46.28 0 005.39 5.29 34 34 0 005.82 3.95 15.94 15.94 0 006.06 1.87zm-48.76-33.47a25 25 0 008.94 1.63q7.5 0 11.64-3.46t4.13-11.25a13.25 13.25 0 00-1.2-5.72 13.62 13.62 0 00-3.32-4.43 15.11 15.11 0 00-4.85-2.88 16.31 16.31 0 00-5.73-1 56 56 0 00-4.71.19 22.41 22.41 0 00-4.52.86c-.13 3.08-.22 6.19-.29 9.33s-.09 6.54-.09 10.2zM1052.86 489.35l-6.35 17.41c-.19.51-.37 1-.53 1.35a3.2 3.2 0 00-.24 1.25 4.61 4.61 0 001 3 8.62 8.62 0 002.45 2.07 15.61 15.61 0 003 1.29 21.2 21.2 0 002.6.68v1.15c-1.92-.13-3.85-.22-5.77-.29s-3.88-.09-5.87-.09-3.8 0-5.62.09-3.77.16-5.82.29v-1.15a13.76 13.76 0 005-2.07A13.6 13.6 0 001040 511a24.58 24.58 0 002.36-4.23q1-2.31 2-4.81l16.64-40.87.52-1.25a2.84 2.84 0 00.25-1.06 5 5 0 00-.34-1.44 9.32 9.32 0 00-.82-1.74 20.71 20.71 0 004.33-1.25c1.22-.51 2.56-1 4-1.63l20 55a14.37 14.37 0 003.75 5.92 12.84 12.84 0 007.12 2.74v1.15c-2.57-.13-5.08-.22-7.55-.29s-5-.09-7.74-.09H1080c-1.29 0-2.44 0-3.46.05s-2 .08-2.94.14l-3 .19v-1.15a17.47 17.47 0 006.78-2.07 4.79 4.79 0 002.74-4.28 3.92 3.92 0 00-.33-1.54 10.73 10.73 0 01-.53-1.44l-6.25-17.7zm10.38-27.35l-9.42 24.43h18.08zM1159.61 516.38a19.47 19.47 0 005.39-1.06 5.88 5.88 0 002.93-2.4 9.84 9.84 0 001.25-4.28q.24-2.65.24-6.69v-44.62a80 80 0 00-8.51.38 13.84 13.84 0 00-5.91 2 13.58 13.58 0 00-4.38 4.86 47.6 47.6 0 00-3.7 8.94l-1.25-.38 1.34-18.85c2.7.13 5.36.22 8 .29s5.29.09 8 .09h22.6c2.56 0 5.1 0 7.6-.09s5-.16 7.59-.29l1.35 18.85-1.25.38a48.28 48.28 0 00-3.7-8.94 13.58 13.58 0 00-4.38-4.86 14 14 0 00-6-2 83.93 83.93 0 00-8.7-.38V502q0 4 .24 6.69a9.71 9.71 0 001.25 4.28 5.84 5.84 0 003 2.4 20.91 20.91 0 005.58 1.06v1.15c-2.44-.13-4.88-.22-7.31-.29s-4.88-.09-7.31-.09-4.72 0-7 .09-4.62.16-6.93.29zM1253.57 485.89a33 33 0 012.84-13.95 31.25 31.25 0 017.65-10.43 33.24 33.24 0 0111.3-6.54 43.26 43.26 0 0127.6 0 33.33 33.33 0 0111.3 6.54 31.39 31.39 0 017.65 10.43 35.8 35.8 0 010 27.9 31.39 31.39 0 01-7.65 10.43 33.33 33.33 0 01-11.3 6.54 43.26 43.26 0 01-27.6 0 33.24 33.24 0 01-11.3-6.54 31.25 31.25 0 01-7.65-10.43 33 33 0 01-2.84-13.95zm10.2 0a36.65 36.65 0 001.73 11.25 29.41 29.41 0 005 9.48 24.85 24.85 0 008 6.54 24.48 24.48 0 0021.35 0 24.88 24.88 0 008-6.54 29.61 29.61 0 005-9.48 37.44 37.44 0 000-22.5 29.61 29.61 0 00-5-9.48 24.73 24.73 0 00-8-6.53 24.39 24.39 0 00-21.35 0 24.69 24.69 0 00-8 6.53 29.41 29.41 0 00-5 9.48 36.65 36.65 0 00-1.73 11.25zM1440.35 517.15H1423a171.81 171.81 0 01-11.2-13.61 111.5 111.5 0 01-9.19-14.76 19.85 19.85 0 01-2.45-.2c-1-.12-2-.27-3.07-.43s-2.09-.35-3.08-.58-1.82-.43-2.46-.62v15q0 4 .25 6.69a9.58 9.58 0 001.25 4.28 5.85 5.85 0 003 2.4 21.07 21.07 0 005.58 1.06v1.15c-2.43-.13-4.87-.22-7.31-.29s-4.87-.09-7.31-.09-4.71 0-7 .09-4.61.16-6.92.29v-1.15a19.31 19.31 0 005.38-1.06 5.9 5.9 0 002.94-2.4 9.84 9.84 0 001.25-4.28q.24-2.65.24-6.69v-32.12q0-4-.24-6.69a9.8 9.8 0 00-1.25-4.27 5.92 5.92 0 00-2.94-2.41 19.31 19.31 0 00-5.38-1.06v-1.15c2.05.13 4.1.22 6.15.29s4.11.09 6.16.09c.9 0 2 0 3.37-.14s2.77-.21 4.28-.34 3-.24 4.56-.33 2.92-.15 4.14-.15a35.26 35.26 0 018.46 1.06 24.38 24.38 0 017.79 3.37 19 19 0 015.68 5.86 15.79 15.79 0 012.21 8.47 14.06 14.06 0 01-1.2 6 14.78 14.78 0 01-3.22 4.52 17.19 17.19 0 01-4.77 3.17 24.63 24.63 0 01-5.72 1.83q1.35 2.31 3.18 5.19c1.21 1.93 2.58 3.88 4.08 5.87s3.11 4 4.81 5.91a46.28 46.28 0 005.39 5.29 34 34 0 005.82 3.95 15.84 15.84 0 006.06 1.87zm-48.77-33.47a25.14 25.14 0 009 1.63q7.5 0 11.64-3.46t4.13-11.25a13.25 13.25 0 00-1.2-5.72 13.62 13.62 0 00-3.32-4.43 15.05 15.05 0 00-4.86-2.88 16.21 16.21 0 00-5.72-1 56 56 0 00-4.71.19 22.28 22.28 0 00-4.52.86q-.2 4.62-.29 9.33c-.06 3.15-.1 6.54-.1 10.2zM1481.51 454.25c2.69.13 5.32.22 7.88.29s5.2.09 7.89.09q3.75 0 7.55-.09c2.53-.07 5.05-.16 7.55-.29v1.15a24.92 24.92 0 00-2.55.58 11.64 11.64 0 00-2.59 1.06 6 6 0 00-2 1.73 4.31 4.31 0 00-.77 2.6 6.05 6.05 0 001 2.78 48.86 48.86 0 002.94 4.33l13.68 18.52 11.35-17.79a14.33 14.33 0 002.5-7.41 5.26 5.26 0 00-2.31-4.47 9.72 9.72 0 00-5.19-1.88v-1.15c2.25.13 4.51.22 6.78.29s4.54.09 6.78.09q3.07 0 6.11-.09c2-.07 4.05-.16 6.11-.29v1.15a16.89 16.89 0 00-6.16 2.46 28.3 28.3 0 00-4.85 4 35.12 35.12 0 00-3.85 4.77c-1.12 1.66-2.17 3.17-3.13 4.52l-13.17 19.23v14.14a23.19 23.19 0 00.57 5.72 7.18 7.18 0 001.88 3.41 7.62 7.62 0 003.51 1.83 33.19 33.19 0 005.58.87v1.15c-2.89-.13-5.74-.22-8.56-.29s-5.68-.09-8.56-.09q-3.57 0-7.12.09c-2.37.07-4.74.16-7.12.29v-1.15a31.62 31.62 0 005.34-.87 7.64 7.64 0 003.46-1.83 6.81 6.81 0 001.83-3.41 25.07 25.07 0 00.53-5.72v-15.1l-17.4-22.33c-.9-1.16-1.82-2.33-2.79-3.51a28.32 28.32 0 00-3.22-3.37 23.46 23.46 0 00-4.09-2.89 19.47 19.47 0 00-5.38-2z" class="cls-1"/>
    <path fill="url(#New_Gradient_Swatch_6)" d="M1010.85 518.61q-5.51-.32-10.84-.47c-3.56-.11-7.18-.16-10.84-.16q-6.6 0-12.89.16t-12.57.47v-1.89c1.47-.21 3-.47 4.72-.78a20.23 20.23 0 004.71-1.49 10.11 10.11 0 003.61-2.75 7.22 7.22 0 001.42-4.72q0-2.82-4.56-14.14L949 433.14l-20.43 48.23q-7.86 19-7.85 25.93a7.8 7.8 0 001.09 4.24 8 8 0 003 2.75 17.48 17.48 0 004.16 1.57 44.63 44.63 0 004.64.86v1.89q-5.34-.32-10.61-.47c-3.5-.11-7-.16-10.44-.16q-4.41 0-8.65.16t-8.48.47v-1.89a17.84 17.84 0 009.27-3.61 28.51 28.51 0 006.44-7.23 57.28 57.28 0 004.64-9.11q2-4.87 3.85-9.11l32.67-73.37h3.46l36.61 86.09a37.68 37.68 0 007 11.24q4.17 4.47 11.55 5.1z"/>
    <path fill="url(#New_Gradient_Swatch_6-2)" d="M895.32 613.94q5.5.31 10.85.47c3.57.1 7.18.16 10.85.16 4.41 0 8.7-.06 12.9-.16s8.38-.26 12.57-.47v1.89c-1.46.21-3 .47-4.71.78a19.7 19.7 0 00-4.72 1.49 10.15 10.15 0 00-3.62 2.76 7.23 7.23 0 00-1.41 4.71q0 2.83 4.56 14.15l24.69 59.75 20.44-48.27q7.86-19 7.86-25.94a7.81 7.81 0 00-1.1-4.25 8 8 0 00-3-2.75 17.4 17.4 0 00-4.17-1.57 44.15 44.15 0 00-4.64-.86v-1.89c3.57.21 7.1.37 10.62.47s7 .16 10.45.16c2.94 0 5.82-.06 8.65-.16s5.66-.26 8.49-.47v1.89a17.91 17.91 0 00-9.28 3.61 28.51 28.51 0 00-6.44 7.23 57 57 0 00-4.64 9.12q-2 4.88-3.85 9.12L954 718.34h-3.46l-36.63-86.16a37.76 37.76 0 00-7-11.25q-4.17-4.47-11.56-5.1z"/>
    <path fill="url(#New_Gradient_Swatch_5)" d="M1673.37 567.06l-658.74 1a2.09 2.09 0 01-2.13-2.06 2.09 2.09 0 012.13-2l658.74 1c1.18 0 2.13-.11 2.13 1 0 1.17-.95 1.06-2.13 1.06z"/>
    <path fill="url(#linear-gradient)" d="M246.57 565.5l640.86-1.06a2.1 2.1 0 012.07 2.11 2.09 2.09 0 01-2.07 2.1l-640.86-1c-1.14 0-2.07.11-2.07-1.05 0-1.21.93-1.1 2.07-1.1z"/>
  </g>
</svg>
