<svg xmlns="http://www.w3.org/2000/svg" xmlns:xlink="http://www.w3.org/1999/xlink" viewBox="0 0 1920 1080"><defs><style>.cls-1{fill:url(#linear-gradient);}.cls-2{fill:url(#New_Gradient_Swatch_3);}.cls-3{fill:url(#linear-gradient-2);}.cls-4{fill:url(#linear-gradient-3);}.cls-5,.cls-7{fill:none;stroke-miterlimit:10;}.cls-5{stroke:url(#linear-gradient-4);}.cls-6{fill:url(#linear-gradient-5);}.cls-7{stroke-width:1px;stroke:url(#linear-gradient-6);}</style><linearGradient id="linear-gradient" x1="962.96" y1="567.32" x2="1523.96" y2="567.32" gradientUnits="userSpaceOnUse"><stop offset="0" stop-color="#050607"/><stop offset="1" stop-color="#4e4f50"/></linearGradient><linearGradient id="New_Gradient_Swatch_3" x1="910.43" y1="451.59" x2="910.43" y2="517.95" xlink:href="#linear-gradient"/><linearGradient id="linear-gradient-2" x1="285.67" y1="567.32" x2="846.67" y2="567.32" gradientUnits="userSpaceOnUse"><stop offset="0" stop-color="#4e4f50"/><stop offset="1" stop-color="#050607"/></linearGradient><linearGradient id="linear-gradient-3" x1="860.79" y1="437.77" x2="920.62" y2="541.39" gradientUnits="userSpaceOnUse"><stop offset="0" stop-color="#786b41"/><stop offset="1" stop-color="#5c5232"/></linearGradient><linearGradient id="linear-gradient-4" x1="904.27" y1="413.17" x2="904.27" y2="517.49" gradientUnits="userSpaceOnUse"><stop offset="0" stop-color="#786b41" stop-opacity="0.4"/><stop offset="1" stop-color="#5c5232"/></linearGradient><linearGradient id="linear-gradient-5" x1="902.79" y1="612.82" x2="902.79" y2="717.22" xlink:href="#linear-gradient-3"/><linearGradient id="linear-gradient-6" x1="845.01" y1="665.02" x2="960.58" y2="665.02" xlink:href="#linear-gradient-4"/></defs><g id="Layer_2" data-name="Layer 2"><path class="cls-1" d="M1522.16,568.32l-557.39,2c-1,0-1.81-1.89-1.81-3h0c0-1.1.81-3,1.81-3l557.19,2c1,0,2-.1,2,1h0C1524,568.43,1523.15,568.32,1522.16,568.32Z"/><path class="cls-2" d="M316.21,484.77a32.84,32.84,0,0,1,2.84-13.95,31.36,31.36,0,0,1,7.64-10.43,33.43,33.43,0,0,1,11.3-6.54,43.29,43.29,0,0,1,27.61,0,33.43,33.43,0,0,1,11.3,6.54,31.36,31.36,0,0,1,7.64,10.43,35.66,35.66,0,0,1,0,27.89,31.3,31.3,0,0,1-7.64,10.44,33.43,33.43,0,0,1-11.3,6.54,43.29,43.29,0,0,1-27.61,0,33.43,33.43,0,0,1-11.3-6.54,31.3,31.3,0,0,1-7.64-10.44A32.79,32.79,0,0,1,316.21,484.77Zm10.19,0A36.65,36.65,0,0,0,328.13,496a29.47,29.47,0,0,0,5,9.47,24.49,24.49,0,0,0,8,6.54,24.39,24.39,0,0,0,21.35,0,24.59,24.59,0,0,0,8-6.54,29.26,29.26,0,0,0,5-9.47,37.44,37.44,0,0,0,0-22.5,29.41,29.41,0,0,0-5-9.48,24.85,24.85,0,0,0-8-6.54,24.48,24.48,0,0,0-21.35,0,24.74,24.74,0,0,0-8,6.54,29.63,29.63,0,0,0-5,9.48A36.65,36.65,0,0,0,326.4,484.77Z"/><path class="cls-2" d="M447.68,468.71c0-2.7-.08-4.92-.24-6.69a9.84,9.84,0,0,0-1.25-4.28,5.88,5.88,0,0,0-2.93-2.4,19.47,19.47,0,0,0-5.39-1.06v-1.15c2,.13,3.94.22,5.87.29s3.88.09,5.86.09c2.57,0,5.13-.13,7.7-.38a82.12,82.12,0,0,1,8.27-.39,44.61,44.61,0,0,1,8.51.87,27.63,27.63,0,0,1,8.22,2.93,18.76,18.76,0,0,1,6.25,5.53,14.39,14.39,0,0,1,2.51,8.66,12.4,12.4,0,0,1-2.75,7.83,14,14,0,0,1-6.78,4.86v.19a21.87,21.87,0,0,1,10.34,6.5q3.7,4.36,3.71,11.59a13.15,13.15,0,0,1-1.93,7.35,14.27,14.27,0,0,1-5.1,4.71,22.7,22.7,0,0,1-7.21,2.51,47,47,0,0,1-8.27.72q-6.63,0-13-.48c-4.27-.33-8.61-.48-13-.48q-2.22,0-4.47.09c-1.51.06-3,.16-4.48.29v-1.15a19.41,19.41,0,0,0,5.29-1.06,5.68,5.68,0,0,0,2.89-2.41,10.24,10.24,0,0,0,1.2-4.28q.24-2.64.24-6.68Zm8.66,12.12a18.67,18.67,0,0,0,5.29,1.82,31.11,31.11,0,0,0,5.48.48,15.42,15.42,0,0,0,10.24-3.41q4.08-3.42,4.09-9.86a12.57,12.57,0,0,0-1.35-5.87,14.6,14.6,0,0,0-3.56-4.47,15.76,15.76,0,0,0-5.14-2.88,18.47,18.47,0,0,0-6.11-1c-1.54,0-3,.06-4.52.19a18.33,18.33,0,0,0-4.42,1Zm0,30a3.26,3.26,0,0,0,1.78,1.35,21.24,21.24,0,0,0,3.27,1,35.28,35.28,0,0,0,4,.67,35.79,35.79,0,0,0,4,.24q7.79,0,12.16-4.09T486,498.14a12.78,12.78,0,0,0-2.6-7.75,24.84,24.84,0,0,0-6-5.81l-4.62.72a33.27,33.27,0,0,1-4.71.33,54,54,0,0,1-6-.33,23.62,23.62,0,0,1-5.77-1.4Z"/><path class="cls-2" d="M592,471.4a36.32,36.32,0,0,0-3.22-6.11,27.62,27.62,0,0,0-4.57-5.38,22.28,22.28,0,0,0-5.77-3.8,16.6,16.6,0,0,0-6.93-1.44,17.94,17.94,0,0,0-9,2q-3.51,2-3.51,7.22a9.06,9.06,0,0,0,1.59,5.34,15.61,15.61,0,0,0,4.23,4,39.28,39.28,0,0,0,6,3.17l6.88,2.93c2.34,1,4.63,2.07,6.87,3.23a27.45,27.45,0,0,1,6,4.13,18.77,18.77,0,0,1,4.24,5.58,17,17,0,0,1,1.58,7.6,17.66,17.66,0,0,1-1.73,8.12,15.93,15.93,0,0,1-4.66,5.63,19.86,19.86,0,0,1-6.83,3.27,31.45,31.45,0,0,1-8.32,1.06,29.29,29.29,0,0,1-5-.45c-1.73-.3-3.4-.63-5-1l-4.38-1a14.83,14.83,0,0,0-3.12-.45,6.16,6.16,0,0,0-2,.34c-.65.22-1.32.47-2,.72q-.87-5.46-2-10.68T549,494.77l1.25-.67a71.63,71.63,0,0,0,4.19,7,42.18,42.18,0,0,0,5.53,6.65,30.24,30.24,0,0,0,6.78,5,16.53,16.53,0,0,0,8,2,22.7,22.7,0,0,0,5.38-.62,13.5,13.5,0,0,0,4.57-2,9.61,9.61,0,0,0,3.13-3.5,11.2,11.2,0,0,0,1.15-5.33,10.7,10.7,0,0,0-2.79-7.54,26.64,26.64,0,0,0-6.92-5.28,80.58,80.58,0,0,0-9-4.18,67,67,0,0,1-9-4.32,26.51,26.51,0,0,1-6.92-5.67,12.26,12.26,0,0,1-2.79-8.26,15.76,15.76,0,0,1,5.34-12.05,17.24,17.24,0,0,1,5.67-3.31,20.24,20.24,0,0,1,6.88-1.15,38.51,38.51,0,0,1,6.39.48c1.89.32,3.74.67,5.53,1.06s3.69.75,5.49,1.1a29.25,29.25,0,0,0,5.77.53c0,2.89,0,5.69.14,8.42s.3,5.46.63,8.22Z"/><path class="cls-2" d="M667.44,512.27c.58.13,1.28.26,2.12.39s1.73.26,2.69.38,2,.24,3,.34,2,.14,2.88.14a50.46,50.46,0,0,0,10.34-1,29.53,29.53,0,0,0,8.37-3.07A34.35,34.35,0,0,0,704,504.1a66.67,66.67,0,0,0,6.82-7.89l1.06.87-8.75,19.33c-1.09-.13-2.21-.23-3.37-.29s-2.27-.09-3.36-.09H660.23q-2.79,0-5.58.09c-1.86.06-3.72.16-5.58.29v-1.15a19.84,19.84,0,0,0,5.39-1.06,5.65,5.65,0,0,0,2.88-2.41,10.24,10.24,0,0,0,1.2-4.28q.24-2.64.24-6.68V468.71c0-2.7-.08-4.92-.24-6.69a10.29,10.29,0,0,0-1.2-4.28,5.6,5.6,0,0,0-3-2.4,20.72,20.72,0,0,0-5.48-1.06v-1.15l6.2.19q2.94.09,6.06.14c2.08,0,4.29.05,6.64.05h7.93q6.74,0,13.46-.09t13.66-.29c-.06.7-.11,1.41-.14,2.11s-.05,1.38-.05,2v3.85c0,1.41.06,2.84.19,4.28s.26,3,.39,4.76l-1.25.38a24.14,24.14,0,0,0-3.32-7.55,15.84,15.84,0,0,0-4.81-4.56,17.73,17.73,0,0,0-6-2.22,40.34,40.34,0,0,0-6.93-.57q-6.72,0-13.46.57v24.05c1.28,0,2.51,0,3.7-.1s2.42-.09,3.7-.09q6.64,0,10.54-2.65t4.76-9.66h1.15q0,3.45-.1,6.92c-.06,2.31-.09,4.58-.09,6.83s0,4.61.09,6.92.1,4.62.1,6.93h-1.15a29.19,29.19,0,0,0-2.12-6.59,10.17,10.17,0,0,0-3.12-3.9,11.29,11.29,0,0,0-4.67-1.82,39.72,39.72,0,0,0-6.64-.48h-6.15Z"/><path class="cls-2" d="M825.74,516H808.43a169.64,169.64,0,0,1-11.2-13.61A111,111,0,0,1,788,487.65a19.41,19.41,0,0,1-2.45-.19c-1-.13-2-.27-3.08-.43s-2.08-.35-3.07-.58-1.82-.43-2.46-.62v15q0,4,.24,6.68a9.8,9.8,0,0,0,1.25,4.28,5.93,5.93,0,0,0,3,2.41,21.49,21.49,0,0,0,5.58,1.06v1.15c-2.44-.13-4.87-.23-7.31-.29s-4.87-.09-7.31-.09-4.71,0-7,.09-4.61.16-6.92.29v-1.15a19.68,19.68,0,0,0,5.38-1.06,6,6,0,0,0,2.94-2.41,9.8,9.8,0,0,0,1.25-4.28q.24-2.64.24-6.68V468.71c0-2.7-.08-4.92-.24-6.69a9.84,9.84,0,0,0-1.25-4.28,6,6,0,0,0-2.94-2.4,19.31,19.31,0,0,0-5.38-1.06v-1.15c2.05.13,4.1.22,6.15.29s4.1.09,6.16.09c.89,0,2-.05,3.36-.14s2.78-.21,4.28-.34,3-.24,4.57-.34,2.92-.14,4.14-.14a35.32,35.32,0,0,1,8.46,1.06,24.15,24.15,0,0,1,7.79,3.36,19,19,0,0,1,5.67,5.87,15.65,15.65,0,0,1,2.22,8.46,14.08,14.08,0,0,1-1.2,6,14.93,14.93,0,0,1-3.23,4.52,17,17,0,0,1-4.76,3.17,25.62,25.62,0,0,1-5.72,1.83q1.35,2.31,3.17,5.19c1.22,1.93,2.58,3.88,4.09,5.87s3.11,4,4.81,5.91a45.51,45.51,0,0,0,5.39,5.29,34.9,34.9,0,0,0,5.81,3.95,16.12,16.12,0,0,0,6.06,1.87ZM777,482.56a25.14,25.14,0,0,0,8.95,1.63q7.5,0,11.63-3.46t4.14-11.25a13.3,13.3,0,0,0-1.2-5.73,13.83,13.83,0,0,0-3.32-4.42,15.26,15.26,0,0,0-4.86-2.89,16.44,16.44,0,0,0-5.72-1c-1.6,0-3.17.07-4.71.2a21.61,21.61,0,0,0-4.52.86q-.2,4.62-.29,9.33T777,476Z"/><path class="cls-2" d="M1003.28,488.23l-6.35,17.41c-.19.51-.37,1-.52,1.34a3.12,3.12,0,0,0-.25,1.26,4.63,4.63,0,0,0,1,3,8.61,8.61,0,0,0,2.46,2.06,14.8,14.8,0,0,0,3,1.3,22.65,22.65,0,0,0,2.6.68v1.15c-1.93-.13-3.85-.23-5.78-.29s-3.88-.09-5.86-.09-3.8,0-5.63.09-3.77.16-5.82.29v-1.15a13.82,13.82,0,0,0,5-2.07,13.56,13.56,0,0,0,3.31-3.32,23.93,23.93,0,0,0,2.36-4.23q1-2.31,2-4.81L1011.36,460l.53-1.25a2.81,2.81,0,0,0,.24-1.06,4.83,4.83,0,0,0-.34-1.45,8.62,8.62,0,0,0-.81-1.73,21.42,21.42,0,0,0,4.32-1.25c1.22-.51,2.57-1.05,4-1.63l20,55a14.07,14.07,0,0,0,3.75,5.91c1.6,1.45,4,2.36,7.11,2.75v1.15c-2.56-.13-5.08-.23-7.54-.29s-5.05-.09-7.75-.09h-4.52c-1.28,0-2.43,0-3.46,0s-2,.08-2.93.15l-3,.19v-1.15a17.58,17.58,0,0,0,6.78-2.07,4.8,4.8,0,0,0,2.74-4.28,3.73,3.73,0,0,0-.34-1.54,12.3,12.3,0,0,1-.53-1.44l-6.25-17.7Zm10.39-27.31-9.43,24.43h18.08Z"/><path class="cls-2" d="M1110,515.26a19.68,19.68,0,0,0,5.38-1.06,5.92,5.92,0,0,0,2.94-2.41,9.8,9.8,0,0,0,1.25-4.28q.24-2.64.24-6.68V456.2a77,77,0,0,0-8.51.39,13.79,13.79,0,0,0-5.92,2,13.58,13.58,0,0,0-4.38,4.86,48.28,48.28,0,0,0-3.7,8.94l-1.25-.38,1.35-18.85c2.69.13,5.35.22,8,.29s5.29.09,8,.09H1136q3.86,0,7.6-.09c2.5-.07,5-.16,7.6-.29l1.35,18.85-1.25.38a48.22,48.22,0,0,0-3.71-8.94,13.66,13.66,0,0,0-4.37-4.86,13.92,13.92,0,0,0-6-2,81.1,81.1,0,0,0-8.71-.39v44.63q0,4,.24,6.68a9.8,9.8,0,0,0,1.25,4.28,5.93,5.93,0,0,0,3,2.41,21.49,21.49,0,0,0,5.58,1.06v1.15c-2.44-.13-4.87-.23-7.31-.29s-4.87-.09-7.31-.09-4.71,0-7,.09-4.61.16-6.92.29Z"/><path class="cls-2" d="M1204,484.77a33,33,0,0,1,2.84-13.95,31.36,31.36,0,0,1,7.64-10.43,33.43,33.43,0,0,1,11.3-6.54,43.29,43.29,0,0,1,27.61,0,33.43,33.43,0,0,1,11.3,6.54,31.36,31.36,0,0,1,7.64,10.43,35.66,35.66,0,0,1,0,27.89,31.3,31.3,0,0,1-7.64,10.44,33.43,33.43,0,0,1-11.3,6.54,43.29,43.29,0,0,1-27.61,0,33.43,33.43,0,0,1-11.3-6.54,31.3,31.3,0,0,1-7.64-10.44A32.94,32.94,0,0,1,1204,484.77Zm10.19,0a36.36,36.36,0,0,0,1.74,11.25,29.26,29.26,0,0,0,5,9.47,24.59,24.59,0,0,0,8,6.54,24.39,24.39,0,0,0,21.35,0,24.59,24.59,0,0,0,8-6.54,29.26,29.26,0,0,0,5-9.47,37.44,37.44,0,0,0,0-22.5,29.41,29.41,0,0,0-5-9.48,24.85,24.85,0,0,0-8-6.54,24.48,24.48,0,0,0-21.35,0,24.85,24.85,0,0,0-8,6.54,29.41,29.41,0,0,0-5,9.48A36.36,36.36,0,0,0,1214.19,484.77Z"/><path class="cls-2" d="M1390.77,516h-17.31a169.79,169.79,0,0,1-11.21-13.61,109.89,109.89,0,0,1-9.18-14.77,19.41,19.41,0,0,1-2.45-.19c-1-.13-2-.27-3.08-.43s-2.08-.35-3.08-.58-1.81-.43-2.45-.62v15q0,4,.24,6.68a9.8,9.8,0,0,0,1.25,4.28,5.85,5.85,0,0,0,3,2.41,21.49,21.49,0,0,0,5.58,1.06v1.15c-2.44-.13-4.87-.23-7.31-.29s-4.87-.09-7.31-.09-4.71,0-7,.09-4.62.16-6.93.29v-1.15a19.76,19.76,0,0,0,5.39-1.06,5.9,5.9,0,0,0,2.93-2.41,9.67,9.67,0,0,0,1.25-4.28q.24-2.64.24-6.68V468.71c0-2.7-.08-4.92-.24-6.69a9.71,9.71,0,0,0-1.25-4.28,5.88,5.88,0,0,0-2.93-2.4,19.39,19.39,0,0,0-5.39-1.06v-1.15c2.06.13,4.11.22,6.16.29s4.1.09,6.16.09c.89,0,2-.05,3.36-.14s2.77-.21,4.28-.34,3-.24,4.57-.34,2.92-.14,4.14-.14a35.38,35.38,0,0,1,8.46,1.06,24.24,24.24,0,0,1,7.79,3.36,19,19,0,0,1,5.67,5.87,15.64,15.64,0,0,1,2.21,8.46,14.08,14.08,0,0,1-1.2,6,14.73,14.73,0,0,1-3.22,4.52,17.13,17.13,0,0,1-4.76,3.17,26,26,0,0,1-5.72,1.83q1.33,2.31,3.17,5.19c1.22,1.93,2.58,3.88,4.09,5.87s3.11,4,4.81,5.91a46.21,46.21,0,0,0,5.38,5.29,34.56,34.56,0,0,0,5.82,3.95,16.12,16.12,0,0,0,6.06,1.87ZM1342,482.56a25.14,25.14,0,0,0,9,1.63q7.5,0,11.63-3.46t4.14-11.25a13.3,13.3,0,0,0-1.2-5.73,13.83,13.83,0,0,0-3.32-4.42,15.26,15.26,0,0,0-4.86-2.89,16.53,16.53,0,0,0-5.72-1c-1.61,0-3.18.07-4.71.2a21.61,21.61,0,0,0-4.52.86q-.2,4.62-.29,9.33T1342,476Z"/><path class="cls-2" d="M1431.93,453.13c2.7.13,5.32.22,7.89.29s5.19.09,7.89.09c2.5,0,5,0,7.55-.09s5-.16,7.55-.29v1.15a24.92,24.92,0,0,0-2.55.58,11.26,11.26,0,0,0-2.6,1.06,6,6,0,0,0-2,1.73,4.23,4.23,0,0,0-.77,2.59,6,6,0,0,0,1,2.79,48.41,48.41,0,0,0,2.93,4.33l13.66,18.47,11.35-17.8a14.29,14.29,0,0,0,2.5-7.4,5.26,5.26,0,0,0-2.31-4.47,9.78,9.78,0,0,0-5.19-1.88v-1.15c2.24.13,4.5.22,6.78.29s4.53.09,6.78.09q3.08,0,6.11-.09c2-.07,4-.16,6.1-.29v1.15a16.93,16.93,0,0,0-6.15,2.45,28.5,28.5,0,0,0-4.86,4,36.47,36.47,0,0,0-3.85,4.76q-1.68,2.5-3.12,4.52l-13.18,19.24v14.14a22.65,22.65,0,0,0,.58,5.72,7.17,7.17,0,0,0,1.87,3.41,7.72,7.72,0,0,0,3.51,1.83,35.77,35.77,0,0,0,5.58.87v1.15c-2.88-.13-5.74-.23-8.56-.29s-5.67-.09-8.56-.09q-3.56,0-7.11.09t-7.12.29v-1.15a34,34,0,0,0,5.34-.87,7.69,7.69,0,0,0,3.46-1.83,7,7,0,0,0,1.83-3.41,25.07,25.07,0,0,0,.53-5.72v-15.1L1447.42,466q-1.35-1.72-2.79-3.51a29.89,29.89,0,0,0-3.22-3.36,23.46,23.46,0,0,0-4.09-2.89,19.54,19.54,0,0,0-5.39-2Z"/><path class="cls-3" d="M287.47,566.32l557.4-2c1,0,1.8,1.9,1.8,3h0c0,1.11-.81,3-1.8,3l-557.2-2c-1,0-2,.11-2-1h0C285.67,566.22,286.48,566.32,287.47,566.32Z"/><path class="cls-4" d="M962,517.49c-3.66-.21-7.28-.37-10.84-.47s-7.17-.16-10.84-.16q-6.6,0-12.88.16t-12.57.47V515.6q2.21-.32,4.71-.78a20.18,20.18,0,0,0,4.72-1.5,10,10,0,0,0,3.61-2.75,7.23,7.23,0,0,0,1.41-4.71q0-2.82-4.55-14.14L900.11,432l-20.42,48.23q-7.86,19-7.86,25.92a7.81,7.81,0,0,0,1.1,4.25,8,8,0,0,0,3,2.75,17.16,17.16,0,0,0,4.16,1.57c1.52.36,3.06.65,4.63.86v1.89q-5.34-.32-10.6-.47t-10.45-.16q-4.39,0-8.64.16t-8.48.47V515.6a17.91,17.91,0,0,0,9.27-3.61,28.51,28.51,0,0,0,6.44-7.23,57.67,57.67,0,0,0,4.63-9.11q2-4.87,3.85-9.11l32.68-73.37h3.46l36.6,86.09a38,38,0,0,0,7,11.24q4.17,4.47,11.55,5.1Z"/><path class="cls-5" d="M962,517.49c-3.66-.21-7.28-.37-10.84-.47s-7.17-.16-10.84-.16q-6.6,0-12.88.16t-12.57.47V515.6q2.21-.32,4.71-.78a20.18,20.18,0,0,0,4.72-1.5,10,10,0,0,0,3.61-2.75,7.23,7.23,0,0,0,1.41-4.71q0-2.82-4.55-14.14L900.11,432l-20.42,48.23q-7.86,19-7.86,25.92a7.81,7.81,0,0,0,1.1,4.25,8,8,0,0,0,3,2.75,17.16,17.16,0,0,0,4.16,1.57c1.52.36,3.06.65,4.63.86v1.89q-5.34-.32-10.6-.47t-10.45-.16q-4.39,0-8.64.16t-8.48.47V515.6a17.91,17.91,0,0,0,9.27-3.61,28.51,28.51,0,0,0,6.44-7.23,57.67,57.67,0,0,0,4.63-9.11q2-4.87,3.85-9.11l32.68-73.37h3.46l36.6,86.09a38,38,0,0,0,7,11.24q4.17,4.47,11.55,5.1Z"/><path class="cls-6" d="M845,612.82c3.67.21,7.28.36,10.85.47s7.18.16,10.85.16q6.6,0,12.89-.16t12.58-.47v1.88c-1.47.21-3,.47-4.72.79a19.62,19.62,0,0,0-4.71,1.49,10.15,10.15,0,0,0-3.62,2.75,7.28,7.28,0,0,0-1.42,4.72q0,2.84,4.57,14.15L907,698.35l20.44-48.27q7.86-19,7.86-25.94a7.79,7.79,0,0,0-1.1-4.25,7.94,7.94,0,0,0-3-2.75,17.16,17.16,0,0,0-4.16-1.57,44.66,44.66,0,0,0-4.64-.87v-1.88c3.56.21,7.1.36,10.61.47s7,.16,10.46.16c2.93,0,5.82-.06,8.65-.16s5.66-.26,8.49-.47v1.88a17.92,17.92,0,0,0-9.28,3.62,28.74,28.74,0,0,0-6.45,7.23,57.34,57.34,0,0,0-4.63,9.12q-2,4.88-3.86,9.12l-32.7,73.43H900.2l-36.64-86.17a37.81,37.81,0,0,0-7-11.24q-4.17-4.48-11.56-5.11Z"/><path class="cls-7" d="M845,612.82c3.67.21,7.28.36,10.85.47s7.18.16,10.85.16q6.6,0,12.89-.16t12.58-.47v1.88c-1.47.21-3,.47-4.72.79a19.62,19.62,0,0,0-4.71,1.49,10.15,10.15,0,0,0-3.62,2.75,7.28,7.28,0,0,0-1.42,4.72q0,2.84,4.57,14.15L907,698.35l20.44-48.27q7.86-19,7.86-25.94a7.79,7.79,0,0,0-1.1-4.25,7.94,7.94,0,0,0-3-2.75,17.16,17.16,0,0,0-4.16-1.57,44.66,44.66,0,0,0-4.64-.87v-1.88c3.56.21,7.1.36,10.61.47s7,.16,10.46.16c2.93,0,5.82-.06,8.65-.16s5.66-.26,8.49-.47v1.88a17.92,17.92,0,0,0-9.28,3.62,28.74,28.74,0,0,0-6.45,7.23,57.34,57.34,0,0,0-4.63,9.12q-2,4.88-3.86,9.12l-32.7,73.43H900.2l-36.64-86.17a37.81,37.81,0,0,0-7-11.24q-4.17-4.48-11.56-5.11Z"/></g></svg>