<svg id="Layer_2" data-name="Layer 2" xmlns="http://www.w3.org/2000/svg" xmlns:xlink="http://www.w3.org/1999/xlink" viewBox="0 0 1421 237.94"><defs><style>.cls-1{fill:url(#linear-gradient);}.cls-2{fill:url(#linear-gradient-13);}.cls-3{fill:url(#New_Gradient_Swatch_2);}.cls-4{fill:url(#New_Gradient_Swatch_4);}.cls-5{fill:url(#linear-gradient-23);}</style><linearGradient id="linear-gradient" x1="985.52" y1="453.39" x2="985.52" y2="394.61" gradientUnits="userSpaceOnUse"><stop offset="0" stop-color="#4d4d4d"/><stop offset="0.42" stop-color="#4d4d4d"/><stop offset="0.76" stop-color="#333"/><stop offset="1" stop-color="#1a1a1a"/></linearGradient><linearGradient id="linear-gradient-13" x1="984.91" y1="571.58" x2="984.91" y2="630.35" gradientUnits="userSpaceOnUse"><stop offset="0" stop-color="#b8b9bb"/><stop offset="0.42" stop-color="#adaeaf"/><stop offset="0.76" stop-color="#636465"/><stop offset="1" stop-color="#676869"/></linearGradient><linearGradient id="New_Gradient_Swatch_2" x1="-113.82" y1="1202.75" x2="-0.52" y2="1202.75" gradientTransform="translate(911.19 1784.12) rotate(180)" gradientUnits="userSpaceOnUse"><stop offset="0" stop-color="#50411a"/><stop offset="0.39" stop-color="#c3a964"/><stop offset="0.68" stop-color="#7a6a34"/><stop offset="1" stop-color="#50411a"/></linearGradient><linearGradient id="New_Gradient_Swatch_4" x1="1025" y1="513" x2="1688" y2="513" gradientUnits="userSpaceOnUse"><stop offset="0" stop-color="#999"/><stop offset="1" stop-color="#333"/></linearGradient><linearGradient id="linear-gradient-23" x1="267" y1="513.51" x2="912" y2="513.51" gradientUnits="userSpaceOnUse"><stop offset="0" stop-color="#333"/><stop offset="1" stop-color="#999"/></linearGradient></defs><path class="cls-1" d="M327.19,451a16.84,16.84,0,0,0,4.77-.94,5.23,5.23,0,0,0,2.6-2.12,8.62,8.62,0,0,0,1.11-3.8q.21-2.34.21-5.92V398.7a68.61,68.61,0,0,0-7.54.34,12.23,12.23,0,0,0-5.24,1.75,12,12,0,0,0-3.87,4.3A42.45,42.45,0,0,0,316,413l-1.11-.34L316,396c2.39.12,4.74.2,7.07.26s4.69.08,7.07.08h20c2.27,0,4.52,0,6.73-.08s4.46-.14,6.73-.26l1.19,16.7-1.1.34a43.14,43.14,0,0,0-3.28-7.92,12,12,0,0,0-3.88-4.3,12.31,12.31,0,0,0-5.32-1.75,72.14,72.14,0,0,0-7.71-.34v39.52q0,3.58.21,5.92a8.62,8.62,0,0,0,1.11,3.8,5.18,5.18,0,0,0,2.68,2.12,18.32,18.32,0,0,0,4.94.94v1c-2.16-.11-4.32-.2-6.47-.25s-4.32-.09-6.48-.09-4.17,0-6.21.09-4.09.14-6.14.25Z" transform="translate(-267 -394.61)"/><path class="cls-1" d="M434.86,424a29.09,29.09,0,0,1,2.52-12.35,27.53,27.53,0,0,1,6.77-9.24,29.42,29.42,0,0,1,10-5.8,38.33,38.33,0,0,1,24.44,0,29.42,29.42,0,0,1,10,5.8,27.53,27.53,0,0,1,6.77,9.24,31.52,31.52,0,0,1,0,24.7,27.53,27.53,0,0,1-6.77,9.24,29.24,29.24,0,0,1-10,5.79,38.15,38.15,0,0,1-24.44,0,29.24,29.24,0,0,1-10-5.79,27.53,27.53,0,0,1-6.77-9.24A29.09,29.09,0,0,1,434.86,424Zm9,0a32.47,32.47,0,0,0,1.53,10,26.28,26.28,0,0,0,4.43,8.39,22,22,0,0,0,7.07,5.79,21.68,21.68,0,0,0,18.91,0,21.86,21.86,0,0,0,7.07-5.79,26.08,26.08,0,0,0,4.43-8.39,33,33,0,0,0,0-19.94,26.08,26.08,0,0,0-4.43-8.39,21.86,21.86,0,0,0-7.07-5.79,21.68,21.68,0,0,0-18.91,0,22,22,0,0,0-7.07,5.79,26.28,26.28,0,0,0-4.43,8.39A32.47,32.47,0,0,0,443.89,424Z" transform="translate(-267 -394.61)"/><path class="cls-1" d="M617.15,396c2.05.12,4.09.2,6.13.26s4.09.08,6.14.08c1.81,0,3.62,0,5.41-.08s3.59-.14,5.4-.26v1a14.08,14.08,0,0,0-5.87,2c-1.54,1-2.3,2.87-2.3,5.54a59.07,59.07,0,0,0,.64,6.94q.63,4.82,1.61,10.52t2.05,11.41q1.07,5.71,2,9.72a23.46,23.46,0,0,0,.94,3,6.85,6.85,0,0,0,1.45,2.25,6.76,6.76,0,0,0,2.64,1.62,19.43,19.43,0,0,0,4.51,1v1c-2.27-.11-4.53-.2-6.77-.25s-4.5-.09-6.77-.09-4.28,0-6.35.09-4.19.14-6.34.25v-1c1.19-.17,2.32-.38,3.4-.64a9.52,9.52,0,0,0,2.86-1.15,5.18,5.18,0,0,0,1.91-2.08,7.69,7.69,0,0,0,.68-3.54c0-.68,0-1.59-.08-2.72a29.56,29.56,0,0,0-.51-3.92l-5.88-34.33h-.17q-2.39,6.13-5,12.14t-5.19,12.05q-2.56,6-5,12.22t-4.39,12.65h-.17q-4.1-13.2-9.24-25.42t-11-24.49h-.17q-.67,4.68-1.36,10.39c-.45,3.8-.87,7.51-1.23,11.11s-.67,6.9-.9,9.89-.34,5.21-.34,6.68a27.23,27.23,0,0,0,.38,4.86,7.66,7.66,0,0,0,1.49,3.41,6.71,6.71,0,0,0,3,2,18.27,18.27,0,0,0,5,.85v1c-2.38-.11-4.71-.2-7-.25s-4.6-.09-7-.09c-1.76,0-3.5,0-5.24.09s-3.48.14-5.24.25v-1a18.6,18.6,0,0,0,3.54-.68,12.78,12.78,0,0,0,3.19-1.41,9.1,9.1,0,0,0,2.43-2.12,6.17,6.17,0,0,0,1.24-2.94q.51-3,.93-6.26c.29-2.19.57-4.36.86-6.52l4.08-30.33a15.39,15.39,0,0,0-4.25-2.38,26.2,26.2,0,0,0-4.94-1.36v-1c2.44.12,4.86.2,7.28.26s4.84.08,7.28.08c1.76,0,3.51,0,5.24-.08s3.48-.14,5.24-.26v1a8.86,8.86,0,0,0-3,1.4,3.58,3.58,0,0,0-1.37,3.11,8.63,8.63,0,0,0,.47,2.81c.31.91.67,1.85,1.07,2.81l12,29.48q4.33-9,8.26-18.11T622,399.89a7.85,7.85,0,0,0-2.22-1.79,15.18,15.18,0,0,0-2.64-1.1Z" transform="translate(-267 -394.61)"/><path class="cls-1" d="M729.33,427.07l-5.62,15.41c-.17.46-.32.86-.47,1.2a2.87,2.87,0,0,0-.21,1.1,4,4,0,0,0,.9,2.64,7.59,7.59,0,0,0,2.17,1.84,14,14,0,0,0,2.64,1.15,19.59,19.59,0,0,0,2.3.59v1c-1.71-.11-3.41-.2-5.11-.25s-3.44-.09-5.2-.09-3.36,0-5,.09-3.34.14-5.16.25v-1a12.26,12.26,0,0,0,4.39-1.83,11.9,11.9,0,0,0,2.94-2.94,21.77,21.77,0,0,0,2.09-3.75c.59-1.36,1.18-2.78,1.74-4.26L736.49,402c.17-.39.33-.76.47-1.11a2.47,2.47,0,0,0,.21-.93,4.28,4.28,0,0,0-.3-1.28,7.73,7.73,0,0,0-.72-1.53,20,20,0,0,0,3.83-1.11c1.08-.45,2.27-.94,3.58-1.45l17.72,48.73a12.51,12.51,0,0,0,3.32,5.23,11.27,11.27,0,0,0,6.3,2.43v1c-2.27-.11-4.5-.2-6.68-.25s-4.48-.09-6.86-.09h-4c-1.14,0-2.16,0-3.07.05s-1.78.07-2.6.12S746,452,745,452v-1a15.42,15.42,0,0,0,6-1.83,4.25,4.25,0,0,0,2.43-3.79,3.35,3.35,0,0,0-.3-1.36,11.38,11.38,0,0,1-.47-1.28l-5.53-15.67Zm9.2-24.2-8.34,21.64h16Z" transform="translate(-267 -394.61)"/><path class="cls-1" d="M876,412.16a31.73,31.73,0,0,0-2.86-5.41,24.18,24.18,0,0,0-4-4.77,20.13,20.13,0,0,0-5.11-3.37,14.7,14.7,0,0,0-6.14-1.27,15.74,15.74,0,0,0-8,1.79q-3.1,1.78-3.11,6.38a8,8,0,0,0,1.41,4.73,13.54,13.54,0,0,0,3.74,3.54,35,35,0,0,0,5.33,2.81l6.09,2.6q3.11,1.32,6.09,2.85a24.35,24.35,0,0,1,5.32,3.66,16.88,16.88,0,0,1,3.75,4.94,14.89,14.89,0,0,1,1.41,6.73,15.74,15.74,0,0,1-1.54,7.2,14.05,14.05,0,0,1-4.13,5,17.61,17.61,0,0,1-6,2.9,28.16,28.16,0,0,1-7.36.94,26.51,26.51,0,0,1-4.43-.4c-1.54-.26-3-.56-4.43-.88l-3.88-.88a12.93,12.93,0,0,0-2.77-.4,5.38,5.38,0,0,0-1.79.3l-1.79.64q-.76-4.84-1.78-9.46t-2.13-9.45l1.1-.6a63.59,63.59,0,0,0,3.71,6.19,37.65,37.65,0,0,0,4.9,5.89,26.62,26.62,0,0,0,6,4.45,14.67,14.67,0,0,0,7.12,1.79,20.35,20.35,0,0,0,4.77-.56,12.21,12.21,0,0,0,4-1.74,8.58,8.58,0,0,0,2.77-3.11,9.88,9.88,0,0,0,1-4.71,9.45,9.45,0,0,0-2.47-6.68,23.59,23.59,0,0,0-6.13-4.68,71,71,0,0,0-8-3.7,58.71,58.71,0,0,1-8-3.83,23.17,23.17,0,0,1-6.13-5,10.82,10.82,0,0,1-2.47-7.31,14.08,14.08,0,0,1,1.27-6,14.25,14.25,0,0,1,3.45-4.63,15.32,15.32,0,0,1,5-2.94,17.94,17.94,0,0,1,6.09-1,33.35,33.35,0,0,1,5.66.43c1.68.28,3.31.59,4.9.93s3.27.67,4.86,1a25.88,25.88,0,0,0,5.11.47c0,2.56,0,5,.13,7.46s.27,4.84.55,7.28Z" transform="translate(-267 -394.61)"/><path class="cls-1" d="M1066.82,452c-2.15-.11-4.3-.2-6.43-.25s-4.27-.09-6.43-.09-4.19,0-6.26.09-4.22.14-6.43.25v-1a18.91,18.91,0,0,0,5-.94,5.23,5.23,0,0,0,2.73-2.12,8.76,8.76,0,0,0,1.11-3.8q.21-2.34.21-5.92V409.77q0-3.57-.21-5.92a8.75,8.75,0,0,0-1.11-3.79,5.29,5.29,0,0,0-2.68-2.13,18.68,18.68,0,0,0-4.86-.93v-1c1.87.12,3.75.2,5.62.26s3.75.08,5.62.08a76.23,76.23,0,0,0,8-.42,76.51,76.51,0,0,1,8-.43,21.16,21.16,0,0,1,6.61,1.15,22.23,22.23,0,0,1,6.34,3.33,17.7,17.7,0,0,1,4.73,5.28,13.56,13.56,0,0,1,1.83,7,12.14,12.14,0,0,1-1.87,6.9,15,15,0,0,1-4.73,4.56,20.27,20.27,0,0,1-6.35,2.51,31.82,31.82,0,0,1-6.81.77,48.08,48.08,0,0,1-5.28-.3,22.54,22.54,0,0,1-5.28-1.23v12.77q0,3.58.21,5.92a8.62,8.62,0,0,0,1.11,3.8,5.18,5.18,0,0,0,2.68,2.12,18.05,18.05,0,0,0,4.85.94ZM1058,422.38a13.6,13.6,0,0,0,4.21,1.49,24.79,24.79,0,0,0,4.39.38,15.92,15.92,0,0,0,5.07-.8,12.87,12.87,0,0,0,4.21-2.3,10.86,10.86,0,0,0,2.86-3.71,11.46,11.46,0,0,0,1.06-5,16.44,16.44,0,0,0-1.06-6,13.17,13.17,0,0,0-2.94-4.6,12.94,12.94,0,0,0-4.47-2.9,15.4,15.4,0,0,0-5.67-1c-1,0-2.23.07-3.62.21a13.35,13.35,0,0,0-4,1.07Z" transform="translate(-267 -394.61)"/><path class="cls-1" d="M1152.43,448.36c.51.12,1.14.23,1.88.34s1.53.23,2.38.34,1.73.22,2.64.3,1.76.13,2.56.13a44.44,44.44,0,0,0,9.15-.85,26.4,26.4,0,0,0,7.42-2.73,30.37,30.37,0,0,0,6.34-4.77,60.17,60.17,0,0,0,6-7l.94.76L1184,452c-1-.11-2-.2-3-.25s-2-.09-3-.09h-32c-1.64,0-3.29,0-4.94.09s-3.29.14-4.94.25v-1a16.84,16.84,0,0,0,4.77-.94,5,5,0,0,0,2.56-2.12,9.21,9.21,0,0,0,1.06-3.8c.14-1.56.22-3.53.22-5.92V409.77c0-2.38-.08-4.35-.22-5.92a9.2,9.2,0,0,0-1.06-3.79,5.07,5.07,0,0,0-2.64-2.13A18.59,18.59,0,0,0,1136,397v-1l5.5.17c1.73.06,3.52.1,5.36.13s3.81,0,5.88,0h7c4,0,8,0,11.92-.08s8-.14,12.1-.26c-.06.63-.1,1.25-.13,1.88s0,1.22,0,1.79V403c0,1.25.05,2.52.17,3.79s.22,2.69.34,4.22l-1.11.34a21.23,21.23,0,0,0-2.94-6.68,14,14,0,0,0-4.26-4,15.4,15.4,0,0,0-5.32-2,35.37,35.37,0,0,0-6.13-.51q-6,0-11.93.51V420c1.14,0,2.23,0,3.28-.09s2.14-.08,3.28-.08c3.92,0,7-.79,9.33-2.35s3.7-4.41,4.21-8.56h1q0,3.07-.09,6.13c-.06,2.05-.08,4.07-.08,6.05s0,4.09.08,6.14.09,4.08.09,6.13h-1a25.58,25.58,0,0,0-1.87-5.84,9.09,9.09,0,0,0-2.77-3.45,9.8,9.8,0,0,0-4.13-1.61,34.51,34.51,0,0,0-5.88-.43h-5.45Z" transform="translate(-267 -394.61)"/><path class="cls-1" d="M1248.6,448.36c.51.12,1.14.23,1.88.34s1.53.23,2.38.34,1.73.22,2.64.3,1.76.13,2.56.13a44.44,44.44,0,0,0,9.15-.85,26.22,26.22,0,0,0,7.41-2.73,30.16,30.16,0,0,0,6.35-4.77,60.17,60.17,0,0,0,6-7l.94.76L1280.2,452c-1-.11-2-.2-3-.25s-2-.09-3-.09h-32c-1.64,0-3.29,0-4.94.09s-3.29.14-4.94.25v-1a16.84,16.84,0,0,0,4.77-.94,5,5,0,0,0,2.56-2.12,9.21,9.21,0,0,0,1.06-3.8c.14-1.56.22-3.53.22-5.92V409.77c0-2.38-.08-4.35-.22-5.92a9.2,9.2,0,0,0-1.06-3.79,5.07,5.07,0,0,0-2.64-2.13,18.59,18.59,0,0,0-4.86-.93v-1l5.5.17c1.73.06,3.52.1,5.36.13s3.81,0,5.88,0h7c4,0,8,0,11.92-.08s8-.14,12.1-.26c-.06.63-.1,1.25-.13,1.88s0,1.22,0,1.79V403c0,1.25,0,2.52.17,3.79s.22,2.69.34,4.22l-1.11.34a21.23,21.23,0,0,0-2.94-6.68,14,14,0,0,0-4.26-4,15.4,15.4,0,0,0-5.32-2,35.37,35.37,0,0,0-6.13-.51q-6,0-11.93.51V420c1.14,0,2.23,0,3.28-.09s2.14-.08,3.28-.08c3.92,0,7-.79,9.33-2.35s3.7-4.41,4.21-8.56h1q0,3.07-.09,6.13c-.06,2.05-.08,4.07-.08,6.05s0,4.09.08,6.14.09,4.08.09,6.13h-1a25.58,25.58,0,0,0-1.87-5.84,9.09,9.09,0,0,0-2.77-3.45,9.8,9.8,0,0,0-4.13-1.61,34.51,34.51,0,0,0-5.88-.43h-5.45Z" transform="translate(-267 -394.61)"/><path class="cls-1" d="M1340.43,451a17,17,0,0,0,4.77-.94,5.27,5.27,0,0,0,2.6-2.12,8.76,8.76,0,0,0,1.1-3.8c.14-1.56.22-3.53.22-5.92V398.7a68.48,68.48,0,0,0-7.54.34,12.14,12.14,0,0,0-5.24,1.75,12,12,0,0,0-3.88,4.3,43.14,43.14,0,0,0-3.28,7.92l-1.1-.34,1.19-16.7c2.38.12,4.74.2,7.07.26s4.68.08,7.07.08h20c2.27,0,4.51,0,6.73-.08s4.45-.14,6.73-.26l1.19,16.7L1377,413a42.45,42.45,0,0,0-3.28-7.92,12,12,0,0,0-3.87-4.3,12.35,12.35,0,0,0-5.33-1.75,71.88,71.88,0,0,0-7.71-.34v39.52q0,3.58.22,5.92a8.76,8.76,0,0,0,1.1,3.8,5.2,5.2,0,0,0,2.69,2.12,18.24,18.24,0,0,0,4.94.94v1c-2.16-.11-4.32-.2-6.48-.25s-4.31-.09-6.47-.09-4.17,0-6.22.09-4.09.14-6.13.25Z" transform="translate(-267 -394.61)"/><path class="cls-1" d="M1437.36,448.36c.52.12,1.14.23,1.88.34s1.53.23,2.38.34,1.74.22,2.64.3,1.76.13,2.56.13a44.55,44.55,0,0,0,9.16-.85,26.45,26.45,0,0,0,7.41-2.73,30.11,30.11,0,0,0,6.34-4.77,59.23,59.23,0,0,0,6-7l.94.76L1469,452c-1-.11-2-.2-3-.25s-2-.09-3-.09h-32c-1.65,0-3.3,0-4.94.09s-3.3.14-5,.25v-1a16.84,16.84,0,0,0,4.77-.94,5,5,0,0,0,2.56-2.12,9.2,9.2,0,0,0,1.07-3.8q.21-2.34.21-5.92V409.77q0-3.57-.21-5.92a9.2,9.2,0,0,0-1.07-3.79,5.07,5.07,0,0,0-2.64-2.13,18.51,18.51,0,0,0-4.86-.93v-1l5.5.17c1.73.06,3.52.1,5.37.13s3.8,0,5.87,0h7q6,0,11.93-.08t12.09-.26c-.06.63-.1,1.25-.13,1.88s0,1.22,0,1.79V403c0,1.25.06,2.52.17,3.79s.23,2.69.34,4.22l-1.11.34a21,21,0,0,0-2.93-6.68,14.07,14.07,0,0,0-4.26-4,15.52,15.52,0,0,0-5.33-2,35.29,35.29,0,0,0-6.13-.51q-6,0-11.93.51V420c1.14,0,2.23,0,3.28-.09s2.15-.08,3.28-.08c3.92,0,7-.79,9.33-2.35s3.71-4.41,4.22-8.56h1q0,3.07-.09,6.13t-.08,6.05c0,2,0,4.09.08,6.14s.09,4.08.09,6.13h-1a25.55,25.55,0,0,0-1.88-5.84,9.17,9.17,0,0,0-2.76-3.45,9.9,9.9,0,0,0-4.14-1.61,34.3,34.3,0,0,0-5.87-.43h-5.46Z" transform="translate(-267 -394.61)"/><path class="cls-1" d="M1575,451.68h-15.34a151.5,151.5,0,0,1-9.92-12.05,97.29,97.29,0,0,1-8.13-13.08,16.5,16.5,0,0,1-2.18-.17c-.88-.11-1.78-.24-2.72-.38s-1.85-.31-2.73-.51-1.6-.38-2.17-.55v13.28q0,3.58.21,5.92a8.62,8.62,0,0,0,1.11,3.8,5.22,5.22,0,0,0,2.68,2.12,18.4,18.4,0,0,0,4.94.94v1c-2.15-.11-4.31-.2-6.47-.25s-4.32-.09-6.47-.09-4.18,0-6.22.09-4.09.14-6.13.25v-1a17,17,0,0,0,4.77-.94,5.2,5.2,0,0,0,2.59-2.12,8.62,8.62,0,0,0,1.11-3.8q.21-2.34.21-5.92V409.77q0-3.57-.21-5.92a8.62,8.62,0,0,0-1.11-3.79,5.27,5.27,0,0,0-2.59-2.13,17.41,17.41,0,0,0-4.77-.93v-1c1.81.12,3.63.2,5.45.26s3.63.08,5.45.08c.79,0,1.79,0,3-.12l3.79-.3q2-.17,4-.3c1.36-.08,2.58-.13,3.66-.13a31.83,31.83,0,0,1,7.5.94,21.84,21.84,0,0,1,6.9,3,17,17,0,0,1,5,5.2,13.87,13.87,0,0,1,2,7.49,12.57,12.57,0,0,1-1.06,5.28,13.27,13.27,0,0,1-2.86,4,15.19,15.19,0,0,1-4.21,2.81,22.37,22.37,0,0,1-5.07,1.62q1.18,2,2.81,4.6c1.08,1.7,2.28,3.43,3.62,5.19s2.75,3.51,4.26,5.24a39.76,39.76,0,0,0,4.77,4.69,30.56,30.56,0,0,0,5.15,3.49,14.11,14.11,0,0,0,5.37,1.66ZM1531.83,422a22.17,22.17,0,0,0,7.92,1.45q6.64,0,10.31-3.07c2.44-2,3.66-5.37,3.66-10a11.71,11.71,0,0,0-1.06-5.07,12,12,0,0,0-2.94-3.92,13.42,13.42,0,0,0-4.3-2.56,14.7,14.7,0,0,0-5.07-.89c-1.42,0-2.81.06-4.18.17a18.85,18.85,0,0,0-4,.77c-.11,2.72-.2,5.48-.25,8.26s-.09,5.79-.09,9Z" transform="translate(-267 -394.61)"/><path class="cls-1" d="M1652.28,412.16a31.73,31.73,0,0,0-2.86-5.41,24.18,24.18,0,0,0-4-4.77,20.13,20.13,0,0,0-5.11-3.37,14.7,14.7,0,0,0-6.14-1.27,15.74,15.74,0,0,0-8,1.79c-2.08,1.19-3.11,3.32-3.11,6.38a8.05,8.05,0,0,0,1.4,4.73,13.72,13.72,0,0,0,3.75,3.54,34.5,34.5,0,0,0,5.33,2.81l6.09,2.6q3.11,1.32,6.09,2.85a24.35,24.35,0,0,1,5.32,3.66,16.88,16.88,0,0,1,3.75,4.94,14.89,14.89,0,0,1,1.41,6.73,15.74,15.74,0,0,1-1.54,7.2,14.05,14.05,0,0,1-4.13,5,17.61,17.61,0,0,1-6,2.9,28.18,28.18,0,0,1-7.37.94,26.61,26.61,0,0,1-4.43-.4c-1.53-.26-3-.56-4.43-.88l-3.87-.88a13,13,0,0,0-2.77-.4,5.38,5.38,0,0,0-1.79.3l-1.79.64c-.51-3.23-1.1-6.38-1.79-9.46s-1.39-6.23-2.12-9.45l1.1-.6a61.65,61.65,0,0,0,3.71,6.19,37.65,37.65,0,0,0,4.9,5.89,26.39,26.39,0,0,0,6,4.45,14.66,14.66,0,0,0,7.11,1.79,20.22,20.22,0,0,0,4.77-.56,12.17,12.17,0,0,0,4-1.74,8.58,8.58,0,0,0,2.77-3.11,9.88,9.88,0,0,0,1-4.71,9.45,9.45,0,0,0-2.47-6.68,23.59,23.59,0,0,0-6.13-4.68,71.86,71.86,0,0,0-8-3.7,58.14,58.14,0,0,1-8-3.83,23.38,23.38,0,0,1-6.14-5,10.87,10.87,0,0,1-2.46-7.31,13.9,13.9,0,0,1,4.72-10.67,15.22,15.22,0,0,1,5-2.94,17.94,17.94,0,0,1,6.09-1,33.35,33.35,0,0,1,5.66.43c1.68.28,3.31.59,4.9.93s3.27.67,4.86,1a25.88,25.88,0,0,0,5.11.47c0,2.56,0,5,.13,7.46s.26,4.84.55,7.28Z" transform="translate(-267 -394.61)"/><path class="cls-2" d="M309,601a29.27,29.27,0,0,1,2.51-12.35,27.9,27.9,0,0,1,6.78-9.24,29.24,29.24,0,0,1,10-5.79,38.33,38.33,0,0,1,24.44,0,29.24,29.24,0,0,1,10,5.79,27.73,27.73,0,0,1,6.77,9.24,31.55,31.55,0,0,1,0,24.71,27.73,27.73,0,0,1-6.77,9.24,29.24,29.24,0,0,1-10,5.79,38.33,38.33,0,0,1-24.44,0,29.24,29.24,0,0,1-10-5.79,27.9,27.9,0,0,1-6.78-9.24A29.32,29.32,0,0,1,309,601Zm9,0a32.43,32.43,0,0,0,1.53,10,26.18,26.18,0,0,0,4.43,8.39,21.71,21.71,0,0,0,7.07,5.79,21.59,21.59,0,0,0,18.91,0,21.61,21.61,0,0,0,7.07-5.79,26,26,0,0,0,4.43-8.39,33,33,0,0,0,0-19.93,26,26,0,0,0-4.43-8.39,21.61,21.61,0,0,0-7.07-5.79,21.59,21.59,0,0,0-18.91,0,21.71,21.71,0,0,0-7.07,5.79,26.18,26.18,0,0,0-4.43,8.39A32.41,32.41,0,0,0,318,601Z" transform="translate(-267 -394.61)"/><path class="cls-2" d="M455.42,586.74q0-3.59-.21-5.92A8.89,8.89,0,0,0,454.1,577a5.2,5.2,0,0,0-2.6-2.13,17.36,17.36,0,0,0-4.77-.94v-1c1.76.11,3.49.2,5.2.26s3.43.08,5.19.08a67.7,67.7,0,0,0,6.82-.34,72.87,72.87,0,0,1,7.32-.34,39,39,0,0,1,7.54.77,24.62,24.62,0,0,1,7.28,2.59,16.83,16.83,0,0,1,5.54,4.9,12.75,12.75,0,0,1,2.22,7.67,11,11,0,0,1-2.43,6.94,12.5,12.5,0,0,1-6,4.3v.17a19.39,19.39,0,0,1,9.16,5.75q3.29,3.88,3.28,10.27a11.67,11.67,0,0,1-1.7,6.51,12.71,12.71,0,0,1-4.52,4.18,20,20,0,0,1-6.39,2.21,41.09,41.09,0,0,1-7.32.64q-5.88,0-11.55-.43t-11.54-.42c-1.3,0-2.62,0-4,.08s-2.65.15-4,.26v-1a16.73,16.73,0,0,0,4.69-.94,5,5,0,0,0,2.55-2.13,9.15,9.15,0,0,0,1.07-3.79q.21-2.34.21-5.92Zm7.67,10.73a16.09,16.09,0,0,0,4.68,1.62,27,27,0,0,0,4.86.43,13.67,13.67,0,0,0,9.07-3q3.62-3,3.62-8.73a11,11,0,0,0-1.2-5.19,12.82,12.82,0,0,0-3.15-4,14.15,14.15,0,0,0-4.55-2.55,16.47,16.47,0,0,0-5.41-.9c-1.37,0-2.7.06-4,.18a15.67,15.67,0,0,0-3.91.85Zm0,26.58a2.89,2.89,0,0,0,1.57,1.19,18.89,18.89,0,0,0,2.9.9,34.39,34.39,0,0,0,7.11.81q6.9,0,10.78-3.62t3.87-10.53A11.28,11.28,0,0,0,487,606a22.25,22.25,0,0,0-5.28-5.16c-1.36.23-2.73.44-4.09.64a28.63,28.63,0,0,1-4.17.3,46.73,46.73,0,0,1-5.28-.3,21.18,21.18,0,0,1-5.11-1.23Z" transform="translate(-267 -394.61)"/><path class="cls-2" d="M611.73,589.12a32.1,32.1,0,0,0-2.86-5.41,24.41,24.41,0,0,0-4-4.76,19.61,19.61,0,0,0-5.11-3.37,14.71,14.71,0,0,0-6.14-1.28,15.84,15.84,0,0,0-8,1.79q-3.11,1.78-3.11,6.39a8,8,0,0,0,1.41,4.73,13.51,13.51,0,0,0,3.74,3.53,35,35,0,0,0,5.33,2.81c2,.86,4,1.72,6.09,2.6s4.1,1.83,6.09,2.85a24.74,24.74,0,0,1,5.32,3.67,16.75,16.75,0,0,1,3.75,4.94,14.86,14.86,0,0,1,1.41,6.73,15.8,15.8,0,0,1-1.54,7.2,14.23,14.23,0,0,1-4.13,5,17.61,17.61,0,0,1-6.05,2.9,28.16,28.16,0,0,1-7.36.93,26.47,26.47,0,0,1-4.43-.39c-1.54-.27-3-.56-4.43-.89l-3.88-.88a13.47,13.47,0,0,0-2.77-.39,5.64,5.64,0,0,0-1.79.29l-1.79.64q-.76-4.83-1.78-9.46t-2.13-9.45l1.1-.59a63.59,63.59,0,0,0,3.71,6.19,37.65,37.65,0,0,0,4.9,5.89,26.92,26.92,0,0,0,6,4.45,14.66,14.66,0,0,0,7.12,1.78,20.35,20.35,0,0,0,4.77-.55,12.21,12.21,0,0,0,4-1.74,8.66,8.66,0,0,0,2.77-3.11,9.93,9.93,0,0,0,1-4.72,9.48,9.48,0,0,0-2.47-6.68,23.79,23.79,0,0,0-6.13-4.67,69.3,69.3,0,0,0-8-3.7,59.93,59.93,0,0,1-8-3.83,23.36,23.36,0,0,1-6.13-5,10.84,10.84,0,0,1-2.47-7.31,14.05,14.05,0,0,1,1.27-6,14.29,14.29,0,0,1,3.45-4.64,15.48,15.48,0,0,1,5-2.93,17.94,17.94,0,0,1,6.09-1,34.48,34.48,0,0,1,5.66.42c1.68.29,3.31.6,4.9.94s3.27.67,4.86,1a26.66,26.66,0,0,0,5.11.47c0,2.55,0,5,.13,7.45s.27,4.84.55,7.28Z" transform="translate(-267 -394.61)"/><path class="cls-2" d="M708.58,625.33c.51.11,1.13.22,1.87.34l2.39.34q1.27.16,2.64.3t2.55.12a44.55,44.55,0,0,0,9.16-.85,25.9,25.9,0,0,0,7.41-2.72,30.42,30.42,0,0,0,6.35-4.77,60.45,60.45,0,0,0,6-7l.93.77L740.18,629c-1-.11-2-.2-3-.26s-2-.08-3-.08h-32c-1.65,0-3.29,0-4.94.08s-3.3.15-4.94.26v-1a17,17,0,0,0,4.77-.94,5,5,0,0,0,2.55-2.13,9,9,0,0,0,1.07-3.79q.21-2.34.21-5.92V586.74q0-3.59-.21-5.92a9,9,0,0,0-1.07-3.79A4.9,4.9,0,0,0,697,574.9a18.45,18.45,0,0,0-4.85-.94v-1l5.49.17c1.73.06,3.52.1,5.37.13s3.8,0,5.88,0h7q6,0,11.93-.08t12.1-.26c-.06.63-.1,1.25-.13,1.87s0,1.23,0,1.79V580c0,1.25.06,2.51.18,3.79s.22,2.68.34,4.22l-1.11.34a21.19,21.19,0,0,0-2.94-6.69,14.08,14.08,0,0,0-4.26-4,15.66,15.66,0,0,0-5.32-2,35.38,35.38,0,0,0-6.14-.52q-6,0-11.92.52V597c1.13,0,2.23,0,3.28-.08s2.14-.09,3.28-.09c3.92,0,7-.78,9.32-2.34s3.71-4.42,4.22-8.56h1c0,2,0,4.09-.08,6.13s-.09,4.06-.09,6.05,0,4.09.09,6.13.08,4.09.08,6.13h-1a26,26,0,0,0-1.87-5.83,9.09,9.09,0,0,0-2.77-3.45,9.92,9.92,0,0,0-4.13-1.62A35.56,35.56,0,0,0,714,599h-5.45Z" transform="translate(-267 -394.61)"/><path class="cls-2" d="M877.92,628.65H862.59a151.27,151.27,0,0,1-9.93-12,97.29,97.29,0,0,1-8.13-13.08,18.28,18.28,0,0,1-2.17-.17c-.88-.11-1.79-.24-2.73-.38s-1.85-.31-2.73-.51-1.6-.39-2.17-.56v13.29q0,3.59.22,5.92a8.71,8.71,0,0,0,1.1,3.79,5.17,5.17,0,0,0,2.69,2.13,18.32,18.32,0,0,0,4.94.94v1q-3.24-.16-6.48-.26c-2.16-.05-4.31-.08-6.47-.08s-4.17,0-6.22.08-4.09.15-6.13.26v-1a17,17,0,0,0,4.77-.94,5.24,5.24,0,0,0,2.6-2.13,8.71,8.71,0,0,0,1.1-3.79c.14-1.56.22-3.53.22-5.92V586.74c0-2.39-.08-4.36-.22-5.92a8.75,8.75,0,0,0-1.1-3.79,5.24,5.24,0,0,0-2.6-2.13,17.36,17.36,0,0,0-4.77-.94v-1c1.81.11,3.63.2,5.45.26s3.63.08,5.45.08c.8,0,1.79,0,3-.13s2.46-.18,3.79-.3,2.69-.21,4.05-.29,2.58-.13,3.66-.13a31.31,31.31,0,0,1,7.5.94,21.4,21.4,0,0,1,6.9,3,16.8,16.8,0,0,1,5,5.19,13.88,13.88,0,0,1,2,7.5,12.41,12.41,0,0,1-1.06,5.28,12.89,12.89,0,0,1-2.86,4,14.83,14.83,0,0,1-4.21,2.81,22.37,22.37,0,0,1-5.07,1.62q1.18,2.06,2.81,4.6t3.62,5.2q2,2.64,4.26,5.24a40.43,40.43,0,0,0,4.77,4.68,30,30,0,0,0,5.15,3.5,14.29,14.29,0,0,0,5.37,1.66ZM834.73,599a22.17,22.17,0,0,0,7.92,1.45q6.65,0,10.31-3.06t3.66-10a11.77,11.77,0,0,0-1.06-5.07,12.14,12.14,0,0,0-2.94-3.92,13.4,13.4,0,0,0-4.3-2.55,14.48,14.48,0,0,0-5.07-.9c-1.42,0-2.81.06-4.17.17a19.47,19.47,0,0,0-4,.77c-.11,2.73-.2,5.48-.25,8.26s-.09,5.8-.09,9Z" transform="translate(-267 -394.61)"/><path class="cls-2" d="M1091.81,604l-5.62,15.42c-.17.45-.33.85-.47,1.19a2.89,2.89,0,0,0-.21,1.11,4.11,4.11,0,0,0,.89,2.64,7.53,7.53,0,0,0,2.17,1.83,13.9,13.9,0,0,0,2.64,1.15,20.43,20.43,0,0,0,2.3.6v1c-1.7-.11-3.4-.2-5.11-.26s-3.43-.08-5.19-.08-3.37,0-5,.08-3.33.15-5.15.26v-1a11.49,11.49,0,0,0,7.33-4.77,21.81,21.81,0,0,0,2.08-3.75q.9-2,1.75-4.26L1099,579c.17-.4.32-.77.46-1.11a2.32,2.32,0,0,0,.22-.94,4.24,4.24,0,0,0-.3-1.27,7.56,7.56,0,0,0-.73-1.54,18.73,18.73,0,0,0,3.84-1.11c1.08-.45,2.27-.93,3.58-1.44l17.71,48.72a12.66,12.66,0,0,0,3.33,5.24,11.27,11.27,0,0,0,6.3,2.43v1q-3.41-.16-6.69-.26c-2.18-.05-4.47-.08-6.85-.08h-4c-1.13,0-2.16,0-3.06,0s-1.78.07-2.6.13l-2.69.17v-1a15.82,15.82,0,0,0,6-1.83,4.25,4.25,0,0,0,2.43-3.79,3.39,3.39,0,0,0-.3-1.37,9.21,9.21,0,0,1-.47-1.28L1109.61,604Zm9.2-24.19-8.35,21.64h16Z" transform="translate(-267 -394.61)"/><path class="cls-2" d="M1216,628a17,17,0,0,0,4.77-.94,5.24,5.24,0,0,0,2.6-2.13,8.71,8.71,0,0,0,1.1-3.79c.14-1.56.22-3.53.22-5.92V575.67a68.36,68.36,0,0,0-7.54.34,11.08,11.08,0,0,0-9.12,6,42.88,42.88,0,0,0-3.28,7.93l-1.1-.34,1.19-16.7q3.57.16,7.07.26c2.33,0,4.68.08,7.07.08h20q3.4,0,6.73-.08t6.72-.26l1.2,16.7-1.11.34a42.88,42.88,0,0,0-3.28-7.93,12.05,12.05,0,0,0-3.88-4.3,12.26,12.26,0,0,0-5.32-1.74,71.88,71.88,0,0,0-7.71-.34v39.52q0,3.59.21,5.92a8.85,8.85,0,0,0,1.11,3.79,5.17,5.17,0,0,0,2.69,2.13,18.24,18.24,0,0,0,4.94.94v1q-3.24-.16-6.48-.26c-2.16-.05-4.31-.08-6.47-.08s-4.18,0-6.22.08-4.09.15-6.13.26Z" transform="translate(-267 -394.61)"/><path class="cls-2" d="M1329.21,601a29.12,29.12,0,0,1,2.52-12.35,27.73,27.73,0,0,1,6.77-9.24,29.24,29.24,0,0,1,10-5.79,38.33,38.33,0,0,1,24.44,0,29.24,29.24,0,0,1,10,5.79,27.73,27.73,0,0,1,6.77,9.24,31.55,31.55,0,0,1,0,24.71,27.73,27.73,0,0,1-6.77,9.24,29.24,29.24,0,0,1-10,5.79,38.33,38.33,0,0,1-24.44,0,29.24,29.24,0,0,1-10-5.79,27.73,27.73,0,0,1-6.77-9.24A29.17,29.17,0,0,1,1329.21,601Zm9,0a32.13,32.13,0,0,0,1.54,10,26,26,0,0,0,4.42,8.39,21.71,21.71,0,0,0,7.07,5.79,21.59,21.59,0,0,0,18.91,0,21.61,21.61,0,0,0,7.07-5.79,25.79,25.79,0,0,0,4.43-8.39,33,33,0,0,0,0-19.93,25.79,25.79,0,0,0-4.43-8.39,21.61,21.61,0,0,0-7.07-5.79,21.59,21.59,0,0,0-18.91,0,21.71,21.71,0,0,0-7.07,5.79,26,26,0,0,0-4.42,8.39A32.12,32.12,0,0,0,1338.24,601Z" transform="translate(-267 -394.61)"/><path class="cls-2" d="M1526.75,628.65h-15.33a151.27,151.27,0,0,1-9.93-12,97.29,97.29,0,0,1-8.13-13.08,18.28,18.28,0,0,1-2.17-.17c-.89-.11-1.79-.24-2.73-.38s-1.85-.31-2.73-.51-1.6-.39-2.17-.56v13.29q0,3.59.21,5.92a8.85,8.85,0,0,0,1.11,3.79,5.17,5.17,0,0,0,2.69,2.13,18.24,18.24,0,0,0,4.94.94v1q-3.24-.16-6.48-.26c-2.16-.05-4.31-.08-6.47-.08s-4.18,0-6.22.08-4.09.15-6.13.26v-1A17,17,0,0,0,1472,627a5.24,5.24,0,0,0,2.6-2.13,8.71,8.71,0,0,0,1.1-3.79c.14-1.56.22-3.53.22-5.92V586.74c0-2.39-.08-4.36-.22-5.92a8.75,8.75,0,0,0-1.1-3.79,5.24,5.24,0,0,0-2.6-2.13,17.36,17.36,0,0,0-4.77-.94v-1c1.81.11,3.63.2,5.45.26s3.63.08,5.45.08c.79,0,1.79,0,3-.13s2.46-.18,3.79-.3,2.69-.21,4-.29,2.58-.13,3.66-.13a31.31,31.31,0,0,1,7.5.94,21.4,21.4,0,0,1,6.9,3,16.8,16.8,0,0,1,5,5.19,13.88,13.88,0,0,1,2,7.5,12.41,12.41,0,0,1-1.06,5.28,12.89,12.89,0,0,1-2.86,4,14.83,14.83,0,0,1-4.21,2.81,22.37,22.37,0,0,1-5.07,1.62q1.18,2.06,2.81,4.6t3.62,5.2q2,2.64,4.26,5.24a40.43,40.43,0,0,0,4.77,4.68,30,30,0,0,0,5.15,3.5,14.29,14.29,0,0,0,5.37,1.66ZM1483.56,599a22.17,22.17,0,0,0,7.92,1.45q6.64,0,10.31-3.06t3.66-10a11.77,11.77,0,0,0-1.06-5.07,12.14,12.14,0,0,0-2.94-3.92,13.4,13.4,0,0,0-4.3-2.55,14.48,14.48,0,0,0-5.07-.9c-1.42,0-2.81.06-4.17.17a19.47,19.47,0,0,0-4,.77c-.11,2.73-.2,5.48-.25,8.26s-.09,5.8-.09,9Z" transform="translate(-267 -394.61)"/><path class="cls-2" d="M1596.43,572.94q3.57.16,7,.26t7,.08q3.31,0,6.68-.08t6.69-.26v1c-.68.12-1.43.29-2.26.51a10.38,10.38,0,0,0-2.3.94,5.37,5.37,0,0,0-1.74,1.53,3.77,3.77,0,0,0-.68,2.3,5.26,5.26,0,0,0,.89,2.47,43.89,43.89,0,0,0,2.6,3.84l12.09,16.35,10.06-15.76a12.73,12.73,0,0,0,2.21-6.56,4.68,4.68,0,0,0-2-4A8.74,8.74,0,0,0,1638,574v-1c2,.11,4,.2,6,.26s4,.08,6,.08c1.81,0,3.62,0,5.41-.08s3.59-.15,5.41-.26v1a15,15,0,0,0-5.46,2.17,25.79,25.79,0,0,0-4.3,3.58,32.14,32.14,0,0,0-3.41,4.22q-1.48,2.22-2.76,4l-11.67,17v12.52a20.4,20.4,0,0,0,.51,5.07,6.31,6.31,0,0,0,1.66,3,6.87,6.87,0,0,0,3.11,1.62,30.14,30.14,0,0,0,4.94.77v1q-3.84-.16-7.58-.26t-7.58-.08q-3.16,0-6.31.08t-6.3.26v-1a29,29,0,0,0,4.73-.77,6.84,6.84,0,0,0,3.06-1.62,6,6,0,0,0,1.62-3,22.25,22.25,0,0,0,.47-5.07V604.12l-15.42-19.77c-.79-1-1.62-2.05-2.47-3.1a25,25,0,0,0-2.85-3,20.63,20.63,0,0,0-3.62-2.55,17.31,17.31,0,0,0-4.77-1.75Z" transform="translate(-267 -394.61)"/><path class="cls-3" d="M1025,632.55c-3.59-.21-7.14-.36-10.63-.47s-7-.15-10.64-.15q-6.47,0-12.64.15t-12.33.47V630.7c1.44-.21,3-.46,4.62-.77a19.41,19.41,0,0,0,4.63-1.47,9.82,9.82,0,0,0,3.54-2.7,7.06,7.06,0,0,0,1.39-4.62q0-2.77-4.47-13.87l-24.2-58.58-20,47.33q-7.69,18.65-7.7,25.43a7.68,7.68,0,0,0,1.07,4.16,7.86,7.86,0,0,0,2.93,2.7,16.9,16.9,0,0,0,4.09,1.54,45.1,45.1,0,0,0,4.55.85v1.85c-3.5-.21-7-.36-10.41-.47s-6.86-.15-10.25-.15c-2.88,0-5.7.05-8.48.15s-5.55.26-8.32.47V630.7a17.49,17.49,0,0,0,9.09-3.55,27.61,27.61,0,0,0,6.32-7.09,55.15,55.15,0,0,0,4.55-8.94c1.29-3.18,2.54-6.16,3.78-8.94l32.06-72h3.39l35.91,84.47a37.14,37.14,0,0,0,6.86,11q4.1,4.39,11.33,5Z" transform="translate(-267 -394.61)"/><path class="cls-4" d="M1685.87,514l-658.74,1A2.09,2.09,0,0,1,1025,513h0a2.09,2.09,0,0,1,2.13-2.06l658.74,1c1.18,0,2.13-.11,2.13,1h0C1688,514.14,1687.05,514,1685.87,514Z" transform="translate(-267 -394.61)"/><path class="cls-5" d="M269.07,512.46l640.86-1.05a2.09,2.09,0,0,1,2.07,2.1h0a2.1,2.1,0,0,1-2.07,2.11l-640.86-1.06c-1.14,0-2.07.11-2.07-1h0C267,512.35,267.93,512.46,269.07,512.46Z" transform="translate(-267 -394.61)"/></svg>