<svg xmlns="http://www.w3.org/2000/svg" xmlns:xlink="http://www.w3.org/1999/xlink" viewBox="74.3690185546875 361.7999572753906 1772.191162109375 308.2000427246094"><defs><style>.cls-1{fill:url(#New_Gradient_Swatch_4);}.cls-2{fill:url(#linear-gradient);}.cls-3{fill:url(#New_Gradient_Swatch_3);}.cls-4{fill:url(#New_Gradient_Swatch_4-2);}.cls-5{fill:#e933f6;}.cls-6{fill:url(#New_Gradient_Swatch_3-2);}</style><linearGradient id="New_Gradient_Swatch_4" x1="1029.31" y1="551.62" x2="1847.67" y2="551.62" gradientUnits="userSpaceOnUse"><stop offset="0" stop-color="#999"/><stop offset="1" stop-color="#333"/></linearGradient><linearGradient id="linear-gradient" x1="984.01" y1="595.45" x2="984.01" y2="664.06" gradientUnits="userSpaceOnUse"><stop offset="0" stop-color="#b8b9bb"/><stop offset="0.42" stop-color="#adaeaf"/><stop offset="0.76" stop-color="#636465"/><stop offset="1" stop-color="#676869"/></linearGradient><linearGradient id="New_Gradient_Swatch_3" x1="-51.41" y1="3436.57" x2="-51.41" y2="3321.12" gradientTransform="translate(909.19 3990.12) rotate(180)" gradientUnits="userSpaceOnUse"><stop offset="0" stop-color="#c3a964"/><stop offset="1" stop-color="#50411a"/></linearGradient><linearGradient id="New_Gradient_Swatch_4-2" x1="1285.22" y1="1987.38" x2="2103.58" y2="1987.38" gradientTransform="translate(2179.01 2538.75) rotate(180)" xlink:href="#New_Gradient_Swatch_4"/><linearGradient id="New_Gradient_Swatch_3-2" x1="960" y1="360.22" x2="960" y2="469.96" gradientTransform="matrix(1, 0, 0, 1, 0, 0)" xlink:href="#New_Gradient_Swatch_3"/></defs><g id="Layer_3" data-name="Layer 3"><path class="cls-1" d="M1845,552.72l-813.1,1.1a2.45,2.45,0,0,1-2.63-2.2h0a2.44,2.44,0,0,1,2.63-2.2l813.1,1.1c1.45,0,2.63-.12,2.63,1.1h0C1847.67,552.83,1846.49,552.72,1845,552.72Z"/><path class="cls-2" d="M494.1,661.28a20.12,20.12,0,0,0,5.57-1.09,6.1,6.1,0,0,0,3-2.49,10,10,0,0,0,1.29-4.43q.25-2.73.25-6.91V600.23a82.53,82.53,0,0,0-8.8.39,14.31,14.31,0,0,0-6.11,2,14.14,14.14,0,0,0-4.53,5,49.56,49.56,0,0,0-3.82,9.25l-1.3-.4L481.07,597q4.19.21,8.26.3c2.71.07,5.47.1,8.25.1H521q4,0,7.85-.1t7.86-.3l1.39,19.49-1.29.4a50.18,50.18,0,0,0-3.83-9.25,14.12,14.12,0,0,0-4.52-5,14.52,14.52,0,0,0-6.22-2,86.53,86.53,0,0,0-9-.39v46.13q0,4.18.25,6.91a10.27,10.27,0,0,0,1.29,4.43,6.08,6.08,0,0,0,3.14,2.49,21.73,21.73,0,0,0,5.76,1.09v1.19q-3.78-.19-7.55-.3c-2.52-.06-5-.1-7.56-.1s-4.87,0-7.26.1-4.77.17-7.16.3Z"/><path class="cls-2" d="M669.2,662.07H651.31A173.48,173.48,0,0,1,639.72,648a113.92,113.92,0,0,1-9.49-15.26,19.23,19.23,0,0,1-2.54-.2c-1-.13-2.09-.28-3.18-.44s-2.16-.37-3.18-.6-1.88-.45-2.54-.65v15.51q0,4.18.25,6.91a10.13,10.13,0,0,0,1.29,4.43,6.09,6.09,0,0,0,3.13,2.49,21.9,21.9,0,0,0,5.77,1.09v1.19q-3.78-.19-7.56-.3c-2.52-.06-5-.1-7.55-.1s-4.87,0-7.26.1-4.77.17-7.16.3v-1.19a20.12,20.12,0,0,0,5.57-1.09,6.14,6.14,0,0,0,3-2.49,10,10,0,0,0,1.29-4.43q.25-2.73.25-6.91V613.15q0-4.17-.25-6.91a10,10,0,0,0-1.29-4.42,6.14,6.14,0,0,0-3-2.49,20.12,20.12,0,0,0-5.57-1.09V597q3.18.21,6.36.3c2.12.07,4.25.1,6.37.1.92,0,2.09-.05,3.48-.15l4.42-.34c1.56-.14,3.13-.25,4.73-.35s3-.15,4.27-.15a36.71,36.71,0,0,1,8.75,1.09,25.29,25.29,0,0,1,8.06,3.48,19.74,19.74,0,0,1,5.86,6.07,16.19,16.19,0,0,1,2.29,8.75,14.63,14.63,0,0,1-1.24,6.16,15.35,15.35,0,0,1-3.33,4.68,18,18,0,0,1-4.93,3.28,26.45,26.45,0,0,1-5.91,1.89c.92,1.59,2,3.38,3.28,5.37s2.67,4,4.22,6.06,3.22,4.1,5,6.12a48.55,48.55,0,0,0,5.56,5.47,35.63,35.63,0,0,0,6,4.07,16.42,16.42,0,0,0,6.26,1.94Zm-50.41-34.6a25.9,25.9,0,0,0,9.25,1.69q7.76,0,12-3.58T644.35,614A13.7,13.7,0,0,0,643.1,608a14.1,14.1,0,0,0-3.43-4.57,15.58,15.58,0,0,0-5-3,16.89,16.89,0,0,0-5.92-1.05c-1.65,0-3.28.07-4.87.2a22.4,22.4,0,0,0-4.67.89c-.13,3.19-.23,6.4-.3,9.65s-.1,6.76-.1,10.54Z"/><path class="cls-2" d="M723.2,661.28a20,20,0,0,0,5.56-1.09,6.12,6.12,0,0,0,3-2.49,10.27,10.27,0,0,0,1.29-4.43c.16-1.82.25-4.12.25-6.91V613.15c0-2.78-.09-5.08-.25-6.91a10.26,10.26,0,0,0-1.29-4.42,6.08,6.08,0,0,0-3.14-2.49,21.46,21.46,0,0,0-5.66-1.09V597q4.17.21,8.1.3t8.11.1q3.27,0,6.56-.1t6.46-.3v1.2a19.86,19.86,0,0,0-5.47,1.09,5.85,5.85,0,0,0-3,2.49,10.57,10.57,0,0,0-1.24,4.42q-.25,2.75-.25,6.91v33.21q0,4.18.25,6.91a10,10,0,0,0,1.29,4.43,6.05,6.05,0,0,0,3.13,2.49,21.73,21.73,0,0,0,5.77,1.09v1.19q-3.78-.19-7.56-.3c-2.52-.06-5-.1-7.56-.1s-4.87,0-7.26.1-4.77.17-7.15.3Z"/><path class="cls-2" d="M843.31,662.47q-3.78-.19-7.51-.3c-2.48-.06-5-.1-7.5-.1s-4.89,0-7.31.1-4.92.17-7.51.3v-1.19a22.59,22.59,0,0,0,5.82-1.09,6.1,6.1,0,0,0,3.18-2.49,10,10,0,0,0,1.29-4.43q.26-2.73.25-6.91V613.15q0-4.17-.25-6.91a10,10,0,0,0-1.29-4.42,6.09,6.09,0,0,0-3.13-2.49,21.46,21.46,0,0,0-5.67-1.09V597q3.29.21,6.56.3t6.57.1a88.09,88.09,0,0,0,9.39-.49,85.72,85.72,0,0,1,9.4-.5,24.44,24.44,0,0,1,7.7,1.34,26,26,0,0,1,7.41,3.88,20.7,20.7,0,0,1,5.52,6.16,15.84,15.84,0,0,1,2.14,8.21,14.18,14.18,0,0,1-2.19,8.05,17.62,17.62,0,0,1-5.52,5.32,23.72,23.72,0,0,1-7.4,2.93,36.88,36.88,0,0,1-8,.9,57.12,57.12,0,0,1-6.16-.35,25.89,25.89,0,0,1-6.17-1.44v14.91q0,4.18.25,6.91a10.13,10.13,0,0,0,1.29,4.43,6.09,6.09,0,0,0,3.13,2.49,21.63,21.63,0,0,0,5.67,1.09ZM833,627.87a16.28,16.28,0,0,0,4.92,1.74,29.27,29.27,0,0,0,5.12.45,18.58,18.58,0,0,0,5.92-.95,15,15,0,0,0,4.92-2.68,12.71,12.71,0,0,0,3.33-4.33,13.34,13.34,0,0,0,1.25-5.86,19.2,19.2,0,0,0-1.25-7.06,15.43,15.43,0,0,0-3.43-5.37,15,15,0,0,0-5.22-3.38,17.78,17.78,0,0,0-6.61-1.2c-1.19,0-2.6.09-4.23.25a16,16,0,0,0-4.72,1.24Z"/><path class="cls-2" d="M1047.65,597q4.17.21,8.15.3t8.16.1q3.87,0,7.8-.1t7.81-.3v1.2a26.47,26.47,0,0,0-2.64.59,12.47,12.47,0,0,0-2.68,1.1,6.2,6.2,0,0,0-2,1.79,4.43,4.43,0,0,0-.8,2.68,6.26,6.26,0,0,0,1,2.89,49.66,49.66,0,0,0,3,4.47l14.12,19.09,11.73-18.39a14.8,14.8,0,0,0,2.59-7.66,5.45,5.45,0,0,0-2.39-4.62,10,10,0,0,0-5.37-1.94V597q3.48.21,7,.3c2.36.07,4.69.1,7,.1q3.18,0,6.32-.1t6.31-.3v1.2a17.47,17.47,0,0,0-6.36,2.53,29.1,29.1,0,0,0-5,4.18,36.64,36.64,0,0,0-4,4.92c-1.16,1.73-2.24,3.28-3.23,4.68l-13.63,19.88v14.62a23.69,23.69,0,0,0,.6,5.92,7.37,7.37,0,0,0,1.94,3.52,7.9,7.9,0,0,0,3.63,1.89,35,35,0,0,0,5.77.9v1.19q-4.49-.19-8.85-.3c-2.92-.06-5.87-.1-8.85-.1-2.46,0-4.91,0-7.36.1s-4.91.17-7.36.3v-1.19a33.43,33.43,0,0,0,5.52-.9,7.91,7.91,0,0,0,3.58-1.89,7.16,7.16,0,0,0,1.89-3.52,26.22,26.22,0,0,0,.54-5.92V633.44l-18-23.07q-1.4-1.79-2.89-3.63a28.67,28.67,0,0,0-3.33-3.48,24,24,0,0,0-4.22-3,19.89,19.89,0,0,0-5.57-2Z"/><path class="cls-2" d="M1239.85,619.72a37.85,37.85,0,0,0-3.43-8.26,27.72,27.72,0,0,0-5.07-6.56,21.2,21.2,0,0,0-6.76-4.33A23,23,0,0,0,1216,599a21.15,21.15,0,0,0-10.44,2.39,20.19,20.19,0,0,0-7,6.46,28.13,28.13,0,0,0-4,9.45,50.06,50.06,0,0,0-1.24,11.33,40.24,40.24,0,0,0,1.59,11.39,28.68,28.68,0,0,0,4.72,9.5,23.08,23.08,0,0,0,7.86,6.51,23.48,23.48,0,0,0,10.89,2.43,27.21,27.21,0,0,0,16-4.67,44.53,44.53,0,0,0,11.88-12.73l2.48,2a85.49,85.49,0,0,1-6.76,8.95,37.68,37.68,0,0,1-7.36,6.56,31.35,31.35,0,0,1-8.65,4.08,36.81,36.81,0,0,1-10.54,1.39,31.89,31.89,0,0,1-12.62-2.53,32.48,32.48,0,0,1-10.45-7.06,33.79,33.79,0,0,1-7.11-10.84,37.89,37.89,0,0,1,0-27.74,33.79,33.79,0,0,1,7.11-10.84,32.32,32.32,0,0,1,10.45-7.06,31.9,31.9,0,0,1,12.62-2.54,49,49,0,0,1,6.86.45c2.13.3,4.16.61,6.12,1s3.84.66,5.67,1a38.9,38.9,0,0,0,5.42.6c0,1.39,0,3,.15,4.87s.24,3.76.44,5.72.4,3.87.6,5.76.4,3.53.6,4.93Z"/><path class="cls-2" d="M1358.58,613.15c0-2.78-.09-5.08-.25-6.91a10.26,10.26,0,0,0-1.29-4.42,6.09,6.09,0,0,0-3.13-2.49,21.63,21.63,0,0,0-5.67-1.09V597q4.17.21,8.1.3t8.11.1q3.27,0,6.56-.1t6.46-.3v1.2a19.86,19.86,0,0,0-5.47,1.09,5.85,5.85,0,0,0-3,2.49,10.57,10.57,0,0,0-1.24,4.42q-.26,2.75-.25,6.91v33.21q0,4.18.25,6.91a10,10,0,0,0,1.29,4.43,6.09,6.09,0,0,0,3.13,2.49,21.81,21.81,0,0,0,5.77,1.09v1.19q-3.78-.19-7.56-.3c-2.52-.06-5-.1-7.55-.1s-4.88,0-7.26.1-4.78.17-7.16.3v-1.19a20,20,0,0,0,5.56-1.09,6.12,6.12,0,0,0,3-2.49,10.27,10.27,0,0,0,1.29-4.43c.16-1.82.25-4.12.25-6.91V628.47h-36.89v17.89q0,4.18.25,6.91a10,10,0,0,0,1.29,4.43,6.09,6.09,0,0,0,3.13,2.49,21.81,21.81,0,0,0,5.77,1.09v1.19q-3.78-.19-7.56-.3c-2.52-.06-5-.1-7.55-.1s-4.88,0-7.26.1-4.78.17-7.16.3v-1.19a20.2,20.2,0,0,0,5.57-1.09,6.14,6.14,0,0,0,3-2.49,10.27,10.27,0,0,0,1.29-4.43q.26-2.73.25-6.91V613.15q0-4.17-.25-6.91a10.26,10.26,0,0,0-1.29-4.42,6.09,6.09,0,0,0-3.13-2.49,21.54,21.54,0,0,0-5.67-1.09V597q4.17.21,8.1.3t8.11.1q3.27,0,6.56-.1t6.46-.3v1.2a19.86,19.86,0,0,0-5.47,1.09,5.85,5.85,0,0,0-3,2.49,10.57,10.57,0,0,0-1.24,4.42q-.26,2.75-.25,6.91v12.13h36.89Z"/><path class="cls-2" d="M1483.77,615.94a38.85,38.85,0,0,0-3.33-6.32,28.57,28.57,0,0,0-4.73-5.57,23,23,0,0,0-6-3.92,17,17,0,0,0-7.16-1.49,18.5,18.5,0,0,0-9.3,2.08c-2.42,1.4-3.63,3.88-3.63,7.46a9.4,9.4,0,0,0,1.64,5.52,15.82,15.82,0,0,0,4.38,4.13,41,41,0,0,0,6.21,3.28l7.11,3q3.63,1.54,7.11,3.33a28.39,28.39,0,0,1,6.21,4.28,19.35,19.35,0,0,1,4.38,5.76,17.47,17.47,0,0,1,1.64,7.86,18.39,18.39,0,0,1-1.79,8.4,16.51,16.51,0,0,1-4.82,5.82,20.65,20.65,0,0,1-7.06,3.38,32.68,32.68,0,0,1-8.6,1.09,30.25,30.25,0,0,1-5.17-.46c-1.79-.31-3.52-.65-5.17-1l-4.53-1a16,16,0,0,0-3.23-.46,6.32,6.32,0,0,0-2.09.35l-2.09.74q-.88-5.64-2.08-11t-2.49-11l1.29-.7a74.49,74.49,0,0,0,4.33,7.23,44.12,44.12,0,0,0,5.71,6.88,31.36,31.36,0,0,0,7,5.19,17.11,17.11,0,0,0,8.31,2.08,23.78,23.78,0,0,0,5.57-.64,14.11,14.11,0,0,0,4.72-2,9.9,9.9,0,0,0,3.23-3.62,11.54,11.54,0,0,0,1.19-5.51,11.09,11.09,0,0,0-2.88-7.8,27.8,27.8,0,0,0-7.16-5.46,85.47,85.47,0,0,0-9.3-4.32,69.53,69.53,0,0,1-9.29-4.46,27.47,27.47,0,0,1-7.16-5.86,12.71,12.71,0,0,1-2.89-8.54,16.37,16.37,0,0,1,5.52-12.46,17.81,17.81,0,0,1,5.87-3.42,20.81,20.81,0,0,1,7.11-1.2,40,40,0,0,1,6.61.5c2,.33,3.86.7,5.72,1.09s3.81.78,5.67,1.15a31.22,31.22,0,0,0,6,.54q0,4.49.15,8.71c.1,2.81.32,5.65.65,8.5Z"/><path class="cls-3" d="M986.65,555.66a35.62,35.62,0,0,0-9.83,1.92,10.81,10.81,0,0,0-5.35,4.39,17.8,17.8,0,0,0-2.28,7.81q-.44,4.82-.44,12.19v81.41a142.12,142.12,0,0,0,15.53-.7,25.13,25.13,0,0,0,10.79-3.6,24.74,24.74,0,0,0,8-8.86,87.34,87.34,0,0,0,6.76-16.31l2.28.7L1009.63,669q-7.36-.36-14.56-.53t-14.56-.17H939.28q-7,0-13.86.17t-13.87.53l-2.45-34.39,2.28-.7a87.4,87.4,0,0,0,6.75,16.31,24.85,24.85,0,0,0,8,8.86,25.33,25.33,0,0,0,11,3.6,149.3,149.3,0,0,0,15.88.7V582q0-7.37-.44-12.19a17.8,17.8,0,0,0-2.28-7.81,10.77,10.77,0,0,0-5.52-4.39,38.6,38.6,0,0,0-10.18-1.92v-2.11q6.68.36,13.33.53t13.34.17c4.33,0,8.59-.06,12.81-.17s8.42-.29,12.63-.53Z"/><path class="cls-4" d="M78.07,550.27l813.09-1.1a2.45,2.45,0,0,1,2.63,2.2h0a2.44,2.44,0,0,1-2.63,2.2l-813.09-1.1c-1.46,0-2.64.12-2.64-1.1h0C75.43,550.16,76.61,550.27,78.07,550.27Z"/><path class="cls-5" d="M875.87,468a27.15,27.15,0,0,0,8.4-1.84,9.44,9.44,0,0,0,4.58-4.17,18.32,18.32,0,0,0,1.95-7.42c.25-3,.38-6.92.38-11.59V387.23q0-7-.38-11.59a18.42,18.42,0,0,0-1.95-7.42,9.44,9.44,0,0,0-4.73-4.17,29.35,29.35,0,0,0-8.55-1.83v-2q6.3.33,12.23.5t12.23.16q5,0,9.91-.16t9.76-.5v2a27.09,27.09,0,0,0-8.26,1.83,9.14,9.14,0,0,0-4.5,4.17,19.33,19.33,0,0,0-1.88,7.42q-.37,4.59-.37,11.59v55.71c0,4.67.12,8.54.37,11.59a18.32,18.32,0,0,0,2,7.42,9.35,9.35,0,0,0,4.73,4.17,29.39,29.39,0,0,0,8.71,1.84v2q-5.72-.33-11.41-.5c-3.8-.11-7.61-.17-11.41-.17s-7.35.06-11,.17-7.2.28-10.8.5Z"/><path class="cls-5" d="M931.85,468a24.37,24.37,0,0,0,7.43-1.67,21.6,21.6,0,0,0,5.78-3.5,35.25,35.25,0,0,0,4.81-5q2.25-2.84,4.65-6.18l26.72-36.69-22.37-33.69q-5.7-9-11.4-13.34a30.21,30.21,0,0,0-13.06-5.67v-2c3.6.22,7.22.39,10.88.5s7.28.16,10.88.16q5.7,0,11.48-.16c3.86-.11,7.68-.28,11.49-.5v2a15.27,15.27,0,0,0-6.53,2.33,6.75,6.75,0,0,0-3.23,6.17,10.39,10.39,0,0,0,1.43,4.59,82.64,82.64,0,0,0,4.27,7.09l15,22.85,13.82-20.85a62.28,62.28,0,0,0,4.57-8.09,17.33,17.33,0,0,0,1.73-7.25,5,5,0,0,0-1.05-3.17,8.84,8.84,0,0,0-2.48-2.17,9.73,9.73,0,0,0-3.08-1.17,14.84,14.84,0,0,0-2.85-.33v-2q4.2.33,8.33.5t8.33.16c3.21,0,6.43-.05,9.69-.16s6.47-.28,9.68-.5v2a29.82,29.82,0,0,0-9.61,3.33,33.38,33.38,0,0,0-7.35,5.76,60.61,60.61,0,0,0-6.16,7.5l-6,8.59L992.5,408.75l24.61,36.69c1.3,2,2.88,4.26,4.73,6.76a62.22,62.22,0,0,0,6.23,7.17,38,38,0,0,0,7.58,5.84,20,20,0,0,0,8.78,2.75v2q-6.75-.33-13.28-.5t-13.28-.17q-6,0-11.86.17t-11.86.5v-2l4.8-1a19.09,19.09,0,0,0,4.43-1.5,8.36,8.36,0,0,0,3.3-2.92,9.76,9.76,0,0,0,1.28-5.42q0-1.33-2.18-5.26t-5.48-8.92l-16.51-24.68-15.91,23.68a76.43,76.43,0,0,0-5.63,9.42q-2.18,4.42-2.18,6.43a8,8,0,0,0,1.58,5.25,10.19,10.19,0,0,0,3.9,2.92,18.42,18.42,0,0,0,5,1.33c1.75.23,3.37.45,4.88.67v2q-6.76-.33-13.51-.5t-13.51-.17q-4.22,0-8.26.17c-2.7.11-5.46.28-8.26.5Z"/><path class="cls-6" d="M875.87,468a27.15,27.15,0,0,0,8.4-1.84,9.44,9.44,0,0,0,4.58-4.17,18.32,18.32,0,0,0,1.95-7.42c.25-3,.38-6.92.38-11.59V387.23q0-7-.38-11.59a18.42,18.42,0,0,0-1.95-7.42,9.44,9.44,0,0,0-4.73-4.17,29.35,29.35,0,0,0-8.55-1.83v-2q6.3.33,12.23.5t12.23.16q5,0,9.91-.16t9.76-.5v2a27.09,27.09,0,0,0-8.26,1.83,9.14,9.14,0,0,0-4.5,4.17,19.33,19.33,0,0,0-1.88,7.42q-.37,4.59-.37,11.59v55.71c0,4.67.12,8.54.37,11.59a18.32,18.32,0,0,0,2,7.42,9.35,9.35,0,0,0,4.73,4.17,29.39,29.39,0,0,0,8.71,1.84v2q-5.72-.33-11.41-.5c-3.8-.11-7.61-.17-11.41-.17s-7.35.06-11,.17-7.2.28-10.8.5Z"/><path class="cls-6" d="M931.85,468a24.37,24.37,0,0,0,7.43-1.67,21.6,21.6,0,0,0,5.78-3.5,35.25,35.25,0,0,0,4.81-5q2.25-2.84,4.65-6.18l26.72-36.69-22.37-33.69q-5.7-9-11.4-13.34a30.21,30.21,0,0,0-13.06-5.67v-2c3.6.22,7.22.39,10.88.5s7.28.16,10.88.16q5.7,0,11.48-.16c3.86-.11,7.68-.28,11.49-.5v2a15.27,15.27,0,0,0-6.53,2.33,6.75,6.75,0,0,0-3.23,6.17,10.39,10.39,0,0,0,1.43,4.59,82.64,82.64,0,0,0,4.27,7.09l15,22.85,13.82-20.85a62.28,62.28,0,0,0,4.57-8.09,17.33,17.33,0,0,0,1.73-7.25,5,5,0,0,0-1.05-3.17,8.84,8.84,0,0,0-2.48-2.17,9.73,9.73,0,0,0-3.08-1.17,14.84,14.84,0,0,0-2.85-.33v-2q4.2.33,8.33.5t8.33.16c3.21,0,6.43-.05,9.69-.16s6.47-.28,9.68-.5v2a29.82,29.82,0,0,0-9.61,3.33,33.38,33.38,0,0,0-7.35,5.76,60.61,60.61,0,0,0-6.16,7.5l-6,8.59L992.5,408.75l24.61,36.69c1.3,2,2.88,4.26,4.73,6.76a62.22,62.22,0,0,0,6.23,7.17,38,38,0,0,0,7.58,5.84,20,20,0,0,0,8.78,2.75v2q-6.75-.33-13.28-.5t-13.28-.17q-6,0-11.86.17t-11.86.5v-2l4.8-1a19.09,19.09,0,0,0,4.43-1.5,8.36,8.36,0,0,0,3.3-2.92,9.76,9.76,0,0,0,1.28-5.42q0-1.33-2.18-5.26t-5.48-8.92l-16.51-24.68-15.91,23.68a76.43,76.43,0,0,0-5.63,9.42q-2.18,4.42-2.18,6.43a8,8,0,0,0,1.58,5.25,10.19,10.19,0,0,0,3.9,2.92,18.42,18.42,0,0,0,5,1.33c1.75.23,3.37.45,4.88.67v2q-6.76-.33-13.51-.5t-13.51-.17q-4.22,0-8.26.17c-2.7.11-5.46.28-8.26.5Z"/></g></svg>