<svg xmlns="http://www.w3.org/2000/svg" xmlns:xlink="http://www.w3.org/1999/xlink" viewBox="74.3690185546875 361.7999572753906 1772.191162109375 308.2000427246094"><defs><style>.cls-1{fill:url(#New_Gradient_Swatch_4);}.cls-2{fill:url(#linear-gradient);}.cls-3{fill:url(#New_Gradient_Swatch_3);}.cls-4{fill:url(#New_Gradient_Swatch_4-2);}.cls-5{fill:#e933f6;}.cls-6{fill:url(#New_Gradient_Swatch_2);}</style><linearGradient id="New_Gradient_Swatch_4" x1="1028.91" y1="547.28" x2="1847.27" y2="547.28" gradientUnits="userSpaceOnUse"><stop offset="0" stop-color="#999"/><stop offset="1" stop-color="#333"/></linearGradient><linearGradient id="linear-gradient" x1="983.61" y1="591.12" x2="983.61" y2="659.73" gradientUnits="userSpaceOnUse"><stop offset="0" stop-color="#b8b9bb"/><stop offset="0.42" stop-color="#adaeaf"/><stop offset="0.76" stop-color="#636465"/><stop offset="1" stop-color="#676869"/></linearGradient><linearGradient id="New_Gradient_Swatch_3" x1="-3931.01" y1="3440.9" x2="-3931.01" y2="3325.46" gradientTransform="translate(-2970.81 3990.12) rotate(180)" gradientUnits="userSpaceOnUse"><stop offset="0" stop-color="#c3a964"/><stop offset="1" stop-color="#50411a"/></linearGradient><linearGradient id="New_Gradient_Swatch_4-2" x1="-2594.38" y1="1991.71" x2="-1776.02" y2="1991.71" gradientTransform="translate(-1700.99 2538.75) rotate(180)" xlink:href="#New_Gradient_Swatch_4"/><linearGradient id="New_Gradient_Swatch_2" x1="960" y1="355.86" x2="960" y2="465.6" gradientUnits="userSpaceOnUse"><stop offset="0" stop-color="#50411a"/><stop offset="0.39" stop-color="#c3a964"/><stop offset="0.68" stop-color="#7a6a34"/><stop offset="1" stop-color="#50411a"/></linearGradient></defs><g id="Layer_3" data-name="Layer 3"><path class="cls-1" d="M1844.64,548.38l-813.09,1.1a2.45,2.45,0,0,1-2.64-2.2h0a2.45,2.45,0,0,1,2.64-2.2l813.09,1.1c1.45,0,2.63-.11,2.63,1.1h0C1847.27,548.5,1846.09,548.38,1844.64,548.38Z"/><path class="cls-2" d="M493.7,657a20.07,20.07,0,0,0,5.57-1.1,6,6,0,0,0,3-2.48,10.13,10.13,0,0,0,1.3-4.43q.24-2.73.24-6.91V595.89a82.2,82.2,0,0,0-8.8.4,14.31,14.31,0,0,0-6.11,2,14,14,0,0,0-4.52,5,49.49,49.49,0,0,0-3.83,9.25l-1.29-.4,1.39-19.49c2.78.14,5.53.23,8.25.3s5.47.1,8.25.1h23.37q4,0,7.86-.1c2.58-.07,5.2-.16,7.85-.3l1.39,19.49-1.29.4a50.18,50.18,0,0,0-3.83-9.25,14,14,0,0,0-4.52-5,14.52,14.52,0,0,0-6.22-2,86.19,86.19,0,0,0-9-.4V642c0,2.79.09,5.09.25,6.91a10.13,10.13,0,0,0,1.3,4.43,6,6,0,0,0,3.13,2.48,21.68,21.68,0,0,0,5.77,1.1v1.19c-2.53-.13-5-.23-7.56-.3s-5-.1-7.56-.1-4.87,0-7.26.1-4.77.17-7.16.3Z"/><path class="cls-2" d="M668.81,657.74h-17.9a173.48,173.48,0,0,1-11.59-14.07,113.92,113.92,0,0,1-9.49-15.26,21.27,21.27,0,0,1-2.54-.2c-1-.13-2.08-.28-3.18-.45s-2.15-.36-3.18-.59-1.87-.45-2.54-.65V642c0,2.79.09,5.09.25,6.91a10.27,10.27,0,0,0,1.29,4.43,6.06,6.06,0,0,0,3.14,2.48,21.68,21.68,0,0,0,5.76,1.1v1.19c-2.52-.13-5-.23-7.55-.3s-5-.1-7.56-.1-4.87,0-7.26.1-4.77.17-7.16.3V657a20.07,20.07,0,0,0,5.57-1.1,6,6,0,0,0,3-2.48,10.13,10.13,0,0,0,1.3-4.43q.24-2.73.24-6.91V608.82c0-2.78-.08-5.09-.24-6.91a10.17,10.17,0,0,0-1.3-4.43,6.09,6.09,0,0,0-3-2.48,19.76,19.76,0,0,0-5.57-1.09v-1.2c2.12.14,4.24.23,6.37.3s4.24.1,6.36.1q1.4,0,3.48-.15c1.39-.1,2.87-.21,4.42-.35s3.14-.25,4.73-.35,3-.14,4.27-.14a36.71,36.71,0,0,1,8.75,1.09,25.19,25.19,0,0,1,8.06,3.48,19.71,19.71,0,0,1,5.86,6.06,16.21,16.21,0,0,1,2.29,8.75,14.49,14.49,0,0,1-1.24,6.17,15.18,15.18,0,0,1-3.33,4.67,17.56,17.56,0,0,1-4.92,3.28,25.54,25.54,0,0,1-5.92,1.89c.93,1.6,2,3.38,3.28,5.37s2.67,4,4.23,6.07,3.21,4.09,5,6.11a46.28,46.28,0,0,0,5.57,5.47,35,35,0,0,0,6,4.08,16.64,16.64,0,0,0,6.27,1.94Zm-50.42-34.6a25.94,25.94,0,0,0,9.25,1.69q7.75,0,12-3.58T644,609.62a13.84,13.84,0,0,0-1.24-5.92,14,14,0,0,0-3.44-4.57,15.5,15.5,0,0,0-5-3,17.1,17.1,0,0,0-5.91-1c-1.66,0-3.28.07-4.88.2a22.52,22.52,0,0,0-4.67.89q-.19,4.77-.3,9.65c-.06,3.25-.1,6.76-.1,10.54Z"/><path class="cls-2" d="M722.8,657a20.15,20.15,0,0,0,5.57-1.1,6.12,6.12,0,0,0,3-2.48,10,10,0,0,0,1.29-4.43q.25-2.73.25-6.91V608.82c0-2.78-.08-5.09-.25-6.91a10,10,0,0,0-1.29-4.43,6.13,6.13,0,0,0-3.13-2.48,21.06,21.06,0,0,0-5.67-1.09v-1.2c2.78.14,5.48.23,8.1.3s5.32.1,8.11.1c2.19,0,4.37,0,6.56-.1s4.34-.16,6.46-.3v1.2a19.49,19.49,0,0,0-5.47,1.09,5.88,5.88,0,0,0-3,2.48,10.62,10.62,0,0,0-1.24,4.43c-.17,1.82-.25,4.13-.25,6.91V642q0,4.19.25,6.91a10,10,0,0,0,1.29,4.43,6.08,6.08,0,0,0,3.13,2.48,21.85,21.85,0,0,0,5.77,1.1v1.19q-3.78-.2-7.56-.3t-7.55-.1q-3.69,0-7.26.1t-7.16.3Z"/><path class="cls-2" d="M842.91,658.14q-3.78-.2-7.5-.3t-7.51-.1q-3.67,0-7.31.1t-7.51.3V657a22.45,22.45,0,0,0,5.82-1.1,6,6,0,0,0,3.18-2.48,10.13,10.13,0,0,0,1.3-4.43q.24-2.73.24-6.91V608.82c0-2.78-.08-5.09-.24-6.91a10.17,10.17,0,0,0-1.3-4.43A6.09,6.09,0,0,0,819,595a21.06,21.06,0,0,0-5.67-1.09v-1.2c2.19.14,4.38.23,6.56.3s4.38.1,6.57.1a88.08,88.08,0,0,0,9.39-.5,88.42,88.42,0,0,1,9.4-.49,24.27,24.27,0,0,1,7.71,1.34,26,26,0,0,1,7.41,3.88,20.81,20.81,0,0,1,5.51,6.16,15.83,15.83,0,0,1,2.14,8.2,14.19,14.19,0,0,1-2.19,8.06,17.49,17.49,0,0,1-5.51,5.32,23.78,23.78,0,0,1-7.41,2.93,36.88,36.88,0,0,1-8,.9,57.12,57.12,0,0,1-6.16-.35,26,26,0,0,1-6.17-1.44V642c0,2.79.09,5.09.25,6.91a10.27,10.27,0,0,0,1.29,4.43,6.06,6.06,0,0,0,3.14,2.48,21.41,21.41,0,0,0,5.66,1.1Zm-10.34-34.6a16.24,16.24,0,0,0,4.93,1.74,29.17,29.17,0,0,0,5.12.44,18.56,18.56,0,0,0,5.91-.94,14.81,14.81,0,0,0,4.92-2.69,12.58,12.58,0,0,0,3.34-4.32A13.49,13.49,0,0,0,858,611.9a19.45,19.45,0,0,0-1.24-7.06,15.45,15.45,0,0,0-3.44-5.37,15.13,15.13,0,0,0-5.22-3.38,18,18,0,0,0-6.61-1.19,41.07,41.07,0,0,0-4.22.25,15.75,15.75,0,0,0-4.73,1.24Z"/><path class="cls-2" d="M1047.25,592.71c2.79.14,5.5.23,8.15.3s5.37.1,8.16.1q3.87,0,7.8-.1c2.62-.07,5.22-.16,7.81-.3v1.2a26.47,26.47,0,0,0-2.64.59,12,12,0,0,0-2.68,1.1,6.2,6.2,0,0,0-2,1.79,4.43,4.43,0,0,0-.79,2.68,6.16,6.16,0,0,0,1,2.88,52.59,52.59,0,0,0,3,4.48l14.12,19.09,11.74-18.4a14.81,14.81,0,0,0,2.58-7.65,5.44,5.44,0,0,0-2.39-4.63,10.12,10.12,0,0,0-5.37-1.93v-1.2c2.32.14,4.66.23,7,.3s4.68.1,7,.1c2.13,0,4.23,0,6.32-.1s4.19-.16,6.31-.3v1.2a17.3,17.3,0,0,0-6.36,2.53,29.1,29.1,0,0,0-5,4.18,37.44,37.44,0,0,0-4,4.92q-1.74,2.58-3.23,4.67l-13.62,19.89v14.62a24.09,24.09,0,0,0,.59,5.91,7.49,7.49,0,0,0,1.94,3.53,8.14,8.14,0,0,0,3.63,1.89,35.33,35.33,0,0,0,5.77.9v1.19q-4.47-.2-8.85-.3t-8.85-.1c-2.45,0-4.91,0-7.36.1s-4.91.17-7.36.3V657a33.43,33.43,0,0,0,5.52-.9,8.06,8.06,0,0,0,3.58-1.89,7.11,7.11,0,0,0,1.89-3.53,26,26,0,0,0,.55-5.91V629.11l-18-23.07q-1.4-1.8-2.88-3.63a29.55,29.55,0,0,0-3.34-3.48,23.7,23.7,0,0,0-4.22-3,20.08,20.08,0,0,0-5.57-2Z"/><path class="cls-2" d="M1239.46,615.38a39,39,0,0,0-3.43-8.25,28,28,0,0,0-5.07-6.56,21.36,21.36,0,0,0-6.77-4.33,22.8,22.8,0,0,0-8.6-1.54,21.15,21.15,0,0,0-10.44,2.39,20.1,20.1,0,0,0-7,6.46,28.33,28.33,0,0,0-4,9.45,50,50,0,0,0-1.24,11.33,40.24,40.24,0,0,0,1.59,11.39,28.55,28.55,0,0,0,4.73,9.49,23.09,23.09,0,0,0,7.85,6.52,23.48,23.48,0,0,0,10.89,2.43,27.21,27.21,0,0,0,16-4.67,44.66,44.66,0,0,0,11.88-12.73l2.49,2a88,88,0,0,1-6.77,9,38,38,0,0,1-7.35,6.56,31.62,31.62,0,0,1-8.65,4.08,36.86,36.86,0,0,1-10.54,1.39,31.91,31.91,0,0,1-12.63-2.53,32.49,32.49,0,0,1-10.44-7.06,33.46,33.46,0,0,1-7.11-10.84,37.78,37.78,0,0,1,0-27.75,33.42,33.42,0,0,1,7.11-10.83,32.38,32.38,0,0,1,23.07-9.6,49.19,49.19,0,0,1,6.86.45q3.18.45,6.11.94l5.67,1a37.41,37.41,0,0,0,5.42.59c0,1.4,0,3,.15,4.88s.25,3.76.45,5.71.39,3.88.59,5.77.4,3.53.6,4.92Z"/><path class="cls-2" d="M1358.18,608.82c0-2.78-.08-5.09-.25-6.91a10,10,0,0,0-1.29-4.43,6.13,6.13,0,0,0-3.13-2.48,21.06,21.06,0,0,0-5.67-1.09v-1.2c2.78.14,5.48.23,8.1.3s5.32.1,8.11.1c2.19,0,4.37,0,6.56-.1s4.34-.16,6.46-.3v1.2a19.49,19.49,0,0,0-5.47,1.09,5.88,5.88,0,0,0-3,2.48,10.62,10.62,0,0,0-1.24,4.43c-.17,1.82-.25,4.13-.25,6.91V642q0,4.19.25,6.91a10.13,10.13,0,0,0,1.29,4.43,6.08,6.08,0,0,0,3.13,2.48,21.85,21.85,0,0,0,5.77,1.1v1.19q-3.78-.2-7.56-.3t-7.55-.1q-3.69,0-7.26.1t-7.16.3V657a20.15,20.15,0,0,0,5.57-1.1,6.12,6.12,0,0,0,3-2.48,10,10,0,0,0,1.29-4.43q.25-2.73.25-6.91v-17.9h-36.89V642q0,4.19.25,6.91a10.13,10.13,0,0,0,1.29,4.43,6.08,6.08,0,0,0,3.13,2.48,21.85,21.85,0,0,0,5.77,1.1v1.19q-3.78-.2-7.56-.3c-2.52-.07-5-.1-7.55-.1s-4.87,0-7.26.1-4.77.17-7.16.3V657a20.07,20.07,0,0,0,5.57-1.1,6.12,6.12,0,0,0,3-2.48,10,10,0,0,0,1.29-4.43q.26-2.73.25-6.91V608.82c0-2.78-.08-5.09-.25-6.91a10,10,0,0,0-1.29-4.43,6.13,6.13,0,0,0-3.13-2.48,21.06,21.06,0,0,0-5.67-1.09v-1.2c2.78.14,5.48.23,8.1.3s5.32.1,8.11.1c2.19,0,4.37,0,6.56-.1s4.34-.16,6.46-.3v1.2a19.33,19.33,0,0,0-5.46,1.09,5.87,5.87,0,0,0-3,2.48,10.62,10.62,0,0,0-1.24,4.43c-.17,1.82-.25,4.13-.25,6.91V621h36.89Z"/><path class="cls-2" d="M1483.37,611.6a37.26,37.26,0,0,0-3.33-6.31,28.57,28.57,0,0,0-4.73-5.57,23.16,23.16,0,0,0-6-3.93,17.19,17.19,0,0,0-7.16-1.49,18.5,18.5,0,0,0-9.3,2.09q-3.63,2.08-3.63,7.46a9.4,9.4,0,0,0,1.64,5.52,15.79,15.79,0,0,0,4.38,4.12,40.1,40.1,0,0,0,6.21,3.29l7.11,3q3.63,1.55,7.11,3.33a28.7,28.7,0,0,1,6.22,4.28,19.36,19.36,0,0,1,4.37,5.76,17.34,17.34,0,0,1,1.64,7.86,18.27,18.27,0,0,1-1.79,8.4,16.59,16.59,0,0,1-4.82,5.82,20.56,20.56,0,0,1-7.06,3.38,32.68,32.68,0,0,1-8.6,1.09,30.25,30.25,0,0,1-5.17-.46c-1.79-.31-3.52-.65-5.17-1l-4.53-1a15.32,15.32,0,0,0-3.23-.46,6.12,6.12,0,0,0-2.09.35l-2.08.74q-.9-5.64-2.09-11c-.8-3.6-1.63-7.27-2.49-11l1.29-.69a74.49,74.49,0,0,0,4.33,7.23,44.1,44.1,0,0,0,5.72,6.87,31,31,0,0,0,7,5.2,17.07,17.07,0,0,0,8.3,2.08,23.27,23.27,0,0,0,5.57-.65,14.09,14.09,0,0,0,4.72-2,10,10,0,0,0,3.23-3.63,11.47,11.47,0,0,0,1.2-5.5,11.1,11.1,0,0,0-2.89-7.8,27.8,27.8,0,0,0-7.16-5.46,86.18,86.18,0,0,0-9.29-4.32,67.92,67.92,0,0,1-9.3-4.47,27.24,27.24,0,0,1-7.16-5.85,12.7,12.7,0,0,1-2.88-8.54,16.28,16.28,0,0,1,5.52-12.46,17.86,17.86,0,0,1,5.86-3.43,21.05,21.05,0,0,1,7.11-1.19,39.89,39.89,0,0,1,6.61.5c2,.33,3.86.69,5.72,1.09s3.81.78,5.67,1.15a31.22,31.22,0,0,0,6,.54q0,4.49.15,8.7t.65,8.5Z"/><path class="cls-3" d="M986.25,551.32a35.28,35.28,0,0,0-9.83,1.93,10.86,10.86,0,0,0-5.35,4.39,18.07,18.07,0,0,0-2.28,7.81q-.43,4.81-.44,12.19v81.41a144.56,144.56,0,0,0,15.53-.7,22.88,22.88,0,0,0,18.78-12.46,87.83,87.83,0,0,0,6.75-16.32l2.28.71-2.46,34.39q-7.37-.36-14.56-.53T980.11,664H938.88q-7,0-13.86.18t-13.86.53l-2.46-34.39,2.28-.71a88.45,88.45,0,0,0,6.76,16.32,24.74,24.74,0,0,0,8,8.86,25.37,25.37,0,0,0,11,3.6,151.81,151.81,0,0,0,15.87.7V577.64q0-7.36-.44-12.19a17.8,17.8,0,0,0-2.28-7.81,10.73,10.73,0,0,0-5.52-4.39,38.14,38.14,0,0,0-10.18-1.93v-2.1q6.68.35,13.34.52t13.33.18q6.5,0,12.81-.18t12.63-.52Z"/><path class="cls-4" d="M77.67,545.94l813.09-1.1a2.45,2.45,0,0,1,2.63,2.2h0a2.44,2.44,0,0,1-2.63,2.2l-813.09-1.1c-1.45,0-2.63.12-2.63-1.1h0C75,545.83,76.22,545.94,77.67,545.94Z"/><path class="cls-5" d="M903.71,463.6a24.37,24.37,0,0,0,7.43-1.67,21.76,21.76,0,0,0,5.78-3.5,35.28,35.28,0,0,0,4.8-5q2.25-2.82,4.66-6.17l26.72-36.69-22.37-33.69q-5.7-9-11.41-13.34a30.15,30.15,0,0,0-13.06-5.67v-2q5.4.33,10.89.5c3.65.11,7.27.16,10.88.16q5.7,0,11.48-.16t11.48-.5v2a15.27,15.27,0,0,0-6.53,2.33,6.75,6.75,0,0,0-3.22,6.17,10.49,10.49,0,0,0,1.42,4.59c1,1.83,2.38,4.2,4.28,7.09l15,22.85L975.76,380a62.44,62.44,0,0,0,4.58-8.09,17.33,17.33,0,0,0,1.73-7.25,5,5,0,0,0-1.05-3.17,9,9,0,0,0-2.48-2.17,9.82,9.82,0,0,0-3.08-1.17,14.84,14.84,0,0,0-2.85-.33v-2q4.2.33,8.33.5t8.33.16q4.8,0,9.68-.16t9.69-.5v2a29.58,29.58,0,0,0-9.61,3.33,33.43,33.43,0,0,0-7.36,5.76,61.46,61.46,0,0,0-6.15,7.5q-2.85,4.1-6,8.59l-15.16,21.35L989,441.08q1.95,3,4.73,6.76a62.22,62.22,0,0,0,6.23,7.17,38,38,0,0,0,7.58,5.84,20,20,0,0,0,8.78,2.75v2q-6.75-.33-13.28-.5t-13.29-.17q-6,0-11.86.17t-11.86.5v-2l4.81-1a19.09,19.09,0,0,0,4.43-1.5,8.36,8.36,0,0,0,3.3-2.92,9.76,9.76,0,0,0,1.27-5.42q0-1.33-2.17-5.26t-5.48-8.92L955.65,413.9l-15.91,23.68a75.2,75.2,0,0,0-5.63,9.42c-1.46,2.95-2.18,5.09-2.18,6.42a8.05,8.05,0,0,0,1.58,5.26,10.19,10.19,0,0,0,3.9,2.92,18.45,18.45,0,0,0,5,1.33c1.75.23,3.38.45,4.88.67v2q-6.75-.33-13.51-.5t-13.51-.17q-4.2,0-8.25.17t-8.26.5Z"/><path class="cls-6" d="M903.71,463.6a24.37,24.37,0,0,0,7.43-1.67,21.76,21.76,0,0,0,5.78-3.5,35.28,35.28,0,0,0,4.8-5q2.25-2.82,4.66-6.17l26.72-36.69-22.37-33.69q-5.7-9-11.41-13.34a30.15,30.15,0,0,0-13.06-5.67v-2q5.4.33,10.89.5c3.65.11,7.27.16,10.88.16q5.7,0,11.48-.16t11.48-.5v2a15.27,15.27,0,0,0-6.53,2.33,6.75,6.75,0,0,0-3.22,6.17,10.49,10.49,0,0,0,1.42,4.59c1,1.83,2.38,4.2,4.28,7.09l15,22.85L975.76,380a62.44,62.44,0,0,0,4.58-8.09,17.33,17.33,0,0,0,1.73-7.25,5,5,0,0,0-1.05-3.17,9,9,0,0,0-2.48-2.17,9.82,9.82,0,0,0-3.08-1.17,14.84,14.84,0,0,0-2.85-.33v-2q4.2.33,8.33.5t8.33.16q4.8,0,9.68-.16t9.69-.5v2a29.58,29.58,0,0,0-9.61,3.33,33.43,33.43,0,0,0-7.36,5.76,61.46,61.46,0,0,0-6.15,7.5q-2.85,4.1-6,8.59l-15.16,21.35L989,441.08q1.95,3,4.73,6.76a62.22,62.22,0,0,0,6.23,7.17,38,38,0,0,0,7.58,5.84,20,20,0,0,0,8.78,2.75v2q-6.75-.33-13.28-.5t-13.29-.17q-6,0-11.86.17t-11.86.5v-2l4.81-1a19.09,19.09,0,0,0,4.43-1.5,8.36,8.36,0,0,0,3.3-2.92,9.76,9.76,0,0,0,1.27-5.42q0-1.33-2.17-5.26t-5.48-8.92L955.65,413.9l-15.91,23.68a75.2,75.2,0,0,0-5.63,9.42c-1.46,2.95-2.18,5.09-2.18,6.42a8.05,8.05,0,0,0,1.58,5.26,10.19,10.19,0,0,0,3.9,2.92,18.45,18.45,0,0,0,5,1.33c1.75.23,3.38.45,4.88.67v2q-6.75-.33-13.51-.5t-13.51-.17q-4.2,0-8.25.17t-8.26.5Z"/></g></svg>