<svg xmlns="http://www.w3.org/2000/svg" xmlns:xlink="http://www.w3.org/1999/xlink" viewBox="0 0 1238.29 304.18"><defs><style>.cls-1{fill:url(#linear-gradient);}.cls-2{fill:url(#linear-gradient-2);}.cls-3{fill:url(#linear-gradient-3);}.cls-4{fill:url(#linear-gradient-4);}.cls-5{fill:url(#linear-gradient-5);}.cls-6{fill:url(#linear-gradient-6);}.cls-7{fill:url(#linear-gradient-7);}.cls-8{fill:url(#linear-gradient-8);}.cls-9{fill:url(#linear-gradient-9);}.cls-10{fill:url(#linear-gradient-10);}.cls-11{fill:url(#linear-gradient-11);}.cls-12{fill:url(#linear-gradient-12);}.cls-13,.cls-16{fill:none;stroke-miterlimit:10;}.cls-13{stroke:url(#linear-gradient-13);}.cls-14{fill:url(#linear-gradient-14);}.cls-15{fill:url(#linear-gradient-15);}.cls-16{stroke:url(#linear-gradient-16);}</style><linearGradient id="linear-gradient" x1="677.29" y1="100.01" x2="1238.29" y2="100.01" gradientTransform="matrix(1, 0, 0, -1, 0, 254.66)" gradientUnits="userSpaceOnUse"><stop offset="0" stop-color="#050607"/><stop offset="1" stop-color="#4e4f50"/></linearGradient><linearGradient id="linear-gradient-2" x1="66.12" y1="215.74" x2="66.12" y2="149.38" xlink:href="#linear-gradient"/><linearGradient id="linear-gradient-3" x1="181.06" y1="215.74" x2="181.06" y2="149.38" xlink:href="#linear-gradient"/><linearGradient id="linear-gradient-4" x1="287.03" y1="215.79" x2="287.03" y2="149.38" xlink:href="#linear-gradient"/><linearGradient id="linear-gradient-5" x1="394.7" y1="215.74" x2="394.7" y2="149.38" xlink:href="#linear-gradient"/><linearGradient id="linear-gradient-6" x1="506.43" y1="215.74" x2="506.43" y2="149.38" xlink:href="#linear-gradient"/><linearGradient id="linear-gradient-7" x1="730.48" y1="215.69" x2="730.48" y2="149.33" xlink:href="#linear-gradient"/><linearGradient id="linear-gradient-8" x1="838.63" y1="215.74" x2="838.63" y2="149.38" xlink:href="#linear-gradient"/><linearGradient id="linear-gradient-9" x1="953.91" y1="215.74" x2="953.91" y2="149.38" xlink:href="#linear-gradient"/><linearGradient id="linear-gradient-10" x1="1071.48" y1="215.74" x2="1071.48" y2="149.38" xlink:href="#linear-gradient"/><linearGradient id="linear-gradient-11" x1="1182.6" y1="215.74" x2="1182.6" y2="149.38" xlink:href="#linear-gradient"/><linearGradient id="linear-gradient-12" x1="593.07" y1="51.54" x2="649.57" y2="-46.32" gradientTransform="matrix(1, 0, 0, -1, 0, 254.66)" gradientUnits="userSpaceOnUse"><stop offset="0" stop-color="#786b41"/><stop offset="1" stop-color="#5c5232"/></linearGradient><linearGradient id="linear-gradient-13" x1="621.5" y1="54.4" x2="621.5" y2="-48.98" gradientTransform="matrix(1, 0, 0, -1, 0, 254.66)" gradientUnits="userSpaceOnUse"><stop offset="0" stop-color="#786b41" stop-opacity="0.4"/><stop offset="1" stop-color="#5c5232"/></linearGradient><linearGradient id="linear-gradient-14" y1="100.01" x2="561" y2="100.01" gradientTransform="matrix(1, 0, 0, -1, 0, 254.66)" gradientUnits="userSpaceOnUse"><stop offset="0" stop-color="#4e4f50"/><stop offset="1" stop-color="#050607"/></linearGradient><linearGradient id="linear-gradient-15" x1="575.14" y1="229.56" x2="634.96" y2="125.95" xlink:href="#linear-gradient-12"/><linearGradient id="linear-gradient-16" x1="618.62" y1="254.16" x2="618.62" y2="149.84" xlink:href="#linear-gradient-13"/></defs><g id="Layer_2" data-name="Layer 2"><g id="Layer_1-2" data-name="Layer 1"><g id="Layer_2-2" data-name="Layer 2"><path class="cls-1" d="M1236.49,155.65l-557.39,2c-1,0-1.81-1.89-1.81-3h0c0-1.1.81-3,1.81-3l557.19,2c1,0,2-.1,2,1h0C1238.33,155.76,1237.48,155.65,1236.49,155.65Z"/><path class="cls-2" d="M30.54,72.1a32.86,32.86,0,0,1,2.84-13.95A31.36,31.36,0,0,1,41,47.72a33.19,33.19,0,0,1,11.3-6.54,43.34,43.34,0,0,1,27.61,0,33.19,33.19,0,0,1,11.3,6.54,31.36,31.36,0,0,1,7.64,10.43,35.63,35.63,0,0,1,0,27.89,31.26,31.26,0,0,1-7.64,10.44A33.52,33.52,0,0,1,79.93,103a43.34,43.34,0,0,1-27.61,0A33.52,33.52,0,0,1,41,96.48,31.26,31.26,0,0,1,33.38,86,32.78,32.78,0,0,1,30.54,72.1Zm10.19,0a36.58,36.58,0,0,0,1.73,11.23,29.31,29.31,0,0,0,5,9.47,23.75,23.75,0,0,0,29.35,6.54,24.59,24.59,0,0,0,8-6.54,29.12,29.12,0,0,0,5-9.47,37.39,37.39,0,0,0,0-22.5,29.46,29.46,0,0,0-5-9.48,24.83,24.83,0,0,0-8-6.54,23.75,23.75,0,0,0-29.35,6.54,29.66,29.66,0,0,0-5,9.48A36.83,36.83,0,0,0,40.73,72.1Z"/><path class="cls-3" d="M162,56c0-2.7-.08-4.92-.24-6.69a9.78,9.78,0,0,0-1.25-4.28,5.9,5.9,0,0,0-2.93-2.4,19.45,19.45,0,0,0-5.39-1.06V40.46c2,.13,3.94.22,5.87.28s3.88.1,5.86.1c2.57,0,5.13-.13,7.7-.38a81.61,81.61,0,0,1,8.27-.39,45,45,0,0,1,8.51.87,27.66,27.66,0,0,1,8.22,2.93,18.75,18.75,0,0,1,6.25,5.53,14.42,14.42,0,0,1,2.51,8.66,12.4,12.4,0,0,1-2.75,7.83,14,14,0,0,1-6.78,4.86v.19a21.8,21.8,0,0,1,10.34,6.5c2.47,2.91,3.71,6.78,3.71,11.58A13.24,13.24,0,0,1,208,96.38a14.31,14.31,0,0,1-5.1,4.71,23.08,23.08,0,0,1-7.21,2.51,47.78,47.78,0,0,1-8.27.72q-6.63,0-13-.48t-13.07-.51c-1.48,0-3,0-4.47.1s-3,.16-4.48.29v-1.15a19.57,19.57,0,0,0,5.29-1.06,5.66,5.66,0,0,0,2.89-2.41,10.17,10.17,0,0,0,1.2-4.28q.24-2.64.24-6.68Zm8.66,12.11A18.35,18.35,0,0,0,176,70a31.44,31.44,0,0,0,5.48.48,15.46,15.46,0,0,0,10.24-3.41q4.08-3.42,4.09-9.86a12.58,12.58,0,0,0-1.35-5.87,14.57,14.57,0,0,0-3.56-4.47A15.9,15.9,0,0,0,185.72,44a18.68,18.68,0,0,0-6.11-1c-1.54,0-3,.06-4.52.19a18.63,18.63,0,0,0-4.42,1Zm0,30a3.29,3.29,0,0,0,1.78,1.35,20.58,20.58,0,0,0,3.27,1,35.89,35.89,0,0,0,4,.67,38.16,38.16,0,0,0,4,.24q7.78,0,12.16-4.09t4.45-11.85a12.76,12.76,0,0,0-2.6-7.75,24.89,24.89,0,0,0-6-5.81l-4.62.72a33.69,33.69,0,0,1-4.71.33,54.7,54.7,0,0,1-6-.33,23.5,23.5,0,0,1-5.77-1.4Z"/><path class="cls-4" d="M306.33,58.73a36.36,36.36,0,0,0-3.22-6.11,27.65,27.65,0,0,0-4.57-5.38,22.2,22.2,0,0,0-5.77-3.8A16.69,16.69,0,0,0,285.84,42a17.92,17.92,0,0,0-9,2q-3.51,2-3.51,7.22a9.08,9.08,0,0,0,1.59,5.34,15.64,15.64,0,0,0,4.23,4,38.62,38.62,0,0,0,6,3.17L292,66.66c2.34,1,4.63,2.07,6.87,3.23a27.38,27.38,0,0,1,6,4.13,18.81,18.81,0,0,1,4.24,5.58,16.91,16.91,0,0,1,1.58,7.6A17.65,17.65,0,0,1,309,95.32a16,16,0,0,1-4.66,5.63,19.79,19.79,0,0,1-6.83,3.27,31.54,31.54,0,0,1-8.32,1.06,29.89,29.89,0,0,1-5-.45c-1.73-.3-3.4-.63-5-1l-4.38-1a15,15,0,0,0-3.12-.45,6.18,6.18,0,0,0-2,.34c-.65.22-1.32.47-2,.72q-.87-5.46-2-10.68T263.33,82.1l1.25-.67a70.75,70.75,0,0,0,4.19,7,41.9,41.9,0,0,0,5.53,6.65,30.47,30.47,0,0,0,6.78,5,16.54,16.54,0,0,0,8,2,22.66,22.66,0,0,0,5.38-.62,13.73,13.73,0,0,0,4.57-2,9.58,9.58,0,0,0,3.13-3.5,11.18,11.18,0,0,0,1.15-5.33,10.71,10.71,0,0,0-2.79-7.54,26.6,26.6,0,0,0-6.92-5.28,80.69,80.69,0,0,0-9-4.18,67,67,0,0,1-9-4.32,26.43,26.43,0,0,1-6.92-5.67,12.29,12.29,0,0,1-2.79-8.26,15.76,15.76,0,0,1,5.34-12.05A17.22,17.22,0,0,1,276.9,40a20.16,20.16,0,0,1,6.88-1.15,38,38,0,0,1,6.39.48c1.89.32,3.74.67,5.53,1.06s3.69.75,5.49,1.1A29.36,29.36,0,0,0,307,42c0,2.89,0,5.69.14,8.42s.3,5.46.63,8.22Z"/><path class="cls-5" d="M381.77,99.6c.58.13,1.28.26,2.12.39s1.73.26,2.69.38,2,.24,3,.34,2,.14,2.88.14a50.55,50.55,0,0,0,10.34-1,29.18,29.18,0,0,0,8.37-3.08,34,34,0,0,0,7.16-5.34,66.43,66.43,0,0,0,6.82-7.89l1.06.87-8.75,19.33c-1.09-.13-2.21-.23-3.37-.29s-2.27-.1-3.36-.1H374.56c-1.86,0-3.72,0-5.58.1s-3.72.16-5.58.29v-1.15a19.82,19.82,0,0,0,5.39-1.06,5.63,5.63,0,0,0,2.88-2.41,10.17,10.17,0,0,0,1.2-4.28q.24-2.64.24-6.68V56c0-2.7-.08-4.92-.24-6.69a10.17,10.17,0,0,0-1.2-4.28,5.61,5.61,0,0,0-3-2.4,20.46,20.46,0,0,0-5.48-1.06V40.46l6.2.19q2.94.09,6.06.14c2.08,0,4.29.05,6.64.05H390q6.74,0,13.46-.1t13.66-.28c-.06.7-.11,1.41-.14,2.11s-.05,1.38-.05,2v3.85c0,1.41.06,2.84.19,4.28s.26,3,.39,4.76l-1.25.38A24.29,24.29,0,0,0,413,50.29a15.74,15.74,0,0,0-4.81-4.56,17.67,17.67,0,0,0-6-2.22,40.25,40.25,0,0,0-6.93-.57q-6.72,0-13.46.57V67.56c1.28,0,2.51,0,3.7-.1s2.42-.09,3.7-.09q6.64,0,10.54-2.65t4.76-9.66h1.15q0,3.45-.1,6.92c-.06,2.31-.09,4.58-.09,6.83s0,4.61.09,6.92.1,4.62.1,6.93h-1.15a28.8,28.8,0,0,0-2.12-6.59,10.14,10.14,0,0,0-3.12-3.9,11.3,11.3,0,0,0-4.67-1.82,38.9,38.9,0,0,0-6.64-.48h-6.15Z"/><path class="cls-6" d="M540.07,103.33H522.76a165.71,165.71,0,0,1-11.2-13.6A111.39,111.39,0,0,1,502.33,75a20.05,20.05,0,0,1-2.45-.19l-3.08-.43c-1.08-.16-2.08-.35-3.07-.58s-1.82-.43-2.46-.62v15c0,2.67.08,4.89.24,6.68a9.78,9.78,0,0,0,1.25,4.28,6,6,0,0,0,3,2.41,21.19,21.19,0,0,0,5.58,1.06v1.15c-2.44-.13-4.87-.23-7.31-.29s-4.87-.1-7.31-.1-4.71,0-7,.1-4.61.16-6.92.29v-1.15a19.83,19.83,0,0,0,5.38-1.06,6,6,0,0,0,2.94-2.41,9.78,9.78,0,0,0,1.25-4.28q.24-2.64.24-6.68V56c0-2.7-.08-4.92-.24-6.69a9.78,9.78,0,0,0-1.25-4.28,6,6,0,0,0-2.94-2.4,19.38,19.38,0,0,0-5.38-1.06V40.46q3.07.2,6.15.28t6.16.1c.89,0,2-.05,3.36-.14s2.78-.21,4.28-.34,3-.24,4.57-.34,2.92-.14,4.14-.14a35.52,35.52,0,0,1,8.46,1.06,24.2,24.2,0,0,1,7.79,3.36,19,19,0,0,1,5.67,5.87,15.64,15.64,0,0,1,2.22,8.46,14.24,14.24,0,0,1-1.2,6,14.78,14.78,0,0,1-3.23,4.52,17.06,17.06,0,0,1-4.76,3.17,25.6,25.6,0,0,1-5.72,1.83q1.35,2.31,3.17,5.19c1.21,1.92,2.58,3.88,4.09,5.87s3.11,4,4.81,5.91a45.64,45.64,0,0,0,5.39,5.29,35.19,35.19,0,0,0,5.81,4,16.21,16.21,0,0,0,6.06,1.87ZM491.33,69.89a25.1,25.1,0,0,0,8.95,1.63q7.5,0,11.63-3.46t4.14-11.25a13.31,13.31,0,0,0-1.2-5.73,13.87,13.87,0,0,0-3.32-4.42,15.18,15.18,0,0,0-4.86-2.89,16.41,16.41,0,0,0-5.72-1c-1.6,0-3.17.07-4.71.2a21.1,21.1,0,0,0-4.52.86q-.2,4.62-.29,9.33t-.1,10.17Z"/><path class="cls-7" d="M717.61,75.56,711.26,93c-.19.51-.37,1-.52,1.34a3.14,3.14,0,0,0-.25,1.25,4.64,4.64,0,0,0,1,3,8.72,8.72,0,0,0,2.46,2.06,15,15,0,0,0,3,1.3,21.14,21.14,0,0,0,2.6.68v1.15c-1.93-.13-3.85-.23-5.78-.29s-3.88-.1-5.86-.1-3.8,0-5.63.1-3.77.16-5.82.29V102.6a13.75,13.75,0,0,0,5-2.07,13.56,13.56,0,0,0,3.31-3.32A23.68,23.68,0,0,0,707.13,93c.67-1.54,1.33-3.14,2-4.81l16.56-40.84c.19-.44.37-.86.53-1.25a2.73,2.73,0,0,0,.24-1,4.79,4.79,0,0,0-.34-1.45,9.09,9.09,0,0,0-.81-1.73,21,21,0,0,0,4.32-1.25c1.22-.51,2.57-1.06,4-1.63l20,55a14,14,0,0,0,3.75,5.91c1.6,1.45,4,2.36,7.11,2.75v1.15c-2.56-.13-5.08-.23-7.54-.29s-5.05-.1-7.75-.1h-4.52c-1.28,0-2.43,0-3.46,0s-2,.08-2.93.15l-3,.19v-1.15a17.6,17.6,0,0,0,6.78-2.07,4.8,4.8,0,0,0,2.74-4.28,3.72,3.72,0,0,0-.34-1.54,12.43,12.43,0,0,1-.53-1.44l-6.25-17.7ZM728,48.25l-9.43,24.43h18.08Z"/><path class="cls-8" d="M824.33,102.59a19.83,19.83,0,0,0,5.38-1.06,6,6,0,0,0,2.94-2.41,9.78,9.78,0,0,0,1.25-4.28q.24-2.64.24-6.68V43.53a75.63,75.63,0,0,0-8.51.39,12.64,12.64,0,0,0-10.3,6.86,48.13,48.13,0,0,0-3.7,8.94l-1.25-.38,1.35-18.85c2.67.13,5.33.22,8,.28s5.33.09,8,.1h22.6c2.57,0,5.11,0,7.6-.1s5-.16,7.6-.28l1.35,18.85-1.25.38a48.17,48.17,0,0,0-3.71-8.94,13.6,13.6,0,0,0-4.37-4.86,13.92,13.92,0,0,0-6-2,79.1,79.1,0,0,0-8.71-.39V88.16c0,2.67.08,4.89.24,6.68a9.78,9.78,0,0,0,1.25,4.28,6,6,0,0,0,3,2.41,21.19,21.19,0,0,0,5.58,1.06v1.15c-2.44-.13-4.87-.23-7.31-.29s-4.87-.1-7.31-.1-4.71,0-7,.1-4.61.16-6.92.29Z"/><path class="cls-9" d="M918.33,72.1a33,33,0,0,1,2.84-13.95,31.36,31.36,0,0,1,7.64-10.43,33.19,33.19,0,0,1,11.3-6.54,43.34,43.34,0,0,1,27.61,0A33.19,33.19,0,0,1,979,47.72a31.36,31.36,0,0,1,7.64,10.43,35.63,35.63,0,0,1,0,27.89A31.26,31.26,0,0,1,979,96.48a33.52,33.52,0,0,1-11.3,6.54,43.34,43.34,0,0,1-27.61,0,33.52,33.52,0,0,1-11.3-6.54A31.26,31.26,0,0,1,921.17,86,32.93,32.93,0,0,1,918.33,72.1Zm10.19,0a36.41,36.41,0,0,0,1.74,11.25,29.12,29.12,0,0,0,5,9.47,23.75,23.75,0,0,0,37.35,0,29.12,29.12,0,0,0,5-9.47,37.39,37.39,0,0,0,0-22.5,29.46,29.46,0,0,0-5-9.48,24.83,24.83,0,0,0-8-6.54,24.46,24.46,0,0,0-21.35,0,24.83,24.83,0,0,0-8,6.54,29.46,29.46,0,0,0-5,9.48A36.41,36.41,0,0,0,928.52,72.1Z"/><path class="cls-10" d="M1105.1,103.33h-17.31a167.9,167.9,0,0,1-11.21-13.6A109.61,109.61,0,0,1,1067.4,75a18.25,18.25,0,0,1-2.45-.19l-3.08-.43c-1.08-.16-2.08-.35-3.08-.58s-1.81-.43-2.45-.62v15c0,2.67.08,4.89.24,6.68a9.78,9.78,0,0,0,1.25,4.28,5.85,5.85,0,0,0,3,2.41,21.26,21.26,0,0,0,5.58,1.06v1.15c-2.44-.13-4.87-.23-7.31-.29s-4.87-.1-7.31-.1-4.71,0-7,.1-4.62.16-6.93.29v-1.15a19.82,19.82,0,0,0,5.39-1.06,5.89,5.89,0,0,0,2.93-2.41,9.78,9.78,0,0,0,1.25-4.28q.24-2.64.24-6.68V56c0-2.7-.08-4.92-.24-6.69a9.78,9.78,0,0,0-1.25-4.28,5.9,5.9,0,0,0-2.93-2.4,19.45,19.45,0,0,0-5.39-1.06V40.46q3.09.2,6.16.28t6.16.1c.89,0,2-.05,3.36-.14s2.77-.21,4.28-.34,3-.24,4.57-.34,2.92-.14,4.14-.14a35.52,35.52,0,0,1,8.46,1.06,24.2,24.2,0,0,1,7.79,3.36,19,19,0,0,1,5.67,5.87,15.63,15.63,0,0,1,2.21,8.46,14.24,14.24,0,0,1-1.2,6,14.75,14.75,0,0,1-3.22,4.52,17.06,17.06,0,0,1-4.76,3.17,26.12,26.12,0,0,1-5.72,1.83c.89,1.54,1.94,3.27,3.17,5.19s2.59,3.88,4.09,5.87,3.12,4,4.81,5.91a46.33,46.33,0,0,0,5.38,5.29,34.86,34.86,0,0,0,5.82,4,16.21,16.21,0,0,0,6.06,1.87Zm-48.77-33.44a25.19,25.19,0,0,0,9,1.63q7.5,0,11.63-3.46t4.14-11.25a13.31,13.31,0,0,0-1.2-5.73,13.87,13.87,0,0,0-3.32-4.42,15.18,15.18,0,0,0-4.86-2.89,16.41,16.41,0,0,0-5.72-1c-1.61,0-3.18.07-4.71.2a21.1,21.1,0,0,0-4.52.86q-.19,4.62-.29,9.33t-.15,10.17Z"/><path class="cls-11" d="M1146.26,40.46c2.7.13,5.32.22,7.89.28s5.19.1,7.89.1c2.5,0,5,0,7.55-.1s5-.15,7.55-.28v1.15a24.74,24.74,0,0,0-2.55.58,11.1,11.1,0,0,0-2.6,1.06,6,6,0,0,0-2,1.73,4.29,4.29,0,0,0-.77,2.59,6,6,0,0,0,1,2.79,49.05,49.05,0,0,0,2.93,4.33l13.66,18.47,11.35-17.8a14.34,14.34,0,0,0,2.5-7.4,5.25,5.25,0,0,0-2.31-4.47,9.64,9.64,0,0,0-5.19-1.88V40.46q3.36.2,6.78.28t6.78.1q3.08,0,6.11-.1c2-.06,4-.15,6.1-.28v1.15a16.94,16.94,0,0,0-6.15,2.45,28.66,28.66,0,0,0-4.86,4,37.44,37.44,0,0,0-3.85,4.76c-1.12,1.67-2.16,3.17-3.12,4.52l-13.18,19.24V90.72a22.46,22.46,0,0,0,.58,5.72,7.13,7.13,0,0,0,1.87,3.41,7.71,7.71,0,0,0,3.51,1.83,35,35,0,0,0,5.58.87v1.15c-2.88-.13-5.74-.23-8.56-.29s-5.67-.1-8.56-.1c-2.37,0-4.74,0-7.11.1s-4.75.16-7.12.29v-1.15a34.36,34.36,0,0,0,5.34-.87,7.69,7.69,0,0,0,3.46-1.83,7,7,0,0,0,1.83-3.41,25,25,0,0,0,.53-5.72V75.62l-17.37-22.29q-1.35-1.72-2.79-3.51a29.21,29.21,0,0,0-3.22-3.36,23.26,23.26,0,0,0-4.09-2.89,19.56,19.56,0,0,0-5.39-2Z"/><path class="cls-12" d="M598.4,301.75a31.16,31.16,0,0,0,8.8-1.73A9.57,9.57,0,0,0,612,296.1a16.13,16.13,0,0,0,2-7c.26-2.88.39-6.53.39-10.92V225.71q0-6.6-.39-10.92a16.13,16.13,0,0,0-2-7,9.64,9.64,0,0,0-4.94-3.93,34.14,34.14,0,0,0-9-1.73v-1.88q6.6.31,12.8.47t12.81.16c3.46,0,6.91,0,10.37-.16s6.86-.26,10.21-.47v1.88a31.5,31.5,0,0,0-8.64,1.73,9.19,9.19,0,0,0-4.71,3.93,16.71,16.71,0,0,0-2,7q-.39,4.32-.39,10.92v52.48c0,4.39.13,8,.39,10.92a15.93,15.93,0,0,0,2,7,9.5,9.5,0,0,0,4.94,3.92,34.21,34.21,0,0,0,9.12,1.73v1.89c-4-.21-8-.37-11.94-.47s-8-.16-11.94-.16-7.7.05-11.47.16-7.54.26-11.32.47Z"/><path class="cls-13" d="M598.4,301.75a31.16,31.16,0,0,0,8.8-1.73A9.57,9.57,0,0,0,612,296.1a16.13,16.13,0,0,0,2-7c.26-2.88.39-6.53.39-10.92V225.71q0-6.6-.39-10.92a16.13,16.13,0,0,0-2-7,9.64,9.64,0,0,0-4.94-3.93,34.14,34.14,0,0,0-9-1.73v-1.88q6.6.31,12.8.47t12.81.16c3.46,0,6.91,0,10.37-.16s6.86-.26,10.21-.47v1.88a31.5,31.5,0,0,0-8.64,1.73,9.19,9.19,0,0,0-4.71,3.93,16.71,16.71,0,0,0-2,7q-.39,4.32-.39,10.92v52.48c0,4.39.13,8,.39,10.92a15.93,15.93,0,0,0,2,7,9.5,9.5,0,0,0,4.94,3.92,34.21,34.21,0,0,0,9.12,1.73v1.89c-4-.21-8-.37-11.94-.47s-8-.16-11.94-.16-7.7.05-11.47.16-7.54.26-11.32.47Z"/><path class="cls-14" d="M1.8,153.65l557.4-2c1,0,1.8,1.9,1.8,3h0c0,1.11-.81,3-1.8,3L2,155.65c-1,0-2,.11-2-1H0C0,153.55.81,153.65,1.8,153.65Z"/><path class="cls-15" d="M676.33,104.82c-3.66-.21-7.28-.37-10.84-.47s-7.17-.16-10.84-.16q-6.6,0-12.88.16t-12.57.47v-1.89q2.2-.32,4.71-.78a20.11,20.11,0,0,0,4.72-1.5,10,10,0,0,0,3.61-2.75,7.23,7.23,0,0,0,1.41-4.71q0-2.82-4.55-14.14L614.44,19.33,594,67.56q-7.86,19-7.86,25.93a7.8,7.8,0,0,0,1.1,4.24,8,8,0,0,0,3,2.75,17.13,17.13,0,0,0,4.16,1.57c1.52.36,3.06.65,4.63.86v1.89q-5.34-.31-10.6-.47T578,104.17q-4.39,0-8.64.16c-2.83.11-5.66.26-8.48.47v-1.87a17.92,17.92,0,0,0,9.27-3.61,28.67,28.67,0,0,0,6.44-7.23A57.34,57.34,0,0,0,581.22,83q2-4.87,3.85-9.11L617.75.5h3.46l36.6,86.09a38.11,38.11,0,0,0,7,11.24q4.17,4.47,11.55,5.1Z"/><path class="cls-16" d="M676.33,104.82c-3.66-.21-7.28-.37-10.84-.47s-7.17-.16-10.84-.16q-6.6,0-12.88.16t-12.57.47v-1.89q2.2-.32,4.71-.78a20.11,20.11,0,0,0,4.72-1.5,10,10,0,0,0,3.61-2.75,7.23,7.23,0,0,0,1.41-4.71q0-2.82-4.55-14.14L614.44,19.33,594,67.56q-7.86,19-7.86,25.93a7.8,7.8,0,0,0,1.1,4.24,8,8,0,0,0,3,2.75,17.13,17.13,0,0,0,4.16,1.57c1.52.36,3.06.65,4.63.86v1.89q-5.34-.31-10.6-.47T578,104.17q-4.39,0-8.64.16c-2.83.11-5.66.26-8.48.47v-1.87a17.92,17.92,0,0,0,9.27-3.61,28.67,28.67,0,0,0,6.44-7.23A57.34,57.34,0,0,0,581.22,83q2-4.87,3.85-9.11L617.75.5h3.46l36.6,86.09a38.11,38.11,0,0,0,7,11.24q4.17,4.47,11.55,5.1Z"/></g></g></g></svg>