<svg xmlns="http://www.w3.org/2000/svg" xmlns:xlink="http://www.w3.org/1999/xlink" id="Layer_1" data-name="Layer 1" viewBox="74.3690185546875 361.7999572753906 1772.191162109375 308.2000427246094">
  <defs/>
  <defs>
    <linearGradient id="New_Gradient_Swatch_4" x1="1029.21" x2="1847.57" y1="554" y2="554" gradientUnits="userSpaceOnUse">
      <stop offset="0" stop-color="#999"/>
      <stop offset="1" stop-color="#333"/>
    </linearGradient>
    <linearGradient id="linear-gradient" x1="983.91" x2="983.91" y1="597.83" y2="666.44" gradientUnits="userSpaceOnUse">
      <stop offset="0" stop-color="#b8b9bb"/>
      <stop offset=".42" stop-color="#adaeaf"/>
      <stop offset=".76" stop-color="#636465"/>
      <stop offset="1" stop-color="#676869"/>
    </linearGradient>
    <linearGradient id="New_Gradient_Swatch_3" x1="-3923.31" x2="-3923.31" y1="7848.19" y2="7732.74" gradientTransform="rotate(180 -1481.405 4202.06)" gradientUnits="userSpaceOnUse">
      <stop offset="0" stop-color="#c3a964"/>
      <stop offset="1" stop-color="#50411a"/>
    </linearGradient>
    <linearGradient id="New_Gradient_Swatch_4-2" x1="-2586.68" x2="-1768.32" y1="6399" y2="6399" gradientTransform="rotate(180 -846.495 3476.375)" xlink:href="#New_Gradient_Swatch_4"/>
    <linearGradient id="New_Gradient_Swatch_3-2" x1="928.45" x2="928.45" y1="362.35" y2="472.72" xlink:href="#New_Gradient_Swatch_3"/>
    <linearGradient id="New_Gradient_Swatch_3-3" x1="991.55" x2="991.55" y1="362.35" y2="472.72" xlink:href="#New_Gradient_Swatch_3"/>
    <style>
      .cls-2{fill:url(#linear-gradient)}
    </style>
  </defs>
  <path fill="url(#New_Gradient_Swatch_4)" d="M1844.94 555.1l-813.09 1.1a2.45 2.45 0 01-2.64-2.2 2.45 2.45 0 012.64-2.2l813.09 1.1c1.45 0 2.63-.12 2.63 1.1 0 1.21-1.18 1.1-2.63 1.1z"/>
  <path d="M494 663.66a20.12 20.12 0 005.57-1.09 6.05 6.05 0 003-2.49 10.13 10.13 0 001.3-4.42c.16-1.83.24-4.13.24-6.92v-46.13a82.2 82.2 0 00-8.79.39 14.31 14.31 0 00-6.12 2 14.12 14.12 0 00-4.52 5 49.49 49.49 0 00-3.83 9.25l-1.3-.4 1.4-19.49q4.17.21 8.25.3t8.25.1h23.37q4 0 7.86-.1t7.85-.3l1.47 19.55-1.29.4a50.18 50.18 0 00-3.83-9.25 14.12 14.12 0 00-4.52-5 14.52 14.52 0 00-6.22-2 86.53 86.53 0 00-9-.39v46.13c0 2.79.09 5.09.25 6.92a10.13 10.13 0 001.3 4.42 6.05 6.05 0 003.13 2.49 21.73 21.73 0 005.77 1.09v1.19q-3.78-.2-7.56-.3t-7.56-.09q-3.68 0-7.26.09t-7.16.3zM669.11 664.46h-17.9a175.35 175.35 0 01-11.59-14.08 113.92 113.92 0 01-9.49-15.26 19.23 19.23 0 01-2.54-.2c-1-.13-2.09-.28-3.18-.44s-2.15-.37-3.18-.6-1.87-.45-2.54-.65v15.51c0 2.79.09 5.09.25 6.92a10.26 10.26 0 001.29 4.42 6.08 6.08 0 003.14 2.49 21.73 21.73 0 005.76 1.09v1.19c-2.52-.13-5-.23-7.55-.3s-5-.09-7.56-.09-4.87 0-7.26.09-4.77.17-7.16.3v-1.19a20.12 20.12 0 005.57-1.09 6.05 6.05 0 003-2.49 10.13 10.13 0 001.3-4.42c.16-1.83.24-4.13.24-6.92v-33.21q0-4.17-.24-6.91a10.13 10.13 0 00-1.3-4.42 6.05 6.05 0 00-3-2.49 20.12 20.12 0 00-5.57-1.09v-1.2q3.18.21 6.37.3t6.36.1q1.39 0 3.48-.15c1.39-.1 2.87-.21 4.42-.34s3.14-.25 4.73-.35 3-.15 4.27-.15a36.71 36.71 0 018.75 1.09 25.19 25.19 0 018.02 3.48 19.74 19.74 0 015.86 6.07 16.19 16.19 0 012.29 8.75 14.48 14.48 0 01-1.24 6.16 15.35 15.35 0 01-3.33 4.68 17.92 17.92 0 01-4.92 3.28 26.53 26.53 0 01-5.92 1.89q1.4 2.38 3.28 5.37c1.26 2 2.67 4 4.23 6.06s3.21 4.1 5 6.12a47.83 47.83 0 005.57 5.47 35.56 35.56 0 006 4.07 16.46 16.46 0 006.27 1.94zm-50.42-34.61a25.94 25.94 0 009.25 1.69q7.75 0 12-3.58t4.28-11.63a13.84 13.84 0 00-1.24-5.92 14.13 14.13 0 00-3.44-4.57 15.48 15.48 0 00-5-3 16.88 16.88 0 00-5.91-1.05c-1.66 0-3.28.07-4.88.2a21.91 21.91 0 00-4.67.9q-.2 4.77-.3 9.64c-.06 3.25-.1 6.76-.1 10.54zM723.1 663.66a20.2 20.2 0 005.57-1.09 6.14 6.14 0 003-2.49 10 10 0 001.29-4.42c.17-1.83.25-4.13.25-6.92v-33.21q0-4.17-.25-6.91a10 10 0 00-1.29-4.42 6.09 6.09 0 00-3.13-2.49 21.54 21.54 0 00-5.67-1.09v-1.2q4.17.21 8.1.3t8.11.1q3.27 0 6.56-.1t6.46-.3v1.2a19.86 19.86 0 00-5.47 1.09 5.85 5.85 0 00-3 2.49 10.57 10.57 0 00-1.24 4.42q-.26 2.75-.25 6.91v33.21c0 2.79.08 5.09.25 6.92a10.13 10.13 0 001.29 4.42 6.09 6.09 0 003.13 2.49 21.9 21.9 0 005.77 1.09v1.19q-3.78-.2-7.56-.3c-2.52-.06-5-.09-7.55-.09s-4.88 0-7.26.09-4.78.17-7.16.3zM843.21 664.85q-3.78-.2-7.5-.3t-7.51-.09q-3.68 0-7.31.09t-7.51.3v-1.19a22.51 22.51 0 005.82-1.09 6.06 6.06 0 003.18-2.49 10.13 10.13 0 001.3-4.42c.16-1.83.24-4.13.24-6.92v-33.21q0-4.17-.24-6.91a10.13 10.13 0 00-1.3-4.42 6.05 6.05 0 00-3.13-2.49 21.46 21.46 0 00-5.67-1.09v-1.2q3.28.21 6.56.3t6.57.1a88.09 88.09 0 009.39-.49 85.85 85.85 0 019.4-.5 24.55 24.55 0 017.71 1.34 26.23 26.23 0 017.41 3.88 20.81 20.81 0 015.51 6.16 15.84 15.84 0 012.14 8.21 14.18 14.18 0 01-2.19 8.05 17.59 17.59 0 01-5.51 5.32 23.78 23.78 0 01-7.41 2.93 36.88 36.88 0 01-8 .9 57.12 57.12 0 01-6.16-.35 26 26 0 01-6.17-1.44v14.91c0 2.79.09 5.09.25 6.92a10.26 10.26 0 001.29 4.42 6.08 6.08 0 003.14 2.49 21.46 21.46 0 005.66 1.09zm-10.34-34.6a16.28 16.28 0 004.92 1.74 29.38 29.38 0 005.13.45 18.57 18.57 0 005.91-1 15 15 0 004.92-2.68 12.47 12.47 0 003.33-4.33 13.34 13.34 0 001.25-5.86 19.2 19.2 0 00-1.25-7.06 15.29 15.29 0 00-3.43-5.37 14.85 14.85 0 00-5.22-3.38 17.78 17.78 0 00-6.61-1.2c-1.19 0-2.6.09-4.22.25a16.05 16.05 0 00-4.73 1.24zM1047.55 599.42c2.79.14 5.5.24 8.16.3s5.36.1 8.15.1q3.87 0 7.8-.1t7.81-.3v1.2a26.47 26.47 0 00-2.64.59 12.47 12.47 0 00-2.68 1.1 6.2 6.2 0 00-2 1.79 4.43 4.43 0 00-.79 2.68 6.22 6.22 0 001 2.89q1 1.79 3 4.47l14.12 19.09 11.74-18.39a14.87 14.87 0 002.58-7.66 5.44 5.44 0 00-2.38-4.62 10.11 10.11 0 00-5.38-1.94v-1.2q3.48.21 7 .3c2.35.07 4.68.1 7 .1q3.18 0 6.31-.1t6.31-.3v1.2a17.47 17.47 0 00-6.36 2.53 29.1 29.1 0 00-5 4.18 37.44 37.44 0 00-4 4.92c-1.16 1.73-2.24 3.28-3.23 4.68l-13.62 19.88v14.62a24.24 24.24 0 00.59 5.92 7.54 7.54 0 001.94 3.53 8 8 0 003.63 1.88 35.33 35.33 0 005.77.9v1.19q-4.47-.2-8.85-.3t-8.85-.09c-2.45 0-4.91 0-7.36.09s-4.91.17-7.36.3v-1.19a33.43 33.43 0 005.52-.9 8 8 0 003.58-1.88 7.15 7.15 0 001.89-3.53 25.57 25.57 0 00.55-5.92v-15.61l-18-23.07q-1.39-1.79-2.88-3.63a30.28 30.28 0 00-3.33-3.48 24.12 24.12 0 00-4.23-3 19.77 19.77 0 00-5.57-2zM1239.76 622.1a38.86 38.86 0 00-3.43-8.26 28.26 28.26 0 00-5.07-6.56 21.16 21.16 0 00-6.77-4.32 22.8 22.8 0 00-8.6-1.55 21.15 21.15 0 00-10.44 2.39 20.19 20.19 0 00-7 6.46 28.33 28.33 0 00-4 9.45 50.06 50.06 0 00-1.24 11.33 40.24 40.24 0 001.59 11.39 28.7 28.7 0 004.73 9.5 23 23 0 007.85 6.51 23.49 23.49 0 0010.89 2.44 27.22 27.22 0 0016-4.68 44.53 44.53 0 0011.88-12.73l2.49 2a88.36 88.36 0 01-6.76 8.95 38 38 0 01-7.36 6.56 31.62 31.62 0 01-8.65 4.08 36.88 36.88 0 01-10.55 1.39 32.31 32.31 0 01-23.06-9.59 33.46 33.46 0 01-7.11-10.84 37.76 37.76 0 010-27.74 33.46 33.46 0 017.11-10.84 32.38 32.38 0 0123.06-9.6 49.13 49.13 0 016.87.45q3.18.45 6.11 1t5.67 1a38.9 38.9 0 005.42.6c0 1.39.05 3 .15 4.87s.25 3.76.45 5.72.39 3.88.59 5.76.4 3.53.6 4.93zM1358.48 615.53q0-4.17-.25-6.91a10 10 0 00-1.29-4.42 6.09 6.09 0 00-3.13-2.49 21.46 21.46 0 00-5.67-1.09v-1.2q4.17.21 8.1.3t8.11.1c2.19 0 4.37 0 6.56-.1s4.34-.16 6.46-.3v1.2a19.86 19.86 0 00-5.47 1.09 5.85 5.85 0 00-3 2.49 10.57 10.57 0 00-1.24 4.42q-.26 2.75-.25 6.91v33.21c0 2.79.08 5.09.25 6.92a10.13 10.13 0 001.29 4.42 6.09 6.09 0 003.13 2.49 21.9 21.9 0 005.77 1.09v1.19q-3.78-.2-7.56-.3c-2.52-.06-5-.09-7.55-.09s-4.88 0-7.26.09-4.78.17-7.16.3v-1.19a20.2 20.2 0 005.57-1.09 6.14 6.14 0 003-2.49 10 10 0 001.29-4.42c.17-1.83.25-4.13.25-6.92v-17.89h-36.89v17.89c0 2.79.08 5.09.25 6.92a10.13 10.13 0 001.29 4.42 6.09 6.09 0 003.13 2.49 21.9 21.9 0 005.77 1.09v1.19q-3.78-.2-7.56-.3t-7.55-.09q-3.69 0-7.26.09c-2.39.07-4.77.17-7.16.3v-1.19a20.12 20.12 0 005.57-1.09 6.14 6.14 0 003-2.49 10 10 0 001.29-4.42c.17-1.83.25-4.13.25-6.92v-33.21q0-4.17-.25-6.91a10 10 0 00-1.29-4.42 6.09 6.09 0 00-3.13-2.49 21.46 21.46 0 00-5.67-1.09v-1.2c2.78.14 5.49.24 8.1.3s5.32.1 8.11.1c2.19 0 4.37 0 6.56-.1s4.34-.16 6.47-.3v1.2a19.69 19.69 0 00-5.47 1.09 5.84 5.84 0 00-3 2.49 10.57 10.57 0 00-1.24 4.42q-.25 2.75-.25 6.91v12.13h36.89zM1483.67 618.32a37.34 37.34 0 00-3.33-6.32 29.18 29.18 0 00-4.72-5.57 23.09 23.09 0 00-6-3.92 17 17 0 00-7.16-1.49 18.5 18.5 0 00-9.3 2.08c-2.42 1.4-3.63 3.88-3.63 7.46a9.4 9.4 0 001.64 5.52 16 16 0 004.38 4.13 41 41 0 006.21 3.28l7.11 3q3.63 1.54 7.11 3.33a28.7 28.7 0 016.22 4.28 19.62 19.62 0 014.37 5.76 17.34 17.34 0 011.64 7.86 18.27 18.27 0 01-1.79 8.4 16.42 16.42 0 01-4.82 5.82 20.38 20.38 0 01-7.06 3.38 32.68 32.68 0 01-8.6 1.09 30.25 30.25 0 01-5.17-.46q-2.68-.47-5.17-1l-4.53-1a16 16 0 00-3.23-.46 6.37 6.37 0 00-2.09.35l-2.08.74q-.9-5.64-2.09-11t-2.49-11l1.29-.7a74.49 74.49 0 004.33 7.23 44.18 44.18 0 005.72 6.88 30.91 30.91 0 007 5.19 17.07 17.07 0 008.3 2.08 23.78 23.78 0 005.57-.64 14.11 14.11 0 004.72-2 9.9 9.9 0 003.23-3.62 11.54 11.54 0 001.2-5.51 11.06 11.06 0 00-2.89-7.8 27.8 27.8 0 00-7.16-5.46 86.18 86.18 0 00-9.29-4.32 69.08 69.08 0 01-9.3-4.46 27.47 27.47 0 01-7.16-5.86 12.7 12.7 0 01-2.88-8.54 16.28 16.28 0 015.52-12.46 17.76 17.76 0 015.86-3.42 20.81 20.81 0 017.11-1.2 39.89 39.89 0 016.61.5c2 .33 3.87.7 5.72 1.09s3.81.79 5.67 1.15a31.23 31.23 0 006 .55c0 3 0 5.88.14 8.7s.32 5.65.65 8.5z" class="cls-2"/>
  <path fill="url(#New_Gradient_Swatch_3)" d="M986.55 558a35.28 35.28 0 00-9.83 1.93 10.79 10.79 0 00-5.35 4.38 18.07 18.07 0 00-2.28 7.81q-.44 4.83-.44 12.19v81.41a142 142 0 0015.53-.7 25.08 25.08 0 0010.79-3.6 24.76 24.76 0 008-8.86 87.4 87.4 0 006.75-16.31l2.28.7-2.45 34.39q-7.38-.36-14.57-.53t-14.56-.17h-41.24q-7 0-13.86.17t-13.86.53L909 637l2.28-.7a87.34 87.34 0 006.72 16.3 24.74 24.74 0 008 8.86 25.37 25.37 0 0011 3.6 149.1 149.1 0 0015.87.7v-81.41q0-7.36-.43-12.19a17.94 17.94 0 00-2.29-7.81 10.67 10.67 0 00-5.52-4.38 38.14 38.14 0 00-10.19-1.97v-2.11q6.67.36 13.34.53t13.33.17q6.5 0 12.81-.17t12.63-.53z"/>
  <path fill="url(#New_Gradient_Swatch_4-2)" d="M78 552.65l813.09-1.1a2.45 2.45 0 012.63 2.2 2.44 2.44 0 01-2.63 2.2L78 554.85c-1.45 0-2.63.12-2.63-1.1-.03-1.21 1.15-1.1 2.63-1.1z"/>
  <path fill="url(#New_Gradient_Swatch_3-2)" d="M906.18 470.71a27.89 27.89 0 008.46-1.84 9.59 9.59 0 004.6-4.2 18.36 18.36 0 002-7.46q.38-4.62.38-11.66v-56q0-7-.38-11.66a18.46 18.46 0 00-2-7.47 9.51 9.51 0 00-4.76-4.19 29.92 29.92 0 00-8.6-1.85v-2q6.35.34 12.3.5t12.31.17c3.32 0 6.64 0 10-.17s6.59-.27 9.81-.5v2a27.62 27.62 0 00-8.3 1.85 9.2 9.2 0 00-4.53 4.19 19.36 19.36 0 00-1.89 7.47q-.37 4.61-.37 11.66v56q0 7.05.37 11.66a18.35 18.35 0 002 7.46 9.46 9.46 0 004.75 4.2 30.1 30.1 0 008.76 1.84v2a400.522 400.522 0 00-22.95-.67c-3.83 0-7.4.06-11 .17s-7.25.28-10.87.5z"/>
  <path fill="url(#New_Gradient_Swatch_3-3)" d="M969.28 470.71a27.82 27.82 0 008.46-1.84 9.54 9.54 0 004.6-4.2 18.36 18.36 0 002-7.46q.38-4.62.38-11.66v-56q0-7-.38-11.66a18.46 18.46 0 00-2-7.47 9.49 9.49 0 00-4.75-4.19 30.08 30.08 0 00-8.61-1.85v-2q6.35.34 12.31.5t12.3.17c3.32 0 6.64 0 10-.17s6.59-.27 9.82-.5v2a27.63 27.63 0 00-8.31 1.85 9.25 9.25 0 00-4.53 4.19 19.55 19.55 0 00-1.88 7.47q-.39 4.61-.38 11.66v56q0 7.05.38 11.66a18.36 18.36 0 002 7.46 9.5 9.5 0 004.75 4.2 30.18 30.18 0 008.76 1.84v2q-5.75-.33-11.47-.5c-3.83-.11-7.65-.17-11.48-.17s-7.39.06-11 .17-7.24.28-10.87.5z"/>
</svg>
