<svg xmlns="http://www.w3.org/2000/svg" xmlns:xlink="http://www.w3.org/1999/xlink" viewBox="74.3690185546875 361.7999572753906 1772.191162109375 308.2000427246094">
  <defs/>
  <defs>
    <linearGradient id="New_Gradient_Swatch_4" x1="1028.21" x2="1846.56" y1="552.62" y2="552.62" gradientUnits="userSpaceOnUse">
      <stop offset="0" stop-color="#999"/>
      <stop offset="1" stop-color="#333"/>
    </linearGradient>
    <linearGradient id="linear-gradient" x1="982.91" x2="982.91" y1="596.46" y2="665.06" gradientUnits="userSpaceOnUse">
      <stop offset="0" stop-color="#b8b9bb"/>
      <stop offset=".42" stop-color="#adaeaf"/>
      <stop offset=".76" stop-color="#636465"/>
      <stop offset="1" stop-color="#676869"/>
    </linearGradient>
    <linearGradient id="New_Gradient_Swatch_3" x1="-24.3" x2="-24.3" y1="7873.57" y2="7758.12" gradientTransform="rotate(180 467.595 4214.06)" gradientUnits="userSpaceOnUse">
      <stop offset="0" stop-color="#c3a964"/>
      <stop offset="1" stop-color="#50411a"/>
    </linearGradient>
    <linearGradient id="New_Gradient_Swatch_3-2" x1="959" x2="959" y1="361.79" y2="471.94" xlink:href="#New_Gradient_Swatch_3"/>
    <linearGradient id="New_Gradient_Swatch_4-2" x1="1312.33" x2="2130.68" y1="6424.37" y2="6424.37" gradientTransform="rotate(180 1102.505 3488.375)" xlink:href="#New_Gradient_Swatch_4"/>
    <style>
      .cls-2{fill:url(#linear-gradient)}
    </style>
  </defs>
  <g id="Layer_3" data-name="Layer 3">
    <path fill="url(#New_Gradient_Swatch_4)" d="M1843.93 553.72l-813.09 1.1a2.44 2.44 0 01-2.63-2.2 2.44 2.44 0 012.63-2.2l813.09 1.1c1.45 0 2.63-.12 2.63 1.1 0 1.21-1.18 1.1-2.63 1.1z"/>
    <path d="M493 662.28a20 20 0 005.57-1.09 6.12 6.12 0 003-2.49 10.26 10.26 0 001.29-4.42c.16-1.83.25-4.13.25-6.91v-46.14a79.41 79.41 0 00-8.8.4 12.88 12.88 0 00-10.64 7.06 49.07 49.07 0 00-3.83 9.24l-1.29-.39 1.45-19.49q4.17.19 8.25.29t8.25.1h23.37q4 0 7.86-.1t7.85-.29l1.39 19.49-1.29.39a49.07 49.07 0 00-3.83-9.24 14.07 14.07 0 00-4.52-5 14.34 14.34 0 00-6.22-2 83.31 83.31 0 00-9-.4v46.14q0 4.17.24 6.91a10.13 10.13 0 001.3 4.42 6.05 6.05 0 003.13 2.49 21.73 21.73 0 005.77 1.09v1.19q-3.78-.19-7.56-.29t-7.56-.1q-3.68 0-7.26.1t-7.16.29zM668.1 663.08h-17.9A174.7 174.7 0 01638.62 649a113.7 113.7 0 01-9.5-15.27 19.35 19.35 0 01-2.54-.2c-1-.13-2.08-.28-3.18-.44s-2.15-.37-3.18-.6-1.87-.45-2.53-.65v15.52q0 4.17.24 6.91a10.13 10.13 0 001.3 4.42 6.05 6.05 0 003.13 2.49 21.73 21.73 0 005.77 1.09v1.19q-3.78-.19-7.56-.29t-7.56-.1q-3.68 0-7.26.1t-7.16.29v-1.19a20 20 0 005.57-1.09 6.05 6.05 0 003-2.49 10.13 10.13 0 001.3-4.42c.16-1.83.25-4.13.25-6.91v-33.21c0-2.78-.09-5.08-.25-6.91a10.13 10.13 0 00-1.3-4.42 6.05 6.05 0 00-3-2.49 20 20 0 00-5.57-1.09v-1.19c2.12.13 4.25.23 6.37.29s4.24.1 6.36.1q1.39 0 3.48-.15c1.39-.09 2.87-.21 4.43-.34s3.13-.25 4.72-.35 3-.15 4.28-.15a36.83 36.83 0 018.75 1.09 25.23 25.23 0 018 3.48 19.77 19.77 0 015.87 6.07 16.27 16.27 0 012.28 8.75 14.48 14.48 0 01-1.24 6.16 15.35 15.35 0 01-3.33 4.68 17.77 17.77 0 01-4.92 3.28 26.53 26.53 0 01-5.92 1.89q1.4 2.39 3.28 5.37t4.23 6.06q2.33 3.09 5 6.12a48.63 48.63 0 005.57 5.47 35.56 35.56 0 006 4.07 16.52 16.52 0 006.27 1.94zm-50.41-34.61a25.84 25.84 0 009.24 1.69q7.76 0 12-3.58t4.31-11.58a13.7 13.7 0 00-1.24-6 14.24 14.24 0 00-3.43-4.57 15.63 15.63 0 00-5-3 16.84 16.84 0 00-5.91-1.05c-1.66 0-3.28.07-4.87.2a22 22 0 00-4.68.9q-.2 4.77-.3 9.64t-.09 10.54zM722.09 662.28a20.12 20.12 0 005.57-1.09 6.1 6.1 0 003-2.49 10 10 0 001.29-4.42q.25-2.74.25-6.91v-33.22q0-4.17-.25-6.91a10 10 0 00-1.29-4.42 6.05 6.05 0 00-3.13-2.49 21.46 21.46 0 00-5.67-1.09v-1.19q4.18.19 8.11.29t8.1.1c2.19 0 4.37 0 6.56-.1s4.34-.16 6.46-.29v1.19a19.69 19.69 0 00-5.46 1.09 5.84 5.84 0 00-3 2.49 10.57 10.57 0 00-1.24 4.42q-.25 2.75-.25 6.91v33.22q0 4.17.25 6.91a10.13 10.13 0 001.29 4.42 6.09 6.09 0 003.13 2.49 21.9 21.9 0 005.77 1.09v1.19q-3.78-.19-7.56-.29c-2.52-.07-5-.1-7.55-.1s-4.87 0-7.26.1-4.77.16-7.16.29zM842.21 663.47c-2.52-.13-5-.23-7.51-.29s-5-.1-7.51-.1-4.89 0-7.31.1-4.92.16-7.5.29v-1.19a22.42 22.42 0 005.81-1.09 6 6 0 003.18-2.49 10.13 10.13 0 001.3-4.42c.16-1.83.25-4.13.25-6.91v-33.22c0-2.78-.09-5.08-.25-6.91a10.13 10.13 0 00-1.3-4.42 6.05 6.05 0 00-3.13-2.49 21.46 21.46 0 00-5.67-1.09v-1.19q3.28.19 6.57.29t6.56.1a88.42 88.42 0 009.4-.49 88.08 88.08 0 019.39-.5 24.55 24.55 0 017.71 1.34 26.23 26.23 0 017.41 3.88 21.1 21.1 0 015.52 6.16 15.93 15.93 0 012.13 8.21 14.26 14.26 0 01-2.18 8.05 17.62 17.62 0 01-5.52 5.32 23.94 23.94 0 01-7.41 2.94 37.49 37.49 0 01-8 .89 57.26 57.26 0 01-6.16-.35 26 26 0 01-6.17-1.44v14.92c0 2.78.09 5.08.25 6.91a10.13 10.13 0 001.3 4.42 6.05 6.05 0 003.13 2.49 21.46 21.46 0 005.67 1.09zm-10.35-34.6a16.43 16.43 0 004.93 1.74 29.18 29.18 0 005.12.45 18.57 18.57 0 005.91-.95 15.12 15.12 0 004.93-2.68 12.71 12.71 0 003.33-4.33 13.48 13.48 0 001.24-5.86 19.41 19.41 0 00-1.24-7.06 15.57 15.57 0 00-3.43-5.37 15 15 0 00-5.22-3.38 17.87 17.87 0 00-6.62-1.2c-1.19 0-2.6.09-4.22.25a16.05 16.05 0 00-4.73 1.24zM1046.54 598.05c2.79.13 5.5.23 8.16.29s5.37.1 8.15.1q3.89 0 7.81-.1c2.61-.06 5.22-.16 7.8-.29v1.19a24.53 24.53 0 00-2.63.6 11.84 11.84 0 00-2.69 1.09 6.2 6.2 0 00-2 1.79 4.43 4.43 0 00-.79 2.68 6.34 6.34 0 001 2.89q1.05 1.79 3 4.47l14.12 19.09 11.74-18.39a14.87 14.87 0 002.58-7.66 5.44 5.44 0 00-2.38-4.62 10.07 10.07 0 00-5.37-1.94v-1.19c2.32.13 4.65.23 7 .29s4.69.1 7 .1q3.18 0 6.31-.1t6.31-.29v1.19a17.54 17.54 0 00-6.36 2.53 29.1 29.1 0 00-5 4.18 37.44 37.44 0 00-4 4.92c-1.16 1.73-2.23 3.28-3.23 4.68l-13.62 19.88v14.62a24.24 24.24 0 00.59 5.92 7.49 7.49 0 001.94 3.53 8.14 8.14 0 003.63 1.89 36.58 36.58 0 005.77.89v1.19q-4.47-.19-8.85-.29t-8.85-.1c-2.45 0-4.91 0-7.36.1s-4.9.16-7.36.29v-1.19a34.64 34.64 0 005.52-.89 8.06 8.06 0 003.58-1.89 7 7 0 001.94-3.5 25.57 25.57 0 00.55-5.92v-15.64l-18-23.07q-1.4-1.79-2.88-3.63a30.28 30.28 0 00-3.33-3.48 24.12 24.12 0 00-4.23-3 19.77 19.77 0 00-5.57-2zM1238.75 620.72a38.35 38.35 0 00-3.43-8.26 28.47 28.47 0 00-5.07-6.56 21.28 21.28 0 00-6.76-4.32 22.85 22.85 0 00-8.61-1.54 21.15 21.15 0 00-10.44 2.38 20.28 20.28 0 00-7 6.46 28.12 28.12 0 00-4 9.45 50.08 50.08 0 00-1.25 11.34 40.22 40.22 0 001.59 11.38 28.6 28.6 0 004.73 9.5 23 23 0 007.85 6.51 23.36 23.36 0 0010.89 2.44 27.2 27.2 0 0016-4.68 44.62 44.62 0 0011.88-12.72l2.49 2a88.36 88.36 0 01-6.76 8.95 38 38 0 01-7.36 6.57 31.17 31.17 0 01-8.65 4.07 36.86 36.86 0 01-10.54 1.39 32.32 32.32 0 01-23.07-9.59 33.63 33.63 0 01-7.11-10.84 37.76 37.76 0 010-27.74 33.63 33.63 0 017.11-10.84 32.33 32.33 0 0110.44-7.06 32 32 0 0112.63-2.53 49.15 49.15 0 016.86.44q3.18.45 6.11 1t5.67 1a38.9 38.9 0 005.42.6c0 1.39.05 3 .15 4.87s.25 3.76.45 5.72.39 3.88.59 5.76.4 3.54.6 4.93zM1357.47 614.15q0-4.17-.25-6.91a10 10 0 00-1.29-4.42 6.05 6.05 0 00-3.13-2.49 21.46 21.46 0 00-5.67-1.09v-1.19q4.18.19 8.11.29c2.61.07 5.32.1 8.1.1 2.19 0 4.37 0 6.56-.1s4.34-.16 6.47-.29v1.19a19.69 19.69 0 00-5.47 1.09 5.88 5.88 0 00-3 2.49 10.57 10.57 0 00-1.24 4.42q-.26 2.75-.25 6.91v33.22q0 4.17.25 6.91a10.13 10.13 0 001.29 4.42 6.08 6.08 0 003.14 2.49 21.73 21.73 0 005.76 1.09v1.19q-3.78-.19-7.55-.29t-7.56-.1c-2.46 0-4.87 0-7.26.1s-4.77.16-7.16.29v-1.19a20.12 20.12 0 005.57-1.09 6.1 6.1 0 003-2.49 10 10 0 001.29-4.42q.26-2.74.25-6.91v-17.9h-36.89v17.9c0 2.78.09 5.08.25 6.91a10.26 10.26 0 001.29 4.42 6.08 6.08 0 003.14 2.49 21.73 21.73 0 005.76 1.09v1.19q-3.78-.19-7.55-.29t-7.56-.1q-3.67 0-7.26.1c-2.39.06-4.77.16-7.16.29v-1.19a20.12 20.12 0 005.57-1.09 6.1 6.1 0 003-2.49 10 10 0 001.29-4.42q.25-2.74.25-6.91v-33.22q0-4.17-.25-6.91a10 10 0 00-1.29-4.42 6.05 6.05 0 00-3.13-2.49 21.46 21.46 0 00-5.67-1.09v-1.19q4.18.19 8.11.29c2.61.07 5.32.1 8.1.1q3.29 0 6.56-.1c2.19-.06 4.34-.16 6.47-.29v1.19a19.77 19.77 0 00-5.47 1.09 5.88 5.88 0 00-3 2.49 10.72 10.72 0 00-1.24 4.42c-.16 1.83-.25 4.13-.25 6.91v12.14h36.89zM1482.66 616.94a37.34 37.34 0 00-3.33-6.32 28.46 28.46 0 00-4.72-5.56 22.71 22.71 0 00-6-3.93 17 17 0 00-7.16-1.49 18.5 18.5 0 00-9.3 2.08c-2.42 1.4-3.63 3.88-3.63 7.46a9.33 9.33 0 001.65 5.52 15.92 15.92 0 004.37 4.13 40.09 40.09 0 006.21 3.28c2.32 1 4.69 2 7.11 3s4.79 2.14 7.11 3.33a29.05 29.05 0 016.22 4.28 19.53 19.53 0 014.37 5.77 17.26 17.26 0 011.64 7.85 18.27 18.27 0 01-1.79 8.4 16.42 16.42 0 01-4.82 5.82 20.38 20.38 0 01-7.06 3.38 32.63 32.63 0 01-8.6 1.09 30.25 30.25 0 01-5.17-.46q-2.68-.47-5.17-1l-4.52-1a16.09 16.09 0 00-3.24-.46 6.26 6.26 0 00-2.08.35c-.67.23-1.36.48-2.09.75q-.9-5.65-2.09-11t-2.49-11l1.3-.69a72.26 72.26 0 004.32 7.22 44.18 44.18 0 005.72 6.88 31.49 31.49 0 007 5.2 17.17 17.17 0 008.3 2.07 23.78 23.78 0 005.57-.64 14.11 14.11 0 004.72-2 10 10 0 003.24-3.62 11.66 11.66 0 001.19-5.51 11.06 11.06 0 00-2.89-7.8 27.74 27.74 0 00-7.15-5.46 84.47 84.47 0 00-9.3-4.31 70.33 70.33 0 01-9.3-4.47 27.47 27.47 0 01-7.16-5.86 12.7 12.7 0 01-2.88-8.54 16.28 16.28 0 015.52-12.46 17.76 17.76 0 015.86-3.42 20.81 20.81 0 017.11-1.19 40.08 40.08 0 016.62.49c1.95.33 3.86.7 5.71 1.1s3.81.78 5.67 1.14a31.31 31.31 0 006 .55q0 4.47.15 8.7c.1 2.81.31 5.65.64 8.5z" class="cls-2"/>
    <path fill="url(#New_Gradient_Swatch_3)" d="M985.54 556.66a35.12 35.12 0 00-9.82 1.93 10.7 10.7 0 00-5.35 4.38 17.94 17.94 0 00-2.29 7.81q-.44 4.83-.43 12.19v81.41a141.92 141.92 0 0015.52-.7 25.08 25.08 0 0010.83-3.59 24.75 24.75 0 008-8.86 87.83 87.83 0 006.75-16.32l2.28.7-2.5 34.39q-7.38-.36-14.57-.53t-14.56-.17h-41.23q-7 0-13.86.17t-13.86.53L908 635.61l2.28-.7a88.45 88.45 0 006.72 16.32 24.82 24.82 0 008 8.86 25.37 25.37 0 0011 3.59 149.17 149.17 0 0015.88.7V583q0-7.37-.44-12.19a17.94 17.94 0 00-2.28-7.81 10.69 10.69 0 00-5.53-4.38 38.14 38.14 0 00-10.18-1.93v-2.11q6.68.36 13.34.53t13.33.17q6.49 0 12.81-.17t12.63-.53z"/>
    <path fill="url(#New_Gradient_Swatch_3-2)" d="M936.78 469.93a27.67 27.67 0 008.43-1.84 9.6 9.6 0 004.6-4.18 18.52 18.52 0 002-7.45q.38-4.6.37-11.64v-55.91q0-7-.37-11.64a18.52 18.52 0 00-2-7.45 9.51 9.51 0 00-4.75-4.18 29.54 29.54 0 00-8.58-1.84v-2c4.21.22 8.31.39 12.27.5s8.07.17 12.28.17c3.32 0 6.63-.06 10-.17s6.58-.28 9.79-.5v2a27.28 27.28 0 00-8.29 1.84 9.21 9.21 0 00-4.52 4.18 19.44 19.44 0 00-1.88 7.45q-.37 4.61-.38 11.64v55.91q0 7 .38 11.64a18.52 18.52 0 002 7.45 9.47 9.47 0 004.75 4.18 29.94 29.94 0 008.73 1.84v2q-5.71-.33-11.45-.5t-11.45-.17q-5.57 0-11 .17c-3.61.11-7.23.28-10.84.5z"/>
    <path fill="url(#New_Gradient_Swatch_4-2)" d="M77 551.27l813.09-1.1a2.44 2.44 0 012.63 2.2 2.44 2.44 0 01-2.63 2.2L77 553.47c-1.45 0-2.63.12-2.63-1.1-.04-1.21 1.14-1.1 2.63-1.1z"/>
  </g>
</svg>
