<svg xmlns="http://www.w3.org/2000/svg" xmlns:xlink="http://www.w3.org/1999/xlink" viewBox="74.3690185546875 361.7999572753906 1772.191162109375 308.2000427246094"><defs><style>.cls-1{fill:url(#New_Gradient_Swatch_4);}.cls-2{fill:url(#linear-gradient);}.cls-3{fill:url(#New_Gradient_Swatch_3);}.cls-4{fill:url(#New_Gradient_Swatch_4-2);}.cls-5{fill:#e933f6;}.cls-6{fill:url(#New_Gradient_Swatch_3-2);}</style><linearGradient id="New_Gradient_Swatch_4" x1="1028.67" y1="551.22" x2="1847.03" y2="551.22" gradientUnits="userSpaceOnUse"><stop offset="0" stop-color="#999"/><stop offset="1" stop-color="#333"/></linearGradient><linearGradient id="linear-gradient" x1="983.37" y1="595.05" x2="983.37" y2="663.66" gradientUnits="userSpaceOnUse"><stop offset="0" stop-color="#b8b9bb"/><stop offset="0.42" stop-color="#adaeaf"/><stop offset="0.76" stop-color="#636465"/><stop offset="1" stop-color="#676869"/></linearGradient><linearGradient id="New_Gradient_Swatch_3" x1="-11718.77" y1="3466.97" x2="-11718.77" y2="3351.52" gradientTransform="translate(-10758.81 4020.12) rotate(180)" gradientUnits="userSpaceOnUse"><stop offset="0" stop-color="#c3a964"/><stop offset="1" stop-color="#50411a"/></linearGradient><linearGradient id="New_Gradient_Swatch_4-2" x1="-10382.14" y1="2017.78" x2="-9563.78" y2="2017.78" gradientTransform="translate(-9488.99 2568.75) rotate(180)" xlink:href="#New_Gradient_Swatch_4"/><linearGradient id="New_Gradient_Swatch_3-2" x1="960" y1="274.54" x2="960" y2="384.28" gradientTransform="translate(0 90)" xlink:href="#New_Gradient_Swatch_3"/></defs><g id="Layer_3" data-name="Layer 3"><path class="cls-1" d="M1844.4,552.32l-813.1,1.1a2.45,2.45,0,0,1-2.63-2.2h0a2.44,2.44,0,0,1,2.63-2.2l813.1,1.1c1.45,0,2.63-.12,2.63,1.1h0C1847,552.43,1845.85,552.32,1844.4,552.32Z"/><path class="cls-2" d="M493.46,660.88a20.12,20.12,0,0,0,5.57-1.09,6.1,6.1,0,0,0,3-2.49,10,10,0,0,0,1.29-4.42c.17-1.83.25-4.13.25-6.92V599.83a79.53,79.53,0,0,0-8.8.4,12.92,12.92,0,0,0-10.64,7.06,49.75,49.75,0,0,0-3.83,9.24l-1.29-.4,1.39-19.48q4.19.2,8.26.29c2.71.07,5.47.1,8.25.1h23.37q4,0,7.85-.1t7.86-.29l1.39,19.48-1.29.4a49.75,49.75,0,0,0-3.83-9.24,14,14,0,0,0-4.53-5,14.3,14.3,0,0,0-6.21-2,83.51,83.51,0,0,0-9-.4V646c0,2.79.08,5.09.25,6.92a10.13,10.13,0,0,0,1.29,4.42,6.09,6.09,0,0,0,3.13,2.49,21.9,21.9,0,0,0,5.77,1.09v1.19q-3.78-.2-7.55-.29t-7.56-.1c-2.46,0-4.87,0-7.26.1s-4.77.16-7.16.29Z"/><path class="cls-2" d="M668.56,661.68H650.67a177,177,0,0,1-11.59-14.07,114.66,114.66,0,0,1-9.49-15.27,19.23,19.23,0,0,1-2.54-.2c-1-.13-2.09-.28-3.18-.44s-2.16-.37-3.18-.6-1.88-.45-2.54-.65V646c0,2.79.08,5.09.25,6.92a10.13,10.13,0,0,0,1.29,4.42,6.09,6.09,0,0,0,3.13,2.49,21.9,21.9,0,0,0,5.77,1.09v1.19q-3.78-.2-7.56-.29c-2.52-.07-5-.1-7.55-.1s-4.87,0-7.26.1-4.77.16-7.16.29v-1.19a20.12,20.12,0,0,0,5.57-1.09,6.14,6.14,0,0,0,3-2.49,10,10,0,0,0,1.29-4.42c.17-1.83.25-4.13.25-6.92V612.75q0-4.17-.25-6.91a10,10,0,0,0-1.29-4.42,6.14,6.14,0,0,0-3-2.49,20.12,20.12,0,0,0-5.57-1.09v-1.19q3.18.2,6.36.29t6.37.1c.92,0,2.09,0,3.48-.15l4.42-.34c1.56-.14,3.13-.25,4.73-.35s3-.15,4.27-.15a36.71,36.71,0,0,1,8.75,1.09,25.29,25.29,0,0,1,8.06,3.48,19.74,19.74,0,0,1,5.86,6.07,16.19,16.19,0,0,1,2.29,8.75,14.63,14.63,0,0,1-1.24,6.16,15.21,15.21,0,0,1-3.34,4.68,17.77,17.77,0,0,1-4.92,3.28,26.45,26.45,0,0,1-5.91,1.89c.92,1.59,2,3.38,3.28,5.37s2.67,4,4.22,6.06,3.22,4.1,5,6.12a49.45,49.45,0,0,0,5.57,5.47,35.63,35.63,0,0,0,6,4.07,16.42,16.42,0,0,0,6.26,1.94Zm-50.41-34.61a25.9,25.9,0,0,0,9.25,1.69q7.76,0,12-3.58t4.28-11.63a13.7,13.7,0,0,0-1.25-5.92,14.1,14.1,0,0,0-3.43-4.57,15.58,15.58,0,0,0-5-3,16.89,16.89,0,0,0-5.92-1.05c-1.65,0-3.28.07-4.87.2a21.79,21.79,0,0,0-4.67.9c-.14,3.18-.23,6.39-.3,9.64s-.1,6.76-.1,10.54Z"/><path class="cls-2" d="M722.55,660.88a20,20,0,0,0,5.57-1.09,6.12,6.12,0,0,0,3-2.49,10.26,10.26,0,0,0,1.29-4.42c.16-1.83.25-4.13.25-6.92V612.75c0-2.78-.09-5.08-.25-6.91a10.26,10.26,0,0,0-1.29-4.42,6.08,6.08,0,0,0-3.14-2.49,21.46,21.46,0,0,0-5.66-1.09v-1.19q4.17.2,8.1.29t8.1.1q3.29,0,6.57-.1c2.18-.06,4.34-.16,6.46-.29v1.19a19.86,19.86,0,0,0-5.47,1.09,5.81,5.81,0,0,0-3,2.49,10.42,10.42,0,0,0-1.24,4.42q-.25,2.74-.25,6.91V646c0,2.79.08,5.09.25,6.92a10,10,0,0,0,1.29,4.42,6.05,6.05,0,0,0,3.13,2.49,21.73,21.73,0,0,0,5.77,1.09v1.19q-3.78-.2-7.56-.29t-7.56-.1q-3.68,0-7.26.1t-7.16.29Z"/><path class="cls-2" d="M842.67,662.07q-3.78-.2-7.51-.29c-2.48-.07-5-.1-7.5-.1s-4.89,0-7.31.1-4.92.16-7.51.29v-1.19a22.59,22.59,0,0,0,5.82-1.09,6.1,6.1,0,0,0,3.18-2.49,10,10,0,0,0,1.29-4.42c.17-1.83.25-4.13.25-6.92V612.75q0-4.17-.25-6.91a10,10,0,0,0-1.29-4.42,6.09,6.09,0,0,0-3.13-2.49,21.46,21.46,0,0,0-5.67-1.09v-1.19c2.19.13,4.37.23,6.56.29s4.38.1,6.57.1a88.09,88.09,0,0,0,9.39-.49,85.72,85.72,0,0,1,9.4-.5,24.44,24.44,0,0,1,7.7,1.34,26,26,0,0,1,7.41,3.88,21.1,21.1,0,0,1,5.52,6.16,15.84,15.84,0,0,1,2.14,8.21,14.18,14.18,0,0,1-2.19,8.05A17.62,17.62,0,0,1,860,629a24,24,0,0,1-7.4,2.94,37.49,37.49,0,0,1-8,.89,57.44,57.44,0,0,1-6.17-.35,25.93,25.93,0,0,1-6.16-1.44V646c0,2.79.08,5.09.25,6.92a10.13,10.13,0,0,0,1.29,4.42,6.09,6.09,0,0,0,3.13,2.49,21.63,21.63,0,0,0,5.67,1.09Zm-10.34-34.6a16.28,16.28,0,0,0,4.92,1.74,29.27,29.27,0,0,0,5.12.45,18.58,18.58,0,0,0,5.92-.95,15,15,0,0,0,4.92-2.68,12.71,12.71,0,0,0,3.33-4.33,13.34,13.34,0,0,0,1.25-5.86,19.2,19.2,0,0,0-1.25-7.06,15.43,15.43,0,0,0-3.43-5.37,15,15,0,0,0-5.22-3.38,17.78,17.78,0,0,0-6.61-1.2c-1.19,0-2.6.09-4.23.25a16,16,0,0,0-4.72,1.24Z"/><path class="cls-2" d="M1047,596.65q4.17.2,8.15.29t8.15.1q3.89,0,7.81-.1t7.81-.29v1.19a24.13,24.13,0,0,0-2.64.6,12,12,0,0,0-2.68,1.09,6.2,6.2,0,0,0-2,1.79,4.43,4.43,0,0,0-.8,2.68,6.26,6.26,0,0,0,1,2.89,49.66,49.66,0,0,0,3,4.47L1089,630.45l11.73-18.39a14.8,14.8,0,0,0,2.59-7.66,5.45,5.45,0,0,0-2.39-4.62,10,10,0,0,0-5.37-1.94v-1.19q3.48.2,7,.29t7,.1q3.18,0,6.32-.1t6.31-.29v1.19a17.4,17.4,0,0,0-6.36,2.53,29.55,29.55,0,0,0-5,4.18,37.35,37.35,0,0,0-4,4.92c-1.16,1.73-2.24,3.28-3.23,4.68L1090,634v14.62a23.69,23.69,0,0,0,.6,5.92,7.41,7.41,0,0,0,1.94,3.53,8,8,0,0,0,3.63,1.89,36.2,36.2,0,0,0,5.77.89v1.19q-4.49-.2-8.85-.29t-8.85-.1q-3.69,0-7.36.1t-7.36.29v-1.19A34.64,34.64,0,0,0,1075,660a8.11,8.11,0,0,0,3.58-1.89,7.19,7.19,0,0,0,1.89-3.53,26.22,26.22,0,0,0,.54-5.92V633L1063,610q-1.39-1.79-2.89-3.63a28.67,28.67,0,0,0-3.33-3.48,24,24,0,0,0-4.22-3,19.89,19.89,0,0,0-5.57-2Z"/><path class="cls-2" d="M1239.21,619.32a37.85,37.85,0,0,0-3.43-8.26,27.72,27.72,0,0,0-5.07-6.56,21.17,21.17,0,0,0-6.76-4.32,22.8,22.8,0,0,0-8.6-1.55,21.15,21.15,0,0,0-10.44,2.39,20.19,20.19,0,0,0-7,6.46,28.13,28.13,0,0,0-4,9.45,50.08,50.08,0,0,0-1.24,11.34,40.22,40.22,0,0,0,1.59,11.38,28.68,28.68,0,0,0,4.72,9.5,23.08,23.08,0,0,0,7.86,6.51,23.33,23.33,0,0,0,10.89,2.44,27.22,27.22,0,0,0,16-4.68,44.62,44.62,0,0,0,11.88-12.72l2.48,2a86.9,86.9,0,0,1-6.76,9,37.74,37.74,0,0,1-7.36,6.57,31.32,31.32,0,0,1-8.65,4.07,36.81,36.81,0,0,1-10.54,1.39,32,32,0,0,1-12.63-2.53,32.38,32.38,0,0,1-10.44-7.06,33.79,33.79,0,0,1-7.11-10.84,37.89,37.89,0,0,1,0-27.74,33.79,33.79,0,0,1,7.11-10.84,32.38,32.38,0,0,1,10.44-7.06,32,32,0,0,1,12.63-2.54,49,49,0,0,1,6.86.45q3.18.45,6.12,1t5.67,1a38.9,38.9,0,0,0,5.42.6c0,1.39,0,3,.14,4.87s.25,3.76.45,5.72.4,3.88.6,5.76.4,3.53.6,4.93Z"/><path class="cls-2" d="M1357.94,612.75c0-2.78-.09-5.08-.25-6.91a10.26,10.26,0,0,0-1.29-4.42,6.09,6.09,0,0,0-3.13-2.49,21.63,21.63,0,0,0-5.67-1.09v-1.19q4.17.2,8.1.29t8.1.1q3.29,0,6.57-.1c2.18-.06,4.34-.16,6.46-.29v1.19a19.86,19.86,0,0,0-5.47,1.09,5.85,5.85,0,0,0-3,2.49,10.42,10.42,0,0,0-1.24,4.42q-.26,2.74-.25,6.91V646c0,2.79.08,5.09.25,6.92a10,10,0,0,0,1.29,4.42,6.05,6.05,0,0,0,3.13,2.49,21.81,21.81,0,0,0,5.77,1.09v1.19q-3.78-.2-7.56-.29t-7.56-.1q-3.68,0-7.25.1t-7.17.29v-1.19a20,20,0,0,0,5.57-1.09,6.12,6.12,0,0,0,3-2.49,10.26,10.26,0,0,0,1.29-4.42c.16-1.83.25-4.13.25-6.92V628.07h-36.89V646c0,2.79.08,5.09.25,6.92a10,10,0,0,0,1.29,4.42,6.09,6.09,0,0,0,3.13,2.49,21.81,21.81,0,0,0,5.77,1.09v1.19q-3.78-.2-7.56-.29t-7.55-.1q-3.69,0-7.26.1t-7.16.29v-1.19a20.2,20.2,0,0,0,5.57-1.09,6.14,6.14,0,0,0,3-2.49,10.26,10.26,0,0,0,1.29-4.42c.17-1.83.25-4.13.25-6.92V612.75q0-4.17-.25-6.91a10.26,10.26,0,0,0-1.29-4.42,6.09,6.09,0,0,0-3.13-2.49,21.63,21.63,0,0,0-5.67-1.09v-1.19q4.17.2,8.1.29t8.1.1q3.29,0,6.57-.1c2.18-.06,4.34-.16,6.46-.29v1.19a19.86,19.86,0,0,0-5.47,1.09,5.85,5.85,0,0,0-3,2.49,10.57,10.57,0,0,0-1.24,4.42q-.25,2.74-.25,6.91v12.13h36.89Z"/><path class="cls-2" d="M1483.12,615.54a37.34,37.34,0,0,0-3.33-6.32,28.12,28.12,0,0,0-4.72-5.56,22.82,22.82,0,0,0-6-3.93,17,17,0,0,0-7.16-1.49,18.5,18.5,0,0,0-9.3,2.08c-2.42,1.4-3.63,3.88-3.63,7.46a9.4,9.4,0,0,0,1.64,5.52,15.82,15.82,0,0,0,4.38,4.13,41,41,0,0,0,6.21,3.28l7.11,3q3.63,1.54,7.11,3.33a28.74,28.74,0,0,1,6.21,4.28,19.56,19.56,0,0,1,4.38,5.77,17.4,17.4,0,0,1,1.64,7.85,18.39,18.39,0,0,1-1.79,8.4,16.42,16.42,0,0,1-4.82,5.82,20.55,20.55,0,0,1-7.06,3.38,32.74,32.74,0,0,1-8.6,1.09,30.16,30.16,0,0,1-5.17-.46q-2.7-.47-5.17-1l-4.53-1a16.1,16.1,0,0,0-3.23-.46,6.32,6.32,0,0,0-2.09.35l-2.09.75q-.89-5.65-2.09-11t-2.48-11l1.29-.7a71.41,71.41,0,0,0,4.33,7.23,44.12,44.12,0,0,0,5.71,6.88,31.36,31.36,0,0,0,7,5.19,17.11,17.11,0,0,0,8.31,2.08,23.64,23.64,0,0,0,5.56-.64,14.07,14.07,0,0,0,4.73-2,9.9,9.9,0,0,0,3.23-3.62,11.54,11.54,0,0,0,1.19-5.51,11.09,11.09,0,0,0-2.88-7.8,27.8,27.8,0,0,0-7.16-5.46,83.62,83.62,0,0,0-9.3-4.31,70.8,70.8,0,0,1-9.29-4.47,27.47,27.47,0,0,1-7.16-5.86,12.66,12.66,0,0,1-2.89-8.54,16.37,16.37,0,0,1,5.52-12.46,17.81,17.81,0,0,1,5.87-3.42,20.81,20.81,0,0,1,7.11-1.2,40,40,0,0,1,6.61.5c2,.33,3.86.7,5.72,1.1s3.81.78,5.67,1.14a31.2,31.2,0,0,0,6,.55q0,4.47.15,8.7c.1,2.81.32,5.65.65,8.5Z"/><path class="cls-3" d="M986,555.26a35.21,35.21,0,0,0-9.83,1.93,10.74,10.74,0,0,0-5.35,4.38,17.8,17.8,0,0,0-2.28,7.81q-.43,4.83-.44,12.19V663a142.12,142.12,0,0,0,15.53-.7,22.81,22.81,0,0,0,18.77-12.45,87.76,87.76,0,0,0,6.76-16.32l2.28.7L1009,668.6q-7.37-.36-14.56-.53t-14.56-.17H938.64q-7,0-13.86.17t-13.87.53l-2.45-34.39,2.28-.7a87.83,87.83,0,0,0,6.75,16.32,24.93,24.93,0,0,0,8,8.86,25.32,25.32,0,0,0,11,3.59,149.17,149.17,0,0,0,15.88.7V581.57q0-7.37-.44-12.19a17.8,17.8,0,0,0-2.28-7.81,10.69,10.69,0,0,0-5.53-4.38,38,38,0,0,0-10.17-1.93v-2.11q6.66.36,13.33.53t13.34.17c4.33,0,8.59-.06,12.81-.17s8.42-.29,12.63-.53Z"/><path class="cls-4" d="M77.43,549.87l813.09-1.1a2.45,2.45,0,0,1,2.63,2.2h0a2.44,2.44,0,0,1-2.63,2.2l-813.09-1.1c-1.46,0-2.64.12-2.64-1.1h0C74.79,549.76,76,549.87,77.43,549.87Z"/><path class="cls-5" d="M845.17,472.28a24.37,24.37,0,0,0,7.43-1.67,21.5,21.5,0,0,0,5.78-3.5,35.19,35.19,0,0,0,4.8-5q2.25-2.83,4.65-6.17l26.72-36.7-22.36-33.69q-5.72-9-11.41-13.34a30.15,30.15,0,0,0-13.06-5.67v-2q5.4.33,10.88.5c3.66.11,7.28.17,10.89.17q5.7,0,11.48-.17t11.48-.5v2a15.27,15.27,0,0,0-6.53,2.33,6.77,6.77,0,0,0-3.22,6.18,10.49,10.49,0,0,0,1.42,4.58q1.43,2.76,4.28,7.09l15,22.85,13.81-20.85a62.44,62.44,0,0,0,4.58-8.09,17.31,17.31,0,0,0,1.72-7.25,5,5,0,0,0-1-3.17A8.8,8.8,0,0,0,920,368a10.44,10.44,0,0,0-3.08-1.17,14.84,14.84,0,0,0-2.85-.33v-2q4.2.33,8.33.5t8.33.17q4.8,0,9.68-.17t9.68-.5v2a29.61,29.61,0,0,0-9.6,3.34,33.09,33.09,0,0,0-7.36,5.75,61.46,61.46,0,0,0-6.15,7.5q-2.85,4.1-6,8.59l-15.16,21.35,24.62,36.69q2,3,4.73,6.76a61.27,61.27,0,0,0,6.23,7.17,37.76,37.76,0,0,0,7.58,5.84,20,20,0,0,0,8.78,2.75v2q-6.75-.33-13.29-.5t-13.28-.16q-6,0-11.86.16t-11.86.5v-2l4.81-1a18.12,18.12,0,0,0,4.42-1.5,8.32,8.32,0,0,0,3.31-2.92,9.74,9.74,0,0,0,1.27-5.42q0-1.33-2.17-5.25t-5.48-8.93l-16.51-24.68-15.92,23.68a74.41,74.41,0,0,0-5.62,9.43c-1.46,2.94-2.18,5.08-2.18,6.42a8,8,0,0,0,1.58,5.25,10.19,10.19,0,0,0,3.9,2.92,18.09,18.09,0,0,0,5,1.33c1.75.23,3.38.45,4.88.67v2q-6.75-.33-13.51-.5t-13.51-.16q-4.2,0-8.26.16t-8.25.5Z"/><path class="cls-5" d="M967.5,472.28a27.49,27.49,0,0,0,8.41-1.83,9.53,9.53,0,0,0,4.58-4.17,18.42,18.42,0,0,0,2-7.43c.25-3.05.38-6.92.38-11.59v-55.7q0-7-.38-11.59a18.47,18.47,0,0,0-2-7.43,9.49,9.49,0,0,0-4.73-4.17,29.68,29.68,0,0,0-8.55-1.83v-2q6.3.33,12.23.5t12.23.17q5,0,9.91-.17t9.76-.5v2a27.4,27.4,0,0,0-8.26,1.83,9.19,9.19,0,0,0-4.5,4.17A19.38,19.38,0,0,0,996.7,380q-.37,4.59-.37,11.59v55.7c0,4.67.12,8.54.37,11.59a18.42,18.42,0,0,0,1.95,7.43,9.44,9.44,0,0,0,4.73,4.17,29.75,29.75,0,0,0,8.71,1.83v2q-5.72-.33-11.41-.5t-11.41-.16q-5.55,0-11,.16t-10.81.5Z"/><path class="cls-5" d="M1030.25,472.28a27.63,27.63,0,0,0,8.41-1.83,9.51,9.51,0,0,0,4.57-4.17,18.42,18.42,0,0,0,2-7.43c.25-3.05.38-6.92.38-11.59v-55.7q0-7-.38-11.59a18.47,18.47,0,0,0-2-7.43,9.45,9.45,0,0,0-4.73-4.17,29.68,29.68,0,0,0-8.55-1.83v-2q6.3.33,12.23.5t12.24.17q4.95,0,9.9-.17t9.76-.5v2a27.54,27.54,0,0,0-8.26,1.83,9.19,9.19,0,0,0-4.5,4.17,19.38,19.38,0,0,0-1.88,7.43q-.37,4.59-.37,11.59v55.7c0,4.67.12,8.54.37,11.59a18.25,18.25,0,0,0,2,7.43,9.42,9.42,0,0,0,4.72,4.17,29.9,29.9,0,0,0,8.71,1.83v2c-3.8-.22-7.61-.39-11.41-.5s-7.6-.16-11.41-.16-7.35.05-11,.16-7.21.28-10.81.5Z"/><path class="cls-6" d="M845.17,472.28a24.37,24.37,0,0,0,7.43-1.67,21.5,21.5,0,0,0,5.78-3.5,35.19,35.19,0,0,0,4.8-5q2.25-2.83,4.65-6.17l26.72-36.7-22.36-33.69q-5.72-9-11.41-13.34a30.15,30.15,0,0,0-13.06-5.67v-2q5.4.33,10.88.5c3.66.11,7.28.17,10.89.17q5.7,0,11.48-.17t11.48-.5v2a15.27,15.27,0,0,0-6.53,2.33,6.77,6.77,0,0,0-3.22,6.18,10.49,10.49,0,0,0,1.42,4.58q1.43,2.76,4.28,7.09l15,22.85,13.81-20.85a62.44,62.44,0,0,0,4.58-8.09,17.31,17.31,0,0,0,1.72-7.25,5,5,0,0,0-1-3.17A8.8,8.8,0,0,0,920,368a10.44,10.44,0,0,0-3.08-1.17,14.84,14.84,0,0,0-2.85-.33v-2q4.2.33,8.33.5t8.33.17q4.8,0,9.68-.17t9.68-.5v2a29.61,29.61,0,0,0-9.6,3.34,33.09,33.09,0,0,0-7.36,5.75,61.46,61.46,0,0,0-6.15,7.5q-2.85,4.1-6,8.59l-15.16,21.35,24.62,36.69q2,3,4.73,6.76a61.27,61.27,0,0,0,6.23,7.17,37.76,37.76,0,0,0,7.58,5.84,20,20,0,0,0,8.78,2.75v2q-6.75-.33-13.29-.5t-13.28-.16q-6,0-11.86.16t-11.86.5v-2l4.81-1a18.12,18.12,0,0,0,4.42-1.5,8.32,8.32,0,0,0,3.31-2.92,9.74,9.74,0,0,0,1.27-5.42q0-1.33-2.17-5.25t-5.48-8.93l-16.51-24.68-15.92,23.68a74.41,74.41,0,0,0-5.62,9.43c-1.46,2.94-2.18,5.08-2.18,6.42a8,8,0,0,0,1.58,5.25,10.19,10.19,0,0,0,3.9,2.92,18.09,18.09,0,0,0,5,1.33c1.75.23,3.38.45,4.88.67v2q-6.75-.33-13.51-.5t-13.51-.16q-4.2,0-8.26.16t-8.25.5Z"/><path class="cls-6" d="M967.5,472.28a27.49,27.49,0,0,0,8.41-1.83,9.53,9.53,0,0,0,4.58-4.17,18.42,18.42,0,0,0,2-7.43c.25-3.05.38-6.92.38-11.59v-55.7q0-7-.38-11.59a18.47,18.47,0,0,0-2-7.43,9.49,9.49,0,0,0-4.73-4.17,29.68,29.68,0,0,0-8.55-1.83v-2q6.3.33,12.23.5t12.23.17q5,0,9.91-.17t9.76-.5v2a27.4,27.4,0,0,0-8.26,1.83,9.19,9.19,0,0,0-4.5,4.17A19.38,19.38,0,0,0,996.7,380q-.37,4.59-.37,11.59v55.7c0,4.67.12,8.54.37,11.59a18.42,18.42,0,0,0,1.95,7.43,9.44,9.44,0,0,0,4.73,4.17,29.75,29.75,0,0,0,8.71,1.83v2q-5.72-.33-11.41-.5t-11.41-.16q-5.55,0-11,.16t-10.81.5Z"/><path class="cls-6" d="M1030.25,472.28a27.63,27.63,0,0,0,8.41-1.83,9.51,9.51,0,0,0,4.57-4.17,18.42,18.42,0,0,0,2-7.43c.25-3.05.38-6.92.38-11.59v-55.7q0-7-.38-11.59a18.47,18.47,0,0,0-2-7.43,9.45,9.45,0,0,0-4.73-4.17,29.68,29.68,0,0,0-8.55-1.83v-2q6.3.33,12.23.5t12.24.17q4.95,0,9.9-.17t9.76-.5v2a27.54,27.54,0,0,0-8.26,1.83,9.19,9.19,0,0,0-4.5,4.17,19.38,19.38,0,0,0-1.88,7.43q-.37,4.59-.37,11.59v55.7c0,4.67.12,8.54.37,11.59a18.25,18.25,0,0,0,2,7.43,9.42,9.42,0,0,0,4.72,4.17,29.9,29.9,0,0,0,8.71,1.83v2c-3.8-.22-7.61-.39-11.41-.5s-7.6-.16-11.41-.16-7.35.05-11,.16-7.21.28-10.81.5Z"/></g></svg>