<svg xmlns="http://www.w3.org/2000/svg" xmlns:xlink="http://www.w3.org/1999/xlink" viewBox="74.3690185546875 361.7999572753906 1772.191162109375 308.2000427246094"><defs><style>.cls-1{fill:url(#New_Gradient_Swatch_4);}.cls-2{fill:url(#linear-gradient);}.cls-3{fill:url(#New_Gradient_Swatch_3);}.cls-4{fill:url(#New_Gradient_Swatch_4-2);}.cls-5{fill:#e933f6;}.cls-6{fill:url(#New_Gradient_Swatch_3-2);}</style><linearGradient id="New_Gradient_Swatch_4" x1="1027.8" y1="555.59" x2="1846.16" y2="555.59" gradientUnits="userSpaceOnUse"><stop offset="0" stop-color="#999"/><stop offset="1" stop-color="#333"/></linearGradient><linearGradient id="linear-gradient" x1="982.5" y1="599.43" x2="982.5" y2="668.04" gradientUnits="userSpaceOnUse"><stop offset="0" stop-color="#b8b9bb"/><stop offset="0.42" stop-color="#adaeaf"/><stop offset="0.76" stop-color="#636465"/><stop offset="1" stop-color="#676869"/></linearGradient><linearGradient id="New_Gradient_Swatch_3" x1="-3917.9" y1="5626.6" x2="-3917.9" y2="5511.15" gradientTransform="translate(-2958.81 6184.12) rotate(180)" gradientUnits="userSpaceOnUse"><stop offset="0" stop-color="#c3a964"/><stop offset="1" stop-color="#50411a"/></linearGradient><linearGradient id="New_Gradient_Swatch_4-2" x1="-2581.27" y1="4177.4" x2="-1762.91" y2="4177.4" gradientTransform="translate(-1688.99 4732.75) rotate(180)" xlink:href="#New_Gradient_Swatch_4"/><linearGradient id="New_Gradient_Swatch_3-2" x1="960" y1="364.66" x2="960" y2="475.4" gradientTransform="matrix(1, 0, 0, 1, 0, 0)" xlink:href="#New_Gradient_Swatch_3"/></defs><g id="Layer_2" data-name="Layer 2"><path class="cls-1" d="M1843.53,556.69l-813.1,1.1a2.45,2.45,0,0,1-2.63-2.2h0a2.44,2.44,0,0,1,2.63-2.2l813.1,1.1c1.45,0,2.63-.12,2.63,1.1h0C1846.16,556.8,1845,556.69,1843.53,556.69Z"/><path class="cls-2" d="M492.59,665.25a20.12,20.12,0,0,0,5.57-1.09,6.1,6.1,0,0,0,3-2.49,10,10,0,0,0,1.29-4.42c.17-1.82.25-4.13.25-6.91V604.2a79.66,79.66,0,0,0-8.8.4,13,13,0,0,0-10.64,7.06,49.75,49.75,0,0,0-3.83,9.24l-1.29-.39L479.56,601q4.19.19,8.26.3c2.72.06,5.47.1,8.25.1h23.37c2.65,0,5.27,0,7.85-.1s5.21-.17,7.86-.3l1.39,19.49-1.29.39a49.75,49.75,0,0,0-3.83-9.24,14,14,0,0,0-4.52-5,14.26,14.26,0,0,0-6.22-2,83.51,83.51,0,0,0-9-.4v46.14c0,2.78.08,5.09.25,6.91a10.22,10.22,0,0,0,1.29,4.42,6.08,6.08,0,0,0,3.14,2.49,21.73,21.73,0,0,0,5.76,1.09v1.2q-3.78-.21-7.55-.3t-7.56-.1q-3.67,0-7.26.1c-2.39.06-4.77.16-7.16.3Z"/><path class="cls-2" d="M667.69,666.05H649.8A175.23,175.23,0,0,1,638.21,652a114.66,114.66,0,0,1-9.49-15.27,20.81,20.81,0,0,1-2.54-.19l-3.18-.45c-1.09-.17-2.16-.36-3.18-.6s-1.88-.45-2.54-.64v15.51c0,2.78.08,5.09.25,6.91a10.09,10.09,0,0,0,1.29,4.42,6.09,6.09,0,0,0,3.13,2.49,21.9,21.9,0,0,0,5.77,1.09v1.2q-3.78-.21-7.55-.3c-2.53-.07-5-.1-7.56-.1s-4.87,0-7.26.1-4.77.16-7.16.3v-1.2a20.12,20.12,0,0,0,5.57-1.09,6.14,6.14,0,0,0,3-2.49,10,10,0,0,0,1.29-4.42c.17-1.82.25-4.13.25-6.91V617.13q0-4.18-.25-6.91a10,10,0,0,0-1.29-4.43,6.19,6.19,0,0,0-3-2.49,20.5,20.5,0,0,0-5.57-1.09V601q3.18.19,6.36.3c2.12.06,4.24.1,6.37.1.92,0,2.09,0,3.48-.15s2.86-.22,4.42-.35,3.13-.25,4.73-.35,3-.15,4.27-.15a37.23,37.23,0,0,1,8.75,1.09,25.31,25.31,0,0,1,8.06,3.49,19.71,19.71,0,0,1,5.86,6.06,16.19,16.19,0,0,1,2.29,8.75,14.68,14.68,0,0,1-1.24,6.17,15.3,15.3,0,0,1-3.33,4.67,17.75,17.75,0,0,1-4.93,3.28,26.45,26.45,0,0,1-5.91,1.89c.92,1.59,2,3.38,3.28,5.37s2.67,4,4.22,6.06,3.22,4.1,5,6.12a48.55,48.55,0,0,0,5.56,5.47,36.73,36.73,0,0,0,6,4.08,16.4,16.4,0,0,0,6.26,1.93Zm-50.41-34.61a25.9,25.9,0,0,0,9.25,1.69q7.76,0,12-3.57t4.28-11.64a13.7,13.7,0,0,0-1.25-5.92,14.1,14.1,0,0,0-3.43-4.57,15.58,15.58,0,0,0-5-3,16.89,16.89,0,0,0-5.92-1.05c-1.65,0-3.28.07-4.87.2a23.09,23.09,0,0,0-4.67.9c-.14,3.18-.23,6.4-.3,9.64s-.1,6.76-.1,10.54Z"/><path class="cls-2" d="M721.69,665.25a20,20,0,0,0,5.56-1.09,6.12,6.12,0,0,0,3-2.49,10.22,10.22,0,0,0,1.29-4.42c.16-1.82.25-4.13.25-6.91V617.13c0-2.79-.09-5.09-.25-6.91a10.27,10.27,0,0,0-1.29-4.43,6.13,6.13,0,0,0-3.14-2.49,21.87,21.87,0,0,0-5.66-1.09V601q4.17.19,8.1.3c2.62.06,5.32.1,8.11.1,2.18,0,4.37,0,6.56-.1s4.34-.17,6.46-.3v1.19a20.23,20.23,0,0,0-5.47,1.09,5.86,5.86,0,0,0-3,2.49,10.57,10.57,0,0,0-1.24,4.43q-.25,2.73-.25,6.91v33.21c0,2.78.08,5.09.25,6.91a10,10,0,0,0,1.29,4.42,6.05,6.05,0,0,0,3.13,2.49,21.73,21.73,0,0,0,5.77,1.09v1.2q-3.78-.21-7.56-.3t-7.56-.1q-3.68,0-7.26.1c-2.38.06-4.77.16-7.15.3Z"/><path class="cls-2" d="M841.8,666.45q-3.78-.21-7.51-.3t-7.5-.1c-2.46,0-4.89,0-7.31.1s-4.92.16-7.51.3v-1.2a22.59,22.59,0,0,0,5.82-1.09,6.1,6.1,0,0,0,3.18-2.49,10,10,0,0,0,1.29-4.42c.17-1.82.25-4.13.25-6.91V617.13q0-4.18-.25-6.91a10,10,0,0,0-1.29-4.43,6.14,6.14,0,0,0-3.13-2.49,21.87,21.87,0,0,0-5.67-1.09V601c2.19.13,4.37.23,6.56.3s4.38.1,6.57.1a88.08,88.08,0,0,0,9.39-.5,88.27,88.27,0,0,1,9.4-.5,24.44,24.44,0,0,1,7.7,1.34,26,26,0,0,1,7.41,3.88,20.88,20.88,0,0,1,5.52,6.17,15.8,15.8,0,0,1,2.14,8.2,14.16,14.16,0,0,1-2.19,8,17.52,17.52,0,0,1-5.52,5.32,24,24,0,0,1-7.4,2.94,37.49,37.49,0,0,1-8,.89,55,55,0,0,1-6.17-.35,25.93,25.93,0,0,1-6.16-1.44v14.92c0,2.78.08,5.09.25,6.91a10.09,10.09,0,0,0,1.29,4.42,6.09,6.09,0,0,0,3.13,2.49,21.63,21.63,0,0,0,5.67,1.09Zm-10.34-34.61a16,16,0,0,0,4.92,1.74,29.27,29.27,0,0,0,5.12.45,18.31,18.31,0,0,0,5.92-.95,14.79,14.79,0,0,0,4.92-2.68,12.77,12.77,0,0,0,3.33-4.32,13.38,13.38,0,0,0,1.25-5.87,19.2,19.2,0,0,0-1.25-7.06,15.43,15.43,0,0,0-3.43-5.37A15,15,0,0,0,847,604.4a17.78,17.78,0,0,0-6.61-1.19q-1.78,0-4.23.24a16,16,0,0,0-4.72,1.25Z"/><path class="cls-2" d="M1046.14,601q4.17.19,8.15.3c2.65.06,5.37.1,8.16.1,2.58,0,5.18,0,7.8-.1s5.22-.17,7.81-.3v1.19a24.13,24.13,0,0,0-2.64.6,12,12,0,0,0-2.68,1.09,6.32,6.32,0,0,0-2,1.79,4.47,4.47,0,0,0-.8,2.69,6.19,6.19,0,0,0,1,2.88,49.66,49.66,0,0,0,3,4.47l14.12,19.1,11.73-18.4a14.77,14.77,0,0,0,2.59-7.66,5.45,5.45,0,0,0-2.39-4.62,10,10,0,0,0-5.37-1.94V601q3.48.19,7,.3c2.35.06,4.69.1,7,.1,2.12,0,4.23,0,6.32-.1s4.19-.17,6.31-.3v1.19a17.41,17.41,0,0,0-6.36,2.54,29,29,0,0,0-5,4.17,36.64,36.64,0,0,0-4,4.92q-1.74,2.6-3.23,4.68l-13.63,19.89V653a23.58,23.58,0,0,0,.6,5.92,7.41,7.41,0,0,0,1.94,3.53,8,8,0,0,0,3.63,1.89,36.39,36.39,0,0,0,5.77.89v1.2q-4.48-.21-8.85-.3t-8.85-.1q-3.69,0-7.36.1c-2.45.06-4.91.16-7.36.3v-1.2a34.64,34.64,0,0,0,5.52-.89,8.11,8.11,0,0,0,3.58-1.89,7.19,7.19,0,0,0,1.89-3.53,26.09,26.09,0,0,0,.54-5.92V637.41l-18-23.07q-1.39-1.79-2.89-3.63a30.21,30.21,0,0,0-3.33-3.48,23.66,23.66,0,0,0-4.22-3,20.08,20.08,0,0,0-5.57-2Z"/><path class="cls-2" d="M1238.34,623.69a38,38,0,0,0-3.43-8.25,27.78,27.78,0,0,0-5.07-6.57,21.35,21.35,0,0,0-6.76-4.32,22.8,22.8,0,0,0-8.6-1.54,21.15,21.15,0,0,0-10.44,2.38,20.13,20.13,0,0,0-7,6.47,28.28,28.28,0,0,0-4,9.44,50.08,50.08,0,0,0-1.24,11.34A40.17,40.17,0,0,0,1193.4,644a28.59,28.59,0,0,0,4.72,9.5A23.08,23.08,0,0,0,1206,660a23.33,23.33,0,0,0,10.89,2.44,27.22,27.22,0,0,0,16-4.68,44.49,44.49,0,0,0,11.88-12.72l2.48,2a86.72,86.72,0,0,1-6.76,8.94,37.74,37.74,0,0,1-7.36,6.57,31,31,0,0,1-8.65,4.07,36.8,36.8,0,0,1-10.54,1.4,32,32,0,0,1-12.63-2.54,32.38,32.38,0,0,1-10.44-7.06,33.49,33.49,0,0,1-7.1-10.84,37.76,37.76,0,0,1,0-27.74,33.6,33.6,0,0,1,7.1-10.84,32.54,32.54,0,0,1,10.44-7.06,32,32,0,0,1,12.63-2.53,50.72,50.72,0,0,1,6.86.44c2.13.3,4.16.62,6.12,1s3.84.66,5.67,1a37.44,37.44,0,0,0,5.42.6c0,1.39,0,3,.15,4.87s.24,3.76.44,5.72.4,3.88.6,5.77.4,3.53.6,4.92Z"/><path class="cls-2" d="M1357.07,617.13c0-2.79-.09-5.09-.25-6.91a10.27,10.27,0,0,0-1.29-4.43,6.14,6.14,0,0,0-3.13-2.49,22,22,0,0,0-5.67-1.09V601q4.17.19,8.1.3c2.62.06,5.32.1,8.11.1,2.18,0,4.37,0,6.56-.1s4.34-.17,6.46-.3v1.19a20.23,20.23,0,0,0-5.47,1.09,5.9,5.9,0,0,0-3,2.49,10.57,10.57,0,0,0-1.24,4.43q-.26,2.73-.25,6.91v33.21c0,2.78.08,5.09.25,6.91a10,10,0,0,0,1.29,4.42,6.05,6.05,0,0,0,3.13,2.49,21.73,21.73,0,0,0,5.77,1.09v1.2q-3.78-.21-7.56-.3t-7.56-.1q-3.67,0-7.25.1t-7.16.3v-1.2a20,20,0,0,0,5.56-1.09,6.12,6.12,0,0,0,3-2.49,10.22,10.22,0,0,0,1.29-4.42c.16-1.82.25-4.13.25-6.91v-17.9h-36.89v17.9c0,2.78.08,5.09.25,6.91a10,10,0,0,0,1.29,4.42,6.09,6.09,0,0,0,3.13,2.49,21.81,21.81,0,0,0,5.77,1.09v1.2q-3.78-.21-7.56-.3t-7.56-.1q-3.68,0-7.25.1t-7.16.3v-1.2a20.2,20.2,0,0,0,5.57-1.09,6.14,6.14,0,0,0,3-2.49,10.22,10.22,0,0,0,1.29-4.42c.17-1.82.25-4.13.25-6.91V617.13q0-4.18-.25-6.91a10.27,10.27,0,0,0-1.29-4.43,6.14,6.14,0,0,0-3.13-2.49,22,22,0,0,0-5.67-1.09V601q4.17.19,8.1.3c2.62.06,5.32.1,8.11.1,2.18,0,4.37,0,6.56-.1s4.34-.17,6.46-.3v1.19a20.23,20.23,0,0,0-5.47,1.09,5.9,5.9,0,0,0-3,2.49,10.57,10.57,0,0,0-1.24,4.43q-.26,2.73-.25,6.91v12.13h36.89Z"/><path class="cls-2" d="M1482.26,619.91a37.68,37.68,0,0,0-3.34-6.31,27.9,27.9,0,0,0-4.72-5.57,22.82,22.82,0,0,0-6-3.93,17.19,17.19,0,0,0-7.16-1.49,18.4,18.4,0,0,0-9.3,2.09q-3.63,2.09-3.63,7.45a9.35,9.35,0,0,0,1.64,5.52,15.68,15.68,0,0,0,4.38,4.13,40.09,40.09,0,0,0,6.21,3.28q3.48,1.5,7.11,3t7.11,3.33a28.74,28.74,0,0,1,6.21,4.28,19.4,19.4,0,0,1,4.38,5.77,17.4,17.4,0,0,1,1.64,7.85,18.47,18.47,0,0,1-1.79,8.41,16.47,16.47,0,0,1-4.82,5.81,20.55,20.55,0,0,1-7.06,3.38,32.73,32.73,0,0,1-8.6,1.1,30.29,30.29,0,0,1-5.17-.47c-1.79-.31-3.52-.65-5.17-1l-4.53-1a15.54,15.54,0,0,0-3.23-.47,6.32,6.32,0,0,0-2.09.35l-2.09.75q-.88-5.65-2.08-11t-2.49-11l1.29-.69a73.22,73.22,0,0,0,4.33,7.22,44.12,44.12,0,0,0,5.71,6.88,31.72,31.72,0,0,0,7,5.2,17.24,17.24,0,0,0,8.31,2.07,23.78,23.78,0,0,0,5.57-.64,14.3,14.3,0,0,0,4.72-2,10.1,10.1,0,0,0,3.23-3.63,11.51,11.51,0,0,0,1.19-5.51,11.05,11.05,0,0,0-2.88-7.79,27.36,27.36,0,0,0-7.16-5.46,81.86,81.86,0,0,0-9.3-4.32,69.55,69.55,0,0,1-9.29-4.47,27.27,27.27,0,0,1-7.16-5.86,12.64,12.64,0,0,1-2.89-8.54,16.37,16.37,0,0,1,5.52-12.46,18,18,0,0,1,5.87-3.42,20.81,20.81,0,0,1,7.11-1.19,40,40,0,0,1,6.61.49c2,.34,3.86.7,5.72,1.1s3.81.78,5.67,1.14a30.41,30.41,0,0,0,6,.55q0,4.47.15,8.7t.65,8.5Z"/><path class="cls-3" d="M985.14,559.63a35.21,35.21,0,0,0-9.83,1.93,10.74,10.74,0,0,0-5.35,4.38,17.8,17.8,0,0,0-2.28,7.81q-.43,4.83-.44,12.2v81.41a141.8,141.8,0,0,0,15.53-.71,22.81,22.81,0,0,0,18.77-12.45,87.76,87.76,0,0,0,6.76-16.32l2.28.7L1008.12,673q-7.36-.36-14.56-.53T979,672.27H937.77q-7,0-13.86.17T910,673l-2.45-34.39,2.28-.7a87.83,87.83,0,0,0,6.75,16.32,24.93,24.93,0,0,0,8,8.86,25.19,25.19,0,0,0,11,3.59,148.84,148.84,0,0,0,15.88.71V586q0-7.38-.44-12.2a17.8,17.8,0,0,0-2.28-7.81,10.71,10.71,0,0,0-5.52-4.38A38.14,38.14,0,0,0,933,559.63v-2.11q6.68.36,13.33.53t13.34.17c4.33,0,8.59-.05,12.81-.17s8.42-.29,12.63-.53Z"/><path class="cls-4" d="M76.56,554.25l813.09-1.1a2.44,2.44,0,0,1,2.63,2.2h0a2.45,2.45,0,0,1-2.63,2.2l-813.09-1.1c-1.46,0-2.64.11-2.64-1.1h0C73.92,554.13,75.1,554.25,76.56,554.25Z"/><path class="cls-5" d="M878.19,364.66c3.5.22,7,.39,10.36.5s6.85.17,10.36.17q6.3,0,12.31-.17t12-.5v2c-1.4.22-2.9.5-4.5.83a18,18,0,0,0-4.5,1.59,9.69,9.69,0,0,0-3.45,2.92,8.2,8.2,0,0,0-1.35,5q0,3,4.35,15l23.56,63.38,19.52-51.2q7.5-20.19,7.5-27.52a9,9,0,0,0-1.05-4.51,8.06,8.06,0,0,0-2.85-2.92,15.54,15.54,0,0,0-4-1.66,38.5,38.5,0,0,0-4.42-.92v-2c3.4.22,6.77.39,10.13.5s6.68.17,10,.17q4.2,0,8.26-.17t8.1-.5v2a16.18,16.18,0,0,0-8.85,3.84,29.24,29.24,0,0,0-6.16,7.67,63.76,63.76,0,0,0-4.43,9.67q-1.87,5.18-3.67,9.67L934.18,475.4h-3.3l-35-91.39a41.18,41.18,0,0,0-6.68-11.93,15.68,15.68,0,0,0-11-5.42Z"/><path class="cls-5" d="M997.23,472.4a27.48,27.48,0,0,0,8.4-1.83,9.53,9.53,0,0,0,4.58-4.17,18.42,18.42,0,0,0,1.95-7.42q.38-4.59.38-11.6v-55.7q0-7-.38-11.59a18.47,18.47,0,0,0-1.95-7.43,9.49,9.49,0,0,0-4.73-4.17,29.68,29.68,0,0,0-8.55-1.83v-2q6.3.33,12.23.5t12.23.17q5,0,9.91-.17t9.76-.5v2a27.4,27.4,0,0,0-8.26,1.83,9.19,9.19,0,0,0-4.5,4.17,19.38,19.38,0,0,0-1.88,7.43q-.37,4.59-.37,11.59v55.7q0,7,.37,11.6a18.42,18.42,0,0,0,1.95,7.42,9.44,9.44,0,0,0,4.73,4.17,29.75,29.75,0,0,0,8.71,1.83v2q-5.71-.33-11.41-.5t-11.41-.16q-5.55,0-11,.16t-10.8.5Z"/><path class="cls-6" d="M878.19,364.66c3.5.22,7,.39,10.36.5s6.85.17,10.36.17q6.3,0,12.31-.17t12-.5v2c-1.4.22-2.9.5-4.5.83a18,18,0,0,0-4.5,1.59,9.69,9.69,0,0,0-3.45,2.92,8.2,8.2,0,0,0-1.35,5q0,3,4.35,15l23.56,63.38,19.52-51.2q7.5-20.19,7.5-27.52a9,9,0,0,0-1.05-4.51,8.06,8.06,0,0,0-2.85-2.92,15.54,15.54,0,0,0-4-1.66,38.5,38.5,0,0,0-4.42-.92v-2c3.4.22,6.77.39,10.13.5s6.68.17,10,.17q4.2,0,8.26-.17t8.1-.5v2a16.18,16.18,0,0,0-8.85,3.84,29.24,29.24,0,0,0-6.16,7.67,63.76,63.76,0,0,0-4.43,9.67q-1.87,5.18-3.67,9.67L934.18,475.4h-3.3l-35-91.39a41.18,41.18,0,0,0-6.68-11.93,15.68,15.68,0,0,0-11-5.42Z"/><path class="cls-6" d="M997.23,472.4a27.48,27.48,0,0,0,8.4-1.83,9.53,9.53,0,0,0,4.58-4.17,18.42,18.42,0,0,0,1.95-7.42q.38-4.59.38-11.6v-55.7q0-7-.38-11.59a18.47,18.47,0,0,0-1.95-7.43,9.49,9.49,0,0,0-4.73-4.17,29.68,29.68,0,0,0-8.55-1.83v-2q6.3.33,12.23.5t12.23.17q5,0,9.91-.17t9.76-.5v2a27.4,27.4,0,0,0-8.26,1.83,9.19,9.19,0,0,0-4.5,4.17,19.38,19.38,0,0,0-1.88,7.43q-.37,4.59-.37,11.59v55.7q0,7,.37,11.6a18.42,18.42,0,0,0,1.95,7.42,9.44,9.44,0,0,0,4.73,4.17,29.75,29.75,0,0,0,8.71,1.83v2q-5.71-.33-11.41-.5t-11.41-.16q-5.55,0-11,.16t-10.8.5Z"/></g></svg>