<svg xmlns="http://www.w3.org/2000/svg" xmlns:xlink="http://www.w3.org/1999/xlink" viewBox="244.5 414.5 1431 303.1600341796875">
  <defs/>
  <defs>
    <linearGradient id="FINAL" x1="960" x2="960" y1="519.07" y2="452.71" gradientUnits="userSpaceOnUse">
      <stop offset="0" stop-color="#999"/>
      <stop offset="1" stop-color="#333"/>
    </linearGradient>
    <linearGradient id="New_Gradient_Swatch_6" x1="953.85" x2="953.85" y1="414.28" y2="518.61" gradientUnits="userSpaceOnUse">
      <stop offset="0" stop-color="#c7a758"/>
      <stop offset="1" stop-color="#534011"/>
    </linearGradient>
    <linearGradient id="New_Gradient_Swatch_6-2" x1="957.81" x2="957.81" y1="614.09" y2="717.55" xlink:href="#New_Gradient_Swatch_6"/>
    <linearGradient id="New_Gradient_Swatch_5" x1="1013" x2="1676" y1="565.64" y2="565.64" xlink:href="#FINAL"/>
    <linearGradient id="linear-gradient" x1="244" x2="889" y1="566.15" y2="566.15" gradientUnits="userSpaceOnUse">
      <stop offset="0" stop-color="#333"/>
      <stop offset="1" stop-color="#999"/>
    </linearGradient>
    <style>
      .cls-1{fill:url(#FINAL)}.cls-3{fill:url(#New_Gradient_Swatch_6-2)}
    </style>
  </defs>
  <g id="Layer_2" data-name="Layer 2">
    <path d="M365.78 485.89a33 33 0 012.84-13.95 31.25 31.25 0 017.65-10.43 32.91 32.91 0 0111.3-6.54 43.26 43.26 0 0127.6 0 33 33 0 0111.3 6.54 31.39 31.39 0 017.65 10.43 35.77 35.77 0 010 27.89 31.33 31.33 0 01-7.65 10.44 33.33 33.33 0 01-11.3 6.54 43.26 43.26 0 01-27.6 0 33.24 33.24 0 01-11.3-6.54 31.19 31.19 0 01-7.65-10.44 32.94 32.94 0 01-2.84-13.94zm10.2 0a36.35 36.35 0 001.73 11.25 29.26 29.26 0 005 9.47 24.59 24.59 0 008 6.54 24.39 24.39 0 0021.35 0 24.63 24.63 0 008-6.54 29.45 29.45 0 005-9.47 37.48 37.48 0 000-22.51 29.56 29.56 0 00-5-9.47 24.88 24.88 0 00-8-6.54 24.48 24.48 0 00-21.35 0 24.85 24.85 0 00-8 6.54 29.36 29.36 0 00-5 9.47 36.46 36.46 0 00-1.71 11.26zM497.25 469.83c0-2.7-.08-4.92-.24-6.69a9.71 9.71 0 00-1.25-4.28 5.88 5.88 0 00-2.93-2.4 19 19 0 00-5.39-1.06v-1.15c2 .12 3.95.22 5.87.28s3.88.1 5.87.1c2.56 0 5.13-.13 7.69-.38a82.26 82.26 0 018.27-.39 44.53 44.53 0 018.51.87 27.6 27.6 0 018.23 2.93 18.86 18.86 0 016.25 5.53 14.45 14.45 0 012.5 8.66 12.45 12.45 0 01-2.74 7.83 14.12 14.12 0 01-6.78 4.86v.19a21.91 21.91 0 0110.34 6.49q3.69 4.38 3.7 11.59a13.16 13.16 0 01-1.92 7.36 14.44 14.44 0 01-5.1 4.71 22.78 22.78 0 01-7.21 2.5 46.28 46.28 0 01-8.28.73c-4.42 0-8.76-.17-13-.48s-8.61-.49-13-.49c-1.47 0-3 0-4.47.1s-3 .16-4.47.29v-1.16a19.25 19.25 0 005.29-1 5.7 5.7 0 002.88-2.41 10.24 10.24 0 001.2-4.28q.24-2.64.24-6.68zm8.66 12.11a18.39 18.39 0 005.29 1.83 31.11 31.11 0 005.48.48 15.46 15.46 0 0010.24-3.41Q531 477.42 531 471a12.66 12.66 0 00-1.34-5.87 14.75 14.75 0 00-3.56-4.47 15.81 15.81 0 00-5.15-2.88 18.47 18.47 0 00-6.11-1c-1.53 0-3 .06-4.52.19a18.43 18.43 0 00-4.42 1zm0 30a3.34 3.34 0 001.78 1.35 21.59 21.59 0 003.27 1 35.28 35.28 0 004 .67 35.92 35.92 0 004 .24q7.78 0 12.17-4.09t4.37-11.87a12.73 12.73 0 00-2.59-7.75 25.11 25.11 0 00-6-5.82c-1.54.26-3.08.5-4.61.73a33.3 33.3 0 01-4.72.33 54.25 54.25 0 01-6-.33 23.73 23.73 0 01-5.77-1.4zM641.61 472.52a35.6 35.6 0 00-3.22-6.11 27.28 27.28 0 00-4.57-5.38 22.11 22.11 0 00-5.77-3.8 16.53 16.53 0 00-6.92-1.45 18 18 0 00-9 2c-2.34 1.35-3.51 3.75-3.51 7.22a9.06 9.06 0 001.59 5.34 15.61 15.61 0 004.23 4 39.41 39.41 0 006 3.17l6.87 2.93q3.51 1.5 6.88 3.22a28.09 28.09 0 016 4.14 18.91 18.91 0 014.23 5.58A16.79 16.79 0 01646 501a17.78 17.78 0 01-1.73 8.12 16 16 0 01-4.67 5.63 19.77 19.77 0 01-6.83 3.27 31.81 31.81 0 01-8.32 1.06 29.29 29.29 0 01-5-.45c-1.73-.3-3.4-.63-5-1l-4.37-1a15 15 0 00-3.13-.45 6.16 6.16 0 00-2 .34l-2 .72q-.87-5.46-2-10.68t-2.4-10.67l1.25-.67a71.44 71.44 0 004.18 7 43.29 43.29 0 005.53 6.65 30.24 30.24 0 006.78 5 16.58 16.58 0 008 2 22.79 22.79 0 005.39-.62 13.79 13.79 0 004.57-2 9.67 9.67 0 003.12-3.5 11.2 11.2 0 001.16-5.33 10.69 10.69 0 00-2.79-7.54 26.53 26.53 0 00-6.93-5.28 79.76 79.76 0 00-9-4.18 66.29 66.29 0 01-9-4.32 26.4 26.4 0 01-6.93-5.67 12.26 12.26 0 01-2.79-8.26 15.72 15.72 0 011.45-6.81 15.91 15.91 0 013.89-5.24 17.45 17.45 0 015.67-3.31 20.24 20.24 0 016.88-1.15 38.63 38.63 0 016.4.48q2.83.48 5.53 1.06c1.86.38 3.68.75 5.48 1.1a30.1 30.1 0 005.77.53c0 2.89 0 5.69.14 8.42s.31 5.46.63 8.22zM717 513.39c.58.13 1.28.26 2.12.39s1.73.25 2.69.38 2 .24 3 .34 2 .14 2.89.14a50.53 50.53 0 0010.34-1 29.29 29.29 0 008.36-3.08 34 34 0 007.17-5.38 67.63 67.63 0 006.83-7.89l1.06.87-8.76 19.33c-1.09-.13-2.21-.23-3.36-.29s-2.28-.1-3.37-.1H709.8c-1.86 0-3.72 0-5.58.1s-3.72.16-5.58.29v-1.16a19.44 19.44 0 005.39-1 5.77 5.77 0 002.89-2.41 10.39 10.39 0 001.2-4.28q.24-2.64.24-6.68v-32.13c0-2.7-.08-4.92-.24-6.69a10.44 10.44 0 00-1.2-4.28 5.66 5.66 0 00-3-2.4 20.24 20.24 0 00-5.48-1.06v-1.15q3.27.09 6.2.19t6.06.14c2.09 0 4.3.05 6.64.05h7.94q6.72 0 13.46-.1t13.66-.28c-.07.7-.12 1.41-.15 2.11s0 1.38 0 2v3.85c0 1.41.07 2.84.2 4.28s.25 3 .38 4.76l-1.25.38a23.92 23.92 0 00-3.32-7.55 15.84 15.84 0 00-4.81-4.56 17.66 17.66 0 00-6-2.22 40.31 40.31 0 00-6.92-.57q-6.74 0-13.47.57v24.05c1.28 0 2.52 0 3.71-.1s2.42-.1 3.7-.1q6.63 0 10.53-2.64t4.76-9.67h1.16c0 2.31 0 4.62-.1 6.93s-.1 4.58-.1 6.83 0 4.61.1 6.92.1 4.62.1 6.93h-1.16a28.7 28.7 0 00-2.12-6.59 10.17 10.17 0 00-3.12-3.9 11.24 11.24 0 00-4.67-1.82 39.58 39.58 0 00-6.63-.49H717zM875.32 517.14H858a169.66 169.66 0 01-11.21-13.6 109.89 109.89 0 01-9.18-14.77 19.55 19.55 0 01-2.46-.19c-1-.13-2-.27-3.07-.43s-2.09-.35-3.08-.58-1.81-.43-2.45-.63v15q0 4 .24 6.68a9.8 9.8 0 001.25 4.28 5.9 5.9 0 003 2.41 21 21 0 005.58 1v1.16q-3.66-.19-7.31-.29c-2.44-.06-4.88-.1-7.31-.1s-4.72 0-7 .1-4.62.16-6.93.29v-1.16a19.52 19.52 0 005.39-1 6 6 0 002.93-2.41 9.8 9.8 0 001.25-4.28q.24-2.64.24-6.68v-32.11c0-2.7-.08-4.92-.24-6.69a9.84 9.84 0 00-1.25-4.28 5.88 5.88 0 00-2.93-2.4 19.1 19.1 0 00-5.39-1.06v-1.15a210.79 210.79 0 0012.31.38c.9 0 2-.05 3.37-.14s2.77-.21 4.28-.34 3-.24 4.57-.34 2.91-.14 4.13-.14a35.26 35.26 0 018.46 1.06 24.05 24.05 0 017.79 3.36 19.17 19.17 0 015.68 5.87 15.73 15.73 0 012.21 8.46 14.11 14.11 0 01-1.2 6 14.9 14.9 0 01-3.22 4.52 17.28 17.28 0 01-4.76 3.17 25.87 25.87 0 01-5.73 1.83q1.35 2.31 3.18 5.19t4.09 5.87q2.25 3 4.8 5.91a46.28 46.28 0 005.39 5.29 33.91 33.91 0 005.82 3.94 16 16 0 006.06 1.88zm-48.76-33.47a24.84 24.84 0 008.94 1.64q7.5 0 11.64-3.46t4.13-11.25a13.3 13.3 0 00-1.2-5.73 13.58 13.58 0 00-3.32-4.42 15.32 15.32 0 00-4.85-2.89 16.54 16.54 0 00-5.73-1c-1.6 0-3.17.07-4.71.2a21.74 21.74 0 00-4.52.86c-.13 3.08-.22 6.19-.29 9.33s-.09 6.54-.09 10.2zM1052.86 489.35l-6.35 17.41c-.19.51-.37 1-.53 1.34a3.27 3.27 0 00-.24 1.25 4.64 4.64 0 001 3 8.43 8.43 0 002.45 2.06 15 15 0 003 1.3 20.92 20.92 0 002.6.67v1.16c-1.92-.13-3.85-.23-5.77-.29s-3.88-.1-5.87-.1-3.8 0-5.62.1-3.77.16-5.82.29v-1.16a13.58 13.58 0 005-2.06A13.77 13.77 0 001040 511a24.58 24.58 0 002.36-4.23q1-2.31 2-4.81l16.64-40.88c.19-.44.36-.86.52-1.25a2.75 2.75 0 00.25-1.05 5.09 5.09 0 00-.34-1.45 9.22 9.22 0 00-.82-1.73 21.34 21.34 0 004.33-1.25c1.22-.51 2.56-1.06 4-1.63l20 55a14.27 14.27 0 003.75 5.91q2.41 2.18 7.12 2.74v1.16c-2.57-.13-5.08-.23-7.55-.29s-5-.1-7.74-.1H1080c-1.29 0-2.44 0-3.46.05s-2 .08-2.94.15l-3 .19v-1.16a17.64 17.64 0 006.78-2.06 4.8 4.8 0 002.74-4.28 3.85 3.85 0 00-.33-1.54 10.73 10.73 0 01-.53-1.44l-6.25-17.7zm10.38-27.35l-9.42 24.42h18.08zM1159.61 516.37a19.52 19.52 0 005.39-1 6 6 0 002.93-2.41 9.8 9.8 0 001.25-4.28q.24-2.64.24-6.68v-44.68a77.1 77.1 0 00-8.51.39 12.53 12.53 0 00-10.29 6.83 47.6 47.6 0 00-3.7 8.94l-1.25-.38 1.34-18.85c2.7.12 5.36.22 8 .28s5.29.1 8 .1h22.6c2.56 0 5.1 0 7.6-.1s5-.16 7.59-.28l1.35 18.85-1.25.38a48.28 48.28 0 00-3.7-8.94 13.58 13.58 0 00-4.38-4.86 13.78 13.78 0 00-6-2 80.9 80.9 0 00-8.7-.39V502q0 4 .24 6.68a9.67 9.67 0 001.25 4.28 5.9 5.9 0 003 2.41 21 21 0 005.58 1v1.16q-3.66-.19-7.31-.29c-2.44-.06-4.88-.1-7.31-.1s-4.72 0-7 .1-4.62.16-6.93.29zM1253.57 485.89a33 33 0 012.84-13.95 31.25 31.25 0 017.65-10.43 32.91 32.91 0 0111.3-6.54 43.26 43.26 0 0127.6 0 33 33 0 0111.3 6.54 31.39 31.39 0 017.65 10.43 35.77 35.77 0 010 27.89 31.33 31.33 0 01-7.65 10.44 33.33 33.33 0 01-11.3 6.54 43.26 43.26 0 01-27.6 0 33.24 33.24 0 01-11.3-6.54 31.19 31.19 0 01-7.65-10.44 32.94 32.94 0 01-2.84-13.94zm10.2 0a36.65 36.65 0 001.73 11.25 29.26 29.26 0 005 9.47 24.59 24.59 0 008 6.54 24.39 24.39 0 0021.35 0 24.63 24.63 0 008-6.54 29.45 29.45 0 005-9.47 37.48 37.48 0 000-22.51 29.56 29.56 0 00-5-9.47 24.88 24.88 0 00-8-6.54 24.48 24.48 0 00-21.35 0 24.85 24.85 0 00-8 6.54 29.36 29.36 0 00-5 9.47 36.76 36.76 0 00-1.73 11.26zM1440.35 517.14H1423a171.68 171.68 0 01-11.2-13.6 111 111 0 01-9.19-14.77 19.55 19.55 0 01-2.45-.19c-1-.13-2-.27-3.07-.43s-2.09-.35-3.08-.58-1.82-.43-2.46-.63v15q0 4 .25 6.68a9.54 9.54 0 001.25 4.28 5.92 5.92 0 003 2.41 21.13 21.13 0 005.58 1v1.16q-3.65-.19-7.31-.29c-2.43-.06-4.87-.1-7.31-.1s-4.71 0-7 .1-4.61.16-6.92.29v-1.16a19.35 19.35 0 005.38-1 6 6 0 002.94-2.41 9.8 9.8 0 001.25-4.28q.24-2.64.24-6.68v-32.11c0-2.7-.08-4.92-.24-6.69a9.84 9.84 0 00-1.25-4.28 5.9 5.9 0 00-2.94-2.4 19 19 0 00-5.38-1.06v-1.15a210.903 210.903 0 0012.31.38c.9 0 2-.05 3.37-.14s2.77-.21 4.28-.34 3-.24 4.56-.34 2.92-.14 4.14-.14a35.26 35.26 0 018.46 1.06 24.15 24.15 0 017.79 3.36 19.17 19.17 0 015.68 5.87 15.73 15.73 0 012.21 8.46 14.11 14.11 0 01-1.2 6 14.9 14.9 0 01-3.22 4.52 17.19 17.19 0 01-4.77 3.17 25.62 25.62 0 01-5.72 1.83q1.35 2.31 3.18 5.19c1.21 1.92 2.58 3.88 4.08 5.87s3.11 4 4.81 5.91a46.28 46.28 0 005.39 5.29 33.91 33.91 0 005.82 3.94 15.85 15.85 0 006.06 1.88zm-48.77-33.47a24.93 24.93 0 009 1.64q7.5 0 11.64-3.46t4.13-11.25a13.3 13.3 0 00-1.2-5.73 13.58 13.58 0 00-3.32-4.42 15.26 15.26 0 00-4.86-2.89 16.44 16.44 0 00-5.72-1c-1.6 0-3.17.07-4.71.2a21.61 21.61 0 00-4.52.86q-.2 4.62-.29 9.33c-.06 3.14-.1 6.54-.1 10.2zM1481.51 454.25c2.69.12 5.32.22 7.88.28s5.2.1 7.89.1q3.75 0 7.55-.1c2.53-.06 5.05-.16 7.55-.28v1.15a24.92 24.92 0 00-2.55.58 11.62 11.62 0 00-2.59 1 6.06 6.06 0 00-2 1.74 4.3 4.3 0 00-.77 2.59 6 6 0 001 2.79 48.86 48.86 0 002.94 4.33l13.65 18.46 11.35-17.79a14.29 14.29 0 002.5-7.4 5.26 5.26 0 00-2.31-4.47 9.64 9.64 0 00-5.19-1.88v-1.15a257.37 257.37 0 0013.56.38q3.07 0 6.11-.1c2-.06 4.05-.16 6.11-.28v1.15a17.05 17.05 0 00-6.16 2.45 28.82 28.82 0 00-4.85 4 35.66 35.66 0 00-3.85 4.76c-1.12 1.67-2.17 3.18-3.13 4.52l-13.17 19.24v14.14a23.25 23.25 0 00.57 5.72 7.18 7.18 0 001.88 3.41 7.72 7.72 0 003.51 1.83 34.38 34.38 0 005.58.86v1.16q-4.33-.19-8.56-.29c-2.83-.06-5.68-.1-8.56-.1-2.38 0-4.75 0-7.12.1s-4.74.16-7.12.29v-1.16a32.77 32.77 0 005.34-.86 7.73 7.73 0 003.46-1.83 6.81 6.81 0 001.83-3.41 25.13 25.13 0 00.53-5.72v-15.1L1497 467.13c-.9-1.15-1.82-2.32-2.79-3.51a28.24 28.24 0 00-3.22-3.36 23.46 23.46 0 00-4.09-2.89 19.47 19.47 0 00-5.38-2z" class="cls-1"/>
    <path fill="url(#New_Gradient_Swatch_6)" d="M1011.59 518.61q-5.51-.32-10.84-.48c-3.56-.1-7.18-.15-10.84-.15q-6.6 0-12.89.15t-12.57.48v-1.89c1.47-.21 3-.47 4.72-.78a20.25 20.25 0 004.71-1.5 10 10 0 003.61-2.75 7.18 7.18 0 001.42-4.71q0-2.84-4.56-14.14l-24.67-59.7-20.42 48.23q-7.86 19-7.85 25.92a7.81 7.81 0 001.09 4.25 8.09 8.09 0 003 2.75 17.48 17.48 0 004.16 1.57c1.52.36 3.07.65 4.64.86v1.89q-5.34-.32-10.61-.48t-10.45-.13q-4.41 0-8.65.15t-8.48.48v-1.89a17.84 17.84 0 009.27-3.61 28.51 28.51 0 006.44-7.23 57.7 57.7 0 004.64-9.11q2-4.87 3.84-9.11l32.7-73.4h3.46l36.61 86.1a37.43 37.43 0 007 11.23q4.17 4.49 11.55 5.11z"/>
    <path d="M904.27 715.67a31.84 31.84 0 008.81-1.73 9.7 9.7 0 004.79-3.93 16 16 0 002-7q.39-4.32.39-10.93v-52.51q0-6.62-.39-10.93a16 16 0 00-2-7 9.63 9.63 0 00-5-3.93 34 34 0 00-9-1.73v-1.89c4.4.22 8.67.37 12.81.48s8.41.15 12.82.15q5.19 0 10.37-.15c3.46-.11 6.87-.26 10.23-.48V616a31.24 31.24 0 00-8.65 1.73 9.27 9.27 0 00-4.72 3.93 16.88 16.88 0 00-2 7q-.39 4.32-.39 10.93v52.51q0 6.61.39 10.93a16.13 16.13 0 002 7 9.63 9.63 0 005 3.93 34.47 34.47 0 009.12 1.73v1.88q-6-.31-12-.47t-11.95-.15c-3.88 0-7.7.05-11.48.15s-7.54.26-11.32.47zM965 715.67a31.84 31.84 0 008.81-1.73 9.72 9.72 0 004.8-3.93 16 16 0 002-7q.39-4.32.39-10.93v-52.51q0-6.62-.39-10.93a16 16 0 00-2-7 9.7 9.7 0 00-5-3.93 34 34 0 00-9-1.73v-1.89c4.4.22 8.67.37 12.81.48s8.42.15 12.82.15q5.19 0 10.38-.15c3.46-.11 6.86-.26 10.22-.48V616a31.32 31.32 0 00-8.65 1.73 9.27 9.27 0 00-4.72 3.93 16.73 16.73 0 00-2 7q-.4 4.32-.4 10.93v52.51q0 6.61.4 10.93a16 16 0 002 7 9.63 9.63 0 004.95 3.93 34.47 34.47 0 009.12 1.73v1.88q-6-.31-11.95-.47t-12-.15q-5.82 0-11.47.15c-3.78.11-7.55.26-11.33.47z" class="cls-3"/>
    <path fill="url(#New_Gradient_Swatch_5)" d="M1673.87 566.67l-658.74 1a2.09 2.09 0 01-2.13-2.06 2.09 2.09 0 012.13-2.06l658.74 1c1.18 0 2.13-.11 2.13 1 0 1.23-.95 1.12-2.13 1.12z"/>
    <path fill="url(#linear-gradient)" d="M246.07 565.1l640.86-1.05a2.09 2.09 0 012.07 2.1 2.1 2.1 0 01-2.07 2.11l-640.86-1.06c-1.14 0-2.07.11-2.07-1.05 0-1.15.93-1.05 2.07-1.05z"/>
  </g>
</svg>
